<svg xmlns="http://www.w3.org/2000/svg" width="1280" height="720" viewBox="0 0 1280 720">
<defs>
<linearGradient id="bg3" x1="0" y1="0" x2="1" y2="1"><stop offset="0" stop-color="#2a1e44"/><stop offset="1" stop-color="#123040"/></linearGradient>
<radialGradient id="gl3" cx="0.5" cy="0.5" r="0.72"><stop offset="0" stop-color="#23c7a9" stop-opacity="0.26"/><stop offset="1" stop-color="#23c7a9" stop-opacity="0"/></radialGradient>
<radialGradient id="vig3" cx="0.5" cy="0.5" r="0.75"><stop offset="0.55" stop-color="#000" stop-opacity="0"/><stop offset="1" stop-color="#000" stop-opacity="0.5"/></radialGradient>

</defs>
<rect width="1280" height="720" fill="url(#bg3)"/>
<rect width="1280" height="720" fill="url(#gl3)"/>
<polyline points="-40.0,-112.9 -28.0,-112.0 -16.0,-111.2 -4.0,-110.3 8.0,-109.4 20.0,-108.5 32.0,-107.7 44.0,-106.8 56.0,-106.0 68.0,-105.2 80.0,-104.4 92.0,-103.7 104.0,-103.0 116.0,-102.4 128.0,-101.8 140.0,-101.3 152.0,-100.8 164.0,-100.4 176.0,-100.1 188.0,-99.9 200.0,-99.7 212.0,-99.7 224.0,-99.7 236.0,-99.8 248.0,-100.1 260.0,-100.4 272.0,-100.8 284.0,-101.3 296.0,-102.0 308.0,-102.7 320.0,-103.6 332.0,-104.6 344.0,-105.6 356.0,-106.9 368.0,-108.2 380.0,-109.6 392.0,-111.2 404.0,-112.8 416.0,-114.6 428.0,-116.5 440.0,-118.6 452.0,-120.7 464.0,-122.9 476.0,-125.3 488.0,-127.7 500.0,-130.3 512.0,-133.0 524.0,-135.7 536.0,-138.6 548.0,-141.5 560.0,-144.5 572.0,-147.7 584.0,-150.8 596.0,-154.1 608.0,-157.4 620.0,-160.8 632.0,-164.3 644.0,-167.8 656.0,-171.4 668.0,-175.0 680.0,-178.6 692.0,-182.3 704.0,-186.0 716.0,-189.8 728.0,-193.5 740.0,-197.3 752.0,-201.0 764.0,-204.8 776.0,-208.5 788.0,-212.3 800.0,-216.0 812.0,-219.7 824.0,-223.3 836.0,-226.9 848.0,-230.5 860.0,-234.0 872.0,-237.5 884.0,-240.9 896.0,-244.3 908.0,-247.6 920.0,-250.8 932.0,-254.0 944.0,-257.0 956.0,-260.0 968.0,-262.9 980.0,-265.7 992.0,-268.4 1004.0,-270.9 1016.0,-273.4 1028.0,-275.8 1040.0,-278.1 1052.0,-280.3 1064.0,-282.3 1076.0,-284.3 1088.0,-286.1 1100.0,-287.8 1112.0,-289.4 1124.0,-290.9 1136.0,-292.2 1148.0,-293.5 1160.0,-294.6 1172.0,-295.6 1184.0,-296.5 1196.0,-297.3 1208.0,-298.0 1220.0,-298.6 1232.0,-299.0 1244.0,-299.4 1256.0,-299.6 1268.0,-299.8 1280.0,-299.8 1292.0,-299.8 1304.0,-299.7 1316.0,-299.5" fill="none" stroke="#ff8038" stroke-width="1.9" opacity="0.26" stroke-linecap="round" /><polyline points="-40.0,-61.3 -28.0,-60.5 -16.0,-59.8 -4.0,-59.1 8.0,-58.4 20.0,-57.8 32.0,-57.2 44.0,-56.7 56.0,-56.3 68.0,-55.9 80.0,-55.6 92.0,-55.4 104.0,-55.3 116.0,-55.3 128.0,-55.3 140.0,-55.5 152.0,-55.7 164.0,-56.1 176.0,-56.5 188.0,-57.1 200.0,-57.8 212.0,-58.6 224.0,-59.5 236.0,-60.5 248.0,-61.6 260.0,-62.9 272.0,-64.2 284.0,-65.7 296.0,-67.3 308.0,-69.0 320.0,-70.8 332.0,-72.8 344.0,-74.8 356.0,-77.0 368.0,-79.3 380.0,-81.7 392.0,-84.2 404.0,-86.8 416.0,-89.4 428.0,-92.2 440.0,-95.1 452.0,-98.1 464.0,-101.2 476.0,-104.3 488.0,-107.5 500.0,-110.8 512.0,-114.2 524.0,-117.6 536.0,-121.1 548.0,-124.6 560.0,-128.2 572.0,-131.8 584.0,-135.5 596.0,-139.1 608.0,-142.9 620.0,-146.6 632.0,-150.3 644.0,-154.1 656.0,-157.9 668.0,-161.6 680.0,-165.4 692.0,-169.1 704.0,-172.8 716.0,-176.5 728.0,-180.1 740.0,-183.7 752.0,-187.3 764.0,-190.8 776.0,-194.3 788.0,-197.7 800.0,-201.0 812.0,-204.3 824.0,-207.5 836.0,-210.6 848.0,-213.6 860.0,-216.5 872.0,-219.4 884.0,-222.2 896.0,-224.8 908.0,-227.4 920.0,-229.8 932.0,-232.2 944.0,-234.4 956.0,-236.6 968.0,-238.6 980.0,-240.5 992.0,-242.3 1004.0,-243.9 1016.0,-245.5 1028.0,-246.9 1040.0,-248.3 1052.0,-249.5 1064.0,-250.6 1076.0,-251.5 1088.0,-252.4 1100.0,-253.1 1112.0,-253.8 1124.0,-254.3 1136.0,-254.7 1148.0,-255.1 1160.0,-255.3 1172.0,-255.4 1184.0,-255.4 1196.0,-255.4 1208.0,-255.2 1220.0,-255.0 1232.0,-254.7 1244.0,-254.3 1256.0,-253.8 1268.0,-253.3 1280.0,-252.7 1292.0,-252.1 1304.0,-251.4 1316.0,-250.7" fill="none" stroke="#ff8038" stroke-width="1.9" opacity="0.26" stroke-linecap="round" /><polyline points="-40.0,-11.7 -28.0,-11.4 -16.0,-11.1 -4.0,-11.0 8.0,-10.9 20.0,-10.9 32.0,-11.0 44.0,-11.1 56.0,-11.4 68.0,-11.8 80.0,-12.3 92.0,-12.9 104.0,-13.6 116.0,-14.5 128.0,-15.4 140.0,-16.4 152.0,-17.6 164.0,-18.9 176.0,-20.3 188.0,-21.8 200.0,-23.4 212.0,-25.2 224.0,-27.1 236.0,-29.0 248.0,-31.1 260.0,-33.3 272.0,-35.7 284.0,-38.1 296.0,-40.6 308.0,-43.2 320.0,-46.0 332.0,-48.8 344.0,-51.7 356.0,-54.7 368.0,-57.8 380.0,-60.9 392.0,-64.2 404.0,-67.5 416.0,-70.9 428.0,-74.3 440.0,-77.8 452.0,-81.4 464.0,-85.0 476.0,-88.6 488.0,-92.3 500.0,-96.0 512.0,-99.7 524.0,-103.4 536.0,-107.2 548.0,-110.9 560.0,-114.7 572.0,-118.4 584.0,-122.2 596.0,-125.9 608.0,-129.6 620.0,-133.3 632.0,-136.9 644.0,-140.5 656.0,-144.1 668.0,-147.5 680.0,-151.0 692.0,-154.4 704.0,-157.7 716.0,-160.9 728.0,-164.1 740.0,-167.2 752.0,-170.2 764.0,-173.1 776.0,-175.9 788.0,-178.6 800.0,-181.3 812.0,-183.8 824.0,-186.2 836.0,-188.5 848.0,-190.7 860.0,-192.8 872.0,-194.8 884.0,-196.7 896.0,-198.4 908.0,-200.1 920.0,-201.6 932.0,-203.0 944.0,-204.3 956.0,-205.4 968.0,-206.5 980.0,-207.4 992.0,-208.2 1004.0,-209.0 1016.0,-209.6 1028.0,-210.0 1040.0,-210.4 1052.0,-210.7 1064.0,-210.9 1076.0,-211.0 1088.0,-211.0 1100.0,-210.9 1112.0,-210.7 1124.0,-210.5 1136.0,-210.1 1148.0,-209.7 1160.0,-209.2 1172.0,-208.7 1184.0,-208.1 1196.0,-207.4 1208.0,-206.7 1220.0,-206.0 1232.0,-205.2 1244.0,-204.4 1256.0,-203.6 1268.0,-202.7 1280.0,-201.9 1292.0,-201.0 1304.0,-200.1 1316.0,-199.2" fill="none" stroke="#ff8038" stroke-width="1.9" opacity="0.26" stroke-linecap="round" /><polyline points="-40.0,32.9 -28.0,32.4 -16.0,31.9 -4.0,31.3 8.0,30.5 20.0,29.7 32.0,28.7 44.0,27.6 56.0,26.4 68.0,25.1 80.0,23.6 92.0,22.1 104.0,20.4 116.0,18.6 128.0,16.7 140.0,14.7 152.0,12.6 164.0,10.3 176.0,8.0 188.0,5.5 200.0,2.9 212.0,0.3 224.0,-2.5 236.0,-5.3 248.0,-8.3 260.0,-11.3 272.0,-14.4 284.0,-17.6 296.0,-20.9 308.0,-24.2 320.0,-27.6 332.0,-31.1 344.0,-34.6 356.0,-38.1 368.0,-41.8 380.0,-45.4 392.0,-49.1 404.0,-52.8 416.0,-56.5 428.0,-60.3 440.0,-64.0 452.0,-67.8 464.0,-71.5 476.0,-75.3 488.0,-79.0 500.0,-82.7 512.0,-86.4 524.0,-90.1 536.0,-93.7 548.0,-97.3 560.0,-100.8 572.0,-104.3 584.0,-107.7 596.0,-111.1 608.0,-114.4 620.0,-117.6 632.0,-120.7 644.0,-123.8 656.0,-126.7 668.0,-129.6 680.0,-132.4 692.0,-135.1 704.0,-137.7 716.0,-140.2 728.0,-142.6 740.0,-144.9 752.0,-147.0 764.0,-149.1 776.0,-151.0 788.0,-152.9 800.0,-154.6 812.0,-156.2 824.0,-157.6 836.0,-159.0 848.0,-160.2 860.0,-161.4 872.0,-162.4 884.0,-163.3 896.0,-164.1 908.0,-164.8 920.0,-165.3 932.0,-165.8 944.0,-166.1 956.0,-166.4 968.0,-166.5 980.0,-166.6 992.0,-166.6 1004.0,-166.4 1016.0,-166.2 1028.0,-165.9 1040.0,-165.6 1052.0,-165.2 1064.0,-164.7 1076.0,-164.1 1088.0,-163.5 1100.0,-162.8 1112.0,-162.1 1124.0,-161.3 1136.0,-160.5 1148.0,-159.7 1160.0,-158.9 1172.0,-158.0 1184.0,-157.2 1196.0,-156.3 1208.0,-155.4 1220.0,-154.5 1232.0,-153.7 1244.0,-152.8 1256.0,-152.0 1268.0,-151.2 1280.0,-150.5 1292.0,-149.7 1304.0,-149.1 1316.0,-148.5" fill="none" stroke="#ff8038" stroke-width="1.9" opacity="0.26" stroke-linecap="round" /><polyline points="-40.0,70.4 -28.0,69.0 -16.0,67.5 -4.0,65.9 8.0,64.2 20.0,62.4 32.0,60.5 44.0,58.4 56.0,56.2 68.0,54.0 80.0,51.6 92.0,49.1 104.0,46.5 116.0,43.8 128.0,41.0 140.0,38.1 152.0,35.1 164.0,32.1 176.0,28.9 188.0,25.7 200.0,22.4 212.0,19.1 224.0,15.7 236.0,12.2 248.0,8.7 260.0,5.1 272.0,1.4 284.0,-2.2 296.0,-5.9 308.0,-9.6 320.0,-13.3 332.0,-17.1 344.0,-20.9 356.0,-24.6 368.0,-28.4 380.0,-32.1 392.0,-35.8 404.0,-39.5 416.0,-43.2 428.0,-46.9 440.0,-50.5 452.0,-54.0 464.0,-57.6 476.0,-61.0 488.0,-64.4 500.0,-67.8 512.0,-71.0 524.0,-74.2 536.0,-77.3 548.0,-80.4 560.0,-83.3 572.0,-86.2 584.0,-88.9 596.0,-91.6 608.0,-94.1 620.0,-96.6 632.0,-98.9 644.0,-101.2 656.0,-103.3 668.0,-105.3 680.0,-107.2 692.0,-109.0 704.0,-110.7 716.0,-112.3 728.0,-113.7 740.0,-115.0 752.0,-116.2 764.0,-117.3 776.0,-118.3 788.0,-119.1 800.0,-119.9 812.0,-120.5 824.0,-121.1 836.0,-121.5 848.0,-121.8 860.0,-122.0 872.0,-122.2 884.0,-122.2 896.0,-122.1 908.0,-122.0 920.0,-121.7 932.0,-121.4 944.0,-121.0 956.0,-120.6 968.0,-120.1 980.0,-119.5 992.0,-118.8 1004.0,-118.2 1016.0,-117.4 1028.0,-116.7 1040.0,-115.9 1052.0,-115.0 1064.0,-114.2 1076.0,-113.3 1088.0,-112.4 1100.0,-111.6 1112.0,-110.7 1124.0,-109.8 1136.0,-109.0 1148.0,-108.1 1160.0,-107.3 1172.0,-106.5 1184.0,-105.8 1196.0,-105.1 1208.0,-104.5 1220.0,-103.9 1232.0,-103.3 1244.0,-102.8 1256.0,-102.4 1268.0,-102.1 1280.0,-101.8 1292.0,-101.7 1304.0,-101.6 1316.0,-101.6" fill="none" stroke="#ff8038" stroke-width="1.9" opacity="0.26" stroke-linecap="round" /><polyline points="-40.0,99.9 -28.0,97.6 -16.0,95.2 -4.0,92.6 8.0,90.0 20.0,87.3 32.0,84.5 44.0,81.6 56.0,78.6 68.0,75.5 80.0,72.3 92.0,69.1 104.0,65.7 116.0,62.4 128.0,58.9 140.0,55.4 152.0,51.9 164.0,48.3 176.0,44.6 188.0,41.0 200.0,37.3 212.0,33.6 224.0,29.8 236.0,26.1 248.0,22.3 260.0,18.6 272.0,14.8 284.0,11.1 296.0,7.3 308.0,3.6 320.0,-0.0 332.0,-3.7 344.0,-7.3 356.0,-10.8 368.0,-14.3 380.0,-17.7 392.0,-21.1 404.0,-24.4 416.0,-27.7 428.0,-30.8 440.0,-33.9 452.0,-36.9 464.0,-39.8 476.0,-42.7 488.0,-45.4 500.0,-48.0 512.0,-50.5 524.0,-53.0 536.0,-55.3 548.0,-57.5 560.0,-59.6 572.0,-61.6 584.0,-63.4 596.0,-65.2 608.0,-66.8 620.0,-68.3 632.0,-69.7 644.0,-71.0 656.0,-72.2 668.0,-73.2 680.0,-74.2 692.0,-75.0 704.0,-75.7 716.0,-76.3 728.0,-76.8 740.0,-77.2 752.0,-77.5 764.0,-77.7 776.0,-77.8 788.0,-77.8 800.0,-77.7 812.0,-77.5 824.0,-77.2 836.0,-76.9 848.0,-76.5 860.0,-76.0 872.0,-75.5 884.0,-74.9 896.0,-74.2 908.0,-73.5 920.0,-72.8 932.0,-72.0 944.0,-71.2 956.0,-70.3 968.0,-69.5 980.0,-68.6 992.0,-67.7 1004.0,-66.9 1016.0,-66.0 1028.0,-65.1 1040.0,-64.3 1052.0,-63.5 1064.0,-62.7 1076.0,-61.9 1088.0,-61.2 1100.0,-60.5 1112.0,-59.8 1124.0,-59.3 1136.0,-58.7 1148.0,-58.3 1160.0,-57.9 1172.0,-57.6 1184.0,-57.3 1196.0,-57.2 1208.0,-57.1 1220.0,-57.2 1232.0,-57.3 1244.0,-57.5 1256.0,-57.8 1268.0,-58.2 1280.0,-58.8 1292.0,-59.4 1304.0,-60.2 1316.0,-61.0" fill="none" stroke="#ff8038" stroke-width="1.9" opacity="0.26" stroke-linecap="round" /><polyline points="-40.0,121.9 -28.0,118.8 -16.0,115.6 -4.0,112.4 8.0,109.0 20.0,105.6 32.0,102.2 44.0,98.7 56.0,95.1 68.0,91.5 80.0,87.8 92.0,84.2 104.0,80.5 116.0,76.7 128.0,73.0 140.0,69.2 152.0,65.5 164.0,61.7 176.0,58.0 188.0,54.2 200.0,50.5 212.0,46.8 224.0,43.2 236.0,39.5 248.0,36.0 260.0,32.4 272.0,29.0 284.0,25.5 296.0,22.2 308.0,18.9 320.0,15.7 332.0,12.5 344.0,9.5 356.0,6.5 368.0,3.6 380.0,0.8 392.0,-1.9 404.0,-4.5 416.0,-7.0 428.0,-9.3 440.0,-11.6 452.0,-13.8 464.0,-15.8 476.0,-17.8 488.0,-19.6 500.0,-21.3 512.0,-22.9 524.0,-24.4 536.0,-25.8 548.0,-27.0 560.0,-28.1 572.0,-29.1 584.0,-30.0 596.0,-30.8 608.0,-31.5 620.0,-32.1 632.0,-32.5 644.0,-32.9 656.0,-33.1 668.0,-33.3 680.0,-33.4 692.0,-33.3 704.0,-33.2 716.0,-33.0 728.0,-32.7 740.0,-32.3 752.0,-31.9 764.0,-31.4 776.0,-30.9 788.0,-30.2 800.0,-29.6 812.0,-28.9 824.0,-28.1 836.0,-27.3 848.0,-26.5 860.0,-25.6 872.0,-24.8 884.0,-23.9 896.0,-23.0 908.0,-22.2 920.0,-21.3 932.0,-20.4 944.0,-19.6 956.0,-18.8 968.0,-18.0 980.0,-17.2 992.0,-16.5 1004.0,-15.8 1016.0,-15.2 1028.0,-14.7 1040.0,-14.2 1052.0,-13.7 1064.0,-13.4 1076.0,-13.1 1088.0,-12.9 1100.0,-12.8 1112.0,-12.7 1124.0,-12.8 1136.0,-12.9 1148.0,-13.2 1160.0,-13.5 1172.0,-14.0 1184.0,-14.6 1196.0,-15.2 1208.0,-16.0 1220.0,-16.9 1232.0,-17.9 1244.0,-19.1 1256.0,-20.3 1268.0,-21.7 1280.0,-23.2 1292.0,-24.8 1304.0,-26.5 1316.0,-28.3" fill="none" stroke="#ff8038" stroke-width="1.9" opacity="0.26" stroke-linecap="round" /><polyline points="-40.0,138.3 -28.0,134.7 -16.0,131.0 -4.0,127.3 8.0,123.6 20.0,119.9 32.0,116.1 44.0,112.4 56.0,108.6 68.0,104.9 80.0,101.1 92.0,97.4 104.0,93.7 116.0,90.0 128.0,86.4 140.0,82.8 152.0,79.2 164.0,75.7 176.0,72.2 188.0,68.8 200.0,65.5 212.0,62.2 224.0,59.0 236.0,55.9 248.0,52.9 260.0,49.9 272.0,47.1 284.0,44.3 296.0,41.7 308.0,39.1 320.0,36.7 332.0,34.3 344.0,32.1 356.0,29.9 368.0,27.9 380.0,26.0 392.0,24.2 404.0,22.5 416.0,21.0 428.0,19.6 440.0,18.2 452.0,17.0 464.0,15.9 476.0,15.0 488.0,14.1 500.0,13.3 512.0,12.7 524.0,12.2 536.0,11.7 548.0,11.4 560.0,11.2 572.0,11.1 584.0,11.1 596.0,11.1 608.0,11.3 620.0,11.5 632.0,11.8 644.0,12.2 656.0,12.7 668.0,13.2 680.0,13.8 692.0,14.4 704.0,15.1 716.0,15.8 728.0,16.6 740.0,17.4 752.0,18.2 764.0,19.1 776.0,19.9 788.0,20.8 800.0,21.7 812.0,22.5 824.0,23.4 836.0,24.3 848.0,25.1 860.0,25.9 872.0,26.7 884.0,27.4 896.0,28.1 908.0,28.8 920.0,29.4 932.0,29.9 944.0,30.4 956.0,30.8 968.0,31.2 980.0,31.4 992.0,31.6 1004.0,31.7 1016.0,31.7 1028.0,31.6 1040.0,31.4 1052.0,31.1 1064.0,30.7 1076.0,30.2 1088.0,29.6 1100.0,28.9 1112.0,28.1 1124.0,27.2 1136.0,26.1 1148.0,24.9 1160.0,23.7 1172.0,22.3 1184.0,20.7 1196.0,19.1 1208.0,17.4 1220.0,15.5 1232.0,13.5 1244.0,11.4 1256.0,9.2 1268.0,6.9 1280.0,4.5 1292.0,1.9 1304.0,-0.7 1316.0,-3.4" fill="none" stroke="#ff8038" stroke-width="1.9" opacity="0.26" stroke-linecap="round" /><polyline points="-40.0,151.8 -28.0,148.0 -16.0,144.3 -4.0,140.6 8.0,136.9 20.0,133.2 32.0,129.6 44.0,126.0 56.0,122.4 68.0,118.9 80.0,115.5 92.0,112.1 104.0,108.8 116.0,105.6 128.0,102.4 140.0,99.3 152.0,96.3 164.0,93.4 176.0,90.6 188.0,87.8 200.0,85.2 212.0,82.7 224.0,80.3 236.0,78.0 248.0,75.8 260.0,73.7 272.0,71.7 284.0,69.8 296.0,68.1 308.0,66.4 320.0,64.9 332.0,63.5 344.0,62.2 356.0,61.1 368.0,60.0 380.0,59.1 392.0,58.2 404.0,57.5 416.0,56.9 428.0,56.4 440.0,56.0 452.0,55.8 464.0,55.6 476.0,55.5 488.0,55.5 500.0,55.6 512.0,55.8 524.0,56.0 536.0,56.4 548.0,56.8 560.0,57.2 572.0,57.8 584.0,58.4 596.0,59.0 608.0,59.7 620.0,60.5 632.0,61.3 644.0,62.1 656.0,62.9 668.0,63.8 680.0,64.6 692.0,65.5 704.0,66.4 716.0,67.3 728.0,68.1 740.0,69.0 752.0,69.8 764.0,70.6 776.0,71.4 788.0,72.1 800.0,72.8 812.0,73.4 824.0,74.0 836.0,74.5 848.0,75.0 860.0,75.3 872.0,75.7 884.0,75.9 896.0,76.0 908.0,76.1 920.0,76.1 932.0,76.0 944.0,75.7 956.0,75.4 968.0,75.0 980.0,74.5 992.0,73.8 1004.0,73.1 1016.0,72.2 1028.0,71.2 1040.0,70.1 1052.0,68.9 1064.0,67.6 1076.0,66.2 1088.0,64.6 1100.0,62.9 1112.0,61.2 1124.0,59.3 1136.0,57.2 1148.0,55.1 1160.0,52.9 1172.0,50.5 1184.0,48.1 1196.0,45.5 1208.0,42.8 1220.0,40.1 1232.0,37.2 1244.0,34.3 1256.0,31.3 1268.0,28.1 1280.0,24.9 1292.0,21.7 1304.0,18.3 1316.0,14.9" fill="none" stroke="#ff8038" stroke-width="1.9" opacity="0.26" stroke-linecap="round" /><polyline points="-40.0,165.7 -28.0,162.2 -16.0,158.8 -4.0,155.4 8.0,152.1 20.0,148.9 32.0,145.8 44.0,142.7 56.0,139.7 68.0,136.9 80.0,134.1 92.0,131.4 104.0,128.8 116.0,126.3 128.0,123.9 140.0,121.6 152.0,119.5 164.0,117.4 176.0,115.5 188.0,113.6 200.0,111.9 212.0,110.3 224.0,108.8 236.0,107.5 248.0,106.2 260.0,105.1 272.0,104.1 284.0,103.2 296.0,102.4 308.0,101.7 320.0,101.2 332.0,100.7 344.0,100.4 356.0,100.1 368.0,99.9 380.0,99.9 392.0,99.9 404.0,100.0 416.0,100.2 428.0,100.5 440.0,100.9 452.0,101.3 464.0,101.8 476.0,102.4 488.0,103.0 500.0,103.7 512.0,104.4 524.0,105.1 536.0,105.9 548.0,106.8 560.0,107.6 572.0,108.5 584.0,109.3 596.0,110.2 608.0,111.1 620.0,112.0 632.0,112.8 644.0,113.7 656.0,114.5 668.0,115.3 680.0,116.0 692.0,116.7 704.0,117.4 716.0,118.0 728.0,118.6 740.0,119.1 752.0,119.5 764.0,119.9 776.0,120.2 788.0,120.4 800.0,120.5 812.0,120.5 824.0,120.5 836.0,120.3 848.0,120.1 860.0,119.7 872.0,119.2 884.0,118.7 896.0,118.0 908.0,117.2 920.0,116.3 932.0,115.3 944.0,114.2 956.0,112.9 968.0,111.6 980.0,110.1 992.0,108.5 1004.0,106.8 1016.0,104.9 1028.0,103.0 1040.0,101.0 1052.0,98.8 1064.0,96.5 1076.0,94.1 1088.0,91.6 1100.0,89.0 1112.0,86.3 1124.0,83.6 1136.0,80.7 1148.0,77.7 1160.0,74.6 1172.0,71.5 1184.0,68.3 1196.0,65.0 1208.0,61.6 1220.0,58.2 1232.0,54.7 1244.0,51.2 1256.0,47.6 1268.0,44.0 1280.0,40.3 1292.0,36.6 1304.0,32.9 1316.0,29.2" fill="none" stroke="#ff8038" stroke-width="1.9" opacity="0.26" stroke-linecap="round" /><polyline points="-40.0,183.2 -28.0,180.3 -16.0,177.6 -4.0,174.9 8.0,172.4 20.0,169.9 32.0,167.5 44.0,165.3 56.0,163.2 68.0,161.2 80.0,159.3 92.0,157.5 104.0,155.8 116.0,154.2 128.0,152.8 140.0,151.5 152.0,150.3 164.0,149.2 176.0,148.2 188.0,147.3 200.0,146.6 212.0,145.9 224.0,145.4 236.0,145.0 248.0,144.7 260.0,144.5 272.0,144.3 284.0,144.3 296.0,144.4 308.0,144.5 320.0,144.7 332.0,145.1 344.0,145.4 356.0,145.9 368.0,146.4 380.0,147.0 392.0,147.6 404.0,148.3 416.0,149.1 428.0,149.8 440.0,150.6 452.0,151.4 464.0,152.3 476.0,153.2 488.0,154.0 500.0,154.9 512.0,155.8 524.0,156.7 536.0,157.5 548.0,158.3 560.0,159.2 572.0,159.9 584.0,160.7 596.0,161.4 608.0,162.0 620.0,162.6 632.0,163.2 644.0,163.6 656.0,164.1 668.0,164.4 680.0,164.7 692.0,164.8 704.0,164.9 716.0,164.9 728.0,164.8 740.0,164.7 752.0,164.4 764.0,164.0 776.0,163.5 788.0,162.9 800.0,162.2 812.0,161.3 824.0,160.4 836.0,159.3 848.0,158.2 860.0,156.9 872.0,155.5 884.0,154.0 896.0,152.3 908.0,150.6 920.0,148.7 932.0,146.7 944.0,144.7 956.0,142.4 968.0,140.1 980.0,137.7 992.0,135.2 1004.0,132.6 1016.0,129.8 1028.0,127.0 1040.0,124.1 1052.0,121.1 1064.0,118.0 1076.0,114.8 1088.0,111.6 1100.0,108.3 1112.0,104.9 1124.0,101.5 1136.0,98.0 1148.0,94.4 1160.0,90.8 1172.0,87.2 1184.0,83.5 1196.0,79.8 1208.0,76.1 1220.0,72.4 1232.0,68.6 1244.0,64.9 1256.0,61.1 1268.0,57.3 1280.0,53.6 1292.0,49.9 1304.0,46.2 1316.0,42.5" fill="none" stroke="#ff8038" stroke-width="1.9" opacity="0.26" stroke-linecap="round" /><polyline points="-40.0,206.9 -28.0,204.9 -16.0,203.1 -4.0,201.3 8.0,199.7 20.0,198.2 32.0,196.8 44.0,195.5 56.0,194.3 68.0,193.2 80.0,192.3 92.0,191.5 104.0,190.8 116.0,190.2 128.0,189.7 140.0,189.3 152.0,189.0 164.0,188.8 176.0,188.7 188.0,188.7 200.0,188.8 212.0,189.0 224.0,189.3 236.0,189.6 248.0,190.0 260.0,190.5 272.0,191.0 284.0,191.6 296.0,192.3 308.0,193.0 320.0,193.7 332.0,194.5 344.0,195.3 356.0,196.1 368.0,197.0 380.0,197.9 392.0,198.7 404.0,199.6 416.0,200.5 428.0,201.4 440.0,202.2 452.0,203.0 464.0,203.8 476.0,204.6 488.0,205.3 500.0,206.0 512.0,206.6 524.0,207.2 536.0,207.7 548.0,208.2 560.0,208.6 572.0,208.9 584.0,209.1 596.0,209.3 608.0,209.3 620.0,209.3 632.0,209.2 644.0,209.0 656.0,208.7 668.0,208.2 680.0,207.7 692.0,207.1 704.0,206.3 716.0,205.5 728.0,204.5 740.0,203.4 752.0,202.2 764.0,200.9 776.0,199.4 788.0,197.9 800.0,196.2 812.0,194.4 824.0,192.5 836.0,190.5 848.0,188.3 860.0,186.1 872.0,183.8 884.0,181.3 896.0,178.7 908.0,176.1 920.0,173.3 932.0,170.5 944.0,167.5 956.0,164.5 968.0,161.4 980.0,158.2 992.0,154.9 1004.0,151.6 1016.0,148.2 1028.0,144.7 1040.0,141.2 1052.0,137.6 1064.0,134.0 1076.0,130.4 1088.0,126.7 1100.0,123.0 1112.0,119.3 1124.0,115.5 1136.0,111.8 1148.0,108.0 1160.0,104.3 1172.0,100.5 1184.0,96.8 1196.0,93.1 1208.0,89.4 1220.0,85.7 1232.0,82.1 1244.0,78.5 1256.0,75.0 1268.0,71.5 1280.0,68.1 1292.0,64.7 1304.0,61.4 1316.0,58.2" fill="none" stroke="#ff8038" stroke-width="1.9" opacity="0.26" stroke-linecap="round" /><polyline points="-40.0,238.4 -28.0,237.3 -16.0,236.4 -4.0,235.6 8.0,235.0 20.0,234.4 32.0,233.9 44.0,233.6 56.0,233.3 68.0,233.2 80.0,233.1 92.0,233.2 104.0,233.3 116.0,233.5 128.0,233.8 140.0,234.1 152.0,234.6 164.0,235.1 176.0,235.6 188.0,236.2 200.0,236.9 212.0,237.6 224.0,238.4 236.0,239.2 248.0,240.0 260.0,240.8 272.0,241.7 284.0,242.6 296.0,243.4 308.0,244.3 320.0,245.2 332.0,246.1 344.0,246.9 356.0,247.7 368.0,248.5 380.0,249.3 392.0,250.0 404.0,250.6 416.0,251.3 428.0,251.8 440.0,252.3 452.0,252.8 464.0,253.1 476.0,253.4 488.0,253.6 500.0,253.7 512.0,253.8 524.0,253.7 536.0,253.6 548.0,253.3 560.0,252.9 572.0,252.5 584.0,251.9 596.0,251.2 608.0,250.5 620.0,249.6 632.0,248.5 644.0,247.4 656.0,246.2 668.0,244.8 680.0,243.3 692.0,241.7 704.0,240.0 716.0,238.2 728.0,236.2 740.0,234.2 752.0,232.0 764.0,229.7 776.0,227.4 788.0,224.9 800.0,222.3 812.0,219.6 824.0,216.8 836.0,213.9 848.0,210.9 860.0,207.9 872.0,204.7 884.0,201.5 896.0,198.2 908.0,194.9 920.0,191.5 932.0,188.0 944.0,184.4 956.0,180.9 968.0,177.2 980.0,173.6 992.0,169.9 1004.0,166.2 1016.0,162.4 1028.0,158.7 1040.0,154.9 1052.0,151.2 1064.0,147.4 1076.0,143.7 1088.0,140.0 1100.0,136.2 1112.0,132.6 1124.0,128.9 1136.0,125.3 1148.0,121.7 1160.0,118.2 1172.0,114.8 1184.0,111.4 1196.0,108.0 1208.0,104.8 1220.0,101.6 1232.0,98.5 1244.0,95.4 1256.0,92.5 1268.0,89.6 1280.0,86.9 1292.0,84.2 1304.0,81.7 1316.0,79.2" fill="none" stroke="#ff8038" stroke-width="1.9" opacity="0.26" stroke-linecap="round" /><polyline points="-40.0,277.7 -28.0,277.6 -16.0,277.5 -4.0,277.6 8.0,277.8 20.0,278.0 32.0,278.3 44.0,278.7 56.0,279.1 68.0,279.7 80.0,280.2 92.0,280.9 104.0,281.6 116.0,282.3 128.0,283.1 140.0,283.9 152.0,284.7 164.0,285.5 176.0,286.4 188.0,287.3 200.0,288.2 212.0,289.0 224.0,289.9 236.0,290.8 248.0,291.6 260.0,292.4 272.0,293.2 284.0,293.9 296.0,294.6 308.0,295.3 320.0,295.9 332.0,296.4 344.0,296.9 356.0,297.3 368.0,297.6 380.0,297.9 392.0,298.1 404.0,298.2 416.0,298.2 428.0,298.1 440.0,297.9 452.0,297.6 464.0,297.2 476.0,296.7 488.0,296.1 500.0,295.4 512.0,294.6 524.0,293.6 536.0,292.6 548.0,291.4 560.0,290.1 572.0,288.7 584.0,287.2 596.0,285.6 608.0,283.8 620.0,282.0 632.0,280.0 644.0,277.9 656.0,275.7 668.0,273.4 680.0,271.0 692.0,268.4 704.0,265.8 716.0,263.1 728.0,260.3 740.0,257.3 752.0,254.3 764.0,251.3 776.0,248.1 788.0,244.8 800.0,241.5 812.0,238.2 824.0,234.7 836.0,231.2 848.0,227.7 860.0,224.1 872.0,220.4 884.0,216.8 896.0,213.1 908.0,209.3 920.0,205.6 932.0,201.9 944.0,198.1 956.0,194.3 968.0,190.6 980.0,186.8 992.0,183.1 1004.0,179.4 1016.0,175.8 1028.0,172.1 1040.0,168.5 1052.0,165.0 1064.0,161.5 1076.0,158.0 1088.0,154.7 1100.0,151.3 1112.0,148.1 1124.0,144.9 1136.0,141.9 1148.0,138.9 1160.0,135.9 1172.0,133.1 1184.0,130.4 1196.0,127.8 1208.0,125.2 1220.0,122.8 1232.0,120.5 1244.0,118.3 1256.0,116.2 1268.0,114.2 1280.0,112.4 1292.0,110.6 1304.0,109.0 1316.0,107.5" fill="none" stroke="#ff8038" stroke-width="1.9" opacity="0.26" stroke-linecap="round" /><polyline points="-40.0,323.7 -28.0,324.3 -16.0,324.9 -4.0,325.5 8.0,326.2 20.0,327.0 32.0,327.7 44.0,328.5 56.0,329.4 68.0,330.2 80.0,331.1 92.0,332.0 104.0,332.9 116.0,333.7 128.0,334.6 140.0,335.4 152.0,336.3 164.0,337.1 176.0,337.8 188.0,338.6 200.0,339.3 212.0,339.9 224.0,340.5 236.0,341.0 248.0,341.4 260.0,341.8 272.0,342.1 284.0,342.4 296.0,342.5 308.0,342.6 320.0,342.6 332.0,342.4 344.0,342.2 356.0,341.9 368.0,341.5 380.0,340.9 392.0,340.3 404.0,339.6 416.0,338.7 428.0,337.7 440.0,336.6 452.0,335.4 464.0,334.1 476.0,332.7 488.0,331.1 500.0,329.4 512.0,327.6 524.0,325.7 536.0,323.7 548.0,321.6 560.0,319.3 572.0,317.0 584.0,314.5 596.0,312.0 608.0,309.3 620.0,306.6 632.0,303.7 644.0,300.8 656.0,297.7 668.0,294.6 680.0,291.4 692.0,288.2 704.0,284.8 716.0,281.4 728.0,278.0 740.0,274.5 752.0,270.9 764.0,267.3 776.0,263.6 788.0,260.0 800.0,256.2 812.0,252.5 824.0,248.8 836.0,245.0 848.0,241.3 860.0,237.5 872.0,233.8 884.0,230.0 896.0,226.3 908.0,222.6 920.0,219.0 932.0,215.3 944.0,211.8 956.0,208.2 968.0,204.7 980.0,201.3 992.0,198.0 1004.0,194.7 1016.0,191.5 1028.0,188.3 1040.0,185.3 1052.0,182.3 1064.0,179.4 1076.0,176.6 1088.0,173.9 1100.0,171.3 1112.0,168.8 1124.0,166.5 1136.0,164.2 1148.0,162.0 1160.0,160.0 1172.0,158.0 1184.0,156.2 1196.0,154.5 1208.0,152.9 1220.0,151.4 1232.0,150.0 1244.0,148.8 1256.0,147.7 1268.0,146.6 1280.0,145.7 1292.0,145.0 1304.0,144.3 1316.0,143.7" fill="none" stroke="#ff8038" stroke-width="1.9" opacity="0.26" stroke-linecap="round" /><polyline points="-40.0,374.1 -28.0,374.9 -16.0,375.8 -4.0,376.7 8.0,377.6 20.0,378.4 32.0,379.3 44.0,380.1 56.0,381.0 68.0,381.7 80.0,382.5 92.0,383.2 104.0,383.9 116.0,384.5 128.0,385.1 140.0,385.6 152.0,386.0 164.0,386.4 176.0,386.6 188.0,386.9 200.0,387.0 212.0,387.0 224.0,386.9 236.0,386.8 248.0,386.5 260.0,386.2 272.0,385.7 284.0,385.2 296.0,384.5 308.0,383.7 320.0,382.8 332.0,381.8 344.0,380.7 356.0,379.4 368.0,378.0 380.0,376.6 392.0,375.0 404.0,373.3 416.0,371.4 428.0,369.5 440.0,367.4 452.0,365.3 464.0,363.0 476.0,360.6 488.0,358.1 500.0,355.5 512.0,352.8 524.0,350.0 536.0,347.2 548.0,344.2 560.0,341.1 572.0,338.0 584.0,334.8 596.0,331.5 608.0,328.1 620.0,324.7 632.0,321.2 644.0,317.7 656.0,314.1 668.0,310.5 680.0,306.8 692.0,303.1 704.0,299.4 716.0,295.7 728.0,291.9 740.0,288.2 752.0,284.4 764.0,280.7 776.0,276.9 788.0,273.2 800.0,269.5 812.0,265.8 824.0,262.2 836.0,258.6 848.0,255.0 860.0,251.5 872.0,248.0 884.0,244.6 896.0,241.3 908.0,238.0 920.0,234.8 932.0,231.7 944.0,228.7 956.0,225.7 968.0,222.9 980.0,220.1 992.0,217.5 1004.0,214.9 1016.0,212.4 1028.0,210.1 1040.0,207.9 1052.0,205.7 1064.0,203.7 1076.0,201.8 1088.0,200.0 1100.0,198.3 1112.0,196.8 1124.0,195.3 1136.0,194.0 1148.0,192.8 1160.0,191.7 1172.0,190.7 1184.0,189.9 1196.0,189.1 1208.0,188.5 1220.0,188.0 1232.0,187.5 1244.0,187.2 1256.0,187.0 1268.0,186.9 1280.0,186.9 1292.0,186.9 1304.0,187.1 1316.0,187.3" fill="none" stroke="#ff8038" stroke-width="1.9" opacity="0.26" stroke-linecap="round" /><polyline points="-40.0,425.6 -28.0,426.4 -16.0,427.2 -4.0,427.9 8.0,428.5 20.0,429.1 32.0,429.7 44.0,430.1 56.0,430.5 68.0,430.9 80.0,431.1 92.0,431.3 104.0,431.4 116.0,431.4 128.0,431.3 140.0,431.1 152.0,430.8 164.0,430.5 176.0,430.0 188.0,429.4 200.0,428.6 212.0,427.8 224.0,426.9 236.0,425.8 248.0,424.7 260.0,423.4 272.0,422.0 284.0,420.5 296.0,418.8 308.0,417.1 320.0,415.2 332.0,413.2 344.0,411.1 356.0,408.9 368.0,406.6 380.0,404.2 392.0,401.7 404.0,399.0 416.0,396.3 428.0,393.5 440.0,390.6 452.0,387.6 464.0,384.5 476.0,381.3 488.0,378.1 500.0,374.8 512.0,371.4 524.0,368.0 536.0,364.5 548.0,360.9 560.0,357.3 572.0,353.7 584.0,350.0 596.0,346.3 608.0,342.6 620.0,338.8 632.0,335.1 644.0,331.3 656.0,327.6 668.0,323.8 680.0,320.1 692.0,316.4 704.0,312.7 716.0,309.0 728.0,305.4 740.0,301.8 752.0,298.2 764.0,294.7 776.0,291.3 788.0,287.9 800.0,284.6 812.0,281.3 824.0,278.2 836.0,275.1 848.0,272.1 860.0,269.2 872.0,266.4 884.0,263.6 896.0,261.0 908.0,258.5 920.0,256.1 932.0,253.7 944.0,251.5 956.0,249.5 968.0,247.5 980.0,245.6 992.0,243.9 1004.0,242.2 1016.0,240.7 1028.0,239.3 1040.0,238.0 1052.0,236.8 1064.0,235.8 1076.0,234.9 1088.0,234.0 1100.0,233.3 1112.0,232.7 1124.0,232.2 1136.0,231.8 1148.0,231.5 1160.0,231.4 1172.0,231.3 1184.0,231.3 1196.0,231.4 1208.0,231.5 1220.0,231.8 1232.0,232.1 1244.0,232.6 1256.0,233.0 1268.0,233.6 1280.0,234.2 1292.0,234.8 1304.0,235.5 1316.0,236.3" fill="none" stroke="#ff8038" stroke-width="1.9" opacity="0.26" stroke-linecap="round" /><polyline points="-40.0,475.1 -28.0,475.4 -16.0,475.6 -4.0,475.8 8.0,475.8 20.0,475.8 32.0,475.7 44.0,475.5 56.0,475.1 68.0,474.7 80.0,474.2 92.0,473.5 104.0,472.8 116.0,471.9 128.0,471.0 140.0,469.9 152.0,468.7 164.0,467.3 176.0,465.9 188.0,464.3 200.0,462.7 212.0,460.9 224.0,459.0 236.0,457.0 248.0,454.8 260.0,452.6 272.0,450.2 284.0,447.8 296.0,445.2 308.0,442.6 320.0,439.8 332.0,437.0 344.0,434.0 356.0,431.0 368.0,427.9 380.0,424.7 392.0,421.4 404.0,418.1 416.0,414.7 428.0,411.2 440.0,407.7 452.0,404.1 464.0,400.5 476.0,396.9 488.0,393.2 500.0,389.5 512.0,385.8 524.0,382.0 536.0,378.3 548.0,374.5 560.0,370.7 572.0,367.0 584.0,363.3 596.0,359.5 608.0,355.9 620.0,352.2 632.0,348.6 644.0,345.0 656.0,341.5 668.0,338.0 680.0,334.6 692.0,331.2 704.0,327.9 716.0,324.7 728.0,321.6 740.0,318.5 752.0,315.5 764.0,312.6 776.0,309.9 788.0,307.2 800.0,304.6 812.0,302.1 824.0,299.7 836.0,297.4 848.0,295.2 860.0,293.2 872.0,291.3 884.0,289.4 896.0,287.7 908.0,286.1 920.0,284.6 932.0,283.3 944.0,282.0 956.0,280.9 968.0,279.9 980.0,279.0 992.0,278.2 1004.0,277.5 1016.0,277.0 1028.0,276.5 1040.0,276.1 1052.0,275.9 1064.0,275.7 1076.0,275.7 1088.0,275.7 1100.0,275.8 1112.0,276.0 1124.0,276.3 1136.0,276.7 1148.0,277.1 1160.0,277.6 1172.0,278.2 1184.0,278.8 1196.0,279.5 1208.0,280.2 1220.0,280.9 1232.0,281.7 1244.0,282.5 1256.0,283.4 1268.0,284.2 1280.0,285.1 1292.0,286.0 1304.0,286.9 1316.0,287.7" fill="none" stroke="#ff8038" stroke-width="1.9" opacity="0.26" stroke-linecap="round" /><polyline points="-40.0,519.4 -28.0,519.0 -16.0,518.4 -4.0,517.7 8.0,516.9 20.0,516.0 32.0,515.0 44.0,513.9 56.0,512.6 68.0,511.3 80.0,509.8 92.0,508.2 104.0,506.5 116.0,504.7 128.0,502.7 140.0,500.7 152.0,498.5 164.0,496.2 176.0,493.8 188.0,491.4 200.0,488.8 212.0,486.1 224.0,483.3 236.0,480.4 248.0,477.4 260.0,474.4 272.0,471.2 284.0,468.0 296.0,464.7 308.0,461.4 320.0,457.9 332.0,454.5 344.0,450.9 356.0,447.3 368.0,443.7 380.0,440.1 392.0,436.4 404.0,432.7 416.0,428.9 428.0,425.2 440.0,421.4 452.0,417.7 464.0,413.9 476.0,410.2 488.0,406.4 500.0,402.7 512.0,399.0 524.0,395.4 536.0,391.8 548.0,388.2 560.0,384.7 572.0,381.3 584.0,377.9 596.0,374.5 608.0,371.2 620.0,368.1 632.0,364.9 644.0,361.9 656.0,359.0 668.0,356.1 680.0,353.4 692.0,350.7 704.0,348.1 716.0,345.7 728.0,343.3 740.0,341.1 752.0,339.0 764.0,336.9 776.0,335.0 788.0,333.3 800.0,331.6 812.0,330.0 824.0,328.6 836.0,327.3 848.0,326.1 860.0,325.0 872.0,324.0 884.0,323.1 896.0,322.4 908.0,321.7 920.0,321.2 932.0,320.8 944.0,320.5 956.0,320.2 968.0,320.1 980.0,320.1 992.0,320.2 1004.0,320.3 1016.0,320.5 1028.0,320.9 1040.0,321.2 1052.0,321.7 1064.0,322.2 1076.0,322.8 1088.0,323.4 1100.0,324.1 1112.0,324.8 1124.0,325.6 1136.0,326.4 1148.0,327.2 1160.0,328.1 1172.0,329.0 1184.0,329.8 1196.0,330.7 1208.0,331.6 1220.0,332.4 1232.0,333.3 1244.0,334.1 1256.0,334.9 1268.0,335.7 1280.0,336.5 1292.0,337.2 1304.0,337.8 1316.0,338.4" fill="none" stroke="#ff8038" stroke-width="1.9" opacity="0.26" stroke-linecap="round" /><polyline points="-40.0,556.6 -28.0,555.2 -16.0,553.7 -4.0,552.1 8.0,550.3 20.0,548.5 32.0,546.5 44.0,544.4 56.0,542.2 68.0,539.9 80.0,537.4 92.0,534.9 104.0,532.3 116.0,529.6 128.0,526.7 140.0,523.8 152.0,520.8 164.0,517.7 176.0,514.6 188.0,511.3 200.0,508.0 212.0,504.6 224.0,501.2 236.0,497.7 248.0,494.1 260.0,490.6 272.0,486.9 284.0,483.3 296.0,479.6 308.0,475.8 320.0,472.1 332.0,468.3 344.0,464.6 356.0,460.8 368.0,457.1 380.0,453.3 392.0,449.6 404.0,445.9 416.0,442.2 428.0,438.6 440.0,435.0 452.0,431.5 464.0,428.0 476.0,424.5 488.0,421.1 500.0,417.8 512.0,414.6 524.0,411.4 536.0,408.3 548.0,405.3 560.0,402.4 572.0,399.6 584.0,396.9 596.0,394.2 608.0,391.7 620.0,389.3 632.0,387.0 644.0,384.8 656.0,382.7 668.0,380.7 680.0,378.8 692.0,377.1 704.0,375.5 716.0,373.9 728.0,372.5 740.0,371.3 752.0,370.1 764.0,369.0 776.0,368.1 788.0,367.3 800.0,366.6 812.0,366.0 824.0,365.5 836.0,365.1 848.0,364.8 860.0,364.6 872.0,364.5 884.0,364.5 896.0,364.6 908.0,364.8 920.0,365.0 932.0,365.4 944.0,365.8 956.0,366.3 968.0,366.8 980.0,367.4 992.0,368.1 1004.0,368.8 1016.0,369.5 1028.0,370.3 1040.0,371.1 1052.0,371.9 1064.0,372.8 1076.0,373.7 1088.0,374.5 1100.0,375.4 1112.0,376.3 1124.0,377.1 1136.0,378.0 1148.0,378.8 1160.0,379.6 1172.0,380.4 1184.0,381.1 1196.0,381.8 1208.0,382.4 1220.0,383.0 1232.0,383.5 1244.0,384.0 1256.0,384.4 1268.0,384.7 1280.0,384.9 1292.0,385.1 1304.0,385.1 1316.0,385.1" fill="none" stroke="#ff8038" stroke-width="1.9" opacity="0.26" stroke-linecap="round" /><polyline points="-40.0,585.8 -28.0,583.5 -16.0,581.0 -4.0,578.5 8.0,575.8 20.0,573.0 32.0,570.2 44.0,567.2 56.0,564.2 68.0,561.1 80.0,557.9 92.0,554.6 104.0,551.3 116.0,547.9 128.0,544.5 140.0,540.9 152.0,537.4 164.0,533.8 176.0,530.1 188.0,526.4 200.0,522.7 212.0,519.0 224.0,515.3 236.0,511.5 248.0,507.7 260.0,504.0 272.0,500.2 284.0,496.5 296.0,492.8 308.0,489.1 320.0,485.4 332.0,481.8 344.0,478.2 356.0,474.7 368.0,471.2 380.0,467.8 392.0,464.4 404.0,461.2 416.0,457.9 428.0,454.8 440.0,451.7 452.0,448.8 464.0,445.9 476.0,443.1 488.0,440.4 500.0,437.8 512.0,435.3 524.0,432.9 536.0,430.7 548.0,428.5 560.0,426.4 572.0,424.5 584.0,422.7 596.0,421.0 608.0,419.4 620.0,417.9 632.0,416.5 644.0,415.3 656.0,414.1 668.0,413.1 680.0,412.2 692.0,411.4 704.0,410.8 716.0,410.2 728.0,409.7 740.0,409.4 752.0,409.1 764.0,409.0 776.0,408.9 788.0,409.0 800.0,409.1 812.0,409.3 824.0,409.6 836.0,409.9 848.0,410.4 860.0,410.9 872.0,411.4 884.0,412.0 896.0,412.7 908.0,413.4 920.0,414.2 932.0,415.0 944.0,415.8 956.0,416.6 968.0,417.5 980.0,418.4 992.0,419.2 1004.0,420.1 1016.0,421.0 1028.0,421.8 1040.0,422.7 1052.0,423.5 1064.0,424.3 1076.0,425.1 1088.0,425.8 1100.0,426.4 1112.0,427.1 1124.0,427.6 1136.0,428.1 1148.0,428.5 1160.0,428.9 1172.0,429.2 1184.0,429.4 1196.0,429.5 1208.0,429.6 1220.0,429.5 1232.0,429.3 1244.0,429.1 1256.0,428.7 1268.0,428.3 1280.0,427.7 1292.0,427.0 1304.0,426.2 1316.0,425.3" fill="none" stroke="#ff8038" stroke-width="1.9" opacity="0.26" stroke-linecap="round" /><polyline points="-40.0,607.6 -28.0,604.5 -16.0,601.2 -4.0,598.0 8.0,594.6 20.0,591.2 32.0,587.7 44.0,584.2 56.0,580.6 68.0,577.0 80.0,573.3 92.0,569.6 104.0,565.9 116.0,562.2 128.0,558.4 140.0,554.7 152.0,550.9 164.0,547.1 176.0,543.4 188.0,539.7 200.0,536.0 212.0,532.3 224.0,528.6 236.0,525.0 248.0,521.5 260.0,518.0 272.0,514.5 284.0,511.1 296.0,507.8 308.0,504.5 320.0,501.3 332.0,498.2 344.0,495.2 356.0,492.2 368.0,489.4 380.0,486.6 392.0,483.9 404.0,481.4 416.0,478.9 428.0,476.6 440.0,474.3 452.0,472.2 464.0,470.2 476.0,468.3 488.0,466.5 500.0,464.8 512.0,463.3 524.0,461.8 536.0,460.5 548.0,459.3 560.0,458.2 572.0,457.2 584.0,456.4 596.0,455.6 608.0,455.0 620.0,454.4 632.0,454.0 644.0,453.7 656.0,453.5 668.0,453.4 680.0,453.3 692.0,453.4 704.0,453.5 716.0,453.8 728.0,454.1 740.0,454.5 752.0,454.9 764.0,455.5 776.0,456.0 788.0,456.7 800.0,457.4 812.0,458.1 824.0,458.9 836.0,459.7 848.0,460.5 860.0,461.3 872.0,462.2 884.0,463.1 896.0,463.9 908.0,464.8 920.0,465.7 932.0,466.5 944.0,467.4 956.0,468.2 968.0,469.0 980.0,469.7 992.0,470.4 1004.0,471.1 1016.0,471.7 1028.0,472.2 1040.0,472.7 1052.0,473.1 1064.0,473.4 1076.0,473.7 1088.0,473.9 1100.0,474.0 1112.0,474.0 1124.0,473.9 1136.0,473.7 1148.0,473.4 1160.0,473.0 1172.0,472.5 1184.0,471.9 1196.0,471.2 1208.0,470.4 1220.0,469.4 1232.0,468.4 1244.0,467.2 1256.0,465.9 1268.0,464.5 1280.0,463.0 1292.0,461.4 1304.0,459.6 1316.0,457.8" fill="none" stroke="#ff8038" stroke-width="1.9" opacity="0.26" stroke-linecap="round" /><polyline points="-40.0,623.8 -28.0,620.2 -16.0,616.5 -4.0,612.8 8.0,609.1 20.0,605.3 32.0,601.6 44.0,597.8 56.0,594.1 68.0,590.3 80.0,586.6 92.0,582.9 104.0,579.2 116.0,575.5 128.0,571.8 140.0,568.3 152.0,564.7 164.0,561.2 176.0,557.8 188.0,554.4 200.0,551.1 212.0,547.8 224.0,544.7 236.0,541.6 248.0,538.6 260.0,535.7 272.0,532.8 284.0,530.1 296.0,527.5 308.0,525.0 320.0,522.5 332.0,520.2 344.0,518.0 356.0,515.9 368.0,514.0 380.0,512.1 392.0,510.3 404.0,508.7 416.0,507.2 428.0,505.8 440.0,504.5 452.0,503.3 464.0,502.3 476.0,501.3 488.0,500.5 500.0,499.8 512.0,499.2 524.0,498.7 536.0,498.3 548.0,498.0 560.0,497.8 572.0,497.8 584.0,497.8 596.0,497.9 608.0,498.0 620.0,498.3 632.0,498.6 644.0,499.0 656.0,499.5 668.0,500.1 680.0,500.7 692.0,501.3 704.0,502.0 716.0,502.7 728.0,503.5 740.0,504.3 752.0,505.2 764.0,506.0 776.0,506.9 788.0,507.8 800.0,508.7 812.0,509.5 824.0,510.4 836.0,511.2 848.0,512.1 860.0,512.9 872.0,513.6 884.0,514.4 896.0,515.0 908.0,515.7 920.0,516.3 932.0,516.8 944.0,517.2 956.0,517.6 968.0,517.9 980.0,518.2 992.0,518.3 1004.0,518.4 1016.0,518.4 1028.0,518.2 1040.0,518.0 1052.0,517.7 1064.0,517.3 1076.0,516.7 1088.0,516.1 1100.0,515.3 1112.0,514.5 1124.0,513.5 1136.0,512.4 1148.0,511.2 1160.0,509.9 1172.0,508.4 1184.0,506.9 1196.0,505.2 1208.0,503.4 1220.0,501.5 1232.0,499.5 1244.0,497.4 1256.0,495.1 1268.0,492.8 1280.0,490.3 1292.0,487.8 1304.0,485.1 1316.0,482.4" fill="none" stroke="#ff8038" stroke-width="1.9" opacity="0.26" stroke-linecap="round" /><polyline points="-40.0,637.2 -28.0,633.5 -16.0,629.7 -4.0,626.0 8.0,622.3 20.0,618.7 32.0,615.1 44.0,611.5 56.0,607.9 68.0,604.5 80.0,601.0 92.0,597.7 104.0,594.4 116.0,591.2 128.0,588.0 140.0,585.0 152.0,582.0 164.0,579.1 176.0,576.3 188.0,573.6 200.0,571.1 212.0,568.6 224.0,566.2 236.0,563.9 248.0,561.7 260.0,559.7 272.0,557.7 284.0,555.9 296.0,554.2 308.0,552.6 320.0,551.1 332.0,549.8 344.0,548.5 356.0,547.4 368.0,546.4 380.0,545.5 392.0,544.7 404.0,544.0 416.0,543.4 428.0,543.0 440.0,542.6 452.0,542.4 464.0,542.2 476.0,542.2 488.0,542.2 500.0,542.3 512.0,542.5 524.0,542.8 536.0,543.2 548.0,543.6 560.0,544.1 572.0,544.7 584.0,545.3 596.0,545.9 608.0,546.7 620.0,547.4 632.0,548.2 644.0,549.0 656.0,549.9 668.0,550.7 680.0,551.6 692.0,552.5 704.0,553.4 716.0,554.2 728.0,555.1 740.0,555.9 752.0,556.7 764.0,557.5 776.0,558.3 788.0,559.0 800.0,559.7 812.0,560.3 824.0,560.9 836.0,561.4 848.0,561.8 860.0,562.1 872.0,562.4 884.0,562.6 896.0,562.8 908.0,562.8 920.0,562.7 932.0,562.6 944.0,562.3 956.0,562.0 968.0,561.5 980.0,560.9 992.0,560.3 1004.0,559.5 1016.0,558.6 1028.0,557.6 1040.0,556.4 1052.0,555.2 1064.0,553.8 1076.0,552.4 1088.0,550.8 1100.0,549.0 1112.0,547.2 1124.0,545.3 1136.0,543.2 1148.0,541.1 1160.0,538.8 1172.0,536.4 1184.0,533.9 1196.0,531.3 1208.0,528.6 1220.0,525.8 1232.0,522.9 1244.0,520.0 1256.0,516.9 1268.0,513.8 1280.0,510.6 1292.0,507.3 1304.0,503.9 1316.0,500.5" fill="none" stroke="#ff8038" stroke-width="1.9" opacity="0.26" stroke-linecap="round" /><polyline points="-40.0,651.2 -28.0,647.7 -16.0,644.3 -4.0,641.0 8.0,637.7 20.0,634.5 32.0,631.4 44.0,628.4 56.0,625.5 68.0,622.6 80.0,619.8 92.0,617.2 104.0,614.6 116.0,612.2 128.0,609.8 140.0,607.6 152.0,605.4 164.0,603.4 176.0,601.5 188.0,599.7 200.0,598.1 212.0,596.5 224.0,595.1 236.0,593.7 248.0,592.5 260.0,591.4 272.0,590.5 284.0,589.6 296.0,588.9 308.0,588.2 320.0,587.7 332.0,587.3 344.0,586.9 356.0,586.7 368.0,586.6 380.0,586.6 392.0,586.6 404.0,586.8 416.0,587.0 428.0,587.3 440.0,587.7 452.0,588.2 464.0,588.7 476.0,589.3 488.0,589.9 500.0,590.6 512.0,591.3 524.0,592.1 536.0,592.9 548.0,593.7 560.0,594.6 572.0,595.4 584.0,596.3 596.0,597.2 608.0,598.1 620.0,598.9 632.0,599.8 644.0,600.6 656.0,601.4 668.0,602.2 680.0,602.9 692.0,603.6 704.0,604.3 716.0,604.9 728.0,605.4 740.0,605.9 752.0,606.3 764.0,606.7 776.0,606.9 788.0,607.1 800.0,607.2 812.0,607.2 824.0,607.1 836.0,606.9 848.0,606.6 860.0,606.2 872.0,605.8 884.0,605.2 896.0,604.4 908.0,603.6 920.0,602.7 932.0,601.6 944.0,600.5 956.0,599.2 968.0,597.8 980.0,596.3 992.0,594.6 1004.0,592.9 1016.0,591.0 1028.0,589.0 1040.0,586.9 1052.0,584.7 1064.0,582.4 1076.0,580.0 1088.0,577.5 1100.0,574.8 1112.0,572.1 1124.0,569.3 1136.0,566.4 1148.0,563.4 1160.0,560.3 1172.0,557.1 1184.0,553.9 1196.0,550.6 1208.0,547.2 1220.0,543.7 1232.0,540.2 1244.0,536.7 1256.0,533.1 1268.0,529.5 1280.0,525.8 1292.0,522.1 1304.0,518.4 1316.0,514.6" fill="none" stroke="#ff8038" stroke-width="1.9" opacity="0.26" stroke-linecap="round" /><polyline points="-40.0,668.9 -28.0,666.1 -16.0,663.4 -4.0,660.7 8.0,658.2 20.0,655.8 32.0,653.5 44.0,651.3 56.0,649.2 68.0,647.2 80.0,645.3 92.0,643.6 104.0,641.9 116.0,640.4 128.0,639.0 140.0,637.7 152.0,636.6 164.0,635.5 176.0,634.6 188.0,633.8 200.0,633.0 212.0,632.4 224.0,631.9 236.0,631.6 248.0,631.3 260.0,631.1 272.0,631.0 284.0,631.0 296.0,631.1 308.0,631.3 320.0,631.5 332.0,631.9 344.0,632.3 356.0,632.8 368.0,633.3 380.0,633.9 392.0,634.5 404.0,635.2 416.0,636.0 428.0,636.8 440.0,637.6 452.0,638.4 464.0,639.3 476.0,640.1 488.0,641.0 500.0,641.9 512.0,642.8 524.0,643.6 536.0,644.5 548.0,645.3 560.0,646.1 572.0,646.9 584.0,647.6 596.0,648.3 608.0,648.9 620.0,649.5 632.0,650.0 644.0,650.5 656.0,650.9 668.0,651.2 680.0,651.4 692.0,651.6 704.0,651.6 716.0,651.6 728.0,651.5 740.0,651.3 752.0,650.9 764.0,650.5 776.0,650.0 788.0,649.3 800.0,648.6 812.0,647.7 824.0,646.8 836.0,645.7 848.0,644.5 860.0,643.1 872.0,641.7 884.0,640.1 896.0,638.5 908.0,636.7 920.0,634.8 932.0,632.7 944.0,630.6 956.0,628.4 968.0,626.0 980.0,623.6 992.0,621.0 1004.0,618.4 1016.0,615.6 1028.0,612.7 1040.0,609.8 1052.0,606.8 1064.0,603.7 1076.0,600.5 1088.0,597.2 1100.0,593.9 1112.0,590.5 1124.0,587.0 1136.0,583.5 1148.0,579.9 1160.0,576.3 1172.0,572.7 1184.0,569.0 1196.0,565.3 1208.0,561.5 1220.0,557.8 1232.0,554.0 1244.0,550.3 1256.0,546.5 1268.0,542.8 1280.0,539.1 1292.0,535.3 1304.0,531.6 1316.0,528.0" fill="none" stroke="#ff8038" stroke-width="1.9" opacity="0.26" stroke-linecap="round" /><polyline points="-40.0,692.9 -28.0,691.0 -16.0,689.1 -4.0,687.4 8.0,685.8 20.0,684.4 32.0,683.0 44.0,681.8 56.0,680.6 68.0,679.6 80.0,678.7 92.0,677.9 104.0,677.2 116.0,676.7 128.0,676.2 140.0,675.9 152.0,675.6 164.0,675.5 176.0,675.4 188.0,675.4 200.0,675.6 212.0,675.8 224.0,676.0 236.0,676.4 248.0,676.8 260.0,677.3 272.0,677.9 284.0,678.5 296.0,679.2 308.0,679.9 320.0,680.7 332.0,681.5 344.0,682.3 356.0,683.1 368.0,684.0 380.0,684.8 392.0,685.7 404.0,686.6 416.0,687.5 428.0,688.3 440.0,689.2 452.0,690.0 464.0,690.8 476.0,691.5 488.0,692.2 500.0,692.9 512.0,693.5 524.0,694.1 536.0,694.6 548.0,695.0 560.0,695.4 572.0,695.7 584.0,695.9 596.0,696.0 608.0,696.0 620.0,696.0 632.0,695.8 644.0,695.6 656.0,695.2 668.0,694.8 680.0,694.2 692.0,693.5 704.0,692.7 716.0,691.8 728.0,690.8 740.0,689.7 752.0,688.4 764.0,687.1 776.0,685.6 788.0,684.0 800.0,682.3 812.0,680.5 824.0,678.5 836.0,676.5 848.0,674.3 860.0,672.0 872.0,669.6 884.0,667.1 896.0,664.5 908.0,661.9 920.0,659.1 932.0,656.2 944.0,653.2 956.0,650.2 968.0,647.0 980.0,643.8 992.0,640.5 1004.0,637.1 1016.0,633.7 1028.0,630.2 1040.0,626.7 1052.0,623.1 1064.0,619.5 1076.0,615.9 1088.0,612.2 1100.0,608.4 1112.0,604.7 1124.0,601.0 1136.0,597.2 1148.0,593.5 1160.0,589.7 1172.0,586.0 1184.0,582.2 1196.0,578.5 1208.0,574.8 1220.0,571.2 1232.0,567.6 1244.0,564.0 1256.0,560.5 1268.0,557.0 1280.0,553.6 1292.0,550.3 1304.0,547.0 1316.0,543.8" fill="none" stroke="#ff8038" stroke-width="1.9" opacity="0.26" stroke-linecap="round" /><polyline points="-40.0,724.7 -28.0,723.7 -16.0,722.8 -4.0,722.1 8.0,721.5 20.0,720.9 32.0,720.5 44.0,720.2 56.0,720.0 68.0,719.8 80.0,719.8 92.0,719.9 104.0,720.0 116.0,720.3 128.0,720.6 140.0,721.0 152.0,721.4 164.0,721.9 176.0,722.5 188.0,723.2 200.0,723.8 212.0,724.6 224.0,725.3 236.0,726.1 248.0,727.0 260.0,727.8 272.0,728.7 284.0,729.5 296.0,730.4 308.0,731.3 320.0,732.2 332.0,733.0 344.0,733.9 356.0,734.7 368.0,735.4 380.0,736.2 392.0,736.9 404.0,737.5 416.0,738.1 428.0,738.7 440.0,739.2 452.0,739.6 464.0,739.9 476.0,740.2 488.0,740.3 500.0,740.4 512.0,740.4 524.0,740.4 536.0,740.2 548.0,739.9 560.0,739.5 572.0,739.0 584.0,738.4 596.0,737.7 608.0,736.9 620.0,735.9 632.0,734.9 644.0,733.7 656.0,732.4 668.0,731.0 680.0,729.5 692.0,727.9 704.0,726.1 716.0,724.2 728.0,722.3 740.0,720.2 752.0,718.0 764.0,715.6 776.0,713.2 788.0,710.7 800.0,708.1 812.0,705.4 824.0,702.5 836.0,699.6 848.0,696.6 860.0,693.5 872.0,690.4 884.0,687.1 896.0,683.8 908.0,680.4 920.0,677.0 932.0,673.5 944.0,669.9 956.0,666.3 968.0,662.7 980.0,659.0 992.0,655.3 1004.0,651.6 1016.0,647.9 1028.0,644.1 1040.0,640.4 1052.0,636.6 1064.0,632.9 1076.0,629.1 1088.0,625.4 1100.0,621.7 1112.0,618.0 1124.0,614.4 1136.0,610.8 1148.0,607.3 1160.0,603.8 1172.0,600.3 1184.0,596.9 1196.0,593.6 1208.0,590.4 1220.0,587.2 1232.0,584.1 1244.0,581.1 1256.0,578.2 1268.0,575.4 1280.0,572.7 1292.0,570.0 1304.0,567.5 1316.0,565.1" fill="none" stroke="#ff8038" stroke-width="1.9" opacity="0.26" stroke-linecap="round" /><polyline points="-40.0,764.3 -28.0,764.2 -16.0,764.2 -4.0,764.3 8.0,764.5 20.0,764.8 32.0,765.1 44.0,765.5 56.0,766.0 68.0,766.5 80.0,767.1 92.0,767.8 104.0,768.5 116.0,769.2 128.0,770.0 140.0,770.8 152.0,771.7 164.0,772.5 176.0,773.4 188.0,774.3 200.0,775.1 212.0,776.0 224.0,776.9 236.0,777.7 248.0,778.5 260.0,779.3 272.0,780.1 284.0,780.8 296.0,781.5 308.0,782.2 320.0,782.7 332.0,783.3 344.0,783.7 356.0,784.1 368.0,784.4 380.0,784.7 392.0,784.8 404.0,784.9 416.0,784.8 428.0,784.7 440.0,784.5 452.0,784.2 464.0,783.7 476.0,783.2 488.0,782.6 500.0,781.8 512.0,781.0 524.0,780.0 536.0,778.9 548.0,777.7 560.0,776.4 572.0,774.9 584.0,773.4 596.0,771.7 608.0,769.9 620.0,768.0 632.0,766.0 644.0,763.9 656.0,761.6 668.0,759.3 680.0,756.8 692.0,754.3 704.0,751.6 716.0,748.8 728.0,746.0 740.0,743.0 752.0,740.0 764.0,736.9 776.0,733.7 788.0,730.4 800.0,727.1 812.0,723.7 824.0,720.2 836.0,716.7 848.0,713.2 860.0,709.6 872.0,705.9 884.0,702.2 896.0,698.5 908.0,694.8 920.0,691.0 932.0,687.3 944.0,683.5 956.0,679.8 968.0,676.0 980.0,672.3 992.0,668.6 1004.0,664.9 1016.0,661.2 1028.0,657.6 1040.0,654.0 1052.0,650.5 1064.0,647.0 1076.0,643.6 1088.0,640.2 1100.0,636.9 1112.0,633.7 1124.0,630.6 1136.0,627.5 1148.0,624.6 1160.0,621.7 1172.0,618.9 1184.0,616.2 1196.0,613.6 1208.0,611.1 1220.0,608.7 1232.0,606.4 1244.0,604.3 1256.0,602.2 1268.0,600.3 1280.0,598.5 1292.0,596.7 1304.0,595.1 1316.0,593.7" fill="none" stroke="#ff8038" stroke-width="1.9" opacity="0.26" stroke-linecap="round" /><polyline points="-40.0,810.6 -28.0,811.1 -16.0,811.8 -4.0,812.4 8.0,813.1 20.0,813.9 32.0,814.7 44.0,815.5 56.0,816.4 68.0,817.2 80.0,818.1 92.0,819.0 104.0,819.8 116.0,820.7 128.0,821.6 140.0,822.4 152.0,823.2 164.0,824.0 176.0,824.8 188.0,825.5 200.0,826.2 212.0,826.8 224.0,827.3 236.0,827.8 248.0,828.3 260.0,828.6 272.0,828.9 284.0,829.1 296.0,829.2 308.0,829.3 320.0,829.2 332.0,829.1 344.0,828.8 356.0,828.5 368.0,828.0 380.0,827.4 392.0,826.8 404.0,826.0 416.0,825.1 428.0,824.1 440.0,822.9 452.0,821.7 464.0,820.3 476.0,818.8 488.0,817.2 500.0,815.5 512.0,813.7 524.0,811.8 536.0,809.7 548.0,807.5 560.0,805.3 572.0,802.9 584.0,800.4 596.0,797.8 608.0,795.1 620.0,792.3 632.0,789.4 644.0,786.5 656.0,783.4 668.0,780.3 680.0,777.0 692.0,773.7 704.0,770.4 716.0,767.0 728.0,763.5 740.0,760.0 752.0,756.4 764.0,752.8 776.0,749.1 788.0,745.4 800.0,741.7 812.0,738.0 824.0,734.2 836.0,730.5 848.0,726.7 860.0,722.9 872.0,719.2 884.0,715.5 896.0,711.8 908.0,708.1 920.0,704.4 932.0,700.8 944.0,697.3 956.0,693.7 968.0,690.3 980.0,686.9 992.0,683.5 1004.0,680.3 1016.0,677.1 1028.0,674.0 1040.0,670.9 1052.0,668.0 1064.0,665.1 1076.0,662.4 1088.0,659.7 1100.0,657.2 1112.0,654.7 1124.0,652.4 1136.0,650.1 1148.0,648.0 1160.0,646.0 1172.0,644.1 1184.0,642.3 1196.0,640.6 1208.0,639.1 1220.0,637.6 1232.0,636.3 1244.0,635.1 1256.0,634.0 1268.0,633.0 1280.0,632.2 1292.0,631.4 1304.0,630.8 1316.0,630.2" fill="none" stroke="#ff8038" stroke-width="1.9" opacity="0.26" stroke-linecap="round" /><polyline points="-40.0,-71.4 -28.0,-69.3 -16.0,-67.2 -4.0,-65.3 8.0,-63.5 20.0,-61.8 32.0,-60.2 44.0,-58.7 56.0,-57.4 68.0,-56.1 80.0,-55.0 92.0,-54.0 104.0,-53.1 116.0,-52.4 128.0,-51.7 140.0,-51.1 152.0,-50.7 164.0,-50.4 176.0,-50.1 188.0,-50.0 200.0,-49.9 212.0,-50.0 224.0,-50.1 236.0,-50.3 248.0,-50.6 260.0,-51.0 272.0,-51.4 284.0,-51.9 296.0,-52.5 308.0,-53.1 320.0,-53.8 332.0,-54.5 344.0,-55.3 356.0,-56.1 368.0,-56.9 380.0,-57.7 392.0,-58.6 404.0,-59.5 416.0,-60.3 428.0,-61.2 440.0,-62.1 452.0,-62.9 464.0,-63.8 476.0,-64.6 488.0,-65.4 500.0,-66.1 512.0,-66.8 524.0,-67.5 536.0,-68.1 548.0,-68.7 560.0,-69.2 572.0,-69.6 584.0,-69.9 596.0,-70.2 608.0,-70.4 620.0,-70.5 632.0,-70.6 644.0,-70.5 656.0,-70.3 668.0,-70.1 680.0,-69.7 692.0,-69.2 704.0,-68.6 716.0,-68.0 728.0,-67.2 740.0,-66.2 752.0,-65.2 764.0,-64.1 776.0,-62.8 788.0,-61.4 800.0,-59.9 812.0,-58.3 824.0,-56.6 836.0,-54.8 848.0,-52.8 860.0,-50.8 872.0,-48.6 884.0,-46.3 896.0,-43.9 908.0,-41.4 920.0,-38.8 932.0,-36.1 944.0,-33.3 956.0,-30.4 968.0,-27.4 980.0,-24.3 992.0,-21.2 1004.0,-18.0 1016.0,-14.7 1028.0,-11.3 1040.0,-7.9 1052.0,-4.4 1064.0,-0.8 1076.0,2.7 1088.0,6.4 1100.0,10.0 1112.0,13.7 1124.0,17.4 1136.0,21.2 1148.0,24.9 1160.0,28.7 1172.0,32.4 1184.0,36.2 1196.0,39.9 1208.0,43.7 1220.0,47.4 1232.0,51.0 1244.0,54.7 1256.0,58.3 1268.0,61.9 1280.0,65.4 1292.0,68.8 1304.0,72.2 1316.0,75.5" fill="none" stroke="#27d0b0" stroke-width="1.6" opacity="0.16" stroke-linecap="round" /><polyline points="-40.0,-36.5 -28.0,-35.3 -16.0,-34.3 -4.0,-33.3 8.0,-32.5 20.0,-31.7 32.0,-31.1 44.0,-30.6 56.0,-30.2 68.0,-29.8 80.0,-29.6 92.0,-29.5 104.0,-29.5 116.0,-29.6 128.0,-29.7 140.0,-30.0 152.0,-30.3 164.0,-30.7 176.0,-31.2 188.0,-31.7 200.0,-32.3 212.0,-32.9 224.0,-33.6 236.0,-34.3 248.0,-35.1 260.0,-35.9 272.0,-36.7 284.0,-37.6 296.0,-38.5 308.0,-39.3 320.0,-40.2 332.0,-41.1 344.0,-42.0 356.0,-42.8 368.0,-43.6 380.0,-44.5 392.0,-45.2 404.0,-46.0 416.0,-46.7 428.0,-47.3 440.0,-47.9 452.0,-48.4 464.0,-48.9 476.0,-49.3 488.0,-49.6 500.0,-49.9 512.0,-50.1 524.0,-50.1 536.0,-50.1 548.0,-50.0 560.0,-49.8 572.0,-49.5 584.0,-49.1 596.0,-48.6 608.0,-48.0 620.0,-47.3 632.0,-46.4 644.0,-45.5 656.0,-44.4 668.0,-43.3 680.0,-42.0 692.0,-40.5 704.0,-39.0 716.0,-37.4 728.0,-35.6 740.0,-33.7 752.0,-31.7 764.0,-29.6 776.0,-27.4 788.0,-25.1 800.0,-22.6 812.0,-20.1 824.0,-17.5 836.0,-14.7 848.0,-11.9 860.0,-9.0 872.0,-6.0 884.0,-2.9 896.0,0.3 908.0,3.6 920.0,6.9 932.0,10.3 944.0,13.7 956.0,17.2 968.0,20.8 980.0,24.4 992.0,28.0 1004.0,31.7 1016.0,35.4 1028.0,39.1 1040.0,42.8 1052.0,46.6 1064.0,50.4 1076.0,54.1 1088.0,57.9 1100.0,61.6 1112.0,65.3 1124.0,69.0 1136.0,72.7 1148.0,76.3 1160.0,79.9 1172.0,83.4 1184.0,86.9 1196.0,90.4 1208.0,93.7 1220.0,97.0 1232.0,100.3 1244.0,103.4 1256.0,106.5 1268.0,109.5 1280.0,112.4 1292.0,115.2 1304.0,117.9 1316.0,120.6" fill="none" stroke="#27d0b0" stroke-width="1.6" opacity="0.16" stroke-linecap="round" /><polyline points="-40.0,-9.6 -28.0,-9.4 -16.0,-9.2 -4.0,-9.1 8.0,-9.1 20.0,-9.2 32.0,-9.4 44.0,-9.7 56.0,-10.0 68.0,-10.4 80.0,-10.9 92.0,-11.5 104.0,-12.1 116.0,-12.7 128.0,-13.4 140.0,-14.2 152.0,-15.0 164.0,-15.8 176.0,-16.6 188.0,-17.5 200.0,-18.3 212.0,-19.2 224.0,-20.1 236.0,-21.0 248.0,-21.8 260.0,-22.7 272.0,-23.5 284.0,-24.3 296.0,-25.1 308.0,-25.8 320.0,-26.5 332.0,-27.1 344.0,-27.7 356.0,-28.2 368.0,-28.6 380.0,-29.0 392.0,-29.3 404.0,-29.5 416.0,-29.7 428.0,-29.7 440.0,-29.7 452.0,-29.6 464.0,-29.3 476.0,-29.0 488.0,-28.6 500.0,-28.0 512.0,-27.4 524.0,-26.6 536.0,-25.7 548.0,-24.7 560.0,-23.6 572.0,-22.4 584.0,-21.1 596.0,-19.6 608.0,-18.1 620.0,-16.4 632.0,-14.6 644.0,-12.7 656.0,-10.6 668.0,-8.5 680.0,-6.2 692.0,-3.9 704.0,-1.4 716.0,1.2 728.0,3.8 740.0,6.6 752.0,9.5 764.0,12.4 776.0,15.5 788.0,18.6 800.0,21.8 812.0,25.1 824.0,28.4 836.0,31.8 848.0,35.3 860.0,38.8 872.0,42.4 884.0,46.0 896.0,49.6 908.0,53.3 920.0,57.0 932.0,60.8 944.0,64.5 956.0,68.3 968.0,72.0 980.0,75.8 992.0,79.5 1004.0,83.3 1016.0,87.0 1028.0,90.7 1040.0,94.3 1052.0,97.9 1064.0,101.5 1076.0,105.0 1088.0,108.5 1100.0,111.9 1112.0,115.3 1124.0,118.5 1136.0,121.8 1148.0,124.9 1160.0,127.9 1172.0,130.9 1184.0,133.8 1196.0,136.6 1208.0,139.2 1220.0,141.8 1232.0,144.3 1244.0,146.7 1256.0,148.9 1268.0,151.1 1280.0,153.1 1292.0,155.1 1304.0,156.9 1316.0,158.6" fill="none" stroke="#27d0b0" stroke-width="1.6" opacity="0.16" stroke-linecap="round" /><polyline points="-40.0,10.3 -28.0,9.8 -16.0,9.3 -4.0,8.8 8.0,8.1 20.0,7.5 32.0,6.7 44.0,6.0 56.0,5.2 68.0,4.4 80.0,3.5 92.0,2.7 104.0,1.8 116.0,0.9 128.0,0.0 140.0,-0.8 152.0,-1.7 164.0,-2.5 176.0,-3.4 188.0,-4.1 200.0,-4.9 212.0,-5.6 224.0,-6.3 236.0,-6.9 248.0,-7.4 260.0,-7.9 272.0,-8.4 284.0,-8.7 296.0,-9.0 308.0,-9.2 320.0,-9.3 332.0,-9.3 344.0,-9.2 356.0,-9.1 368.0,-8.8 380.0,-8.5 392.0,-8.0 404.0,-7.4 416.0,-6.7 428.0,-5.9 440.0,-5.0 452.0,-4.0 464.0,-2.8 476.0,-1.6 488.0,-0.2 500.0,1.3 512.0,2.9 524.0,4.6 536.0,6.5 548.0,8.4 560.0,10.5 572.0,12.7 584.0,15.0 596.0,17.4 608.0,19.9 620.0,22.5 632.0,25.2 644.0,28.0 656.0,30.9 668.0,33.8 680.0,36.9 692.0,40.1 704.0,43.3 716.0,46.6 728.0,49.9 740.0,53.4 752.0,56.9 764.0,60.4 776.0,64.0 788.0,67.6 800.0,71.3 812.0,75.0 824.0,78.7 836.0,82.4 848.0,86.2 860.0,89.9 872.0,93.7 884.0,97.4 896.0,101.2 908.0,104.9 920.0,108.6 932.0,112.3 944.0,115.9 956.0,119.5 968.0,123.1 980.0,126.6 992.0,130.1 1004.0,133.5 1016.0,136.8 1028.0,140.0 1040.0,143.2 1052.0,146.3 1064.0,149.3 1076.0,152.3 1088.0,155.1 1100.0,157.9 1112.0,160.5 1124.0,163.1 1136.0,165.5 1148.0,167.8 1160.0,170.1 1172.0,172.2 1184.0,174.2 1196.0,176.1 1208.0,177.9 1220.0,179.5 1232.0,181.1 1244.0,182.5 1256.0,183.8 1268.0,185.0 1280.0,186.1 1292.0,187.0 1304.0,187.9 1316.0,188.6" fill="none" stroke="#27d0b0" stroke-width="1.6" opacity="0.16" stroke-linecap="round" /><polyline points="-40.0,25.3 -28.0,24.5 -16.0,23.6 -4.0,22.8 8.0,21.9 20.0,21.0 32.0,20.1 44.0,19.3 56.0,18.4 68.0,17.6 80.0,16.8 92.0,16.0 104.0,15.3 116.0,14.6 128.0,13.9 140.0,13.3 152.0,12.8 164.0,12.3 176.0,11.9 188.0,11.6 200.0,11.4 212.0,11.2 224.0,11.1 236.0,11.1 248.0,11.2 260.0,11.4 272.0,11.7 284.0,12.1 296.0,12.6 308.0,13.2 320.0,14.0 332.0,14.8 344.0,15.7 356.0,16.8 368.0,18.0 380.0,19.3 392.0,20.7 404.0,22.2 416.0,23.9 428.0,25.6 440.0,27.5 452.0,29.5 464.0,31.6 476.0,33.8 488.0,36.2 500.0,38.6 512.0,41.1 524.0,43.8 536.0,46.5 548.0,49.3 560.0,52.3 572.0,55.3 584.0,58.4 596.0,61.5 608.0,64.8 620.0,68.1 632.0,71.5 644.0,74.9 656.0,78.5 668.0,82.0 680.0,85.6 692.0,89.2 704.0,92.9 716.0,96.6 728.0,100.3 740.0,104.1 752.0,107.8 764.0,111.6 776.0,115.4 788.0,119.1 800.0,122.8 812.0,126.6 824.0,130.3 836.0,133.9 848.0,137.6 860.0,141.1 872.0,144.7 884.0,148.2 896.0,151.6 908.0,155.0 920.0,158.3 932.0,161.5 944.0,164.7 956.0,167.8 968.0,170.7 980.0,173.7 992.0,176.5 1004.0,179.2 1016.0,181.8 1028.0,184.3 1040.0,186.7 1052.0,189.0 1064.0,191.2 1076.0,193.3 1088.0,195.3 1100.0,197.1 1112.0,198.8 1124.0,200.5 1136.0,202.0 1148.0,203.4 1160.0,204.6 1172.0,205.8 1184.0,206.8 1196.0,207.8 1208.0,208.6 1220.0,209.3 1232.0,209.9 1244.0,210.3 1256.0,210.7 1268.0,211.0 1280.0,211.2 1292.0,211.2 1304.0,211.2 1316.0,211.1" fill="none" stroke="#27d0b0" stroke-width="1.6" opacity="0.16" stroke-linecap="round" /><polyline points="-40.0,38.6 -28.0,37.7 -16.0,36.9 -4.0,36.2 8.0,35.5 20.0,34.8 32.0,34.1 44.0,33.6 56.0,33.1 68.0,32.6 80.0,32.2 92.0,31.9 104.0,31.7 116.0,31.6 128.0,31.5 140.0,31.5 152.0,31.7 164.0,31.9 176.0,32.2 188.0,32.7 200.0,33.2 212.0,33.9 224.0,34.6 236.0,35.5 248.0,36.5 260.0,37.6 272.0,38.8 284.0,40.2 296.0,41.6 308.0,43.2 320.0,44.9 332.0,46.7 344.0,48.6 356.0,50.6 368.0,52.8 380.0,55.0 392.0,57.4 404.0,59.8 416.0,62.4 428.0,65.1 440.0,67.9 452.0,70.7 464.0,73.7 476.0,76.7 488.0,79.8 500.0,83.0 512.0,86.3 524.0,89.6 536.0,93.1 548.0,96.5 560.0,100.0 572.0,103.6 584.0,107.2 596.0,110.9 608.0,114.6 620.0,118.3 632.0,122.0 644.0,125.7 656.0,129.5 668.0,133.3 680.0,137.0 692.0,140.8 704.0,144.5 716.0,148.2 728.0,151.9 740.0,155.5 752.0,159.2 764.0,162.7 776.0,166.3 788.0,169.7 800.0,173.2 812.0,176.5 824.0,179.8 836.0,183.0 848.0,186.1 860.0,189.2 872.0,192.1 884.0,195.0 896.0,197.8 908.0,200.5 920.0,203.1 932.0,205.5 944.0,207.9 956.0,210.2 968.0,212.3 980.0,214.4 992.0,216.3 1004.0,218.1 1016.0,219.8 1028.0,221.4 1040.0,222.9 1052.0,224.2 1064.0,225.4 1076.0,226.6 1088.0,227.6 1100.0,228.5 1112.0,229.2 1124.0,229.9 1136.0,230.4 1148.0,230.9 1160.0,231.2 1172.0,231.5 1184.0,231.6 1196.0,231.7 1208.0,231.6 1220.0,231.5 1232.0,231.3 1244.0,231.0 1256.0,230.6 1268.0,230.2 1280.0,229.7 1292.0,229.1 1304.0,228.5 1316.0,227.8" fill="none" stroke="#27d0b0" stroke-width="1.6" opacity="0.16" stroke-linecap="round" /><polyline points="-40.0,53.3 -28.0,52.9 -16.0,52.5 -4.0,52.3 8.0,52.1 20.0,51.9 32.0,51.9 44.0,52.0 56.0,52.2 68.0,52.4 80.0,52.8 92.0,53.3 104.0,53.8 116.0,54.5 128.0,55.3 140.0,56.2 152.0,57.3 164.0,58.4 176.0,59.7 188.0,61.0 200.0,62.5 212.0,64.1 224.0,65.9 236.0,67.7 248.0,69.7 260.0,71.7 272.0,73.9 284.0,76.2 296.0,78.6 308.0,81.1 320.0,83.7 332.0,86.4 344.0,89.2 356.0,92.1 368.0,95.1 380.0,98.2 392.0,101.3 404.0,104.5 416.0,107.8 428.0,111.2 440.0,114.6 452.0,118.1 464.0,121.6 476.0,125.2 488.0,128.9 500.0,132.5 512.0,136.2 524.0,139.9 536.0,143.7 548.0,147.4 560.0,151.2 572.0,154.9 584.0,158.7 596.0,162.4 608.0,166.1 620.0,169.9 632.0,173.5 644.0,177.2 656.0,180.8 668.0,184.3 680.0,187.8 692.0,191.3 704.0,194.7 716.0,198.0 728.0,201.3 740.0,204.5 752.0,207.6 764.0,210.6 776.0,213.5 788.0,216.4 800.0,219.1 812.0,221.8 824.0,224.3 836.0,226.8 848.0,229.1 860.0,231.3 872.0,233.4 884.0,235.4 896.0,237.3 908.0,239.1 920.0,240.8 932.0,242.3 944.0,243.7 956.0,245.1 968.0,246.2 980.0,247.3 992.0,248.3 1004.0,249.1 1016.0,249.9 1028.0,250.5 1040.0,251.0 1052.0,251.4 1064.0,251.7 1076.0,251.9 1088.0,252.1 1100.0,252.1 1112.0,252.0 1124.0,251.8 1136.0,251.6 1148.0,251.3 1160.0,250.9 1172.0,250.4 1184.0,249.9 1196.0,249.3 1208.0,248.7 1220.0,248.0 1232.0,247.2 1244.0,246.5 1256.0,245.7 1268.0,244.8 1280.0,244.0 1292.0,243.1 1304.0,242.2 1316.0,241.4" fill="none" stroke="#27d0b0" stroke-width="1.6" opacity="0.16" stroke-linecap="round" /><polyline points="-40.0,72.7 -28.0,72.9 -16.0,73.3 -4.0,73.9 8.0,74.5 20.0,75.2 32.0,76.0 44.0,77.0 56.0,78.0 68.0,79.2 80.0,80.5 92.0,81.9 104.0,83.5 116.0,85.1 128.0,86.9 140.0,88.8 152.0,90.8 164.0,92.9 176.0,95.1 188.0,97.4 200.0,99.8 212.0,102.4 224.0,105.0 236.0,107.7 248.0,110.6 260.0,113.5 272.0,116.5 284.0,119.6 296.0,122.8 308.0,126.0 320.0,129.4 332.0,132.7 344.0,136.2 356.0,139.7 368.0,143.2 380.0,146.8 392.0,150.5 404.0,154.2 416.0,157.9 428.0,161.6 440.0,165.3 452.0,169.1 464.0,172.8 476.0,176.6 488.0,180.3 500.0,184.1 512.0,187.8 524.0,191.5 536.0,195.2 548.0,198.8 560.0,202.4 572.0,205.9 584.0,209.4 596.0,212.9 608.0,216.2 620.0,219.5 632.0,222.8 644.0,225.9 656.0,229.0 668.0,232.0 680.0,234.9 692.0,237.7 704.0,240.4 716.0,243.0 728.0,245.5 740.0,248.0 752.0,250.3 764.0,252.5 776.0,254.5 788.0,256.5 800.0,258.4 812.0,260.1 824.0,261.7 836.0,263.2 848.0,264.6 860.0,265.9 872.0,267.0 884.0,268.1 896.0,269.0 908.0,269.8 920.0,270.5 932.0,271.1 944.0,271.6 956.0,272.0 968.0,272.2 980.0,272.4 992.0,272.5 1004.0,272.5 1016.0,272.4 1028.0,272.2 1040.0,271.9 1052.0,271.6 1064.0,271.2 1076.0,270.7 1088.0,270.1 1100.0,269.5 1112.0,268.9 1124.0,268.2 1136.0,267.4 1148.0,266.6 1160.0,265.8 1172.0,265.0 1184.0,264.1 1196.0,263.2 1208.0,262.4 1220.0,261.5 1232.0,260.6 1244.0,259.8 1256.0,258.9 1268.0,258.1 1280.0,257.3 1292.0,256.5 1304.0,255.8 1316.0,255.1" fill="none" stroke="#27d0b0" stroke-width="1.6" opacity="0.16" stroke-linecap="round" /><polyline points="-40.0,98.8 -28.0,100.1 -16.0,101.4 -4.0,102.9 8.0,104.4 20.0,106.1 32.0,107.9 44.0,109.8 56.0,111.9 68.0,114.0 80.0,116.3 92.0,118.6 104.0,121.1 116.0,123.7 128.0,126.3 140.0,129.1 152.0,132.0 164.0,134.9 176.0,137.9 188.0,141.1 200.0,144.3 212.0,147.5 224.0,150.9 236.0,154.3 248.0,157.8 260.0,161.3 272.0,164.9 284.0,168.5 296.0,172.1 308.0,175.8 320.0,179.5 332.0,183.2 344.0,187.0 356.0,190.7 368.0,194.5 380.0,198.3 392.0,202.0 404.0,205.7 416.0,209.4 428.0,213.1 440.0,216.8 452.0,220.4 464.0,224.0 476.0,227.5 488.0,231.0 500.0,234.4 512.0,237.7 524.0,241.0 536.0,244.2 548.0,247.4 560.0,250.4 572.0,253.4 584.0,256.3 596.0,259.0 608.0,261.7 620.0,264.3 632.0,266.8 644.0,269.2 656.0,271.4 668.0,273.6 680.0,275.6 692.0,277.5 704.0,279.4 716.0,281.1 728.0,282.6 740.0,284.1 752.0,285.5 764.0,286.7 776.0,287.8 788.0,288.8 800.0,289.7 812.0,290.5 824.0,291.1 836.0,291.7 848.0,292.1 860.0,292.5 872.0,292.7 884.0,292.9 896.0,292.9 908.0,292.9 920.0,292.7 932.0,292.5 944.0,292.2 956.0,291.9 968.0,291.4 980.0,290.9 992.0,290.3 1004.0,289.7 1016.0,289.0 1028.0,288.3 1040.0,287.6 1052.0,286.8 1064.0,285.9 1076.0,285.1 1088.0,284.2 1100.0,283.4 1112.0,282.5 1124.0,281.6 1136.0,280.7 1148.0,279.9 1160.0,279.0 1172.0,278.2 1184.0,277.4 1196.0,276.7 1208.0,276.0 1220.0,275.3 1232.0,274.7 1244.0,274.2 1256.0,273.7 1268.0,273.2 1280.0,272.9 1292.0,272.6 1304.0,272.4 1316.0,272.3" fill="none" stroke="#27d0b0" stroke-width="1.6" opacity="0.16" stroke-linecap="round" /><polyline points="-40.0,133.0 -28.0,135.2 -16.0,137.4 -4.0,139.8 8.0,142.3 20.0,144.9 32.0,147.7 44.0,150.5 56.0,153.3 68.0,156.3 80.0,159.4 92.0,162.5 104.0,165.8 116.0,169.1 128.0,172.4 140.0,175.9 152.0,179.3 164.0,182.9 176.0,186.5 188.0,190.1 200.0,193.8 212.0,197.4 224.0,201.2 236.0,204.9 248.0,208.7 260.0,212.4 272.0,216.2 284.0,219.9 296.0,223.7 308.0,227.4 320.0,231.1 332.0,234.8 344.0,238.4 356.0,242.0 368.0,245.6 380.0,249.1 392.0,252.5 404.0,255.9 416.0,259.3 428.0,262.5 440.0,265.7 452.0,268.8 464.0,271.8 476.0,274.8 488.0,277.6 500.0,280.4 512.0,283.0 524.0,285.5 536.0,288.0 548.0,290.3 560.0,292.6 572.0,294.7 584.0,296.7 596.0,298.6 608.0,300.4 620.0,302.0 632.0,303.6 644.0,305.0 656.0,306.3 668.0,307.5 680.0,308.6 692.0,309.5 704.0,310.4 716.0,311.1 728.0,311.7 740.0,312.3 752.0,312.7 764.0,313.0 776.0,313.2 788.0,313.3 800.0,313.3 812.0,313.2 824.0,313.1 836.0,312.8 848.0,312.5 860.0,312.1 872.0,311.7 884.0,311.1 896.0,310.6 908.0,309.9 920.0,309.2 932.0,308.5 944.0,307.7 956.0,306.9 968.0,306.1 980.0,305.2 992.0,304.4 1004.0,303.5 1016.0,302.6 1028.0,301.7 1040.0,300.9 1052.0,300.0 1064.0,299.2 1076.0,298.4 1088.0,297.6 1100.0,296.9 1112.0,296.2 1124.0,295.5 1136.0,294.9 1148.0,294.4 1160.0,293.9 1172.0,293.5 1184.0,293.2 1196.0,292.9 1208.0,292.8 1220.0,292.7 1232.0,292.7 1244.0,292.8 1256.0,293.0 1268.0,293.3 1280.0,293.7 1292.0,294.2 1304.0,294.8 1316.0,295.5" fill="none" stroke="#27d0b0" stroke-width="1.6" opacity="0.16" stroke-linecap="round" /><polyline points="-40.0,174.7 -28.0,177.8 -16.0,180.8 -4.0,184.0 8.0,187.3 20.0,190.6 32.0,194.0 44.0,197.4 56.0,200.9 68.0,204.5 80.0,208.1 92.0,211.7 104.0,215.4 116.0,219.1 128.0,222.8 140.0,226.6 152.0,230.3 164.0,234.1 176.0,237.8 188.0,241.6 200.0,245.3 212.0,249.0 224.0,252.7 236.0,256.4 248.0,260.0 260.0,263.6 272.0,267.2 284.0,270.7 296.0,274.1 308.0,277.5 320.0,280.8 332.0,284.0 344.0,287.2 356.0,290.2 368.0,293.2 380.0,296.1 392.0,298.9 404.0,301.7 416.0,304.3 428.0,306.8 440.0,309.2 452.0,311.5 464.0,313.7 476.0,315.8 488.0,317.7 500.0,319.6 512.0,321.3 524.0,323.0 536.0,324.5 548.0,325.8 560.0,327.1 572.0,328.3 584.0,329.3 596.0,330.2 608.0,331.0 620.0,331.7 632.0,332.3 644.0,332.8 656.0,333.2 668.0,333.5 680.0,333.7 692.0,333.7 704.0,333.7 716.0,333.6 728.0,333.4 740.0,333.2 752.0,332.8 764.0,332.4 776.0,331.9 788.0,331.4 800.0,330.8 812.0,330.1 824.0,329.4 836.0,328.6 848.0,327.9 860.0,327.1 872.0,326.2 884.0,325.4 896.0,324.5 908.0,323.6 920.0,322.7 932.0,321.9 944.0,321.0 956.0,320.2 968.0,319.3 980.0,318.5 992.0,317.8 1004.0,317.0 1016.0,316.4 1028.0,315.7 1040.0,315.2 1052.0,314.6 1064.0,314.2 1076.0,313.8 1088.0,313.5 1100.0,313.3 1112.0,313.2 1124.0,313.1 1136.0,313.1 1148.0,313.3 1160.0,313.5 1172.0,313.8 1184.0,314.3 1196.0,314.8 1208.0,315.5 1220.0,316.2 1232.0,317.1 1244.0,318.1 1256.0,319.2 1268.0,320.4 1280.0,321.7 1292.0,323.2 1304.0,324.8 1316.0,326.5" fill="none" stroke="#27d0b0" stroke-width="1.6" opacity="0.16" stroke-linecap="round" /><polyline points="-40.0,222.5 -28.0,226.1 -16.0,229.7 -4.0,233.4 8.0,237.0 20.0,240.8 32.0,244.5 44.0,248.2 56.0,252.0 68.0,255.7 80.0,259.5 92.0,263.2 104.0,267.0 116.0,270.7 128.0,274.4 140.0,278.0 152.0,281.6 164.0,285.2 176.0,288.8 188.0,292.2 200.0,295.6 212.0,299.0 224.0,302.3 236.0,305.5 248.0,308.6 260.0,311.7 272.0,314.6 284.0,317.5 296.0,320.3 308.0,323.0 320.0,325.5 332.0,328.0 344.0,330.4 356.0,332.7 368.0,334.8 380.0,336.9 392.0,338.8 404.0,340.6 416.0,342.3 428.0,343.9 440.0,345.3 452.0,346.7 464.0,347.9 476.0,349.0 488.0,350.0 500.0,350.9 512.0,351.7 524.0,352.4 536.0,352.9 548.0,353.4 560.0,353.7 572.0,354.0 584.0,354.1 596.0,354.1 608.0,354.1 620.0,354.0 632.0,353.8 644.0,353.5 656.0,353.1 668.0,352.7 680.0,352.1 692.0,351.6 704.0,351.0 716.0,350.3 728.0,349.6 740.0,348.8 752.0,348.0 764.0,347.2 776.0,346.3 788.0,345.5 800.0,344.6 812.0,343.7 824.0,342.9 836.0,342.0 848.0,341.1 860.0,340.3 872.0,339.5 884.0,338.7 896.0,337.9 908.0,337.2 920.0,336.6 932.0,336.0 944.0,335.4 956.0,334.9 968.0,334.5 980.0,334.1 992.0,333.8 1004.0,333.7 1016.0,333.5 1028.0,333.5 1040.0,333.6 1052.0,333.7 1064.0,334.0 1076.0,334.4 1088.0,334.9 1100.0,335.4 1112.0,336.1 1124.0,336.9 1136.0,337.8 1148.0,338.9 1160.0,340.0 1172.0,341.3 1184.0,342.6 1196.0,344.1 1208.0,345.7 1220.0,347.5 1232.0,349.3 1244.0,351.3 1256.0,353.3 1268.0,355.5 1280.0,357.8 1292.0,360.2 1304.0,362.7 1316.0,365.3" fill="none" stroke="#27d0b0" stroke-width="1.6" opacity="0.16" stroke-linecap="round" /><polyline points="-40.0,273.7 -28.0,277.4 -16.0,281.2 -4.0,284.9 8.0,288.6 20.0,292.3 32.0,296.0 44.0,299.7 56.0,303.3 68.0,306.8 80.0,310.3 92.0,313.8 104.0,317.2 116.0,320.5 128.0,323.8 140.0,326.9 152.0,330.1 164.0,333.1 176.0,336.0 188.0,338.8 200.0,341.6 212.0,344.2 224.0,346.8 236.0,349.2 248.0,351.6 260.0,353.8 272.0,355.9 284.0,357.9 296.0,359.8 308.0,361.6 320.0,363.3 332.0,364.8 344.0,366.2 356.0,367.5 368.0,368.7 380.0,369.8 392.0,370.8 404.0,371.6 416.0,372.4 428.0,373.0 440.0,373.5 452.0,373.9 464.0,374.2 476.0,374.4 488.0,374.5 500.0,374.6 512.0,374.5 524.0,374.3 536.0,374.1 548.0,373.8 560.0,373.4 572.0,372.9 584.0,372.4 596.0,371.8 608.0,371.2 620.0,370.5 632.0,369.7 644.0,369.0 656.0,368.2 668.0,367.3 680.0,366.5 692.0,365.6 704.0,364.7 716.0,363.9 728.0,363.0 740.0,362.1 752.0,361.3 764.0,360.4 776.0,359.6 788.0,358.8 800.0,358.1 812.0,357.4 824.0,356.8 836.0,356.2 848.0,355.6 860.0,355.2 872.0,354.8 884.0,354.4 896.0,354.2 908.0,354.0 920.0,353.9 932.0,353.9 944.0,354.0 956.0,354.2 968.0,354.5 980.0,354.9 992.0,355.4 1004.0,356.1 1016.0,356.8 1028.0,357.6 1040.0,358.6 1052.0,359.6 1064.0,360.8 1076.0,362.1 1088.0,363.5 1100.0,365.1 1112.0,366.7 1124.0,368.5 1136.0,370.4 1148.0,372.3 1160.0,374.4 1172.0,376.7 1184.0,379.0 1196.0,381.4 1208.0,384.0 1220.0,386.6 1232.0,389.3 1244.0,392.2 1256.0,395.1 1268.0,398.1 1280.0,401.2 1292.0,404.4 1304.0,407.6 1316.0,410.9" fill="none" stroke="#27d0b0" stroke-width="1.6" opacity="0.16" stroke-linecap="round" /><polyline points="-40.0,324.9 -28.0,328.4 -16.0,331.9 -4.0,335.3 8.0,338.7 20.0,342.0 32.0,345.2 44.0,348.4 56.0,351.5 68.0,354.5 80.0,357.4 92.0,360.2 104.0,362.9 116.0,365.5 128.0,368.0 140.0,370.4 152.0,372.7 164.0,374.9 176.0,377.0 188.0,379.0 200.0,380.8 212.0,382.6 224.0,384.2 236.0,385.7 248.0,387.1 260.0,388.4 272.0,389.5 284.0,390.6 296.0,391.5 308.0,392.3 320.0,393.0 332.0,393.6 344.0,394.1 356.0,394.4 368.0,394.7 380.0,394.9 392.0,395.0 404.0,395.0 416.0,394.9 428.0,394.7 440.0,394.4 452.0,394.1 464.0,393.6 476.0,393.2 488.0,392.6 500.0,392.0 512.0,391.3 524.0,390.6 536.0,389.9 548.0,389.1 560.0,388.3 572.0,387.5 584.0,386.6 596.0,385.7 608.0,384.9 620.0,384.0 632.0,383.1 644.0,382.2 656.0,381.4 668.0,380.6 680.0,379.8 692.0,379.0 704.0,378.3 716.0,377.6 728.0,377.0 740.0,376.4 752.0,375.9 764.0,375.4 776.0,375.1 788.0,374.8 800.0,374.5 812.0,374.4 824.0,374.3 836.0,374.4 848.0,374.5 860.0,374.7 872.0,375.1 884.0,375.5 896.0,376.1 908.0,376.7 920.0,377.5 932.0,378.3 944.0,379.3 956.0,380.4 968.0,381.7 980.0,383.0 992.0,384.4 1004.0,386.0 1016.0,387.7 1028.0,389.5 1040.0,391.4 1052.0,393.4 1064.0,395.6 1076.0,397.8 1088.0,400.2 1100.0,402.7 1112.0,405.2 1124.0,407.9 1136.0,410.7 1148.0,413.5 1160.0,416.5 1172.0,419.5 1184.0,422.7 1196.0,425.9 1208.0,429.1 1220.0,432.5 1232.0,435.9 1244.0,439.4 1256.0,442.9 1268.0,446.4 1280.0,450.1 1292.0,453.7 1304.0,457.4 1316.0,461.1" fill="none" stroke="#27d0b0" stroke-width="1.6" opacity="0.16" stroke-linecap="round" /><polyline points="-40.0,372.9 -28.0,375.9 -16.0,378.7 -4.0,381.5 8.0,384.2 20.0,386.8 32.0,389.3 44.0,391.6 56.0,393.9 68.0,396.1 80.0,398.1 92.0,400.0 104.0,401.8 116.0,403.5 128.0,405.1 140.0,406.6 152.0,407.9 164.0,409.2 176.0,410.3 188.0,411.3 200.0,412.2 212.0,412.9 224.0,413.6 236.0,414.2 248.0,414.6 260.0,415.0 272.0,415.2 284.0,415.3 296.0,415.4 308.0,415.3 320.0,415.2 332.0,415.0 344.0,414.7 356.0,414.3 368.0,413.9 380.0,413.4 392.0,412.8 404.0,412.2 416.0,411.5 428.0,410.8 440.0,410.0 452.0,409.3 464.0,408.4 476.0,407.6 488.0,406.7 500.0,405.9 512.0,405.0 524.0,404.1 536.0,403.2 548.0,402.4 560.0,401.5 572.0,400.7 584.0,399.9 596.0,399.2 608.0,398.5 620.0,397.8 632.0,397.2 644.0,396.6 656.0,396.1 668.0,395.7 680.0,395.4 692.0,395.1 704.0,394.9 716.0,394.8 728.0,394.8 740.0,394.8 752.0,395.0 764.0,395.3 776.0,395.6 788.0,396.1 800.0,396.7 812.0,397.4 824.0,398.2 836.0,399.1 848.0,400.1 860.0,401.2 872.0,402.5 884.0,403.9 896.0,405.4 908.0,407.0 920.0,408.7 932.0,410.5 944.0,412.5 956.0,414.6 968.0,416.7 980.0,419.0 992.0,421.4 1004.0,423.9 1016.0,426.5 1028.0,429.2 1040.0,432.0 1052.0,434.9 1064.0,437.9 1076.0,441.0 1088.0,444.1 1100.0,447.4 1112.0,450.7 1124.0,454.0 1136.0,457.4 1148.0,460.9 1160.0,464.5 1172.0,468.1 1184.0,471.7 1196.0,475.3 1208.0,479.0 1220.0,482.8 1232.0,486.5 1244.0,490.2 1256.0,494.0 1268.0,497.8 1280.0,501.5 1292.0,505.3 1304.0,509.0 1316.0,512.7" fill="none" stroke="#27d0b0" stroke-width="1.6" opacity="0.16" stroke-linecap="round" /><polyline points="-40.0,415.0 -28.0,417.2 -16.0,419.2 -4.0,421.1 8.0,422.8 20.0,424.5 32.0,426.0 44.0,427.5 56.0,428.8 68.0,430.0 80.0,431.0 92.0,432.0 104.0,432.9 116.0,433.6 128.0,434.2 140.0,434.7 152.0,435.2 164.0,435.5 176.0,435.7 188.0,435.8 200.0,435.8 212.0,435.7 224.0,435.6 236.0,435.3 248.0,435.0 260.0,434.6 272.0,434.1 284.0,433.6 296.0,433.0 308.0,432.4 320.0,431.7 332.0,431.0 344.0,430.2 356.0,429.4 368.0,428.6 380.0,427.7 392.0,426.8 404.0,426.0 416.0,425.1 428.0,424.2 440.0,423.4 452.0,422.5 464.0,421.7 476.0,420.9 488.0,420.1 500.0,419.3 512.0,418.7 524.0,418.0 536.0,417.4 548.0,416.9 560.0,416.4 572.0,416.0 584.0,415.7 596.0,415.4 608.0,415.3 620.0,415.2 632.0,415.2 644.0,415.3 656.0,415.5 668.0,415.8 680.0,416.2 692.0,416.7 704.0,417.3 716.0,418.0 728.0,418.9 740.0,419.8 752.0,420.9 764.0,422.1 776.0,423.4 788.0,424.8 800.0,426.3 812.0,427.9 824.0,429.7 836.0,431.6 848.0,433.6 860.0,435.7 872.0,437.9 884.0,440.2 896.0,442.7 908.0,445.2 920.0,447.8 932.0,450.6 944.0,453.4 956.0,456.3 968.0,459.3 980.0,462.4 992.0,465.6 1004.0,468.9 1016.0,472.2 1028.0,475.6 1040.0,479.0 1052.0,482.5 1064.0,486.1 1076.0,489.7 1088.0,493.3 1100.0,497.0 1112.0,500.7 1124.0,504.4 1136.0,508.2 1148.0,511.9 1160.0,515.7 1172.0,519.4 1184.0,523.2 1196.0,526.9 1208.0,530.6 1220.0,534.3 1232.0,538.0 1244.0,541.6 1256.0,545.2 1268.0,548.8 1280.0,552.2 1292.0,555.7 1304.0,559.1 1316.0,562.4" fill="none" stroke="#27d0b0" stroke-width="1.6" opacity="0.16" stroke-linecap="round" /><polyline points="-40.0,449.6 -28.0,450.8 -16.0,451.8 -4.0,452.7 8.0,453.5 20.0,454.2 32.0,454.8 44.0,455.3 56.0,455.7 68.0,456.0 80.0,456.1 92.0,456.2 104.0,456.2 116.0,456.1 128.0,455.9 140.0,455.6 152.0,455.3 164.0,454.9 176.0,454.4 188.0,453.8 200.0,453.2 212.0,452.6 224.0,451.9 236.0,451.1 248.0,450.3 260.0,449.5 272.0,448.7 284.0,447.8 296.0,447.0 308.0,446.1 320.0,445.2 332.0,444.3 344.0,443.5 356.0,442.6 368.0,441.8 380.0,441.0 392.0,440.2 404.0,439.5 416.0,438.8 428.0,438.2 440.0,437.6 452.0,437.1 464.0,436.7 476.0,436.3 488.0,436.0 500.0,435.8 512.0,435.6 524.0,435.6 536.0,435.6 548.0,435.8 560.0,436.0 572.0,436.3 584.0,436.8 596.0,437.3 608.0,437.9 620.0,438.7 632.0,439.6 644.0,440.6 656.0,441.7 668.0,442.9 680.0,444.2 692.0,445.7 704.0,447.3 716.0,448.9 728.0,450.7 740.0,452.7 752.0,454.7 764.0,456.8 776.0,459.1 788.0,461.4 800.0,463.9 812.0,466.5 824.0,469.2 836.0,471.9 848.0,474.8 860.0,477.7 872.0,480.8 884.0,483.9 896.0,487.1 908.0,490.4 920.0,493.7 932.0,497.1 944.0,500.6 956.0,504.1 968.0,507.7 980.0,511.3 992.0,514.9 1004.0,518.6 1016.0,522.3 1028.0,526.1 1040.0,529.8 1052.0,533.6 1064.0,537.3 1076.0,541.1 1088.0,544.8 1100.0,548.6 1112.0,552.3 1124.0,556.0 1136.0,559.6 1148.0,563.2 1160.0,566.8 1172.0,570.3 1184.0,573.8 1196.0,577.2 1208.0,580.6 1220.0,583.9 1232.0,587.1 1244.0,590.2 1256.0,593.2 1268.0,596.2 1280.0,599.1 1292.0,601.9 1304.0,604.5 1316.0,607.1" fill="none" stroke="#27d0b0" stroke-width="1.6" opacity="0.16" stroke-linecap="round" /><polyline points="-40.0,476.2 -28.0,476.4 -16.0,476.6 -4.0,476.6 8.0,476.6 20.0,476.5 32.0,476.2 44.0,475.9 56.0,475.6 68.0,475.1 80.0,474.6 92.0,474.1 104.0,473.4 116.0,472.8 128.0,472.0 140.0,471.3 152.0,470.5 164.0,469.7 176.0,468.8 188.0,468.0 200.0,467.1 212.0,466.2 224.0,465.3 236.0,464.5 248.0,463.6 260.0,462.8 272.0,462.0 284.0,461.2 296.0,460.4 308.0,459.7 320.0,459.0 332.0,458.4 344.0,457.9 356.0,457.4 368.0,457.0 380.0,456.6 392.0,456.3 404.0,456.1 416.0,456.0 428.0,456.0 440.0,456.1 452.0,456.2 464.0,456.5 476.0,456.9 488.0,457.3 500.0,457.9 512.0,458.6 524.0,459.4 536.0,460.3 548.0,461.3 560.0,462.5 572.0,463.7 584.0,465.1 596.0,466.6 608.0,468.2 620.0,469.9 632.0,471.8 644.0,473.7 656.0,475.8 668.0,478.0 680.0,480.3 692.0,482.7 704.0,485.2 716.0,487.8 728.0,490.5 740.0,493.3 752.0,496.2 764.0,499.2 776.0,502.2 788.0,505.4 800.0,508.6 812.0,511.9 824.0,515.3 836.0,518.7 848.0,522.2 860.0,525.7 872.0,529.3 884.0,532.9 896.0,536.6 908.0,540.3 920.0,544.0 932.0,547.7 944.0,551.5 956.0,555.2 968.0,559.0 980.0,562.8 992.0,566.5 1004.0,570.2 1016.0,573.9 1028.0,577.6 1040.0,581.2 1052.0,584.8 1064.0,588.4 1076.0,591.9 1088.0,595.4 1100.0,598.8 1112.0,602.1 1124.0,605.4 1136.0,608.5 1148.0,611.6 1160.0,614.7 1172.0,617.6 1184.0,620.4 1196.0,623.2 1208.0,625.8 1220.0,628.4 1232.0,630.8 1244.0,633.2 1256.0,635.4 1268.0,637.5 1280.0,639.5 1292.0,641.4 1304.0,643.2 1316.0,644.8" fill="none" stroke="#27d0b0" stroke-width="1.6" opacity="0.16" stroke-linecap="round" /><polyline points="-40.0,495.9 -28.0,495.4 -16.0,494.9 -4.0,494.3 8.0,493.6 20.0,492.9 32.0,492.2 44.0,491.4 56.0,490.6 68.0,489.8 80.0,489.0 92.0,488.1 104.0,487.2 116.0,486.3 128.0,485.5 140.0,484.6 152.0,483.7 164.0,482.9 176.0,482.1 188.0,481.3 200.0,480.6 212.0,479.9 224.0,479.2 236.0,478.7 248.0,478.1 260.0,477.7 272.0,477.2 284.0,476.9 296.0,476.7 308.0,476.5 320.0,476.4 332.0,476.4 344.0,476.5 356.0,476.7 368.0,477.0 380.0,477.4 392.0,477.9 404.0,478.5 416.0,479.3 428.0,480.1 440.0,481.1 452.0,482.1 464.0,483.3 476.0,484.6 488.0,486.0 500.0,487.5 512.0,489.2 524.0,491.0 536.0,492.8 548.0,494.8 560.0,496.9 572.0,499.1 584.0,501.5 596.0,503.9 608.0,506.4 620.0,509.1 632.0,511.8 644.0,514.7 656.0,517.6 668.0,520.6 680.0,523.7 692.0,526.9 704.0,530.1 716.0,533.4 728.0,536.8 740.0,540.3 752.0,543.8 764.0,547.3 776.0,550.9 788.0,554.6 800.0,558.2 812.0,561.9 824.0,565.7 836.0,569.4 848.0,573.1 860.0,576.9 872.0,580.7 884.0,584.4 896.0,588.2 908.0,591.9 920.0,595.6 932.0,599.2 944.0,602.9 956.0,606.5 968.0,610.0 980.0,613.5 992.0,616.9 1004.0,620.3 1016.0,623.6 1028.0,626.8 1040.0,630.0 1052.0,633.1 1064.0,636.1 1076.0,639.0 1088.0,641.8 1100.0,644.5 1112.0,647.1 1124.0,649.6 1136.0,652.0 1148.0,654.3 1160.0,656.5 1172.0,658.6 1184.0,660.6 1196.0,662.4 1208.0,664.2 1220.0,665.8 1232.0,667.3 1244.0,668.7 1256.0,669.9 1268.0,671.1 1280.0,672.1 1292.0,673.1 1304.0,673.9 1316.0,674.6" fill="none" stroke="#27d0b0" stroke-width="1.6" opacity="0.16" stroke-linecap="round" /><polyline points="-40.0,510.8 -28.0,509.9 -16.0,509.1 -4.0,508.2 8.0,507.3 20.0,506.5 32.0,505.6 44.0,504.7 56.0,503.9 68.0,503.1 80.0,502.3 92.0,501.5 104.0,500.8 116.0,500.1 128.0,499.5 140.0,498.9 152.0,498.4 164.0,497.9 176.0,497.5 188.0,497.2 200.0,497.0 212.0,496.9 224.0,496.8 236.0,496.9 248.0,497.0 260.0,497.2 272.0,497.6 284.0,498.0 296.0,498.5 308.0,499.2 320.0,499.9 332.0,500.8 344.0,501.8 356.0,502.9 368.0,504.1 380.0,505.5 392.0,506.9 404.0,508.5 416.0,510.2 428.0,512.0 440.0,513.9 452.0,515.9 464.0,518.1 476.0,520.3 488.0,522.7 500.0,525.2 512.0,527.7 524.0,530.4 536.0,533.2 548.0,536.0 560.0,539.0 572.0,542.0 584.0,545.1 596.0,548.3 608.0,551.6 620.0,555.0 632.0,558.4 644.0,561.8 656.0,565.4 668.0,568.9 680.0,572.5 692.0,576.2 704.0,579.9 716.0,583.6 728.0,587.3 740.0,591.1 752.0,594.8 764.0,598.6 776.0,602.3 788.0,606.1 800.0,609.8 812.0,613.5 824.0,617.2 836.0,620.9 848.0,624.5 860.0,628.1 872.0,631.6 884.0,635.1 896.0,638.5 908.0,641.8 920.0,645.1 932.0,648.3 944.0,651.4 956.0,654.5 968.0,657.5 980.0,660.3 992.0,663.1 1004.0,665.8 1016.0,668.4 1028.0,670.8 1040.0,673.2 1052.0,675.5 1064.0,677.6 1076.0,679.7 1088.0,681.6 1100.0,683.4 1112.0,685.1 1124.0,686.7 1136.0,688.2 1148.0,689.5 1160.0,690.8 1172.0,691.9 1184.0,692.9 1196.0,693.8 1208.0,694.5 1220.0,695.2 1232.0,695.8 1244.0,696.2 1256.0,696.5 1268.0,696.8 1280.0,696.9 1292.0,697.0 1304.0,696.9 1316.0,696.8" fill="none" stroke="#27d0b0" stroke-width="1.6" opacity="0.16" stroke-linecap="round" /><polyline points="-40.0,524.0 -28.0,523.2 -16.0,522.4 -4.0,521.7 8.0,520.9 20.0,520.3 32.0,519.7 44.0,519.1 56.0,518.6 68.0,518.2 80.0,517.8 92.0,517.6 104.0,517.4 116.0,517.3 128.0,517.2 140.0,517.3 152.0,517.5 164.0,517.7 176.0,518.1 188.0,518.6 200.0,519.2 212.0,519.8 224.0,520.6 236.0,521.6 248.0,522.6 260.0,523.7 272.0,525.0 284.0,526.4 296.0,527.8 308.0,529.5 320.0,531.2 332.0,533.0 344.0,535.0 356.0,537.0 368.0,539.2 380.0,541.5 392.0,543.9 404.0,546.4 416.0,549.0 428.0,551.7 440.0,554.5 452.0,557.4 464.0,560.4 476.0,563.5 488.0,566.6 500.0,569.8 512.0,573.1 524.0,576.5 536.0,579.9 548.0,583.4 560.0,587.0 572.0,590.5 584.0,594.2 596.0,597.8 608.0,601.5 620.0,605.2 632.0,609.0 644.0,612.7 656.0,616.5 668.0,620.2 680.0,624.0 692.0,627.7 704.0,631.5 716.0,635.2 728.0,638.8 740.0,642.5 752.0,646.1 764.0,649.7 776.0,653.2 788.0,656.6 800.0,660.0 812.0,663.3 824.0,666.6 836.0,669.8 848.0,672.9 860.0,675.9 872.0,678.8 884.0,681.7 896.0,684.4 908.0,687.1 920.0,689.6 932.0,692.1 944.0,694.4 956.0,696.6 968.0,698.8 980.0,700.8 992.0,702.6 1004.0,704.4 1016.0,706.1 1028.0,707.6 1040.0,709.1 1052.0,710.4 1064.0,711.6 1076.0,712.6 1088.0,713.6 1100.0,714.4 1112.0,715.2 1124.0,715.8 1136.0,716.3 1148.0,716.7 1160.0,717.1 1172.0,717.3 1184.0,717.4 1196.0,717.4 1208.0,717.3 1220.0,717.2 1232.0,716.9 1244.0,716.6 1256.0,716.2 1268.0,715.7 1280.0,715.2 1292.0,714.6 1304.0,714.0 1316.0,713.3" fill="none" stroke="#27d0b0" stroke-width="1.6" opacity="0.16" stroke-linecap="round" /><polyline points="-40.0,538.9 -28.0,538.5 -16.0,538.2 -4.0,537.9 8.0,537.7 20.0,537.7 32.0,537.7 44.0,537.8 56.0,538.0 68.0,538.3 80.0,538.7 92.0,539.2 104.0,539.8 116.0,540.5 128.0,541.3 140.0,542.3 152.0,543.4 164.0,544.5 176.0,545.8 188.0,547.3 200.0,548.8 212.0,550.4 224.0,552.2 236.0,554.1 248.0,556.1 260.0,558.2 272.0,560.4 284.0,562.7 296.0,565.1 308.0,567.7 320.0,570.3 332.0,573.1 344.0,575.9 356.0,578.8 368.0,581.8 380.0,584.9 392.0,588.1 404.0,591.3 416.0,594.7 428.0,598.1 440.0,601.5 452.0,605.0 464.0,608.6 476.0,612.2 488.0,615.8 500.0,619.5 512.0,623.2 524.0,626.9 536.0,630.6 548.0,634.4 560.0,638.1 572.0,641.9 584.0,645.7 596.0,649.4 608.0,653.1 620.0,656.8 632.0,660.5 644.0,664.1 656.0,667.7 668.0,671.2 680.0,674.7 692.0,678.2 704.0,681.5 716.0,684.8 728.0,688.1 740.0,691.2 752.0,694.3 764.0,697.3 776.0,700.2 788.0,703.0 800.0,705.7 812.0,708.3 824.0,710.9 836.0,713.3 848.0,715.6 860.0,717.8 872.0,719.8 884.0,721.8 896.0,723.7 908.0,725.4 920.0,727.0 932.0,728.5 944.0,729.9 956.0,731.2 968.0,732.3 980.0,733.4 992.0,734.3 1004.0,735.1 1016.0,735.8 1028.0,736.4 1040.0,736.9 1052.0,737.3 1064.0,737.5 1076.0,737.7 1088.0,737.8 1100.0,737.8 1112.0,737.7 1124.0,737.5 1136.0,737.2 1148.0,736.9 1160.0,736.5 1172.0,736.0 1184.0,735.4 1196.0,734.8 1208.0,734.2 1220.0,733.5 1232.0,732.7 1244.0,731.9 1256.0,731.1 1268.0,730.3 1280.0,729.4 1292.0,728.6 1304.0,727.7 1316.0,726.8" fill="none" stroke="#27d0b0" stroke-width="1.6" opacity="0.16" stroke-linecap="round" /><polyline points="-40.0,558.5 -28.0,558.8 -16.0,559.2 -4.0,559.8 8.0,560.4 20.0,561.2 32.0,562.1 44.0,563.1 56.0,564.2 68.0,565.4 80.0,566.7 92.0,568.2 104.0,569.7 116.0,571.4 128.0,573.2 140.0,575.1 152.0,577.2 164.0,579.3 176.0,581.6 188.0,583.9 200.0,586.4 212.0,589.0 224.0,591.6 236.0,594.4 248.0,597.3 260.0,600.2 272.0,603.3 284.0,606.4 296.0,609.6 308.0,612.9 320.0,616.2 332.0,619.6 344.0,623.1 356.0,626.6 368.0,630.2 380.0,633.8 392.0,637.4 404.0,641.1 416.0,644.8 428.0,648.6 440.0,652.3 452.0,656.1 464.0,659.8 476.0,663.6 488.0,667.3 500.0,671.1 512.0,674.8 524.0,678.4 536.0,682.1 548.0,685.7 560.0,689.3 572.0,692.8 584.0,696.3 596.0,699.7 608.0,703.1 620.0,706.3 632.0,709.6 644.0,712.7 656.0,715.7 668.0,718.7 680.0,721.6 692.0,724.3 704.0,727.0 716.0,729.6 728.0,732.1 740.0,734.5 752.0,736.7 764.0,738.9 776.0,740.9 788.0,742.9 800.0,744.7 812.0,746.4 824.0,748.0 836.0,749.4 848.0,750.8 860.0,752.0 872.0,753.1 884.0,754.1 896.0,755.0 908.0,755.8 920.0,756.4 932.0,757.0 944.0,757.4 956.0,757.8 968.0,758.0 980.0,758.2 992.0,758.2 1004.0,758.2 1016.0,758.0 1028.0,757.8 1040.0,757.5 1052.0,757.2 1064.0,756.7 1076.0,756.2 1088.0,755.7 1100.0,755.0 1112.0,754.4 1124.0,753.6 1136.0,752.9 1148.0,752.1 1160.0,751.3 1172.0,750.4 1184.0,749.6 1196.0,748.7 1208.0,747.8 1220.0,746.9 1232.0,746.1 1244.0,745.2 1256.0,744.4 1268.0,743.5 1280.0,742.8 1292.0,742.0 1304.0,741.3 1316.0,740.6" fill="none" stroke="#27d0b0" stroke-width="1.6" opacity="0.16" stroke-linecap="round" /><polyline points="-40.0,585.0 -28.0,586.2 -16.0,587.6 -4.0,589.1 8.0,590.7 20.0,592.4 32.0,594.3 44.0,596.2 56.0,598.3 68.0,600.5 80.0,602.8 92.0,605.2 104.0,607.7 116.0,610.3 128.0,613.0 140.0,615.8 152.0,618.7 164.0,621.6 176.0,624.7 188.0,627.9 200.0,631.1 212.0,634.4 224.0,637.7 236.0,641.2 248.0,644.7 260.0,648.2 272.0,651.8 284.0,655.4 296.0,659.1 308.0,662.8 320.0,666.5 332.0,670.2 344.0,674.0 356.0,677.7 368.0,681.5 380.0,685.2 392.0,689.0 404.0,692.7 416.0,696.4 428.0,700.1 440.0,703.7 452.0,707.3 464.0,710.9 476.0,714.4 488.0,717.9 500.0,721.2 512.0,724.6 524.0,727.8 536.0,731.0 548.0,734.1 560.0,737.1 572.0,740.1 584.0,742.9 596.0,745.7 608.0,748.3 620.0,750.9 632.0,753.3 644.0,755.6 656.0,757.9 668.0,760.0 680.0,762.0 692.0,763.9 704.0,765.7 716.0,767.3 728.0,768.9 740.0,770.3 752.0,771.6 764.0,772.8 776.0,773.9 788.0,774.8 800.0,775.7 812.0,776.4 824.0,777.1 836.0,777.6 848.0,778.0 860.0,778.3 872.0,778.5 884.0,778.6 896.0,778.6 908.0,778.6 920.0,778.4 932.0,778.2 944.0,777.8 956.0,777.4 968.0,777.0 980.0,776.4 992.0,775.9 1004.0,775.2 1016.0,774.5 1028.0,773.8 1040.0,773.0 1052.0,772.2 1064.0,771.4 1076.0,770.5 1088.0,769.7 1100.0,768.8 1112.0,767.9 1124.0,767.0 1136.0,766.2 1148.0,765.3 1160.0,764.5 1172.0,763.7 1184.0,762.9 1196.0,762.2 1208.0,761.5 1220.0,760.8 1232.0,760.2 1244.0,759.7 1256.0,759.2 1268.0,758.8 1280.0,758.5 1292.0,758.3 1304.0,758.1 1316.0,758.0" fill="none" stroke="#27d0b0" stroke-width="1.6" opacity="0.16" stroke-linecap="round" /><polyline points="-40.0,619.4 -28.0,621.6 -16.0,624.0 -4.0,626.4 8.0,628.9 20.0,631.6 32.0,634.3 44.0,637.1 56.0,640.1 68.0,643.1 80.0,646.2 92.0,649.3 104.0,652.6 116.0,655.9 128.0,659.3 140.0,662.7 152.0,666.2 164.0,669.8 176.0,673.4 188.0,677.0 200.0,680.7 212.0,684.4 224.0,688.1 236.0,691.9 248.0,695.6 260.0,699.4 272.0,703.1 284.0,706.9 296.0,710.6 308.0,714.4 320.0,718.1 332.0,721.7 344.0,725.3 356.0,728.9 368.0,732.5 380.0,736.0 392.0,739.4 404.0,742.8 416.0,746.1 428.0,749.3 440.0,752.5 452.0,755.6 464.0,758.5 476.0,761.4 488.0,764.3 500.0,767.0 512.0,769.6 524.0,772.1 536.0,774.5 548.0,776.8 560.0,779.0 572.0,781.1 584.0,783.1 596.0,784.9 608.0,786.6 620.0,788.3 632.0,789.8 644.0,791.2 656.0,792.4 668.0,793.6 680.0,794.6 692.0,795.5 704.0,796.4 716.0,797.1 728.0,797.7 740.0,798.1 752.0,798.5 764.0,798.8 776.0,799.0 788.0,799.0 800.0,799.0 812.0,798.9 824.0,798.7 836.0,798.5 848.0,798.1 860.0,797.7 872.0,797.2 884.0,796.7 896.0,796.1 908.0,795.4 920.0,794.7 932.0,794.0 944.0,793.2 956.0,792.4 968.0,791.5 980.0,790.7 992.0,789.8 1004.0,788.9 1016.0,788.0 1028.0,787.2 1040.0,786.3 1052.0,785.5 1064.0,784.6 1076.0,783.8 1088.0,783.1 1100.0,782.4 1112.0,781.7 1124.0,781.0 1136.0,780.5 1148.0,780.0 1160.0,779.5 1172.0,779.1 1184.0,778.8 1196.0,778.6 1208.0,778.5 1220.0,778.4 1232.0,778.4 1244.0,778.6 1256.0,778.8 1268.0,779.1 1280.0,779.6 1292.0,780.1 1304.0,780.8 1316.0,781.5" fill="none" stroke="#27d0b0" stroke-width="1.6" opacity="0.16" stroke-linecap="round" /><polyline points="-40.0,661.5 -28.0,664.5 -16.0,667.6 -4.0,670.8 8.0,674.1 20.0,677.4 32.0,680.9 44.0,684.3 56.0,687.8 68.0,691.4 80.0,695.0 92.0,698.7 104.0,702.4 116.0,706.1 128.0,709.8 140.0,713.5 152.0,717.3 164.0,721.1 176.0,724.8 188.0,728.6 200.0,732.3 212.0,736.0 224.0,739.7 236.0,743.3 248.0,747.0 260.0,750.5 272.0,754.1 284.0,757.5 296.0,761.0 308.0,764.3 320.0,767.6 332.0,770.8 344.0,773.9 356.0,777.0 368.0,779.9 380.0,782.8 392.0,785.6 404.0,788.3 416.0,790.9 428.0,793.3 440.0,795.7 452.0,798.0 464.0,800.1 476.0,802.2 488.0,804.1 500.0,805.9 512.0,807.6 524.0,809.2 536.0,810.7 548.0,812.0 560.0,813.2 572.0,814.4 584.0,815.4 596.0,816.2 608.0,817.0 620.0,817.7 632.0,818.2 644.0,818.7 656.0,819.0 668.0,819.3 680.0,819.4 692.0,819.5 704.0,819.4 716.0,819.3 728.0,819.1 740.0,818.8 752.0,818.4 764.0,818.0 776.0,817.5 788.0,816.9 800.0,816.3 812.0,815.6 824.0,814.9 836.0,814.1 848.0,813.3 860.0,812.5 872.0,811.7 884.0,810.8 896.0,809.9 908.0,809.0 920.0,808.2 932.0,807.3 944.0,806.4 956.0,805.6 968.0,804.8 980.0,804.0 992.0,803.2 1004.0,802.5 1016.0,801.9 1028.0,801.3 1040.0,800.7 1052.0,800.2 1064.0,799.8 1076.0,799.4 1088.0,799.2 1100.0,799.0 1112.0,798.9 1124.0,798.8 1136.0,798.9 1148.0,799.1 1160.0,799.3 1172.0,799.7 1184.0,800.2 1196.0,800.7 1208.0,801.4 1220.0,802.2 1232.0,803.1 1244.0,804.2 1256.0,805.3 1268.0,806.6 1280.0,807.9 1292.0,809.4 1304.0,811.0 1316.0,812.8" fill="none" stroke="#27d0b0" stroke-width="1.6" opacity="0.16" stroke-linecap="round" /><polyline points="-40.0,709.4 -28.0,713.0 -16.0,716.6 -4.0,720.3 8.0,724.0 20.0,727.7 32.0,731.5 44.0,735.2 56.0,739.0 68.0,742.7 80.0,746.5 92.0,750.2 104.0,753.9 116.0,757.6 128.0,761.3 140.0,765.0 152.0,768.6 164.0,772.1 176.0,775.6 188.0,779.1 200.0,782.5 212.0,785.8 224.0,789.1 236.0,792.3 248.0,795.4 260.0,798.4 272.0,801.3 284.0,804.2 296.0,806.9 308.0,809.6 320.0,812.1 332.0,814.5 344.0,816.9 356.0,819.1 368.0,821.2 380.0,823.2 392.0,825.1 404.0,826.9 416.0,828.6 428.0,830.1 440.0,831.5 452.0,832.8 464.0,834.0 476.0,835.1 488.0,836.1 500.0,836.9 512.0,837.7 524.0,838.3 536.0,838.8 548.0,839.2 560.0,839.5 572.0,839.7 584.0,839.9 596.0,839.9 608.0,839.8 620.0,839.6 632.0,839.4 644.0,839.1 656.0,838.7 668.0,838.2 680.0,837.7 692.0,837.1 704.0,836.5 716.0,835.8 728.0,835.0 740.0,834.3 752.0,833.5 764.0,832.6 776.0,831.8 788.0,830.9 800.0,830.0 812.0,829.2 824.0,828.3 836.0,827.4 848.0,826.6 860.0,825.7 872.0,824.9 884.0,824.2 896.0,823.4 908.0,822.7 920.0,822.1 932.0,821.5 944.0,821.0 956.0,820.5 968.0,820.1 980.0,819.7 992.0,819.5 1004.0,819.3 1016.0,819.2 1028.0,819.3 1040.0,819.4 1052.0,819.6 1064.0,819.9 1076.0,820.3 1088.0,820.8 1100.0,821.4 1112.0,822.1 1124.0,822.9 1136.0,823.9 1148.0,825.0 1160.0,826.1 1172.0,827.4 1184.0,828.8 1196.0,830.4 1208.0,832.0 1220.0,833.8 1232.0,835.7 1244.0,837.7 1256.0,839.8 1268.0,842.0 1280.0,844.3 1292.0,846.7 1304.0,849.3 1316.0,851.9" fill="none" stroke="#27d0b0" stroke-width="1.6" opacity="0.16" stroke-linecap="round" /><polyline points="-40.0,760.6 -28.0,764.4 -16.0,768.1 -4.0,771.9 8.0,775.6 20.0,779.3 32.0,783.0 44.0,786.6 56.0,790.2 68.0,793.7 80.0,797.2 92.0,800.6 104.0,804.0 116.0,807.3 128.0,810.6 140.0,813.7 152.0,816.8 164.0,819.8 176.0,822.7 188.0,825.5 200.0,828.2 212.0,830.8 224.0,833.3 236.0,835.8 248.0,838.1 260.0,840.2 272.0,842.3 284.0,844.3 296.0,846.1 308.0,847.9 320.0,849.5 332.0,851.0 344.0,852.4 356.0,853.7 368.0,854.8 380.0,855.9 392.0,856.8 404.0,857.6 416.0,858.3 428.0,858.9 440.0,859.4 452.0,859.8 464.0,860.0 476.0,860.2 488.0,860.3 500.0,860.3 512.0,860.2 524.0,860.0 536.0,859.7 548.0,859.4 560.0,858.9 572.0,858.5 584.0,857.9 596.0,857.3 608.0,856.7 620.0,855.9 632.0,855.2 644.0,854.4 656.0,853.6 668.0,852.8 680.0,851.9 692.0,851.0 704.0,850.2 716.0,849.3 728.0,848.4 740.0,847.6 752.0,846.7 764.0,845.9 776.0,845.1 788.0,844.3 800.0,843.6 812.0,842.9 824.0,842.3 836.0,841.7 848.0,841.2 860.0,840.8 872.0,840.4 884.0,840.1 896.0,839.8 908.0,839.7 920.0,839.7 932.0,839.7 944.0,839.8 956.0,840.1 968.0,840.4 980.0,840.8 992.0,841.4 1004.0,842.0 1016.0,842.8 1028.0,843.7 1040.0,844.6 1052.0,845.7 1064.0,847.0 1076.0,848.3 1088.0,849.8 1100.0,851.3 1112.0,853.0 1124.0,854.8 1136.0,856.7 1148.0,858.8 1160.0,860.9 1172.0,863.2 1184.0,865.5 1196.0,868.0 1208.0,870.6 1220.0,873.2 1232.0,876.0 1244.0,878.9 1256.0,881.8 1268.0,884.9 1280.0,888.0 1292.0,891.2 1304.0,894.4 1316.0,897.8" fill="none" stroke="#27d0b0" stroke-width="1.6" opacity="0.16" stroke-linecap="round" /><polyline points="-40.0,811.8 -28.0,815.3 -16.0,818.8 -4.0,822.2 8.0,825.5 20.0,828.8 32.0,832.0 44.0,835.2 56.0,838.2 68.0,841.2 80.0,844.1 92.0,846.8 104.0,849.5 116.0,852.1 128.0,854.6 140.0,856.9 152.0,859.2 164.0,861.4 176.0,863.4 188.0,865.3 200.0,867.2 212.0,868.9 224.0,870.4 236.0,871.9 248.0,873.3 260.0,874.5 272.0,875.6 284.0,876.6 296.0,877.5 308.0,878.3 320.0,878.9 332.0,879.5 344.0,879.9 356.0,880.3 368.0,880.5 380.0,880.7 392.0,880.7 404.0,880.7 416.0,880.5 428.0,880.3 440.0,880.0 452.0,879.6 464.0,879.2 476.0,878.7 488.0,878.1 500.0,877.5 512.0,876.8 524.0,876.1 536.0,875.4 548.0,874.6 560.0,873.7 572.0,872.9 584.0,872.0 596.0,871.2 608.0,870.3 620.0,869.4 632.0,868.5 644.0,867.7 656.0,866.8 668.0,866.0 680.0,865.2 692.0,864.5 704.0,863.8 716.0,863.1 728.0,862.5 740.0,862.0 752.0,861.5 764.0,861.0 776.0,860.7 788.0,860.4 800.0,860.2 812.0,860.1 824.0,860.1 836.0,860.1 848.0,860.3 860.0,860.6 872.0,860.9 884.0,861.4 896.0,862.0 908.0,862.7 920.0,863.5 932.0,864.4 944.0,865.4 956.0,866.6 968.0,867.8 980.0,869.2 992.0,870.7 1004.0,872.3 1016.0,874.0 1028.0,875.9 1040.0,877.8 1052.0,879.9 1064.0,882.1 1076.0,884.3 1088.0,886.7 1100.0,889.2 1112.0,891.8 1124.0,894.6 1136.0,897.4 1148.0,900.2 1160.0,903.2 1172.0,906.3 1184.0,909.4 1196.0,912.7 1208.0,916.0 1220.0,919.3 1232.0,922.8 1244.0,926.2 1256.0,929.8 1268.0,933.4 1280.0,937.0 1292.0,940.7 1304.0,944.4 1316.0,948.1" fill="none" stroke="#27d0b0" stroke-width="1.6" opacity="0.16" stroke-linecap="round" /><polyline points="-40.0,859.6 -28.0,862.6 -16.0,865.4 -4.0,868.1 8.0,870.8 20.0,873.3 32.0,875.8 44.0,878.1 56.0,880.4 68.0,882.5 80.0,884.5 92.0,886.4 104.0,888.1 116.0,889.8 128.0,891.4 140.0,892.8 152.0,894.1 164.0,895.3 176.0,896.4 188.0,897.3 200.0,898.2 212.0,898.9 224.0,899.5 236.0,900.1 248.0,900.5 260.0,900.8 272.0,901.0 284.0,901.1 296.0,901.1 308.0,901.0 320.0,900.9 332.0,900.6 344.0,900.3 356.0,899.9 368.0,899.5 380.0,898.9 392.0,898.3 404.0,897.7 416.0,897.0 428.0,896.3 440.0,895.5 452.0,894.7 464.0,893.9 476.0,893.0 488.0,892.2 500.0,891.3 512.0,890.4 524.0,889.5 536.0,888.7 548.0,887.8 560.0,887.0 572.0,886.2 584.0,885.4 596.0,884.7 608.0,884.0 620.0,883.3 632.0,882.7 644.0,882.2 656.0,881.7 668.0,881.3 680.0,881.0 692.0,880.7 704.0,880.6 716.0,880.5 728.0,880.5 740.0,880.6 752.0,880.8 764.0,881.1 776.0,881.5 788.0,882.0 800.0,882.6 812.0,883.3 824.0,884.2 836.0,885.1 848.0,886.2 860.0,887.4 872.0,888.7 884.0,890.1 896.0,891.6 908.0,893.3 920.0,895.0 932.0,896.9 944.0,898.9 956.0,901.0 968.0,903.2 980.0,905.5 992.0,908.0 1004.0,910.5 1016.0,913.2 1028.0,915.9 1040.0,918.7 1052.0,921.6 1064.0,924.7 1076.0,927.8 1088.0,930.9 1100.0,934.2 1112.0,937.5 1124.0,940.9 1136.0,944.3 1148.0,947.8 1160.0,951.4 1172.0,955.0 1184.0,958.6 1196.0,962.3 1208.0,966.0 1220.0,969.7 1232.0,973.5 1244.0,977.2 1256.0,981.0 1268.0,984.7 1280.0,988.5 1292.0,992.2 1304.0,995.9 1316.0,999.6" fill="none" stroke="#27d0b0" stroke-width="1.6" opacity="0.16" stroke-linecap="round" />
<rect width="1280" height="720" fill="url(#vig3)"/>
</svg>