<svg xmlns="http://www.w3.org/2000/svg" width="1280" height="720" viewBox="0 0 1280 720">
<defs>
<linearGradient id="bg6" x1="0" y1="0" x2="1" y2="1"><stop offset="0" stop-color="#1c0f0c"/><stop offset="1" stop-color="#0c0706"/></linearGradient>
<radialGradient id="gl6" cx="0.66" cy="0.42" r="0.72"><stop offset="0" stop-color="#d22b3a" stop-opacity="0.26"/><stop offset="1" stop-color="#d22b3a" stop-opacity="0"/></radialGradient>
<radialGradient id="vig6" cx="0.5" cy="0.5" r="0.75"><stop offset="0.55" stop-color="#000" stop-opacity="0"/><stop offset="1" stop-color="#000" stop-opacity="0.5"/></radialGradient>

</defs>
<rect width="1280" height="720" fill="url(#bg6)"/>
<rect width="1280" height="720" fill="url(#gl6)"/>
<polyline points="858.3,331.2 858.6,331.9 858.7,332.7 858.8,333.5 858.7,334.2 858.5,335.0 858.2,335.7 857.7,336.4 857.2,337.1 856.6,337.6 855.8,338.1 855.1,338.6 854.3,339.0 853.4,339.3 852.6,339.6 851.8,339.8 851.0,340.0 850.2,340.2 849.4,340.4 848.7,340.5 847.9,340.7 847.1,340.9 846.4,341.0 845.6,341.2 844.8,341.3 844.0,341.4 843.2,341.5 842.3,341.5 841.5,341.4 840.6,341.3 839.8,341.1 839.0,340.9 838.2,340.6 837.5,340.2 836.7,339.8 836.1,339.4 835.4,338.9 834.8,338.4 834.3,337.8 833.7,337.3 833.2,336.7 832.7,336.1 832.2,335.5 831.8,334.8 831.4,334.1 831.0,333.4 830.8,332.7 830.5,332.0 830.4,331.2 830.4,330.4 830.5,329.7 830.7,328.9 831.0,328.2 831.4,327.5 832.0,326.8 832.6,326.3 833.3,325.7 834.0,325.3 834.7,324.9 835.5,324.5 836.2,324.2 837.0,323.9 837.7,323.6 838.4,323.3 839.0,323.0 839.7,322.7 840.3,322.4 841.0,322.0 841.7,321.6 842.4,321.2 843.1,320.9 843.9,320.6 844.8,320.3 845.7,320.1 846.6,319.9 847.5,319.9 848.5,320.0 849.4,320.1 850.3,320.4 851.1,320.8 851.8,321.2 852.5,321.8 853.1,322.3 853.6,323.0 854.1,323.6 854.5,324.2 854.9,324.9 855.2,325.5 855.5,326.1 855.9,326.7 856.2,327.3 856.6,327.9 857.0,328.5 857.3,329.2 857.7,329.8 858.0,330.5 858.3,331.2" fill="none" stroke="#e0723a" stroke-width="1.5" opacity="0.10"/><polyline points="877.5,331.2 878.1,333.0 878.4,334.8 878.5,336.7 878.3,338.6 877.9,340.4 877.1,342.2 876.1,343.8 874.7,345.4 873.2,346.8 871.5,348.0 869.6,349.1 867.7,350.0 865.7,350.7 863.7,351.4 861.7,351.9 859.7,352.4 857.8,352.9 856.0,353.3 854.1,353.7 852.3,354.1 850.5,354.5 848.6,354.9 846.7,355.3 844.8,355.6 842.8,355.9 840.8,356.0 838.8,356.0 836.7,355.9 834.7,355.6 832.7,355.2 830.7,354.6 828.9,353.8 827.1,353.0 825.4,352.0 823.7,350.9 822.2,349.7 820.8,348.5 819.4,347.2 818.1,345.8 816.8,344.5 815.6,343.0 814.5,341.5 813.4,339.9 812.4,338.3 811.6,336.6 810.9,334.9 810.3,333.1 810.0,331.2 810.0,329.3 810.2,327.5 810.7,325.6 811.5,323.9 812.5,322.2 813.8,320.7 815.3,319.3 816.9,318.0 818.7,316.9 820.5,315.9 822.3,315.0 824.1,314.3 825.9,313.5 827.6,312.8 829.3,312.2 830.9,311.4 832.5,310.7 834.0,309.8 835.6,309.0 837.2,308.1 839.0,307.2 840.8,306.3 842.7,305.5 844.8,304.8 847.0,304.3 849.2,304.0 851.4,303.9 853.7,304.0 855.9,304.4 858.0,305.1 860.0,306.0 861.8,307.1 863.4,308.4 864.8,309.8 866.1,311.3 867.2,312.8 868.2,314.4 869.1,315.9 869.9,317.4 870.7,318.9 871.5,320.4 872.4,321.8 873.3,323.3 874.2,324.7 875.1,326.3 876.0,327.8 876.8,329.5 877.5,331.2" fill="none" stroke="#e0723a" stroke-width="1.5" opacity="0.10"/><polyline points="898.6,331.2 899.6,334.1 900.1,337.2 900.3,340.3 900.0,343.3 899.3,346.4 898.0,349.3 896.3,352.0 894.1,354.5 891.6,356.8 888.7,358.8 885.6,360.6 882.4,362.1 879.1,363.3 875.8,364.4 872.5,365.3 869.3,366.0 866.2,366.8 863.1,367.5 860.1,368.1 857.1,368.8 854.1,369.5 851.1,370.2 848.0,370.8 844.8,371.3 841.6,371.7 838.3,371.9 834.9,372.0 831.5,371.8 828.2,371.3 824.9,370.6 821.7,369.6 818.6,368.4 815.6,367.0 812.8,365.4 810.2,363.6 807.6,361.7 805.3,359.6 803.0,357.5 800.8,355.3 798.8,353.0 796.8,350.6 794.9,348.2 793.1,345.6 791.5,342.9 790.1,340.1 788.9,337.2 788.1,334.2 787.6,331.2 787.5,328.1 787.9,325.1 788.7,322.0 790.0,319.2 791.7,316.4 793.8,313.9 796.2,311.6 798.9,309.5 801.8,307.7 804.8,306.1 807.9,304.6 810.9,303.4 813.8,302.2 816.6,301.1 819.3,300.0 822.0,298.8 824.5,297.5 827.1,296.2 829.7,294.7 832.4,293.2 835.2,291.7 838.2,290.3 841.4,289.0 844.8,287.8 848.3,286.9 852.0,286.4 855.7,286.2 859.4,286.5 863.0,287.2 866.5,288.2 869.7,289.7 872.7,291.5 875.4,293.6 877.8,296.0 879.8,298.4 881.7,301.0 883.3,303.5 884.7,306.1 886.1,308.6 887.4,311.0 888.7,313.4 890.1,315.8 891.6,318.2 893.1,320.6 894.6,323.1 896.1,325.7 897.4,328.4 898.6,331.2" fill="none" stroke="#e0723a" stroke-width="1.5" opacity="0.22"/><polyline points="917.4,331.2 918.7,335.2 919.5,339.3 919.7,343.4 919.4,347.6 918.4,351.7 916.7,355.6 914.3,359.3 911.4,362.7 907.9,365.8 904.1,368.5 899.9,370.8 895.5,372.8 891.1,374.5 886.6,375.9 882.2,377.0 877.8,378.1 873.6,379.0 869.4,380.0 865.4,380.9 861.3,381.8 857.3,382.7 853.2,383.6 849.1,384.4 844.8,385.2 840.4,385.7 836.0,386.1 831.5,386.1 826.9,385.9 822.4,385.3 818.0,384.3 813.6,383.0 809.5,381.4 805.5,379.5 801.7,377.3 798.1,374.9 794.7,372.3 791.5,369.5 788.5,366.7 785.5,363.7 782.7,360.6 780.0,357.4 777.5,354.1 775.1,350.6 772.9,347.0 770.9,343.2 769.4,339.3 768.2,335.3 767.5,331.2 767.4,327.0 767.9,322.9 769.0,318.8 770.8,314.9 773.1,311.2 776.0,307.8 779.3,304.7 783.0,301.9 786.9,299.5 791.0,297.3 795.1,295.5 799.2,293.8 803.1,292.2 806.9,290.7 810.6,289.2 814.1,287.6 817.6,286.0 821.0,284.1 824.5,282.2 828.1,280.2 831.9,278.1 836.0,276.1 840.3,274.3 844.8,272.7 849.6,271.5 854.5,270.8 859.5,270.5 864.5,270.8 869.4,271.7 874.1,273.2 878.5,275.2 882.5,277.7 886.1,280.5 889.3,283.7 892.0,287.0 894.5,290.5 896.6,293.9 898.5,297.4 900.3,300.8 902.1,304.1 903.9,307.3 905.8,310.5 907.7,313.7 909.8,316.9 911.8,320.3 913.9,323.7 915.7,327.4 917.4,331.2" fill="none" stroke="#e0723a" stroke-width="1.5" opacity="0.22"/><polyline points="935.5,331.2 937.2,336.2 938.2,341.3 938.6,346.5 938.2,351.7 936.9,356.8 934.8,361.8 931.8,366.4 928.1,370.6 923.8,374.5 918.9,377.8 913.7,380.7 908.2,383.2 902.6,385.2 896.9,386.9 891.4,388.4 885.9,389.6 880.6,390.8 875.5,391.9 870.4,393.0 865.4,394.2 860.4,395.3 855.3,396.4 850.1,397.5 844.8,398.4 839.4,399.2 833.8,399.6 828.2,399.7 822.5,399.4 816.9,398.7 811.3,397.5 805.9,395.9 800.7,393.9 795.7,391.5 791.0,388.7 786.5,385.7 782.3,382.5 778.3,379.1 774.4,375.5 770.8,371.8 767.3,367.9 763.9,363.9 760.6,359.8 757.6,355.5 754.8,351.0 752.4,346.3 750.4,341.4 748.9,336.4 748.1,331.2 747.9,326.0 748.5,320.8 749.9,315.7 752.1,310.8 755.1,306.2 758.7,302.0 762.9,298.1 767.6,294.7 772.6,291.6 777.7,289.0 782.9,286.7 788.0,284.6 792.9,282.7 797.7,280.9 802.3,279.0 806.7,277.1 811.0,275.0 815.2,272.7 819.6,270.2 824.0,267.7 828.8,265.1 833.8,262.5 839.1,260.2 844.8,258.2 850.8,256.6 856.9,255.6 863.2,255.3 869.5,255.7 875.6,256.8 881.5,258.6 886.9,261.1 891.9,264.2 896.4,267.8 900.4,271.8 903.8,276.0 906.8,280.4 909.4,284.7 911.8,289.0 914.0,293.3 916.2,297.4 918.4,301.4 920.8,305.4 923.2,309.4 925.8,313.4 928.4,317.6 931.0,321.9 933.4,326.4 935.5,331.2" fill="none" stroke="#e0723a" stroke-width="1.5" opacity="0.10"/><polyline points="953.1,331.2 955.2,337.1 956.5,343.3 957.0,349.5 956.6,355.8 955.1,361.9 952.5,367.8 949.0,373.3 944.5,378.4 939.3,383.0 933.4,387.0 927.1,390.4 920.4,393.2 913.7,395.6 906.9,397.6 900.3,399.2 893.7,400.7 887.4,402.0 881.2,403.3 875.2,404.7 869.2,406.0 863.3,407.4 857.3,408.7 851.1,410.0 844.8,411.2 838.3,412.1 831.7,412.7 825.0,412.8 818.2,412.5 811.5,411.7 804.9,410.3 798.4,408.4 792.2,406.0 786.2,403.1 780.6,399.8 775.2,396.2 770.2,392.4 765.4,388.3 760.8,384.0 756.4,379.6 752.2,375.0 748.2,370.3 744.3,365.3 740.6,360.2 737.3,354.8 734.3,349.2 731.9,343.4 730.0,337.4 729.0,331.2 728.8,325.0 729.5,318.8 731.2,312.7 733.9,306.8 737.5,301.3 741.9,296.3 747.0,291.7 752.7,287.6 758.7,284.0 764.9,280.9 771.1,278.2 777.3,275.8 783.2,273.6 788.9,271.5 794.4,269.3 799.6,267.0 804.7,264.5 809.7,261.7 814.8,258.8 820.1,255.7 825.7,252.5 831.7,249.4 838.0,246.5 844.8,244.0 851.9,242.1 859.3,240.8 866.8,240.4 874.3,240.8 881.7,242.1 888.7,244.3 895.2,247.4 901.2,251.1 906.5,255.5 911.2,260.3 915.3,265.3 918.8,270.5 921.8,275.8 924.6,281.0 927.2,286.0 929.8,291.0 932.4,295.8 935.2,300.5 938.1,305.2 941.2,310.0 944.4,315.0 947.6,320.1 950.5,325.5 953.1,331.2" fill="none" stroke="#e0723a" stroke-width="1.5" opacity="0.10"/><polyline points="966.6,331.2 969.0,337.9 970.6,344.8 971.2,351.8 970.7,358.9 969.1,365.8 966.2,372.4 962.2,378.7 957.2,384.4 951.2,389.5 944.5,394.0 937.3,397.7 929.8,400.9 922.2,403.5 914.5,405.7 907.0,407.5 899.6,409.1 892.5,410.5 885.6,411.9 878.8,413.4 872.1,414.9 865.5,416.4 858.7,418.0 851.9,419.5 844.8,420.8 837.6,421.8 830.1,422.5 822.6,422.7 815.0,422.4 807.4,421.5 799.9,420.0 792.7,417.9 785.7,415.2 779.0,412.0 772.7,408.3 766.7,404.3 761.0,399.9 755.6,395.3 750.5,390.6 745.5,385.6 740.8,380.5 736.2,375.1 731.8,369.6 727.6,363.8 723.8,357.8 720.4,351.5 717.6,344.9 715.5,338.1 714.3,331.2 714.1,324.2 714.9,317.2 716.8,310.3 719.9,303.8 724.0,297.6 729.0,291.9 734.8,286.7 741.3,282.2 748.1,278.2 755.2,274.8 762.3,271.9 769.2,269.2 776.0,266.8 782.4,264.5 788.5,262.1 794.3,259.5 800.0,256.7 805.6,253.6 811.3,250.2 817.2,246.7 823.4,243.0 830.1,239.5 837.2,236.1 844.8,233.3 852.8,231.0 861.1,229.5 869.6,228.9 878.1,229.4 886.3,230.9 894.2,233.4 901.6,236.8 908.3,241.0 914.2,246.0 919.5,251.4 924.0,257.2 927.9,263.1 931.3,269.0 934.3,274.9 937.2,280.6 940.0,286.1 942.9,291.5 946.1,296.8 949.4,302.1 952.9,307.4 956.6,313.0 960.2,318.7 963.6,324.8 966.6,331.2" fill="none" stroke="#e0723a" stroke-width="1.5" opacity="0.22"/><polyline points="979.8,331.2 982.6,338.6 984.5,346.3 985.3,354.1 984.8,362.0 983.0,369.7 979.8,377.1 975.3,384.0 969.7,390.3 963.0,396.0 955.5,400.9 947.4,405.0 939.0,408.4 930.4,411.3 921.9,413.6 913.5,415.5 905.3,417.1 897.4,418.7 889.8,420.2 882.3,421.8 874.9,423.4 867.6,425.1 860.2,426.9 852.6,428.6 844.8,430.1 836.8,431.3 828.6,432.1 820.2,432.4 811.8,432.1 803.4,431.1 795.1,429.5 787.1,427.2 779.3,424.2 771.9,420.6 764.9,416.6 758.3,412.1 752.0,407.3 746.0,402.2 740.3,396.9 734.8,391.5 729.5,385.8 724.4,379.9 719.5,373.8 714.8,367.4 710.5,360.7 706.7,353.7 703.5,346.5 701.1,338.9 699.8,331.2 699.5,323.4 700.4,315.6 702.6,308.0 706.0,300.7 710.6,293.8 716.3,287.5 722.9,281.9 730.1,276.9 737.8,272.6 745.7,268.9 753.7,265.7 761.5,262.9 769.0,260.3 776.1,257.8 782.9,255.2 789.3,252.4 795.5,249.3 801.7,245.8 807.9,242.0 814.4,238.0 821.2,233.9 828.5,229.8 836.4,226.0 844.8,222.7 853.7,220.1 862.9,218.3 872.3,217.7 881.8,218.1 891.0,219.7 899.7,222.5 907.9,226.3 915.3,231.1 921.9,236.6 927.6,242.7 932.5,249.2 936.8,255.8 940.4,262.4 943.7,269.0 946.8,275.3 949.9,281.4 953.1,287.4 956.6,293.2 960.3,299.1 964.3,305.0 968.4,311.0 972.5,317.4 976.4,324.1 979.8,331.2" fill="none" stroke="#e0723a" stroke-width="1.5" opacity="0.22"/><polyline points="991.3,331.2 994.4,339.2 996.6,347.6 997.5,356.1 997.0,364.6 995.1,373.0 991.6,381.1 986.8,388.6 980.6,395.5 973.2,401.6 965.0,406.9 956.2,411.3 947.0,415.0 937.6,417.9 928.2,420.3 919.1,422.3 910.2,424.1 901.6,425.7 893.3,427.2 885.2,428.9 877.3,430.7 869.4,432.5 861.4,434.5 853.2,436.3 844.8,438.0 836.2,439.4 827.3,440.3 818.2,440.7 809.1,440.4 800.0,439.4 791.0,437.7 782.3,435.2 773.9,432.0 765.8,428.1 758.2,423.7 751.0,418.9 744.2,413.7 737.7,408.2 731.6,402.5 725.6,396.5 719.8,390.4 714.2,384.0 708.8,377.4 703.7,370.5 698.9,363.2 694.7,355.7 691.2,347.8 688.6,339.6 687.1,331.2 686.7,322.7 687.7,314.2 690.1,306.0 693.9,298.0 699.0,290.6 705.2,283.8 712.5,277.7 720.5,272.3 728.9,267.7 737.7,263.8 746.4,260.4 754.9,257.5 763.0,254.8 770.8,252.1 778.1,249.4 785.1,246.3 791.7,243.0 798.3,239.2 805.0,235.1 811.9,230.6 819.3,226.1 827.2,221.5 835.7,217.3 844.8,213.6 854.4,210.6 864.5,208.6 874.7,207.8 885.0,208.3 895.0,210.0 904.5,213.0 913.4,217.2 921.4,222.4 928.5,228.5 934.6,235.2 939.9,242.3 944.4,249.5 948.3,256.8 951.8,263.9 955.1,270.8 958.4,277.4 961.8,283.9 965.6,290.2 969.6,296.5 974.0,302.8 978.5,309.4 983.1,316.3 987.4,323.5 991.3,331.2" fill="none" stroke="#e0723a" stroke-width="1.5" opacity="0.10"/><polyline points="1003.3,331.2 1006.9,339.9 1009.3,349.0 1010.4,358.2 1010.0,367.5 1007.9,376.6 1004.2,385.3 998.9,393.5 992.1,400.9 984.1,407.5 975.1,413.2 965.4,417.9 955.3,421.8 945.1,424.9 934.9,427.4 924.9,429.5 915.2,431.3 906.0,432.9 897.0,434.6 888.3,436.3 879.8,438.2 871.2,440.2 862.6,442.3 853.8,444.4 844.8,446.3 835.5,447.8 825.9,448.9 816.1,449.4 806.2,449.2 796.4,448.1 786.7,446.3 777.2,443.6 768.1,440.1 759.4,436.0 751.2,431.2 743.4,426.0 736.0,420.4 729.1,414.4 722.3,408.2 715.9,401.8 709.6,395.2 703.5,388.3 697.6,381.2 691.9,373.7 686.7,365.9 682.1,357.7 678.2,349.2 675.3,340.3 673.6,331.2 673.2,322.0 674.3,312.8 676.9,303.8 681.1,295.2 686.7,287.2 693.6,279.8 701.5,273.3 710.3,267.5 719.6,262.6 729.2,258.5 738.7,254.9 748.0,251.8 756.9,249.0 765.3,246.2 773.2,243.3 780.7,240.1 787.8,236.5 794.9,232.4 802.0,227.9 809.4,223.0 817.3,217.9 825.8,212.9 835.0,208.1 844.8,204.0 855.2,200.7 866.1,198.4 877.2,197.4 888.4,197.8 899.2,199.7 909.6,203.0 919.2,207.6 927.8,213.3 935.5,219.9 942.1,227.2 947.7,235.0 952.5,242.9 956.6,250.8 960.2,258.6 963.7,266.1 967.2,273.3 970.9,280.2 974.9,287.0 979.3,293.8 984.1,300.6 989.1,307.7 994.2,315.1 999.0,322.9 1003.3,331.2" fill="none" stroke="#e0723a" stroke-width="1.5" opacity="0.22"/><polyline points="1017.0,331.2 1021.0,340.7 1023.8,350.5 1025.1,360.6 1024.7,370.7 1022.5,380.7 1018.5,390.2 1012.6,399.1 1005.2,407.1 996.4,414.3 986.5,420.4 975.9,425.5 964.8,429.6 953.5,432.9 942.4,435.5 931.5,437.6 921.0,439.4 910.9,441.1 901.2,442.8 891.8,444.7 882.5,446.7 873.3,448.9 864.1,451.2 854.6,453.5 844.8,455.6 834.7,457.4 824.3,458.6 813.7,459.2 803.0,459.0 792.3,458.0 781.8,456.0 771.5,453.1 761.6,449.4 752.2,444.9 743.2,439.7 734.8,434.1 726.8,428.0 719.2,421.5 711.9,414.8 704.9,407.9 698.0,400.7 691.3,393.3 684.9,385.5 678.7,377.4 672.9,369.0 667.8,360.1 663.5,350.8 660.3,341.1 658.4,331.2 657.9,321.2 659.1,311.2 662.0,301.4 666.6,292.0 672.7,283.3 680.3,275.3 689.1,268.3 698.8,262.1 709.1,256.9 719.6,252.4 730.1,248.7 740.3,245.5 750.0,242.6 759.1,239.6 767.7,236.6 775.8,233.1 783.5,229.2 791.0,224.7 798.7,219.7 806.6,214.3 815.1,208.7 824.2,203.1 834.1,197.8 844.8,193.1 856.1,189.4 868.0,186.8 880.1,185.7 892.2,186.1 904.1,188.0 915.3,191.6 925.7,196.6 935.1,202.9 943.4,210.2 950.5,218.3 956.5,226.8 961.6,235.5 965.9,244.1 969.8,252.6 973.4,260.7 977.1,268.5 981.1,276.1 985.5,283.4 990.3,290.7 995.6,298.1 1001.1,305.7 1006.7,313.7 1012.1,322.2 1017.0,331.2" fill="none" stroke="#e0723a" stroke-width="1.5" opacity="0.22"/><polyline points="1028.9,331.2 1033.2,341.3 1036.3,351.9 1037.8,362.7 1037.4,373.5 1035.1,384.2 1030.8,394.4 1024.5,403.9 1016.5,412.5 1007.0,420.1 996.4,426.6 984.9,432.0 973.0,436.3 960.9,439.7 948.9,442.4 937.2,444.6 926.0,446.5 915.2,448.2 904.8,450.0 894.8,452.0 885.0,454.1 875.2,456.5 865.3,459.0 855.2,461.4 844.8,463.7 834.0,465.7 823.0,467.1 811.7,467.8 800.2,467.6 788.8,466.5 777.5,464.4 766.5,461.4 755.9,457.4 745.9,452.6 736.3,447.1 727.3,441.1 718.8,434.5 710.7,427.7 702.9,420.5 695.3,413.1 688.0,405.4 680.8,397.5 673.8,389.3 667.2,380.6 661.0,371.6 655.4,362.1 650.8,352.1 647.3,341.8 645.2,331.2 644.7,320.4 645.9,309.7 649.0,299.3 654.0,289.3 660.7,279.9 668.9,271.4 678.4,263.9 688.9,257.4 699.9,251.8 711.3,247.2 722.6,243.3 733.5,239.9 743.9,236.9 753.7,233.8 762.8,230.6 771.4,227.0 779.6,222.8 787.6,218.0 795.7,212.6 804.1,206.8 813.1,200.7 822.9,194.6 833.4,188.8 844.8,183.7 856.9,179.6 869.6,176.8 882.6,175.5 895.6,175.8 908.2,178.0 920.3,181.8 931.4,187.2 941.4,193.9 950.2,201.8 957.8,210.5 964.1,219.6 969.5,229.0 974.0,238.3 978.1,247.3 981.9,256.1 985.8,264.4 990.1,272.5 994.7,280.3 999.9,288.0 1005.6,295.9 1011.6,304.0 1017.7,312.5 1023.5,321.6 1028.9,331.2" fill="none" stroke="#e0723a" stroke-width="1.5" opacity="0.10"/><polyline points="1044.8,331.2 1049.6,342.2 1053.0,353.7 1054.7,365.4 1054.4,377.2 1051.8,388.8 1047.1,399.9 1040.3,410.3 1031.6,419.6 1021.2,427.9 1009.6,434.9 997.1,440.7 984.0,445.4 970.8,449.0 957.7,451.9 945.0,454.2 932.8,456.1 921.0,458.0 909.8,459.9 898.9,462.0 888.3,464.3 877.7,466.9 867.0,469.6 856.1,472.3 844.8,474.8 833.1,477.0 821.1,478.6 808.9,479.4 796.4,479.2 784.0,478.1 771.7,475.8 759.8,472.5 748.3,468.2 737.4,463.0 727.0,457.1 717.2,450.5 708.0,443.4 699.2,435.9 690.7,428.2 682.5,420.1 674.5,411.8 666.6,403.2 659.0,394.3 651.8,384.9 645.0,375.1 638.9,364.8 633.8,354.0 629.9,342.7 627.6,331.2 627.1,319.5 628.5,307.8 631.8,296.5 637.3,285.6 644.6,275.5 653.6,266.3 664.0,258.1 675.5,251.0 687.6,245.1 700.0,240.1 712.3,235.9 724.3,232.4 735.6,229.1 746.2,225.9 756.1,222.4 765.4,218.5 774.3,213.9 782.9,208.7 791.7,202.8 800.8,196.4 810.5,189.7 821.0,183.0 832.4,176.7 844.8,171.0 858.0,166.5 871.8,163.3 885.9,161.9 900.0,162.2 913.8,164.5 926.9,168.7 939.0,174.6 949.9,182.0 959.4,190.5 967.6,200.0 974.4,210.0 980.1,220.2 985.0,230.4 989.4,240.2 993.5,249.7 997.7,258.8 1002.2,267.5 1007.3,276.0 1012.9,284.4 1019.1,292.9 1025.7,301.7 1032.4,310.9 1038.9,320.8 1044.8,331.2" fill="none" stroke="#e0723a" stroke-width="1.5" opacity="0.10"/><polyline points="1061.1,331.2 1066.3,343.1 1070.1,355.5 1071.9,368.2 1071.5,381.0 1068.8,393.6 1063.7,405.6 1056.4,416.8 1046.9,426.9 1035.7,435.8 1023.1,443.4 1009.5,449.6 995.4,454.7 981.1,458.6 966.9,461.7 953.1,464.1 939.9,466.2 927.2,468.2 915.0,470.2 903.3,472.5 891.8,475.0 880.4,477.8 868.8,480.7 857.0,483.7 844.8,486.4 832.2,488.8 819.2,490.5 805.9,491.4 792.5,491.2 779.1,490.0 765.8,487.6 752.9,484.0 740.5,479.4 728.6,473.8 717.4,467.3 706.9,460.2 696.8,452.5 687.3,444.5 678.1,436.1 669.3,427.4 660.6,418.4 652.1,409.1 643.9,399.4 636.0,389.3 628.6,378.7 622.0,367.5 616.5,355.8 612.3,343.7 609.8,331.2 609.2,318.5 610.7,305.9 614.4,293.6 620.2,281.9 628.2,270.9 637.9,260.9 649.2,252.1 661.7,244.5 674.8,238.1 688.3,232.7 701.6,228.2 714.6,224.4 726.8,220.9 738.3,217.4 749.0,213.7 759.1,209.5 768.6,204.6 778.0,198.9 787.4,192.5 797.2,185.6 807.7,178.3 819.1,171.0 831.4,164.1 844.8,158.0 859.0,153.0 874.0,149.6 889.2,148.0 904.5,148.4 919.5,150.9 933.6,155.4 946.7,161.7 958.5,169.7 968.8,179.1 977.6,189.3 985.0,200.1 991.2,211.2 996.4,222.2 1001.1,232.9 1005.5,243.2 1010.0,253.0 1014.9,262.4 1020.4,271.6 1026.5,280.6 1033.2,289.8 1040.4,299.3 1047.6,309.3 1054.7,319.9 1061.1,331.2" fill="none" stroke="#e0723a" stroke-width="1.5" opacity="0.22"/><polyline points="1073.5,331.2 1079.0,343.8 1083.0,356.9 1084.9,370.4 1084.5,383.9 1081.7,397.1 1076.3,409.8 1068.5,421.6 1058.5,432.4 1046.6,441.8 1033.3,449.8 1018.9,456.4 1004.0,461.7 988.9,465.9 973.9,469.2 959.4,471.8 945.4,474.0 931.9,476.1 919.1,478.3 906.7,480.6 894.5,483.3 882.4,486.2 870.2,489.4 857.7,492.5 844.8,495.4 831.5,497.9 817.8,499.7 803.7,500.6 789.5,500.4 775.3,499.1 761.3,496.6 747.6,492.8 734.5,487.9 722.0,481.9 710.1,475.1 698.9,467.6 688.3,459.5 678.3,451.0 668.6,442.1 659.2,432.9 650.0,423.4 641.1,413.6 632.4,403.4 624.0,392.7 616.2,381.4 609.3,369.6 603.4,357.3 599.0,344.4 596.4,331.2 595.7,317.8 597.3,304.5 601.2,291.5 607.4,279.0 615.8,267.4 626.1,256.9 638.0,247.6 651.2,239.5 665.1,232.7 679.3,227.0 693.4,222.3 707.0,218.2 720.0,214.5 732.2,210.8 743.5,206.9 754.1,202.4 764.2,197.2 774.1,191.2 784.1,184.5 794.5,177.2 805.6,169.5 817.6,161.8 830.7,154.5 844.8,148.0 859.9,142.8 875.6,139.2 891.8,137.5 908.0,137.9 923.7,140.5 938.7,145.3 952.5,152.0 965.0,160.5 975.9,170.3 985.2,181.2 993.0,192.6 999.6,204.3 1005.1,215.9 1010.1,227.2 1014.7,238.1 1019.5,248.5 1024.7,258.4 1030.5,268.1 1037.0,277.7 1044.1,287.4 1051.6,297.5 1059.3,308.0 1066.7,319.3 1073.5,331.2" fill="none" stroke="#e0723a" stroke-width="1.5" opacity="0.22"/><polyline points="1089.6,331.2 1095.5,344.7 1099.7,358.7 1101.7,373.1 1101.3,387.6 1098.2,401.7 1092.5,415.3 1084.1,428.0 1073.4,439.4 1060.8,449.5 1046.5,458.1 1031.2,465.3 1015.3,471.0 999.1,475.5 983.1,479.0 967.5,481.8 952.6,484.2 938.2,486.5 924.4,488.8 911.1,491.4 898.1,494.3 885.1,497.4 872.0,500.7 858.6,504.0 844.8,507.1 830.5,509.8 815.8,511.7 800.8,512.7 785.6,512.5 770.3,511.1 755.3,508.3 740.7,504.3 726.7,499.0 713.3,492.6 700.6,485.3 688.6,477.2 677.3,468.6 666.5,459.4 656.1,449.9 646.1,440.1 636.3,429.9 626.7,419.4 617.4,408.4 608.5,397.0 600.2,385.0 592.7,372.3 586.5,359.1 581.8,345.3 579.0,331.2 578.3,316.9 580.0,302.6 584.1,288.7 590.8,275.4 599.7,263.0 610.7,251.7 623.4,241.7 637.5,233.0 652.3,225.7 667.5,219.6 682.5,214.5 697.1,210.1 711.0,206.1 724.0,202.1 736.2,197.9 747.5,193.1 758.4,187.5 769.0,181.1 779.7,173.9 790.9,166.1 802.8,157.9 815.7,149.7 829.7,142.0 844.8,135.1 860.9,129.5 877.8,125.7 895.1,123.9 912.4,124.4 929.3,127.2 945.3,132.3 960.1,139.5 973.4,148.5 985.1,159.0 995.1,170.6 1003.5,182.8 1010.5,195.3 1016.5,207.7 1021.8,219.8 1026.9,231.4 1032.1,242.6 1037.6,253.2 1043.8,263.6 1050.7,273.9 1058.3,284.3 1066.3,295.1 1074.5,306.4 1082.5,318.4 1089.6,331.2" fill="none" stroke="#e0723a" stroke-width="1.5" opacity="0.10"/><polyline points="1102.8,331.2 1108.9,345.4 1113.3,360.2 1115.4,375.3 1114.9,390.5 1111.6,405.5 1105.6,419.8 1096.8,433.1 1085.6,445.2 1072.3,455.8 1057.3,464.9 1041.2,472.4 1024.4,478.5 1007.4,483.3 990.6,487.0 974.2,490.1 958.5,492.6 943.3,495.1 928.8,497.6 914.8,500.3 901.0,503.3 887.3,506.6 873.5,510.1 859.4,513.6 844.8,516.8 829.7,519.6 814.2,521.5 798.4,522.5 782.3,522.3 766.3,520.8 750.5,517.9 735.1,513.6 720.3,508.0 706.2,501.3 692.8,493.6 680.2,485.1 668.2,476.0 656.8,466.4 645.9,456.3 635.3,446.0 625.0,435.2 615.0,424.1 605.2,412.6 595.8,400.5 587.1,387.8 579.3,374.5 572.8,360.6 567.9,346.1 564.9,331.2 564.2,316.1 566.0,301.1 570.3,286.4 577.3,272.4 586.7,259.3 598.2,247.4 611.6,236.9 626.3,227.8 641.9,220.0 657.8,213.5 673.6,208.1 689.0,203.4 703.6,199.2 717.3,194.9 730.1,190.4 742.1,185.3 753.6,179.5 764.8,172.7 776.1,165.2 787.9,157.0 800.5,148.4 814.1,139.8 828.9,131.7 844.8,124.5 861.8,118.7 879.6,114.7 897.8,112.9 916.0,113.4 933.7,116.4 950.6,121.7 966.2,129.3 980.3,138.8 992.6,149.8 1003.2,162.0 1012.0,174.8 1019.5,187.9 1025.9,201.0 1031.5,213.7 1036.9,226.0 1042.3,237.7 1048.2,248.9 1054.7,259.9 1062.0,270.7 1070.0,281.7 1078.4,293.1 1087.0,305.1 1095.3,317.7 1102.8,331.2" fill="none" stroke="#e0723a" stroke-width="1.5" opacity="0.10"/><polyline points="1119.2,331.2 1125.7,346.3 1130.3,362.0 1132.4,378.1 1131.9,394.3 1128.4,410.1 1121.9,425.3 1112.6,439.5 1100.7,452.4 1086.6,463.7 1070.8,473.4 1053.7,481.4 1035.9,487.9 1017.9,493.1 1000.1,497.1 982.7,500.4 965.9,503.2 949.8,505.9 934.4,508.6 919.4,511.5 904.8,514.7 890.2,518.2 875.4,521.9 860.3,525.6 844.8,529.0 828.8,531.9 812.2,534.0 795.4,535.0 778.3,534.7 761.2,533.0 744.4,529.9 728.0,525.3 712.3,519.4 697.3,512.3 683.0,504.1 669.6,495.0 656.9,485.3 644.8,475.0 633.2,464.4 621.9,453.3 610.9,441.9 600.3,430.1 589.9,417.8 580.0,404.9 570.8,391.4 562.5,377.2 555.6,362.4 550.4,347.0 547.3,331.2 546.6,315.2 548.5,299.2 553.1,283.6 560.4,268.7 570.4,254.8 582.6,242.1 596.7,230.9 612.3,221.1 628.8,212.8 645.6,205.9 662.4,200.0 678.7,195.0 694.2,190.4 708.8,185.8 722.4,181.0 735.2,175.5 747.4,169.3 759.4,162.2 771.5,154.2 784.1,145.5 797.6,136.4 812.1,127.4 827.8,118.8 844.8,111.3 862.9,105.2 881.8,101.0 901.1,99.1 920.5,99.7 939.3,102.8 957.3,108.5 973.9,116.6 988.8,126.6 1002.0,138.3 1013.2,151.2 1022.8,164.8 1030.8,178.7 1037.6,192.6 1043.7,206.1 1049.4,219.1 1055.3,231.6 1061.6,243.5 1068.5,255.2 1076.2,266.8 1084.7,278.5 1093.6,290.6 1102.6,303.4 1111.4,316.9 1119.2,331.2" fill="none" stroke="#e0723a" stroke-width="1.5" opacity="0.22"/><polyline points="1138.9,331.2 1145.7,347.4 1150.5,364.2 1152.7,381.4 1152.1,398.7 1148.3,415.7 1141.4,431.9 1131.4,447.1 1118.8,460.9 1103.7,473.1 1086.8,483.5 1068.6,492.2 1049.7,499.2 1030.5,504.8 1011.4,509.2 992.8,512.8 974.9,515.9 957.6,518.8 941.1,521.8 925.0,524.9 909.2,528.4 893.6,532.2 877.7,536.1 861.5,540.0 844.8,543.6 827.6,546.7 809.9,548.8 791.8,549.8 773.5,549.5 755.2,547.7 737.1,544.3 719.6,539.4 702.7,533.0 686.6,525.3 671.3,516.6 656.9,506.9 643.3,496.4 630.3,485.4 617.9,474.0 605.8,462.1 594.1,449.9 582.7,437.2 571.6,424.0 561.1,410.2 551.3,395.7 542.5,380.5 535.2,364.6 529.7,348.1 526.4,331.2 525.6,314.0 527.6,297.0 532.6,280.3 540.4,264.3 550.9,249.4 563.9,235.8 579.0,223.7 595.5,213.2 613.1,204.2 631.0,196.7 648.9,190.3 666.3,184.8 682.9,179.8 698.5,174.9 713.1,169.6 726.9,163.7 740.1,157.0 753.0,149.4 766.0,140.9 779.6,131.6 794.1,122.0 809.7,112.5 826.6,103.4 844.8,95.4 864.2,89.0 884.4,84.6 905.1,82.6 925.8,83.3 946.0,86.7 965.2,92.8 983.0,101.4 999.1,112.1 1013.2,124.6 1025.3,138.3 1035.6,152.8 1044.2,167.7 1051.6,182.5 1058.2,196.9 1064.5,210.8 1070.8,224.2 1077.6,237.1 1085.0,249.6 1093.3,262.0 1102.3,274.6 1111.7,287.7 1121.3,301.3 1130.6,315.8 1138.9,331.2" fill="none" stroke="#e0723a" stroke-width="1.5" opacity="0.22"/><polyline points="1157.5,331.2 1164.7,348.4 1169.6,366.3 1171.9,384.6 1171.2,402.9 1167.1,420.9 1159.8,438.2 1149.2,454.3 1135.8,469.0 1119.9,481.9 1102.0,493.0 1082.8,502.3 1062.7,509.9 1042.3,515.9 1022.1,520.7 1002.4,524.6 983.4,528.0 965.0,531.1 947.4,534.3 930.3,537.7 913.5,541.5 896.8,545.5 879.9,549.6 862.6,553.7 844.8,557.5 826.5,560.7 807.6,562.9 788.3,564.0 768.9,563.6 749.4,561.6 730.3,557.9 711.6,552.7 693.6,545.9 676.5,537.7 660.3,528.4 645.0,518.1 630.4,507.0 616.7,495.3 603.4,483.1 590.6,470.5 578.2,457.4 566.1,443.9 554.4,429.8 543.2,415.1 532.8,399.7 523.6,383.6 515.9,366.7 510.1,349.2 506.6,331.2 505.8,313.0 508.0,294.8 513.2,277.1 521.4,260.1 532.6,244.3 546.3,229.8 562.2,216.9 579.7,205.7 598.2,196.1 617.2,188.0 636.1,181.2 654.6,175.2 672.2,169.8 688.7,164.4 704.3,158.8 719.0,152.5 733.0,145.4 746.8,137.3 760.8,128.2 775.3,118.5 790.7,108.4 807.4,98.3 825.4,88.8 844.8,80.4 865.4,73.7 886.9,69.1 908.9,67.1 930.9,67.9 952.3,71.5 972.7,78.0 991.6,87.0 1008.7,98.4 1023.7,111.6 1036.7,126.1 1047.7,141.5 1057.0,157.2 1064.9,172.9 1072.0,188.2 1078.8,203.0 1085.5,217.2 1092.8,230.9 1100.7,244.3 1109.5,257.5 1119.0,271.0 1129.0,284.9 1139.1,299.4 1148.8,314.9 1157.5,331.2" fill="none" stroke="#e0723a" stroke-width="1.5" opacity="0.10"/><polyline points="1181.0,331.2 1188.5,349.7 1193.8,368.9 1196.1,388.5 1195.2,408.2 1190.9,427.5 1183.0,446.1 1171.7,463.4 1157.3,479.1 1140.3,493.1 1121.2,505.1 1100.6,515.1 1079.1,523.4 1057.3,529.9 1035.7,535.2 1014.6,539.5 994.1,543.2 974.4,546.7 955.4,550.2 937.0,553.9 918.9,557.9 900.8,562.2 882.6,566.7 864.0,571.1 844.8,575.1 825.0,578.4 804.7,580.7 784.0,581.8 763.1,581.3 742.2,579.1 721.6,575.2 701.5,569.5 682.2,562.2 663.8,553.4 646.3,543.3 629.8,532.2 614.2,520.3 599.4,507.7 585.2,494.6 571.4,481.0 558.1,466.9 545.1,452.4 532.6,437.2 520.6,421.4 509.6,404.9 499.7,387.5 491.5,369.3 485.3,350.5 481.7,331.2 480.8,311.6 483.1,292.2 488.7,273.1 497.5,254.9 509.4,237.8 524.0,222.3 541.0,208.3 559.6,196.2 579.4,185.8 599.7,177.0 620.0,169.5 639.7,163.0 658.6,157.1 676.4,151.2 693.1,145.1 709.0,138.3 724.2,130.6 739.1,121.9 754.2,112.3 769.9,101.9 786.6,91.1 804.5,80.4 823.9,70.3 844.8,61.5 866.9,54.4 890.0,49.6 913.6,47.5 937.2,48.3 960.3,52.3 982.2,59.2 1002.5,69.0 1020.9,81.1 1037.1,95.2 1051.1,110.8 1063.0,127.2 1073.1,144.0 1081.7,160.8 1089.5,177.2 1096.8,193.1 1104.2,208.4 1112.0,223.1 1120.6,237.5 1129.9,251.8 1140.1,266.3 1150.7,281.3 1161.5,297.0 1171.8,313.6 1181.0,331.2" fill="none" stroke="#e0723a" stroke-width="1.5" opacity="0.10"/><polyline points="1202.2,331.2 1210.1,350.8 1215.6,371.2 1218.0,392.1 1217.0,413.0 1212.3,433.5 1203.9,453.2 1191.9,471.6 1176.7,488.3 1158.7,503.2 1138.5,516.0 1116.7,526.7 1094.0,535.5 1070.9,542.6 1047.9,548.3 1025.5,553.0 1003.8,557.0 982.9,560.8 962.7,564.5 943.0,568.5 923.7,572.8 904.5,577.4 885.1,582.1 865.2,586.7 844.8,590.9 823.8,594.4 802.2,596.8 780.1,597.9 757.8,597.3 735.6,594.9 713.7,590.7 692.4,584.6 671.8,576.8 652.3,567.5 633.7,556.8 616.2,545.0 599.6,532.3 583.8,518.9 568.7,504.9 554.1,490.5 539.9,475.5 526.2,460.0 512.9,443.9 500.3,427.1 488.6,409.5 478.2,391.0 469.5,371.7 463.0,351.7 459.1,331.2 458.3,310.4 460.7,289.7 466.6,269.5 475.9,250.1 488.5,232.0 503.9,215.4 521.8,200.6 541.6,187.6 562.5,176.5 584.0,167.1 605.4,159.1 626.3,152.0 646.3,145.6 665.3,139.3 683.1,132.7 699.9,125.5 716.2,117.3 732.1,108.1 748.2,97.9 765.0,86.9 782.8,75.5 801.9,64.3 822.6,53.7 844.8,44.4 868.3,36.9 892.8,31.9 917.9,29.8 943.0,30.7 967.4,34.9 990.7,42.3 1012.3,52.6 1031.9,65.5 1049.1,80.4 1064.1,96.9 1076.8,114.3 1087.6,132.1 1096.9,149.9 1105.2,167.3 1113.1,184.2 1121.0,200.4 1129.3,216.1 1138.4,231.5 1148.4,246.7 1159.1,262.1 1170.4,278.1 1181.7,294.8 1192.5,312.5 1202.2,331.2" fill="none" stroke="#e0723a" stroke-width="1.5" opacity="0.22"/><polyline points="1219.3,331.2 1227.5,351.8 1233.1,373.1 1235.6,394.9 1234.5,416.8 1229.6,438.3 1220.8,458.9 1208.3,478.2 1192.4,495.7 1173.5,511.3 1152.4,524.8 1129.6,536.0 1105.9,545.3 1081.8,552.8 1057.8,558.8 1034.3,563.8 1011.6,568.0 989.6,572.0 968.5,576.0 947.9,580.2 927.6,584.7 907.5,589.5 887.1,594.4 866.2,599.2 844.8,603.6 822.7,607.2 800.1,609.7 777.0,610.8 753.6,610.2 730.4,607.7 707.4,603.2 685.0,596.8 663.5,588.7 643.0,578.8 623.6,567.6 605.2,555.3 587.8,542.0 571.3,527.9 555.4,513.3 540.1,498.1 525.3,482.4 510.9,466.2 497.1,449.3 483.9,431.7 471.6,413.2 460.8,393.8 451.7,373.6 445.0,352.7 440.9,331.2 440.1,309.4 442.6,287.8 448.8,266.6 458.5,246.3 471.6,227.3 487.7,209.9 506.4,194.4 527.0,180.8 548.9,169.1 571.3,159.1 593.7,150.6 615.6,143.2 636.5,136.5 656.3,129.8 675.0,122.9 692.7,115.2 709.7,106.6 726.5,97.0 743.4,86.3 761.0,74.9 779.8,63.0 799.9,51.3 821.5,40.3 844.8,30.6 869.4,22.9 895.1,17.7 921.4,15.5 947.6,16.5 973.2,20.9 997.6,28.7 1020.3,39.4 1040.8,52.9 1058.9,68.5 1074.5,85.7 1087.9,103.9 1099.3,122.5 1109.1,141.1 1117.9,159.4 1126.2,177.0 1134.5,194.1 1143.3,210.5 1152.8,226.6 1163.2,242.6 1174.4,258.8 1186.1,275.5 1197.9,293.1 1209.2,311.6 1219.3,331.2" fill="none" stroke="#e0723a" stroke-width="1.5" opacity="0.22"/><polyline points="1238.7,331.2 1247.3,352.8 1253.1,375.3 1255.7,398.2 1254.5,421.2 1249.3,443.8 1240.1,465.5 1226.9,485.7 1210.2,504.2 1190.4,520.6 1168.3,534.7 1144.4,546.6 1119.4,556.4 1094.1,564.3 1068.9,570.7 1044.2,576.0 1020.3,580.5 997.3,584.7 975.0,589.0 953.3,593.4 932.0,598.1 910.8,603.2 889.3,608.3 867.4,613.4 844.8,618.0 821.6,621.7 797.7,624.3 773.4,625.4 748.9,624.7 724.4,622.1 700.2,617.4 676.7,610.7 654.1,602.0 632.5,591.7 612.1,579.9 592.7,566.9 574.4,552.9 557.0,538.1 540.4,522.7 524.3,506.8 508.8,490.3 493.6,473.2 479.1,455.4 465.2,436.9 452.4,417.4 441.0,397.1 431.5,375.8 424.4,353.8 420.2,331.2 419.3,308.3 422.0,285.6 428.5,263.3 438.7,242.0 452.4,222.0 469.3,203.7 488.9,187.3 510.5,172.9 533.4,160.6 557.0,150.1 580.5,141.1 603.5,133.3 625.5,126.1 646.3,119.1 666.0,111.7 684.6,103.7 702.5,94.6 720.2,84.5 738.0,73.3 756.6,61.3 776.3,48.9 797.5,36.6 820.3,25.1 844.8,15.0 870.7,6.9 897.7,1.5 925.3,-0.8 952.9,0.4 979.8,5.0 1005.5,13.1 1029.3,24.5 1050.8,38.6 1069.9,54.9 1086.4,73.0 1100.5,92.1 1112.5,111.6 1122.9,131.2 1132.2,150.4 1140.9,168.9 1149.7,186.8 1159.0,204.2 1169.0,221.1 1180.0,237.9 1191.7,255.0 1204.0,272.6 1216.3,291.1 1228.1,310.6 1238.7,331.2" fill="none" stroke="#e0723a" stroke-width="1.5" opacity="0.10"/><polyline points="1259.1,331.2 1268.1,353.9 1274.2,377.6 1276.9,401.7 1275.7,425.9 1270.2,449.6 1260.5,472.4 1246.6,493.7 1229.1,513.1 1208.3,530.4 1185.0,545.3 1159.9,557.8 1133.7,568.1 1107.1,576.4 1080.6,583.2 1054.6,588.7 1029.5,593.5 1005.2,598.0 981.8,602.4 959.0,607.1 936.6,612.1 914.2,617.4 891.6,622.8 868.5,628.1 844.8,632.9 820.4,636.9 795.3,639.6 769.7,640.8 743.9,640.0 718.1,637.2 692.7,632.3 668.0,625.2 644.2,616.1 621.5,605.3 600.0,592.8 579.6,579.1 560.4,564.4 542.1,548.9 524.6,532.7 507.7,515.9 491.3,498.5 475.4,480.6 460.1,461.9 445.6,442.3 432.1,421.9 420.1,400.5 410.2,378.1 402.7,355.0 398.3,331.2 397.4,307.2 400.2,283.2 407.0,259.8 417.7,237.4 432.1,216.3 449.9,197.1 470.5,179.8 493.2,164.7 517.2,151.7 542.0,140.7 566.7,131.2 590.8,122.9 614.0,115.4 635.9,107.9 656.6,100.2 676.2,91.7 695.1,82.2 713.6,71.5 732.4,59.8 752.0,47.2 772.8,34.2 795.0,21.3 819.1,9.2 844.8,-1.4 872.1,-9.9 900.5,-15.5 929.5,-17.9 958.5,-16.7 986.8,-11.8 1013.8,-3.3 1038.8,8.6 1061.5,23.4 1081.6,40.6 1098.9,59.6 1113.8,79.7 1126.5,100.2 1137.4,120.8 1147.2,140.9 1156.4,160.5 1165.7,179.3 1175.4,197.5 1186.0,215.3 1197.4,233.0 1209.8,251.0 1222.7,269.6 1235.7,289.0 1248.0,309.5 1259.1,331.2" fill="none" stroke="#e0723a" stroke-width="1.5" opacity="0.10"/><polyline points="1277.6,331.2 1287.0,355.0 1293.5,379.6 1296.3,404.8 1295.0,430.1 1289.3,454.9 1279.1,478.7 1264.7,501.0 1246.3,521.3 1224.6,539.3 1200.2,554.8 1174.0,567.9 1146.6,578.7 1118.8,587.4 1091.1,594.4 1064.0,600.2 1037.7,605.2 1012.4,609.8 987.9,614.5 964.1,619.3 940.7,624.6 917.3,630.1 893.7,635.8 869.6,641.3 844.8,646.3 819.3,650.5 793.1,653.3 766.4,654.5 739.4,653.8 712.5,650.8 685.9,645.7 660.1,638.3 635.2,628.8 611.5,617.5 589.0,604.5 567.8,590.2 547.7,574.8 528.6,558.6 510.3,541.7 492.6,524.1 475.5,506.0 458.9,487.2 442.9,467.7 427.7,447.3 413.6,425.9 401.1,403.6 390.7,380.2 382.9,356.0 378.3,331.2 377.3,306.1 380.3,281.1 387.4,256.6 398.6,233.2 413.7,211.2 432.2,191.1 453.8,173.1 477.5,157.3 502.6,143.7 528.5,132.2 554.3,122.3 579.6,113.7 603.7,105.8 626.6,98.1 648.2,90.0 668.7,81.1 688.4,71.2 707.8,60.1 727.5,47.8 747.9,34.6 769.5,21.0 792.8,7.5 817.9,-5.2 844.8,-16.3 873.3,-25.1 903.0,-31.0 933.3,-33.6 963.6,-32.3 993.2,-27.2 1021.3,-18.3 1047.5,-5.8 1071.2,9.7 1092.1,27.7 1110.3,47.5 1125.8,68.4 1139.0,89.9 1150.4,111.4 1160.6,132.5 1170.3,152.9 1179.9,172.6 1190.1,191.6 1201.1,210.2 1213.1,228.7 1226.0,247.4 1239.5,266.8 1253.1,287.1 1266.0,308.6 1277.6,331.2" fill="none" stroke="#e0723a" stroke-width="1.5" opacity="0.22"/><polyline points="1289.1,331.2 1298.8,355.6 1305.4,380.9 1308.3,406.8 1307.0,432.8 1301.2,458.2 1290.8,482.7 1275.9,505.5 1257.0,526.4 1234.7,544.8 1209.7,560.8 1182.7,574.2 1154.6,585.2 1126.0,594.1 1097.5,601.3 1069.7,607.2 1042.7,612.3 1016.7,617.1 991.6,621.8 967.2,626.8 943.1,632.1 919.2,637.8 895.0,643.6 870.2,649.3 844.8,654.5 818.6,658.8 791.7,661.8 764.3,663.0 736.6,662.2 709.0,659.2 681.8,654.0 655.2,646.4 629.7,636.7 605.4,625.0 582.3,611.7 560.5,597.0 539.9,581.3 520.2,564.6 501.5,547.2 483.3,529.2 465.8,510.6 448.7,491.4 432.3,471.3 416.6,450.4 402.2,428.5 389.3,405.5 378.6,381.5 370.6,356.7 365.8,331.2 364.8,305.4 367.8,279.7 375.1,254.6 386.6,230.5 402.2,208.0 421.3,187.3 443.4,168.9 467.8,152.7 493.6,138.8 520.2,127.0 546.8,116.9 572.7,108.1 597.5,100.0 621.0,92.1 643.2,83.8 664.2,74.7 684.4,64.5 704.3,53.1 724.4,40.5 745.4,26.9 767.6,12.9 791.5,-1.0 817.2,-14.0 844.8,-25.5 874.0,-34.6 904.5,-40.7 935.6,-43.3 966.8,-42.0 997.1,-36.8 1026.1,-27.6 1052.9,-14.8 1077.2,1.1 1098.7,19.6 1117.3,39.9 1133.2,61.5 1146.8,83.6 1158.4,105.7 1168.9,127.3 1178.7,148.2 1188.6,168.4 1199.1,187.9 1210.4,207.0 1222.7,226.0 1236.0,245.2 1249.9,265.1 1263.8,286.0 1277.2,308.0 1289.1,331.2" fill="none" stroke="#e0723a" stroke-width="1.5" opacity="0.22"/><polyline points="1304.9,331.2 1315.1,356.5 1322.0,382.7 1325.1,409.5 1323.8,436.4 1317.8,462.9 1307.0,488.2 1291.6,511.9 1272.0,533.4 1248.8,552.6 1222.8,569.0 1194.8,582.9 1165.6,594.2 1135.9,603.4 1106.4,610.7 1077.5,616.8 1049.6,622.0 1022.6,626.9 996.6,631.7 971.3,636.9 946.5,642.4 921.7,648.3 896.7,654.3 871.1,660.2 844.8,665.7 817.7,670.2 789.9,673.3 761.5,674.6 732.8,673.8 704.2,670.8 676.0,665.3 648.6,657.5 622.1,647.5 596.9,635.4 573.0,621.6 550.4,606.4 529.1,590.1 508.8,572.9 489.3,554.9 470.5,536.3 452.3,517.0 434.6,497.1 417.5,476.3 401.3,454.6 386.3,432.0 372.9,408.2 361.7,383.4 353.4,357.6 348.4,331.2 347.3,304.5 350.5,277.8 358.1,251.8 370.0,226.9 386.2,203.5 406.0,182.2 429.0,163.1 454.4,146.4 481.3,132.0 508.9,119.9 536.5,109.5 563.4,100.4 589.1,92.1 613.5,84.0 636.4,75.5 658.2,66.1 679.0,55.6 699.6,43.7 720.4,30.6 742.0,16.5 764.9,1.9 789.6,-12.5 816.2,-26.1 844.8,-38.1 875.1,-47.6 906.7,-54.0 938.9,-56.8 971.2,-55.5 1002.7,-50.1 1032.6,-40.6 1060.4,-27.4 1085.6,-10.8 1107.8,8.4 1127.1,29.5 1143.5,51.9 1157.4,74.9 1169.4,97.7 1180.2,120.2 1190.3,141.9 1200.5,162.8 1211.3,183.0 1223.0,202.7 1235.8,222.4 1249.6,242.3 1264.0,262.8 1278.6,284.4 1292.5,307.1 1304.9,331.2" fill="none" stroke="#e0723a" stroke-width="1.5" opacity="0.10"/><polyline points="1313.8,331.2 1324.2,357.0 1331.4,383.7 1334.6,411.1 1333.3,438.5 1327.2,465.5 1316.2,491.3 1300.4,515.5 1280.4,537.4 1256.8,556.9 1230.2,573.7 1201.6,587.8 1171.7,599.3 1141.4,608.6 1111.3,616.0 1081.8,622.1 1053.3,627.4 1025.9,632.3 999.4,637.2 973.6,642.4 948.3,648.0 923.1,654.0 897.6,660.2 871.6,666.3 844.8,671.8 817.2,676.4 788.9,679.6 759.9,681.0 730.7,680.3 701.6,677.2 672.8,671.7 644.8,663.7 617.9,653.5 592.2,641.2 567.8,627.2 544.8,611.7 523.0,595.0 502.3,577.5 482.5,559.2 463.4,540.2 444.8,520.6 426.7,500.3 409.3,479.1 392.7,457.0 377.3,433.9 363.6,409.7 352.2,384.4 343.7,358.1 338.6,331.2 337.5,303.9 340.7,276.8 348.4,250.2 360.6,224.8 377.1,201.0 397.5,179.3 421.0,159.8 446.9,142.8 474.4,128.3 502.6,115.9 530.8,105.4 558.3,96.2 584.5,87.8 609.4,79.6 632.8,71.0 654.9,61.4 676.1,50.7 697.0,38.6 718.1,25.2 740.1,10.8 763.5,-4.1 788.6,-19.0 815.7,-32.9 844.8,-45.2 875.7,-55.0 907.9,-61.6 940.8,-64.4 973.7,-63.2 1005.8,-57.6 1036.3,-48.0 1064.7,-34.4 1090.3,-17.5 1113.0,2.1 1132.5,23.7 1149.2,46.6 1163.4,70.0 1175.6,93.3 1186.4,116.2 1196.7,138.4 1207.1,159.7 1218.0,180.3 1230.0,200.4 1243.0,220.4 1257.1,240.6 1271.9,261.5 1286.8,283.5 1301.0,306.7 1313.8,331.2" fill="none" stroke="#e0723a" stroke-width="1.5" opacity="0.10"/><polyline points="1322.3,331.2 1333.0,357.4 1340.4,384.7 1343.7,412.6 1342.5,440.5 1336.3,468.0 1325.0,494.3 1309.0,518.9 1288.6,541.3 1264.4,561.1 1237.3,578.2 1208.1,592.5 1177.6,604.1 1146.7,613.5 1116.0,621.0 1086.0,627.2 1056.9,632.5 1029.0,637.4 1002.0,642.4 975.8,647.7 950.1,653.4 924.4,659.5 898.5,665.8 872.0,672.0 844.8,677.7 816.7,682.4 787.9,685.7 758.4,687.2 728.7,686.5 699.0,683.4 669.7,677.8 641.2,669.7 613.8,659.3 587.6,646.8 562.9,632.5 539.4,616.7 517.3,599.8 496.2,581.9 476.0,563.3 456.5,544.0 437.5,524.0 419.1,503.3 401.3,481.8 384.4,459.4 368.7,435.8 354.7,411.1 343.0,385.4 334.3,358.6 329.1,331.2 327.9,303.4 331.2,275.8 339.1,248.7 351.6,222.8 368.5,198.6 389.2,176.5 413.3,156.7 439.7,139.4 467.8,124.7 496.6,112.1 525.4,101.5 553.4,92.2 580.2,83.8 605.5,75.4 629.3,66.7 651.8,57.0 673.3,46.1 694.5,33.8 716.0,20.1 738.3,5.4 762.1,-9.9 787.6,-25.1 815.2,-39.4 844.8,-52.0 876.2,-62.0 909.0,-68.8 942.5,-71.7 976.1,-70.5 1008.8,-64.9 1039.9,-55.0 1068.8,-41.2 1094.9,-24.0 1117.9,-4.0 1137.8,18.1 1154.7,41.4 1169.1,65.3 1181.4,89.1 1192.4,112.5 1202.8,135.0 1213.3,156.7 1224.5,177.7 1236.6,198.1 1249.9,218.4 1264.3,239.0 1279.4,260.3 1294.6,282.6 1309.2,306.2 1322.3,331.2" fill="none" stroke="#e0723a" stroke-width="1.5" opacity="0.22"/><polyline points="1334.6,331.2 1345.7,358.1 1353.4,386.1 1356.9,414.7 1355.6,443.4 1349.3,471.6 1337.8,498.6 1321.3,523.9 1300.3,546.8 1275.4,567.1 1247.5,584.6 1217.5,599.2 1186.1,611.1 1154.3,620.6 1122.7,628.2 1091.9,634.4 1062.1,639.8 1033.4,644.8 1005.7,649.8 978.9,655.2 952.6,661.0 926.3,667.3 899.8,673.7 872.7,680.2 844.8,686.1 816.0,691.0 786.5,694.4 756.3,696.0 725.8,695.3 695.4,692.2 665.3,686.5 636.1,678.2 608.0,667.6 581.1,654.8 555.7,640.1 531.7,623.9 509.0,606.6 487.4,588.2 466.7,569.1 446.6,549.4 427.2,528.9 408.3,507.7 389.9,485.7 372.5,462.7 356.3,438.5 341.9,413.2 329.8,386.8 320.8,359.4 315.4,331.2 314.2,302.7 317.6,274.3 325.7,246.5 338.6,220.0 356.0,195.1 377.4,172.4 402.2,152.2 429.5,134.6 458.4,119.5 488.1,106.7 517.7,95.9 546.5,86.6 574.0,78.0 599.9,69.5 624.3,60.6 647.3,50.7 669.4,39.5 691.1,26.9 713.0,12.8 735.8,-2.4 760.1,-18.2 786.2,-33.9 814.4,-48.6 844.8,-61.7 877.0,-72.1 910.7,-79.2 945.1,-82.3 979.5,-81.1 1013.1,-75.3 1045.0,-65.2 1074.7,-51.0 1101.4,-33.3 1125.0,-12.7 1145.3,10.0 1162.6,34.0 1177.2,58.6 1189.8,83.1 1201.0,107.1 1211.6,130.2 1222.3,152.5 1233.6,174.0 1246.1,194.9 1259.8,215.7 1274.6,236.8 1290.2,258.6 1305.9,281.4 1321.0,305.6 1334.6,331.2" fill="none" stroke="#e0723a" stroke-width="1.5" opacity="0.22"/><polyline points="1342.6,331.2 1354.0,358.6 1361.9,387.0 1365.5,416.1 1364.3,445.3 1357.9,474.0 1346.2,501.5 1329.4,527.2 1308.0,550.5 1282.7,571.1 1254.2,588.8 1223.6,603.6 1191.7,615.6 1159.3,625.3 1127.1,632.9 1095.7,639.2 1065.4,644.5 1036.3,649.6 1008.2,654.6 980.9,660.1 954.2,666.0 927.6,672.3 900.6,679.0 873.1,685.5 844.8,691.5 815.6,696.6 785.6,700.1 754.9,701.8 723.9,701.1 693.0,698.0 662.5,692.2 632.7,683.8 604.1,673.0 576.9,660.0 551.1,645.1 526.7,628.7 503.6,611.0 481.6,592.4 460.5,573.0 440.2,552.9 420.4,532.1 401.1,510.6 382.5,488.2 364.7,464.8 348.2,440.3 333.5,414.6 321.2,387.7 312.0,359.8 306.5,331.2 305.2,302.2 308.6,273.3 316.9,245.1 330.1,218.1 347.8,192.9 369.6,169.8 394.9,149.3 422.7,131.4 452.2,116.1 482.5,103.2 512.6,92.3 541.9,82.8 569.9,74.2 596.3,65.6 621.1,56.6 644.4,46.6 666.8,35.3 688.8,22.4 711.0,8.0 734.1,-7.5 758.7,-23.6 785.3,-39.6 814.0,-54.7 844.8,-68.0 877.6,-78.7 911.8,-86.0 946.8,-89.2 981.8,-88.0 1015.9,-82.2 1048.4,-71.9 1078.5,-57.4 1105.7,-39.4 1129.6,-18.4 1150.3,4.8 1167.8,29.2 1182.6,54.2 1195.3,79.2 1206.6,103.6 1217.3,127.1 1228.1,149.7 1239.6,171.5 1252.3,192.8 1266.2,213.9 1281.3,235.3 1297.2,257.4 1313.3,280.6 1328.7,305.2 1342.6,331.2" fill="none" stroke="#e0723a" stroke-width="1.5" opacity="0.10"/><polyline points="1352.0,331.2 1363.7,359.1 1371.8,388.1 1375.6,417.8 1374.4,447.6 1367.9,476.8 1355.9,504.8 1338.8,531.0 1317.0,554.7 1291.1,575.7 1262.1,593.8 1230.8,608.8 1198.2,621.0 1165.1,630.7 1132.3,638.5 1100.3,644.8 1069.4,650.2 1039.7,655.2 1011.1,660.4 983.3,665.9 956.1,671.9 929.0,678.4 901.6,685.1 873.6,691.8 844.8,698.0 815.1,703.2 784.5,706.8 753.3,708.6 721.7,707.9 690.2,704.8 659.1,698.9 628.8,690.4 599.7,679.4 571.9,666.1 545.6,651.0 520.7,634.2 497.2,616.2 474.8,597.3 453.3,577.5 432.6,557.0 412.4,535.9 392.8,514.0 373.7,491.2 355.6,467.4 338.7,442.4 323.7,416.2 311.1,388.8 301.6,360.4 296.0,331.2 294.7,301.6 298.2,272.2 306.7,243.4 320.1,215.9 338.2,190.2 360.5,166.7 386.3,145.8 414.8,127.6 444.9,112.1 475.8,99.0 506.6,88.0 536.5,78.4 565.1,69.7 592.0,61.0 617.2,51.9 641.0,41.8 663.8,30.2 686.1,17.0 708.7,2.4 732.2,-13.5 757.2,-30.0 784.2,-46.4 813.4,-61.9 844.8,-75.5 878.2,-86.5 913.1,-94.0 948.7,-97.3 984.4,-96.1 1019.2,-90.2 1052.4,-79.7 1083.0,-65.0 1110.7,-46.5 1135.1,-25.1 1156.1,-1.4 1173.8,23.5 1188.9,49.1 1201.7,74.5 1213.2,99.4 1224.0,123.4 1235.0,146.5 1246.7,168.7 1259.6,190.3 1273.8,211.8 1289.2,233.5 1305.5,256.1 1322.0,279.7 1337.8,304.7 1352.0,331.2" fill="none" stroke="#e0723a" stroke-width="1.5" opacity="0.10"/><polyline points="1366.7,331.2 1378.8,359.9 1387.2,389.8 1391.2,420.3 1390.0,451.0 1383.3,481.1 1371.0,509.9 1353.4,536.9 1330.9,561.3 1304.2,582.9 1274.2,601.4 1242.0,616.8 1208.4,629.3 1174.3,639.3 1140.5,647.2 1107.5,653.5 1075.6,659.0 1045.0,664.2 1015.6,669.4 987.1,675.0 959.2,681.2 931.3,687.9 903.2,694.9 874.4,701.8 844.8,708.2 814.2,713.6 782.8,717.4 750.7,719.2 718.2,718.6 685.8,715.4 653.8,709.4 622.6,700.6 592.6,689.3 564.1,675.7 537.0,660.1 511.4,642.9 487.2,624.4 464.2,604.9 442.1,584.6 420.8,563.5 400.0,541.8 379.7,519.3 360.1,495.8 341.4,471.3 324.0,445.6 308.4,418.7 295.4,390.5 285.7,361.3 279.8,331.2 278.5,300.8 282.0,270.4 290.8,240.8 304.6,212.5 323.4,186.1 346.4,161.9 373.1,140.4 402.5,121.8 433.6,105.9 465.5,92.5 497.2,81.2 528.1,71.5 557.5,62.5 585.2,53.7 611.1,44.4 635.5,34.0 658.9,22.1 681.8,8.5 705.0,-6.6 729.1,-22.9 754.8,-40.0 782.5,-57.0 812.5,-73.0 844.8,-87.2 879.2,-98.6 915.0,-106.3 951.8,-109.8 988.5,-108.7 1024.4,-102.6 1058.5,-91.8 1090.0,-76.6 1118.5,-57.5 1143.5,-35.4 1165.1,-11.1 1183.3,14.7 1198.7,41.0 1211.8,67.3 1223.5,92.9 1234.6,117.6 1245.9,141.3 1257.9,164.2 1271.1,186.4 1285.8,208.5 1301.7,230.8 1318.5,253.9 1335.5,278.2 1351.9,303.9 1366.7,331.2" fill="none" stroke="#e0723a" stroke-width="1.5" opacity="0.22"/><polyline points="1383.9,331.2 1396.5,360.9 1405.3,391.7 1409.4,423.3 1408.2,455.0 1401.3,486.1 1388.7,515.9 1370.4,543.7 1347.1,569.0 1319.5,591.3 1288.5,610.4 1255.1,626.3 1220.4,639.2 1185.1,649.4 1150.1,657.5 1116.0,664.0 1083.1,669.7 1051.5,674.9 1021.2,680.3 991.7,686.1 962.9,692.5 934.1,699.4 905.1,706.6 875.4,713.8 844.8,720.4 813.2,726.0 780.8,730.0 747.6,731.9 714.1,731.3 680.5,728.0 647.5,721.8 615.3,712.8 584.4,701.1 554.8,687.1 526.9,670.9 500.5,653.2 475.5,634.0 451.7,613.9 428.9,592.9 406.8,571.2 385.3,548.7 364.4,525.5 344.1,501.3 324.7,476.0 306.6,449.4 290.6,421.6 277.1,392.5 267.0,362.3 260.9,331.2 259.5,299.7 263.2,268.4 272.3,237.8 286.6,208.6 306.0,181.2 329.9,156.3 357.5,134.1 387.9,114.9 420.1,98.5 453.1,84.7 485.9,73.1 517.8,63.1 548.2,53.9 576.9,44.9 603.6,35.2 628.9,24.5 653.0,12.2 676.6,-1.8 700.5,-17.4 725.3,-34.4 751.8,-52.0 780.4,-69.6 811.4,-86.3 844.8,-101.0 880.3,-112.8 917.4,-120.9 955.3,-124.5 993.3,-123.3 1030.4,-117.1 1065.6,-105.9 1098.2,-90.2 1127.6,-70.5 1153.5,-47.6 1175.7,-22.4 1194.5,4.3 1210.3,31.5 1223.8,58.6 1235.9,85.1 1247.3,110.7 1258.9,135.2 1271.3,158.7 1285.0,181.7 1300.1,204.5 1316.6,227.5 1334.0,251.4 1351.6,276.5 1368.6,303.0 1383.9,331.2" fill="none" stroke="#e0723a" stroke-width="1.5" opacity="0.22"/><polyline points="1401.4,331.2 1414.4,361.8 1423.5,393.7 1427.7,426.3 1426.5,459.0 1419.4,491.1 1406.3,521.9 1387.5,550.6 1363.4,576.7 1334.9,599.7 1302.9,619.4 1268.4,635.8 1232.5,649.1 1196.1,659.7 1160.0,668.1 1124.8,674.8 1090.8,680.6 1058.2,686.1 1026.9,691.6 996.5,697.6 966.7,704.2 937.0,711.3 907.0,718.7 876.4,726.1 844.8,733.0 812.2,738.8 778.7,742.9 744.5,744.9 709.8,744.3 675.2,740.8 641.1,734.4 607.9,725.1 575.9,713.1 545.4,698.6 516.6,682.0 489.3,663.6 463.5,643.9 439.0,623.1 415.4,601.4 392.6,579.0 370.4,555.8 348.8,531.8 327.8,506.8 307.8,480.7 289.2,453.3 272.6,424.5 258.7,394.5 248.2,363.3 242.0,331.2 240.5,298.7 244.4,266.4 253.7,234.8 268.5,204.6 288.5,176.4 313.2,150.6 341.7,127.7 373.1,107.9 406.3,91.0 440.4,76.7 474.3,64.8 507.3,54.4 538.6,44.9 568.2,35.6 595.8,25.7 621.9,14.6 646.8,1.9 671.2,-12.6 695.8,-28.7 721.5,-46.2 748.8,-64.4 778.4,-82.6 810.3,-99.8 844.8,-115.0 881.4,-127.2 919.7,-135.5 958.9,-139.3 998.1,-138.1 1036.4,-131.6 1072.8,-120.1 1106.4,-103.8 1136.8,-83.5 1163.5,-59.9 1186.4,-33.9 1205.8,-6.3 1222.1,21.8 1236.1,49.8 1248.6,77.2 1260.3,103.5 1272.3,128.8 1285.1,153.2 1299.2,176.9 1314.9,200.4 1331.9,224.2 1349.8,248.8 1368.0,274.7 1385.6,302.1 1401.4,331.2" fill="none" stroke="#e0723a" stroke-width="1.5" opacity="0.10"/><polyline points="1420.4,331.2 1433.8,362.9 1443.1,395.8 1447.5,429.5 1446.2,463.3 1438.9,496.6 1425.3,528.4 1405.9,558.1 1381.0,585.1 1351.6,608.9 1318.5,629.3 1282.9,646.2 1245.8,660.0 1208.2,671.0 1170.9,679.6 1134.5,686.7 1099.3,692.7 1065.6,698.4 1033.2,704.1 1001.7,710.3 970.9,717.1 940.2,724.5 909.2,732.2 877.5,739.8 844.8,746.9 811.1,752.8 776.4,757.1 741.0,759.1 705.2,758.4 669.4,754.9 634.1,748.3 599.8,738.6 566.7,726.2 535.2,711.2 505.3,694.0 477.1,675.0 450.4,654.6 425.1,633.0 400.7,610.6 377.1,587.4 354.2,563.5 331.8,538.6 310.2,512.8 289.5,485.8 270.3,457.4 253.1,427.7 238.8,396.6 228.0,364.4 221.5,331.2 220.1,297.6 224.0,264.2 233.6,231.5 248.9,200.3 269.6,171.1 295.1,144.5 324.5,120.8 356.9,100.2 391.3,82.7 426.5,68.0 461.5,55.6 495.6,44.8 528.0,35.0 558.5,25.3 587.2,15.0 614.1,3.5 639.8,-9.6 665.1,-24.5 690.6,-41.2 717.2,-59.3 745.5,-78.1 776.1,-96.9 809.2,-114.6 844.8,-130.3 882.7,-142.8 922.3,-151.4 962.8,-155.3 1003.3,-154.0 1042.9,-147.3 1080.5,-135.4 1115.3,-118.6 1146.7,-97.6 1174.3,-73.2 1198.1,-46.3 1218.1,-17.9 1235.1,11.2 1249.6,40.1 1262.5,68.4 1274.7,95.7 1287.1,121.8 1300.3,147.0 1314.9,171.5 1331.1,195.8 1348.6,220.5 1367.2,246.0 1386.0,272.8 1404.1,301.1 1420.4,331.2" fill="none" stroke="#e0723a" stroke-width="1.5" opacity="0.10"/><polyline points="1439.8,331.2 1453.5,363.9 1463.1,397.9 1467.6,432.8 1466.2,467.7 1458.6,502.0 1444.6,534.9 1424.5,565.6 1398.8,593.5 1368.5,618.1 1334.3,639.2 1297.6,656.8 1259.3,671.1 1220.5,682.5 1182.0,691.5 1144.4,698.8 1108.1,705.1 1073.2,711.0 1039.7,717.0 1007.2,723.4 975.3,730.5 943.5,738.1 911.4,746.0 878.6,753.9 844.8,761.2 809.9,767.3 774.1,771.6 737.5,773.7 700.4,773.0 663.5,769.3 627.0,762.4 591.5,752.4 557.3,739.5 524.7,724.0 493.9,706.2 464.7,686.6 437.1,665.5 410.9,643.3 385.7,620.1 361.3,596.1 337.7,571.3 314.6,545.6 292.2,518.9 270.9,491.0 251.1,461.7 233.4,430.9 218.6,398.8 207.5,365.5 200.8,331.2 199.3,296.5 203.4,262.0 213.3,228.2 229.1,195.9 250.4,165.8 276.7,138.2 307.0,113.7 340.5,92.4 375.9,74.3 412.2,59.0 448.3,46.1 483.5,34.9 517.0,24.7 548.6,14.6 578.2,4.0 606.0,-7.9 632.7,-21.5 658.8,-36.9 685.3,-54.2 712.8,-72.8 742.1,-92.2 773.7,-111.5 808.0,-129.7 844.8,-145.8 884.0,-158.8 924.9,-167.6 966.8,-171.5 1008.6,-170.2 1049.5,-163.3 1088.3,-150.9 1124.3,-133.6 1156.8,-111.9 1185.4,-86.7 1209.9,-59.0 1230.7,-29.7 1248.3,0.3 1263.3,30.2 1276.7,59.4 1289.4,87.6 1302.2,114.6 1316.0,140.7 1331.1,166.0 1347.8,191.2 1365.9,216.7 1385.0,243.1 1404.4,270.8 1423.0,300.1 1439.8,331.2" fill="none" stroke="#e0723a" stroke-width="1.5" opacity="0.22"/><polyline points="1457.3,331.2 1471.3,364.9 1481.1,399.9 1485.7,435.7 1484.2,471.7 1476.3,507.0 1461.9,540.8 1441.3,572.4 1414.9,601.1 1383.7,626.5 1348.6,648.2 1310.9,666.4 1271.5,681.1 1231.6,692.9 1192.0,702.3 1153.4,709.9 1116.0,716.4 1080.1,722.5 1045.6,728.7 1012.1,735.4 979.2,742.6 946.5,750.5 913.4,758.6 879.6,766.7 844.8,774.2 808.9,780.4 772.0,784.8 734.3,786.9 696.1,786.1 658.1,782.3 620.5,775.2 584.0,764.9 548.8,751.6 515.2,735.6 483.5,717.3 453.5,697.1 425.0,675.4 398.0,652.5 372.1,628.6 347.1,603.9 322.7,578.4 299.0,551.9 276.0,524.4 254.1,495.6 233.7,465.5 215.6,433.8 200.4,400.8 189.0,366.4 182.2,331.2 180.6,295.5 184.8,260.0 195.1,225.2 211.3,192.0 233.1,160.9 260.1,132.6 291.2,107.4 325.6,85.4 362.0,66.6 399.2,50.9 436.4,37.5 472.5,25.9 507.0,15.3 539.5,4.9 569.9,-6.1 598.6,-18.4 626.1,-32.4 653.1,-48.3 680.4,-65.9 708.8,-85.1 739.0,-105.0 771.6,-124.8 806.9,-143.4 844.8,-159.9 885.1,-173.2 927.2,-182.2 970.3,-186.2 1013.4,-184.7 1055.4,-177.6 1095.4,-164.9 1132.5,-147.1 1165.9,-124.8 1195.3,-99.0 1220.6,-70.4 1242.1,-40.3 1260.3,-9.5 1275.8,21.3 1289.7,51.3 1302.8,80.3 1316.0,108.1 1330.2,134.9 1345.8,161.0 1362.9,187.0 1381.5,213.3 1401.1,240.5 1421.0,269.0 1440.1,299.2 1457.3,331.2" fill="none" stroke="#e0723a" stroke-width="1.5" opacity="0.22"/><polyline points="1474.7,331.2 1489.0,365.8 1499.0,401.8 1503.6,438.7 1502.1,475.6 1494.0,511.9 1479.1,546.7 1457.9,579.1 1430.8,608.7 1398.8,634.7 1362.8,657.2 1324.1,675.9 1283.7,691.1 1242.7,703.3 1202.1,713.0 1162.3,720.9 1124.0,727.7 1087.1,734.0 1051.5,740.5 1017.1,747.3 983.2,754.8 949.5,762.9 915.5,771.3 880.6,779.5 844.8,787.2 807.8,793.5 769.8,798.0 731.1,800.1 691.8,799.3 652.7,795.3 614.1,788.0 576.5,777.4 540.3,763.7 505.8,747.2 473.1,728.4 442.2,707.6 413.0,685.3 385.2,661.7 358.6,637.1 332.8,611.7 307.8,585.4 283.4,558.2 259.8,529.9 237.3,500.3 216.5,469.3 197.9,436.7 182.3,402.7 170.7,367.4 163.7,331.2 162.1,294.5 166.4,258.0 176.9,222.3 193.5,188.1 216.0,156.2 243.6,127.0 275.5,101.0 310.7,78.4 348.0,59.0 386.3,42.7 424.4,28.9 461.5,16.9 496.9,5.9 530.3,-4.8 561.7,-16.2 591.3,-28.9 619.6,-43.3 647.4,-59.6 675.5,-77.8 704.8,-97.3 735.9,-117.7 769.5,-138.0 805.8,-157.1 844.8,-174.0 886.3,-187.5 929.5,-196.7 973.8,-200.7 1018.1,-199.2 1061.3,-191.9 1102.4,-178.8 1140.5,-160.5 1174.9,-137.7 1205.2,-111.1 1231.3,-81.8 1253.5,-50.9 1272.2,-19.3 1288.3,12.3 1302.6,43.2 1316.1,73.0 1329.8,101.6 1344.4,129.2 1360.4,156.1 1378.0,182.8 1397.1,209.8 1417.2,237.8 1437.6,267.2 1457.1,298.3 1474.7,331.2" fill="none" stroke="#e0723a" stroke-width="1.5" opacity="0.10"/><polyline points="1492.1,331.2 1506.7,366.8 1516.9,403.8 1521.6,441.6 1519.9,479.5 1511.6,516.8 1496.3,552.5 1474.6,585.9 1446.8,616.2 1413.9,643.0 1377.0,666.1 1337.3,685.4 1295.9,701.1 1253.9,713.7 1212.1,723.7 1171.3,731.9 1131.9,739.0 1094.0,745.6 1057.5,752.2 1022.0,759.3 987.2,767.0 952.5,775.3 917.5,783.9 881.7,792.4 844.8,800.2 806.8,806.7 767.7,811.2 727.9,813.3 687.6,812.4 647.3,808.3 607.6,800.7 569.0,789.8 531.8,775.7 496.4,758.8 462.8,739.5 431.0,718.1 401.0,695.1 372.4,670.9 345.0,645.6 318.6,619.5 292.9,592.5 267.9,564.5 243.7,535.4 220.6,504.9 199.2,473.0 180.2,439.6 164.2,404.7 152.3,368.4 145.2,331.2 143.6,293.5 148.0,256.0 158.8,219.3 175.8,184.2 198.8,151.4 227.1,121.4 259.8,94.6 295.9,71.3 334.1,51.4 373.4,34.6 412.5,20.3 450.5,7.9 486.9,-3.5 521.2,-14.6 553.4,-26.4 583.8,-39.4 613.0,-54.2 641.6,-71.0 670.6,-89.6 700.7,-109.7 732.8,-130.5 767.3,-151.3 804.7,-170.8 844.8,-188.0 887.4,-201.8 931.9,-211.1 977.4,-215.3 1022.8,-213.7 1067.2,-206.1 1109.4,-192.7 1148.6,-173.9 1184.0,-150.5 1215.1,-123.3 1242.0,-93.2 1264.8,-61.5 1284.1,-29.0 1300.7,3.3 1315.5,35.0 1329.5,65.6 1343.6,95.0 1358.7,123.4 1375.1,151.1 1393.2,178.5 1412.8,206.4 1433.4,235.2 1454.2,265.4 1474.2,297.4 1492.1,331.2" fill="none" stroke="#e0723a" stroke-width="1.5" opacity="0.10"/><polyline points="1517.6,331.2 1532.7,368.2 1543.1,406.6 1547.8,445.9 1546.1,485.3 1537.3,524.0 1521.5,561.0 1498.9,595.7 1470.1,627.2 1436.1,655.2 1397.8,679.2 1356.7,699.3 1313.7,715.7 1270.1,728.9 1226.8,739.5 1184.5,748.1 1143.6,755.5 1104.2,762.5 1066.2,769.5 1029.3,776.9 993.1,784.9 956.9,793.5 920.5,802.4 883.2,811.2 844.8,819.2 805.3,825.9 764.6,830.6 723.2,832.7 681.3,831.7 639.4,827.3 598.2,819.4 558.0,808.0 519.4,793.4 482.5,775.8 447.6,755.7 414.6,733.4 383.4,709.6 353.7,684.4 325.2,658.1 297.8,630.9 271.1,602.8 245.1,573.7 220.0,543.4 196.1,511.8 174.0,478.6 154.3,443.8 137.8,407.5 125.5,369.9 118.1,331.2 116.5,292.1 121.1,253.1 132.2,215.0 149.8,178.5 173.6,144.4 202.9,113.2 236.8,85.3 274.2,61.0 313.8,40.2 354.4,22.6 394.9,7.7 434.4,-5.3 472.1,-17.2 507.8,-28.9 541.3,-41.2 573.0,-54.9 603.4,-70.3 633.2,-87.6 663.4,-106.9 694.8,-127.7 728.3,-149.3 764.2,-170.7 803.1,-190.8 844.8,-208.6 889.1,-222.8 935.3,-232.4 982.5,-236.6 1029.8,-234.8 1075.9,-226.9 1119.7,-213.0 1160.4,-193.6 1197.2,-169.3 1229.6,-141.0 1257.6,-109.9 1281.4,-77.0 1301.6,-43.4 1319.0,-9.8 1334.5,23.1 1349.1,54.9 1363.9,85.5 1379.5,115.0 1396.6,143.8 1415.4,172.4 1435.7,201.4 1457.0,231.3 1478.5,262.8 1499.1,296.0 1517.6,331.2" fill="none" stroke="#e0723a" stroke-width="1.5" opacity="0.22"/><polyline points="1533.5,331.2 1548.8,369.0 1559.4,408.3 1564.2,448.5 1562.4,488.9 1553.4,528.4 1537.2,566.4 1514.1,601.9 1484.7,634.1 1449.9,662.7 1410.8,687.3 1368.7,708.0 1324.8,724.8 1280.3,738.4 1236.0,749.2 1192.7,758.1 1150.8,765.8 1110.5,773.0 1071.6,780.2 1033.8,787.8 996.7,796.0 959.7,804.8 922.3,813.9 884.1,822.9 844.8,831.1 804.3,837.9 762.7,842.6 720.2,844.7 677.3,843.7 634.5,839.2 592.3,831.1 551.2,819.4 511.6,804.4 473.9,786.4 438.2,765.8 404.4,743.0 372.4,718.6 342.0,692.8 312.9,665.9 284.8,638.0 257.5,609.3 230.9,579.4 205.3,548.4 180.9,516.0 158.2,482.1 138.1,446.5 121.3,409.3 108.7,370.8 101.2,331.2 99.5,291.1 104.3,251.3 115.6,212.3 133.7,174.9 157.9,140.0 187.9,108.1 222.5,79.5 260.6,54.6 301.1,33.3 342.6,15.2 384.0,-0.2 424.4,-13.5 463.0,-25.8 499.5,-37.8 533.8,-50.5 566.2,-64.4 597.4,-80.2 628.0,-98.0 659.0,-117.7 691.2,-138.9 725.4,-160.9 762.3,-182.7 802.1,-203.3 844.8,-221.4 890.1,-235.8 937.4,-245.6 985.7,-249.8 1034.1,-248.0 1081.2,-239.9 1126.1,-225.7 1167.8,-205.8 1205.4,-181.0 1238.6,-152.1 1267.3,-120.3 1291.8,-86.7 1312.5,-52.3 1330.3,-17.9 1346.2,15.7 1361.3,48.2 1376.4,79.5 1392.5,109.7 1410.0,139.2 1429.2,168.5 1449.9,198.2 1471.7,228.9 1493.6,261.2 1514.6,295.2 1533.5,331.2" fill="none" stroke="#e0723a" stroke-width="1.5" opacity="0.22"/><polyline points="1551.7,331.2 1567.4,370.0 1578.2,410.4 1583.0,451.6 1581.1,493.0 1571.9,533.6 1555.2,572.5 1531.5,608.9 1501.4,642.0 1465.7,671.4 1425.7,696.7 1382.5,717.9 1337.5,735.2 1291.9,749.2 1246.5,760.4 1202.1,769.6 1159.1,777.6 1117.7,785.0 1077.8,792.4 1039.0,800.2 1000.8,808.7 962.8,817.7 924.4,827.0 885.2,836.2 844.8,844.6 803.2,851.5 760.5,856.3 716.9,858.5 672.9,857.4 628.9,852.7 585.6,844.4 543.4,832.4 502.8,817.0 464.1,798.5 427.4,777.3 392.7,754.0 359.9,728.9 328.7,702.4 298.8,674.8 269.9,646.2 241.9,616.6 214.7,586.0 188.4,554.2 163.4,520.9 140.2,486.0 119.6,449.5 102.4,411.3 89.5,371.8 81.8,331.2 80.1,290.1 85.0,249.2 96.6,209.2 115.1,170.9 140.0,135.0 170.6,102.2 206.0,72.9 245.1,47.3 286.6,25.3 329.1,6.7 371.6,-9.1 413.0,-22.9 452.6,-35.6 490.0,-48.0 525.2,-61.0 558.6,-75.3 590.6,-91.5 622.0,-109.8 653.9,-130.0 687.0,-151.7 722.2,-174.2 760.1,-196.5 800.9,-217.6 844.8,-236.1 891.3,-250.8 939.8,-260.8 989.4,-265.1 1039.0,-263.2 1087.4,-254.9 1133.5,-240.3 1176.2,-219.9 1214.9,-194.4 1249.0,-164.8 1278.5,-132.3 1303.6,-97.8 1324.9,-62.5 1343.3,-27.3 1359.7,7.2 1375.2,40.6 1390.8,72.7 1407.3,103.7 1425.3,134.0 1445.0,164.1 1466.2,194.7 1488.5,226.2 1510.9,259.3 1532.4,294.2 1551.7,331.2" fill="none" stroke="#e0723a" stroke-width="1.5" opacity="0.10"/><polyline points="1570.6,331.2 1586.7,371.1 1597.7,412.5 1602.7,454.8 1600.7,497.3 1591.2,539.0 1574.1,578.9 1549.8,616.3 1518.8,650.3 1482.2,680.5 1441.2,706.4 1396.9,728.2 1350.8,746.1 1303.9,760.5 1257.3,772.0 1211.8,781.5 1167.6,789.7 1125.1,797.4 1084.1,805.0 1044.3,813.1 1005.1,821.8 966.1,831.1 926.6,840.6 886.3,850.0 844.8,858.6 802.1,865.7 758.2,870.6 713.4,872.7 668.2,871.6 623.1,866.8 578.6,858.2 535.3,845.9 493.6,830.0 453.8,811.0 416.1,789.3 380.5,765.3 346.8,739.6 314.8,712.4 284.1,684.0 254.5,654.7 225.7,624.3 197.8,592.8 170.8,560.1 145.1,526.0 121.4,490.2 100.2,452.6 82.6,413.5 69.4,372.9 61.6,331.2 59.8,289.0 64.8,247.0 76.8,205.9 95.7,166.6 121.2,129.8 152.6,96.1 188.9,66.0 229.0,39.7 271.5,17.1 315.1,-2.1 358.7,-18.4 401.1,-32.6 441.8,-45.6 480.2,-58.4 516.4,-71.8 550.7,-86.6 583.6,-103.2 615.9,-121.9 648.6,-142.6 682.7,-164.9 718.9,-188.0 757.8,-210.9 799.8,-232.4 844.8,-251.3 892.6,-266.4 942.4,-276.6 993.3,-281.0 1044.2,-279.0 1093.9,-270.5 1141.2,-255.5 1185.0,-234.5 1224.7,-208.4 1259.8,-178.1 1290.1,-144.7 1315.9,-109.3 1337.9,-73.1 1356.8,-37.0 1373.7,-1.6 1389.6,32.7 1405.7,65.7 1422.6,97.5 1441.1,128.7 1461.3,159.6 1483.1,191.0 1505.9,223.4 1528.9,257.3 1550.9,293.2 1570.6,331.2" fill="none" stroke="#e0723a" stroke-width="1.5" opacity="0.10"/><polyline points="1588.5,331.2 1605.0,372.1 1616.3,414.5 1621.3,457.9 1619.2,501.4 1609.5,544.1 1592.0,585.0 1567.1,623.3 1535.4,658.1 1497.9,689.1 1455.9,715.7 1410.5,738.0 1363.3,756.3 1315.3,771.1 1267.5,783.0 1220.9,792.7 1175.7,801.1 1132.1,808.9 1090.1,816.8 1049.2,825.1 1009.1,834.0 969.1,843.5 928.6,853.3 887.3,862.9 844.8,871.7 801.0,878.9 756.1,884.0 710.2,886.2 663.9,885.0 617.6,880.0 572.0,871.2 527.6,858.6 484.9,842.4 444.1,822.9 405.5,800.6 369.0,776.1 334.5,749.6 301.7,721.8 270.2,692.7 239.9,662.6 210.4,631.5 181.8,599.3 154.2,565.8 127.9,530.7 103.6,494.1 81.9,455.6 63.9,415.5 50.3,373.9 42.3,331.2 40.5,288.0 45.6,244.9 57.9,202.8 77.3,162.6 103.4,124.8 135.5,90.3 172.8,59.4 213.8,32.5 257.3,9.3 302.0,-10.3 346.6,-27.1 390.1,-41.6 431.7,-55.0 471.1,-68.1 508.2,-81.9 543.3,-97.0 577.0,-114.0 610.2,-133.2 643.8,-154.4 678.7,-177.2 715.7,-200.9 755.6,-224.3 798.6,-246.3 844.8,-265.7 893.7,-281.1 944.8,-291.5 996.9,-296.0 1049.1,-294.0 1100.0,-285.2 1148.4,-269.9 1193.4,-248.5 1234.1,-221.7 1270.0,-190.6 1301.1,-156.4 1327.6,-120.2 1350.1,-83.1 1369.5,-46.1 1386.8,-9.8 1403.1,25.3 1419.6,59.1 1437.0,91.7 1455.9,123.6 1476.6,155.3 1498.9,187.5 1522.3,220.7 1545.8,255.5 1568.4,292.3 1588.5,331.2" fill="none" stroke="#e0723a" stroke-width="1.5" opacity="0.22"/><polyline points="1606.0,331.2 1622.9,373.0 1634.4,416.4 1639.6,460.8 1637.5,505.4 1627.5,549.1 1609.7,591.0 1584.1,630.2 1551.7,665.9 1513.3,697.5 1470.3,724.7 1423.9,747.6 1375.5,766.3 1326.3,781.4 1277.5,793.6 1229.7,803.5 1183.4,812.1 1138.8,820.1 1095.8,828.1 1054.0,836.6 1012.9,845.7 972.0,855.4 930.6,865.5 888.3,875.3 844.8,884.3 800.0,891.7 754.0,896.9 707.0,899.2 659.6,897.9 612.3,892.9 565.6,883.9 520.2,871.0 476.4,854.4 434.7,834.4 395.2,811.7 357.9,786.5 322.5,759.5 288.9,731.0 256.7,701.2 225.7,670.4 195.5,638.6 166.2,605.6 137.9,571.3 111.0,535.4 86.1,497.9 63.9,458.6 45.4,417.5 31.6,374.9 23.4,331.2 21.6,287.0 26.8,242.9 39.3,199.8 59.1,158.6 85.9,120.0 118.8,84.6 156.9,53.0 199.0,25.4 243.5,1.8 289.3,-18.3 335.0,-35.4 379.5,-50.4 422.1,-64.0 462.4,-77.4 500.4,-91.5 536.3,-107.0 570.8,-124.4 604.7,-144.0 639.1,-165.8 674.8,-189.1 712.7,-213.3 753.5,-237.3 797.6,-259.9 844.8,-279.7 894.9,-295.5 947.1,-306.2 1000.5,-310.8 1053.9,-308.7 1106.0,-299.8 1155.6,-284.1 1201.6,-262.1 1243.3,-234.7 1280.0,-202.9 1311.8,-167.9 1338.9,-130.8 1361.9,-92.8 1381.8,-54.9 1399.5,-17.8 1416.2,18.1 1433.0,52.7 1450.8,86.1 1470.2,118.8 1491.4,151.2 1514.2,184.1 1538.2,218.1 1562.3,253.7 1585.4,291.4 1606.0,331.2" fill="none" stroke="#e0723a" stroke-width="1.5" opacity="0.22"/><polyline points="1619.8,331.2 1636.9,373.8 1648.8,418.0 1654.1,463.2 1652.0,508.5 1641.8,553.1 1623.6,595.7 1597.6,635.6 1564.6,672.0 1525.5,704.2 1481.6,731.9 1434.3,755.1 1385.0,774.2 1334.9,789.5 1285.2,801.8 1236.5,811.9 1189.4,820.6 1144.0,828.7 1100.2,836.8 1057.7,845.5 1015.9,854.7 974.2,864.6 932.1,874.9 889.1,884.9 844.8,894.1 799.2,901.7 752.4,907.0 704.6,909.3 656.3,908.1 608.1,902.9 560.6,893.8 514.4,880.7 469.8,863.8 427.4,843.5 387.1,820.3 349.1,794.7 313.1,767.2 278.9,738.1 246.2,707.9 214.5,676.5 183.8,644.1 154.0,610.5 125.2,575.6 97.8,539.1 72.3,500.9 49.7,460.9 30.9,419.1 16.8,375.7 8.4,331.2 6.5,286.1 11.8,241.3 24.6,197.4 44.8,155.4 72.1,116.1 105.7,80.2 144.5,48.0 187.4,20.0 232.8,-4.1 279.4,-24.5 326.0,-41.9 371.3,-57.1 414.7,-70.9 455.8,-84.5 494.4,-98.8 531.0,-114.6 566.0,-132.3 600.6,-152.3 635.5,-174.4 671.8,-198.2 710.4,-222.9 751.9,-247.4 796.7,-270.4 844.8,-290.7 895.8,-306.9 949.0,-317.7 1003.4,-322.5 1057.7,-320.4 1110.8,-311.3 1161.3,-295.3 1208.1,-272.9 1250.5,-245.0 1287.9,-212.6 1320.3,-176.9 1347.8,-139.1 1371.2,-100.4 1391.3,-61.8 1409.3,-24.0 1426.3,12.6 1443.4,47.8 1461.5,81.8 1481.3,115.0 1502.8,148.0 1526.1,181.5 1550.5,216.1 1575.1,252.4 1598.7,290.7 1619.8,331.2" fill="none" stroke="#e0723a" stroke-width="1.5" opacity="0.10"/><polyline points="1633.1,331.2 1650.7,374.5 1662.8,419.5 1668.3,465.5 1666.1,511.7 1655.9,557.0 1637.3,600.4 1610.9,641.0 1577.2,677.9 1537.4,710.7 1492.7,738.8 1444.5,762.5 1394.3,781.8 1343.3,797.3 1292.6,809.7 1243.0,819.9 1195.1,828.7 1148.9,836.9 1104.4,845.2 1061.2,853.9 1018.7,863.3 976.3,873.4 933.5,883.8 889.8,894.0 844.8,903.4 798.4,911.2 750.8,916.6 702.2,919.0 653.1,917.8 604.1,912.6 555.8,903.4 508.7,890.0 463.4,872.8 420.3,852.2 379.3,828.6 340.7,802.6 304.1,774.6 269.3,745.1 235.9,714.3 203.8,682.4 172.5,649.5 142.1,615.3 112.8,579.8 84.8,542.7 58.9,503.9 35.9,463.1 16.7,420.6 2.3,376.5 -6.3,331.2 -8.2,285.4 -2.8,239.7 10.2,195.1 30.8,152.4 58.6,112.4 92.9,75.8 132.5,43.1 176.1,14.6 222.4,-9.8 269.9,-30.5 317.3,-48.1 363.5,-63.4 407.7,-77.5 449.5,-91.3 488.8,-105.7 525.9,-121.7 561.6,-139.8 596.6,-160.1 632.1,-182.7 668.9,-207.0 708.1,-232.1 750.3,-257.1 795.9,-280.6 844.8,-301.3 896.7,-317.9 950.8,-329.0 1006.1,-333.9 1061.4,-331.8 1115.4,-322.5 1166.8,-306.3 1214.5,-283.5 1257.6,-255.0 1295.6,-222.0 1328.5,-185.7 1356.4,-147.2 1380.1,-107.8 1400.6,-68.5 1418.8,-30.0 1436.0,7.3 1453.4,43.1 1471.8,77.7 1491.8,111.4 1513.8,145.0 1537.5,179.0 1562.4,214.2 1587.5,251.0 1611.5,290.0 1633.1,331.2" fill="none" stroke="#e0723a" stroke-width="1.5" opacity="0.22"/><polyline points="1647.1,331.2 1665.1,375.3 1677.5,421.1 1683.2,468.0 1681.1,515.0 1670.7,561.1 1651.8,605.3 1624.9,646.6 1590.5,684.2 1549.9,717.5 1504.3,746.2 1455.2,770.1 1403.9,789.7 1352.0,805.4 1300.3,818.0 1249.8,828.3 1201.0,837.1 1154.0,845.4 1108.7,853.7 1064.8,862.6 1021.6,872.1 978.5,882.4 935.0,893.0 890.5,903.4 844.8,913.0 797.7,921.0 749.2,926.6 699.8,929.1 649.8,927.9 599.9,922.7 550.7,913.3 502.9,899.8 456.8,882.3 412.8,861.3 371.2,837.3 331.8,810.8 294.6,782.4 259.2,752.3 225.3,721.0 192.5,688.6 160.7,655.1 129.7,620.4 99.8,584.3 71.3,546.5 44.8,507.0 21.3,465.5 1.7,422.2 -13.0,377.3 -21.8,331.2 -23.8,284.5 -18.3,238.0 -5.0,192.6 16.0,149.1 44.4,108.4 79.4,71.2 119.8,38.0 164.4,9.1 211.6,-15.7 260.1,-36.7 308.4,-54.5 355.5,-70.0 400.5,-84.2 443.0,-98.1 483.0,-112.8 520.8,-129.0 557.0,-147.4 592.6,-168.1 628.6,-191.1 666.0,-215.9 705.8,-241.6 748.7,-267.2 795.0,-291.3 844.8,-312.4 897.6,-329.4 952.7,-340.8 1009.0,-345.9 1065.4,-343.8 1120.3,-334.4 1172.7,-317.8 1221.2,-294.6 1265.0,-265.6 1303.7,-231.9 1337.0,-194.8 1365.4,-155.6 1389.5,-115.4 1410.2,-75.4 1428.6,-36.1 1446.1,1.8 1463.7,38.2 1482.3,73.4 1502.7,107.7 1525.1,141.8 1549.3,176.4 1574.7,212.1 1600.4,249.6 1625.0,289.3 1647.1,331.2" fill="none" stroke="#e0723a" stroke-width="1.5" opacity="0.22"/><polyline points="1657.4,331.2 1675.7,375.9 1688.4,422.3 1694.2,469.8 1692.2,517.4 1681.6,564.1 1662.5,608.9 1635.2,650.8 1600.4,688.9 1559.2,722.6 1512.9,751.6 1463.0,775.8 1411.1,795.5 1358.3,811.4 1306.0,824.0 1254.8,834.3 1205.3,843.2 1157.7,851.5 1111.9,859.9 1067.4,868.8 1023.6,878.5 980.1,888.9 936.1,899.7 891.1,910.3 844.8,920.1 797.1,928.2 748.0,933.9 698.0,936.5 647.4,935.4 596.9,930.1 547.0,920.7 498.5,907.0 451.9,889.3 407.4,868.0 365.2,843.7 325.4,816.9 287.6,788.1 251.8,757.6 217.4,726.0 184.2,693.1 152.0,659.2 120.6,624.1 90.2,587.5 61.3,549.3 34.5,509.2 10.6,467.3 -9.4,423.4 -24.4,377.9 -33.3,331.2 -35.3,283.9 -29.7,236.8 -16.3,190.8 5.1,146.7 33.9,105.5 69.4,67.8 110.5,34.3 155.7,5.0 203.7,-20.1 252.9,-41.2 301.9,-59.2 349.7,-74.8 395.3,-89.1 438.4,-103.1 478.8,-117.9 517.0,-134.3 553.7,-152.9 589.7,-173.9 626.0,-197.2 663.9,-222.4 704.2,-248.6 747.5,-274.6 794.4,-299.0 844.8,-320.6 898.3,-337.9 954.1,-349.6 1011.2,-354.7 1068.3,-352.7 1124.0,-343.2 1177.0,-326.4 1226.1,-302.8 1270.5,-273.4 1309.6,-239.2 1343.4,-201.6 1372.1,-161.8 1396.3,-121.1 1417.2,-80.4 1435.8,-40.7 1453.4,-2.3 1471.2,34.7 1490.0,70.3 1510.7,105.0 1533.4,139.5 1558.0,174.5 1583.8,210.7 1609.8,248.6 1634.9,288.7 1657.4,331.2" fill="none" stroke="#e0723a" stroke-width="1.5" opacity="0.10"/><polyline points="1671.5,331.2 1690.3,376.6 1703.4,423.9 1709.4,472.2 1707.4,520.7 1696.7,568.3 1677.3,614.0 1649.4,656.6 1613.9,695.3 1571.9,729.6 1524.7,759.0 1473.8,783.6 1420.9,803.6 1367.1,819.6 1313.7,832.3 1261.6,842.7 1211.2,851.7 1162.8,860.0 1116.2,868.5 1070.9,877.5 1026.5,887.3 982.3,897.9 937.5,908.9 891.8,919.7 844.8,929.7 796.3,938.1 746.4,944.0 695.5,946.7 644.0,945.6 592.6,940.3 542.0,930.7 492.6,916.8 445.1,898.8 399.9,877.2 357.0,852.5 316.4,825.2 278.1,795.9 241.6,765.0 206.6,732.7 172.8,699.4 140.0,664.9 108.0,629.1 77.1,592.0 47.6,553.1 20.2,512.4 -4.2,469.7 -24.6,425.1 -39.9,378.7 -49.1,331.2 -51.1,283.0 -45.5,235.1 -31.7,188.2 -9.9,143.4 19.5,101.5 55.7,63.2 97.7,29.1 143.8,-0.7 192.8,-26.0 243.0,-47.5 293.0,-65.6 341.7,-81.4 388.2,-95.8 432.0,-110.0 473.1,-124.9 511.9,-141.6 549.1,-160.4 585.6,-181.9 622.6,-205.7 661.0,-231.4 701.9,-258.1 745.9,-284.7 793.6,-309.7 844.8,-331.8 899.2,-349.5 956.0,-361.6 1014.1,-366.9 1072.3,-364.9 1129.0,-355.2 1182.9,-338.1 1232.9,-314.1 1278.1,-284.1 1317.8,-249.3 1352.1,-210.9 1381.2,-170.3 1405.8,-128.8 1426.9,-87.4 1445.7,-46.9 1463.5,-7.8 1481.5,29.8 1500.6,66.0 1521.6,101.3 1544.8,136.4 1569.8,171.9 1596.2,208.6 1622.8,247.2 1648.5,288.0 1671.5,331.2" fill="none" stroke="#e0723a" stroke-width="1.5" opacity="0.10"/><polyline points="1685.1,331.2 1704.3,377.4 1717.7,425.4 1723.9,474.6 1721.9,523.9 1711.1,572.3 1691.4,618.7 1663.0,662.1 1626.9,701.4 1584.1,736.2 1536.0,766.1 1484.2,791.0 1430.3,811.3 1375.6,827.5 1321.2,840.3 1268.2,850.8 1217.0,859.8 1167.8,868.2 1120.4,876.8 1074.4,885.9 1029.3,895.9 984.4,906.6 939.0,917.8 892.6,928.9 844.8,939.1 795.5,947.7 744.9,953.7 693.1,956.5 640.8,955.5 588.6,950.2 537.1,940.4 486.9,926.3 438.6,908.1 392.6,886.1 349.0,861.0 307.8,833.3 268.9,803.5 231.8,772.0 196.2,739.3 161.9,705.4 128.5,670.3 95.9,634.0 64.4,596.3 34.4,556.8 6.5,515.4 -18.4,472.0 -39.2,426.6 -54.8,379.6 -64.2,331.2 -66.3,282.2 -60.5,233.5 -46.5,185.8 -24.3,140.2 5.7,97.6 42.6,58.7 85.3,24.1 132.4,-6.1 182.3,-31.8 233.4,-53.5 284.3,-71.8 333.9,-87.8 381.2,-102.3 425.7,-116.7 467.5,-131.8 506.9,-148.7 544.7,-167.9 581.7,-189.6 619.2,-213.9 658.1,-240.1 699.6,-267.3 744.3,-294.5 792.7,-320.1 844.8,-342.7 900.1,-360.8 957.9,-373.1 1017.0,-378.6 1076.1,-376.6 1133.7,-366.8 1188.6,-349.4 1239.4,-325.0 1285.3,-294.4 1325.7,-258.9 1360.4,-219.8 1389.9,-178.5 1414.8,-136.2 1436.2,-94.1 1455.2,-52.9 1473.3,-13.1 1491.5,25.0 1510.9,61.8 1532.3,97.7 1555.8,133.3 1581.3,169.4 1608.2,206.7 1635.4,245.9 1661.6,287.3 1685.1,331.2" fill="none" stroke="#e0723a" stroke-width="1.5" opacity="0.22"/><polyline points="1695.3,331.2 1714.9,378.0 1728.5,426.6 1734.8,476.4 1732.8,526.3 1721.9,575.3 1701.9,622.3 1673.2,666.2 1636.5,706.0 1593.2,741.2 1544.5,771.5 1492.0,796.6 1437.4,817.1 1381.9,833.5 1326.9,846.4 1273.2,857.0 1221.4,866.1 1171.6,874.5 1123.6,883.1 1077.1,892.4 1031.5,902.5 986.0,913.3 940.1,924.7 893.1,935.9 844.8,946.3 794.9,954.9 743.7,961.1 691.3,964.0 638.4,962.9 585.5,957.6 533.4,947.8 482.6,933.5 433.7,915.0 387.2,892.8 343.0,867.4 301.4,839.3 261.9,809.2 224.4,777.4 188.4,744.2 153.6,709.9 119.8,674.5 86.8,637.7 54.9,599.5 24.4,559.5 -3.8,517.7 -29.0,473.7 -50.1,427.8 -66.0,380.1 -75.4,331.2 -77.6,281.6 -71.8,232.3 -57.6,184.0 -35.0,137.9 -4.7,94.8 32.8,55.4 76.1,20.3 123.8,-10.2 174.3,-36.2 226.1,-58.1 277.7,-76.6 327.9,-92.7 375.8,-107.4 420.9,-121.8 463.2,-137.1 503.1,-154.2 541.2,-173.6 578.7,-195.6 616.5,-220.2 655.9,-246.8 697.9,-274.4 743.2,-301.9 792.1,-327.9 844.8,-350.8 900.8,-369.2 959.3,-381.7 1019.1,-387.3 1078.9,-385.3 1137.3,-375.4 1192.8,-357.8 1244.3,-333.1 1290.7,-302.1 1331.6,-266.2 1366.7,-226.6 1396.5,-184.7 1421.7,-141.9 1443.3,-99.2 1462.5,-57.5 1480.7,-17.2 1499.1,21.4 1518.8,58.7 1540.4,94.9 1564.2,131.0 1590.1,167.5 1617.3,205.2 1644.9,244.8 1671.4,286.8 1695.3,331.2" fill="none" stroke="#e0723a" stroke-width="1.5" opacity="0.22"/><polyline points="1710.5,331.2 1730.4,378.8 1744.3,428.3 1750.8,479.0 1748.8,529.8 1737.7,579.7 1717.3,627.6 1688.1,672.2 1650.8,712.8 1606.6,748.6 1557.0,779.3 1503.6,805.0 1447.9,825.8 1391.5,842.3 1335.4,855.5 1280.8,866.2 1228.0,875.4 1177.3,884.0 1128.5,892.8 1081.2,902.1 1034.7,912.4 988.5,923.5 941.7,935.0 894.0,946.5 844.8,957.0 794.1,965.9 741.9,972.2 688.6,975.1 634.7,974.1 580.9,968.7 527.8,958.7 476.2,944.2 426.4,925.4 379.0,902.8 334.1,876.9 291.7,848.3 251.6,817.6 213.4,785.3 176.8,751.5 141.3,716.6 106.9,680.6 73.3,643.2 40.8,604.3 9.8,563.6 -19.0,521.0 -44.7,476.3 -66.2,429.5 -82.3,381.0 -92.0,331.2 -94.2,280.7 -88.3,230.5 -73.8,181.4 -50.9,134.4 -19.9,90.5 18.2,50.5 62.4,14.8 111.0,-16.2 162.5,-42.7 215.2,-64.9 267.8,-83.7 318.9,-100.0 367.6,-115.0 413.6,-129.6 456.6,-145.2 497.2,-162.5 536.0,-182.3 574.1,-204.7 612.6,-229.8 652.7,-256.8 695.3,-285.0 741.4,-313.1 791.2,-339.6 844.8,-362.9 901.8,-381.7 961.3,-394.5 1022.2,-400.2 1083.1,-398.2 1142.6,-388.1 1199.1,-370.2 1251.5,-345.0 1298.7,-313.5 1340.3,-276.9 1376.0,-236.5 1406.4,-193.9 1431.9,-150.2 1453.9,-106.8 1473.4,-64.3 1491.9,-23.3 1510.6,16.0 1530.6,53.9 1552.6,90.8 1576.8,127.4 1603.2,164.6 1630.9,203.0 1659.1,243.3 1686.1,286.0 1710.5,331.2" fill="none" stroke="#e0723a" stroke-width="1.5" opacity="0.10"/><polyline points="1723.4,331.2 1743.6,379.5 1757.8,429.8 1764.3,481.2 1762.3,532.8 1751.0,583.4 1730.4,632.0 1700.7,677.3 1662.8,718.5 1618.0,754.8 1567.7,786.0 1513.4,812.0 1456.9,833.1 1399.6,850.0 1342.7,863.3 1287.3,874.2 1233.7,883.5 1182.2,892.2 1132.7,901.1 1084.7,910.6 1037.5,921.0 990.6,932.3 943.2,944.0 894.7,955.6 844.8,966.3 793.3,975.3 740.4,981.7 686.3,984.7 631.6,983.7 577.0,978.2 523.1,968.0 470.7,953.3 420.2,934.2 372.1,911.3 326.5,885.0 283.5,856.1 242.7,824.9 204.0,792.0 166.8,757.8 130.8,722.4 95.9,685.8 61.8,647.8 28.8,608.4 -2.7,567.1 -31.9,523.8 -58.0,478.5 -79.8,431.0 -96.2,381.8 -106.0,331.2 -108.2,280.0 -102.2,229.0 -87.5,179.1 -64.3,131.5 -32.8,86.9 5.9,46.3 50.7,10.1 100.0,-21.4 152.3,-48.2 205.9,-70.8 259.2,-89.9 311.1,-106.4 360.6,-121.6 407.2,-136.5 450.9,-152.3 492.0,-169.8 531.4,-189.9 570.1,-212.7 609.1,-238.1 649.8,-265.6 693.1,-294.2 739.8,-322.6 790.4,-349.5 844.8,-373.3 902.6,-392.3 963.0,-405.3 1024.9,-411.1 1086.7,-409.1 1147.0,-398.9 1204.4,-380.7 1257.5,-355.1 1305.5,-323.1 1347.7,-285.9 1384.0,-245.0 1414.7,-201.7 1440.7,-157.4 1462.9,-113.3 1482.7,-70.2 1501.5,-28.6 1520.5,11.3 1540.8,49.8 1563.1,87.2 1587.7,124.4 1614.4,162.1 1642.6,201.1 1671.2,242.0 1698.7,285.3 1723.4,331.2" fill="none" stroke="#e0723a" stroke-width="1.5" opacity="0.10"/><polyline points="1740.9,331.2 1761.5,380.5 1775.9,431.7 1782.6,484.2 1780.5,536.8 1769.0,588.4 1747.9,637.9 1717.6,684.2 1679.0,726.1 1633.3,763.2 1582.0,795.1 1526.7,821.6 1469.1,843.1 1410.7,860.3 1352.7,874.0 1296.1,885.1 1241.5,894.6 1189.0,903.5 1138.5,912.5 1089.5,922.3 1041.4,932.9 993.5,944.3 945.2,956.3 895.7,968.1 844.8,979.1 792.3,988.2 738.3,994.7 683.1,997.8 627.3,996.7 571.6,991.1 516.7,980.7 463.2,965.7 411.7,946.3 362.7,922.9 316.2,896.1 272.3,866.5 230.7,834.7 191.2,801.2 153.3,766.3 116.6,730.2 81.0,692.8 46.2,654.1 12.6,613.9 -19.5,571.8 -49.3,527.7 -75.9,481.4 -98.1,433.0 -114.8,382.8 -124.8,331.2 -127.1,279.0 -121.0,226.9 -106.0,176.1 -82.3,127.5 -50.2,82.1 -10.7,40.6 34.9,3.7 85.2,-28.4 138.5,-55.8 193.1,-78.9 247.5,-98.3 300.4,-115.2 350.8,-130.7 398.3,-145.9 442.9,-162.0 484.9,-180.0 525.1,-200.4 564.5,-223.6 604.4,-249.5 645.9,-277.5 690.1,-306.7 737.7,-335.7 789.3,-363.1 844.8,-387.3 903.8,-406.7 965.4,-419.9 1028.4,-425.8 1091.5,-423.7 1153.0,-413.3 1211.5,-394.8 1265.7,-368.7 1314.6,-336.1 1357.7,-298.2 1394.7,-256.4 1426.1,-212.3 1452.6,-167.2 1475.3,-122.2 1495.5,-78.2 1514.6,-35.8 1534.0,4.9 1554.7,44.1 1577.5,82.3 1602.6,120.3 1629.8,158.7 1658.6,198.5 1687.7,240.2 1715.7,284.4 1740.9,331.2" fill="none" stroke="#e0723a" stroke-width="1.5" opacity="0.22"/><polyline points="1754.1,331.2 1775.0,381.2 1789.5,433.2 1796.3,486.4 1794.1,539.8 1782.4,592.2 1761.1,642.4 1730.4,689.3 1691.2,731.9 1644.9,769.6 1592.8,801.9 1536.7,828.8 1478.3,850.7 1419.1,868.1 1360.3,882.0 1302.8,893.3 1247.4,903.0 1194.1,912.1 1142.9,921.3 1093.2,931.2 1044.4,942.0 995.8,953.6 946.7,965.7 896.5,977.7 844.8,988.8 791.5,998.0 736.7,1004.6 680.7,1007.7 624.1,1006.6 567.6,1000.9 511.8,990.3 457.6,975.1 405.3,955.4 355.5,931.6 308.4,904.4 263.8,874.4 221.6,842.2 181.5,808.2 143.1,772.7 105.9,736.1 69.7,698.2 34.4,658.9 0.3,618.0 -32.2,575.3 -62.4,530.5 -89.4,483.6 -111.9,434.5 -128.8,383.5 -139.0,331.2 -141.3,278.2 -135.0,225.4 -119.9,173.9 -95.8,124.5 -63.3,78.4 -23.3,36.3 23.0,-1.1 74.0,-33.7 128.0,-61.5 183.4,-85.0 238.5,-104.8 292.2,-122.0 343.4,-137.7 391.6,-153.1 436.8,-169.5 479.4,-187.7 520.2,-208.5 560.3,-232.1 600.8,-258.3 642.9,-286.7 687.7,-316.3 736.1,-345.7 788.5,-373.4 844.8,-397.9 904.7,-417.6 967.2,-430.9 1031.1,-436.9 1095.1,-434.8 1157.5,-424.2 1216.9,-405.4 1271.9,-378.9 1321.5,-345.9 1365.2,-307.4 1402.8,-265.1 1434.7,-220.3 1461.6,-174.5 1484.6,-128.9 1505.2,-84.3 1524.7,-41.3 1544.3,0.0 1565.4,39.8 1588.4,78.6 1613.9,117.1 1641.6,156.1 1670.7,196.5 1700.2,238.9 1728.5,283.7 1754.1,331.2" fill="none" stroke="#e0723a" stroke-width="1.5" opacity="0.22"/><polyline points="1771.8,331.2 1793.1,382.2 1807.8,435.2 1814.7,489.4 1812.4,543.8 1800.5,597.2 1778.7,648.4 1747.4,696.2 1707.6,739.7 1660.3,778.0 1607.3,811.0 1550.2,838.5 1490.7,860.9 1430.4,878.7 1370.5,892.9 1312.0,904.5 1255.5,914.5 1201.2,923.7 1148.9,933.2 1098.2,943.3 1048.4,954.3 998.8,966.1 948.7,978.5 897.5,990.7 844.8,1001.9 790.4,1011.3 734.5,1018.0 677.4,1021.1 619.7,1019.9 562.1,1014.1 505.3,1003.3 450.0,987.8 396.7,967.6 345.9,943.4 297.8,915.7 252.4,885.1 209.4,852.2 168.5,817.5 129.3,781.4 91.4,744.0 54.5,705.4 18.6,665.3 -16.2,623.6 -49.3,580.1 -80.1,534.4 -107.5,486.5 -130.4,436.5 -147.6,384.5 -157.9,331.2 -160.3,277.2 -153.9,223.4 -138.5,170.8 -114.0,120.5 -80.9,73.5 -40.2,30.6 6.9,-7.6 58.8,-40.9 113.9,-69.3 170.2,-93.2 226.4,-113.5 281.1,-131.1 333.2,-147.1 382.4,-163.0 428.5,-179.7 472.0,-198.3 513.6,-219.5 554.5,-243.5 595.8,-270.2 638.8,-299.1 684.6,-329.2 734.0,-359.1 787.4,-387.3 844.8,-412.2 905.8,-432.2 969.5,-445.8 1034.7,-451.8 1099.9,-449.6 1163.6,-438.8 1224.1,-419.6 1280.1,-392.7 1330.8,-359.0 1375.3,-319.8 1413.7,-276.7 1446.2,-231.1 1473.7,-184.5 1497.3,-138.0 1518.3,-92.6 1538.2,-48.7 1558.3,-6.6 1579.8,34.0 1603.3,73.6 1629.3,112.8 1657.4,152.7 1687.1,193.8 1717.1,237.0 1745.9,282.8 1771.8,331.2" fill="none" stroke="#e0723a" stroke-width="1.5" opacity="0.10"/><polyline points="1797.2,331.2 1818.9,383.6 1834.0,438.0 1840.9,493.7 1838.5,549.5 1826.2,604.4 1803.8,656.9 1771.7,706.0 1730.8,750.7 1682.4,790.1 1628.1,824.0 1569.5,852.4 1508.5,875.4 1446.6,893.9 1385.1,908.6 1325.0,920.6 1267.0,930.9 1211.2,940.5 1157.5,950.2 1105.4,960.7 1054.2,972.0 1003.2,984.2 951.7,996.8 899.0,1009.3 844.8,1020.8 788.9,1030.4 731.4,1037.2 672.8,1040.3 613.5,1039.1 554.3,1033.0 495.9,1021.9 439.0,1005.9 384.3,985.2 332.2,960.3 282.8,931.8 236.1,900.4 191.9,866.6 149.8,831.0 109.6,793.8 70.6,755.4 32.8,715.6 -4.1,674.5 -39.7,631.6 -73.7,586.9 -105.2,539.9 -133.3,490.7 -156.8,439.3 -174.4,386.0 -185.0,331.2 -187.3,275.7 -180.8,220.5 -165.0,166.5 -139.9,114.9 -106.0,66.5 -64.2,22.4 -16.0,-16.9 37.2,-51.1 93.6,-80.4 151.4,-105.1 209.0,-126.0 265.1,-144.2 318.6,-160.8 369.1,-177.1 416.5,-194.4 461.2,-213.6 504.1,-235.3 546.2,-260.0 588.7,-287.4 633.0,-317.0 680.1,-347.8 730.9,-378.4 785.8,-407.3 844.8,-432.7 907.5,-453.1 972.9,-466.9 1039.9,-473.0 1106.8,-470.7 1172.2,-459.6 1234.3,-439.9 1291.9,-412.3 1343.9,-377.7 1389.7,-337.6 1429.2,-293.4 1462.8,-246.6 1491.1,-198.8 1515.4,-151.1 1537.1,-104.4 1557.7,-59.4 1578.4,-16.1 1600.5,25.6 1624.7,66.3 1651.3,106.7 1680.2,147.7 1710.5,190.0 1741.2,234.4 1770.7,281.4 1797.2,331.2" fill="none" stroke="#e0723a" stroke-width="1.5" opacity="0.10"/><polyline points="1823.5,331.2 1845.6,385.0 1860.9,440.9 1867.9,498.1 1865.4,555.5 1852.8,611.8 1829.8,665.7 1796.8,716.2 1754.9,762.1 1705.2,802.6 1649.5,837.5 1589.4,866.7 1526.9,890.5 1463.3,909.5 1400.2,924.8 1338.6,937.2 1279.0,947.9 1221.7,957.9 1166.5,968.0 1112.9,978.7 1060.2,990.4 1007.7,1002.9 954.7,1015.9 900.5,1028.7 844.8,1040.4 787.3,1050.2 728.2,1057.1 668.0,1060.2 607.0,1058.9 546.2,1052.6 486.2,1041.2 427.8,1024.7 371.5,1003.4 317.9,977.8 267.1,948.5 219.1,916.2 173.7,881.5 130.5,844.8 89.1,806.7 49.2,767.1 10.3,726.3 -27.5,683.9 -64.1,639.9 -98.9,593.9 -131.2,545.7 -160.0,495.1 -184.1,442.3 -202.1,387.5 -212.9,331.2 -215.3,274.2 -208.6,217.5 -192.3,162.0 -166.6,109.0 -131.9,59.3 -89.1,14.0 -39.7,-26.5 14.8,-61.7 72.6,-91.9 131.9,-117.4 191.0,-139.0 248.5,-157.8 303.4,-175.0 355.3,-191.9 404.0,-209.7 450.1,-229.4 494.2,-251.8 537.5,-277.1 581.3,-305.3 626.9,-335.6 675.4,-367.1 727.7,-398.4 784.1,-427.9 844.8,-453.9 909.2,-474.7 976.4,-488.8 1045.2,-495.0 1114.0,-492.5 1181.1,-481.1 1244.9,-460.9 1304.1,-432.5 1357.5,-397.0 1404.7,-355.9 1445.3,-310.5 1479.9,-262.6 1509.1,-213.5 1534.2,-164.6 1556.6,-116.7 1577.8,-70.4 1599.2,-26.0 1621.9,16.9 1646.8,58.8 1674.2,100.3 1703.7,142.5 1734.8,186.0 1766.3,231.7 1796.4,280.1 1823.5,331.2" fill="none" stroke="#e0723a" stroke-width="1.5" opacity="0.22"/><polyline points="1840.5,331.2 1862.9,385.9 1878.4,442.8 1885.5,500.9 1882.9,559.3 1870.0,616.6 1846.6,671.5 1813.1,722.8 1770.5,769.4 1720.0,810.7 1663.4,846.3 1602.4,876.0 1538.8,900.3 1474.2,919.7 1410.1,935.3 1347.4,948.0 1286.8,959.0 1228.5,969.2 1172.3,979.5 1117.7,990.5 1064.1,1002.3 1010.7,1015.1 956.7,1028.3 901.6,1041.2 844.8,1053.2 786.3,1063.1 726.2,1070.1 664.8,1073.2 602.8,1071.8 540.9,1065.3 479.9,1053.7 420.4,1036.8 363.2,1015.2 308.7,989.1 257.0,959.3 208.2,926.5 162.0,891.1 118.0,853.8 75.9,815.0 35.2,774.8 -4.3,733.2 -42.7,690.1 -79.9,645.3 -115.3,598.4 -148.1,549.4 -177.3,497.9 -201.8,444.2 -220.0,388.4 -230.9,331.2 -233.4,273.3 -226.6,215.5 -210.1,159.1 -183.9,105.2 -148.7,54.7 -105.3,8.5 -55.1,-32.7 0.3,-68.6 59.0,-99.3 119.2,-125.4 179.2,-147.4 237.7,-166.6 293.6,-184.2 346.4,-201.5 396.0,-219.6 442.8,-239.8 487.7,-262.5 531.9,-288.3 576.5,-316.8 623.0,-347.6 672.4,-379.6 725.6,-411.4 783.1,-441.3 844.8,-467.6 910.3,-488.7 978.7,-502.9 1048.7,-509.2 1118.6,-506.7 1186.8,-495.0 1251.8,-474.4 1312.0,-445.6 1366.4,-409.6 1414.4,-367.8 1455.8,-321.7 1491.0,-273.0 1520.8,-223.1 1546.4,-173.3 1569.3,-124.7 1590.9,-77.6 1612.7,-32.4 1635.9,11.3 1661.2,53.9 1689.0,96.2 1719.0,139.1 1750.6,183.5 1782.5,230.0 1813.1,279.2 1840.5,331.2" fill="none" stroke="#e0723a" stroke-width="1.5" opacity="0.22"/><polyline points="1863.7,331.2 1886.5,387.2 1902.3,445.4 1909.4,504.8 1906.7,564.5 1893.4,623.1 1869.5,679.2 1835.3,731.7 1791.7,779.5 1740.2,821.8 1682.3,858.2 1620.0,888.6 1555.0,913.5 1489.0,933.5 1423.4,949.6 1359.4,962.7 1297.4,974.0 1237.7,984.5 1180.2,995.1 1124.3,1006.4 1069.4,1018.5 1014.7,1031.6 959.4,1045.0 902.9,1058.3 844.8,1070.4 784.9,1080.5 723.4,1087.6 660.6,1090.7 597.1,1089.2 533.7,1082.6 471.3,1070.6 410.5,1053.4 351.9,1031.2 296.1,1004.5 243.2,974.1 193.3,940.4 146.0,904.2 101.0,866.1 57.9,826.3 16.3,785.1 -24.1,742.6 -63.4,698.5 -101.4,652.6 -137.5,604.6 -171.1,554.4 -200.9,501.8 -225.8,446.8 -244.5,389.7 -255.6,331.2 -258.1,271.9 -251.1,212.9 -234.2,155.2 -207.6,100.0 -171.6,48.3 -127.2,1.0 -76.0,-41.1 -19.4,-78.0 40.5,-109.5 102.0,-136.2 163.3,-158.9 223.1,-178.6 280.2,-196.7 334.2,-214.4 385.0,-233.1 433.0,-253.7 479.0,-277.0 524.3,-303.4 570.0,-332.5 617.6,-364.0 668.3,-396.6 722.8,-429.0 781.6,-459.5 844.8,-486.3 911.9,-507.7 981.8,-522.2 1053.4,-528.6 1124.9,-525.9 1194.7,-514.0 1261.1,-492.9 1322.7,-463.5 1378.4,-426.7 1427.5,-383.9 1470.0,-336.9 1506.0,-287.1 1536.6,-236.1 1563.0,-185.3 1586.5,-135.5 1608.7,-87.3 1631.1,-41.0 1654.8,3.7 1680.7,47.3 1709.1,90.6 1739.8,134.5 1772.1,180.0 1804.6,227.6 1835.7,277.9 1863.7,331.2" fill="none" stroke="#e0723a" stroke-width="1.5" opacity="0.10"/><polyline points="1881.5,331.2 1904.6,388.2 1920.6,447.3 1927.8,507.8 1925.0,568.5 1911.5,628.1 1887.1,685.2 1852.3,738.6 1808.0,787.2 1755.6,830.2 1696.8,867.3 1633.5,898.3 1567.4,923.7 1500.3,944.1 1433.7,960.5 1368.5,973.9 1305.4,985.4 1244.7,996.2 1186.2,1007.0 1129.3,1018.5 1073.4,1030.9 1017.7,1044.1 961.5,1057.8 904.0,1071.3 844.8,1083.6 783.8,1093.9 721.2,1101.0 657.3,1104.2 592.7,1102.6 528.3,1095.8 464.7,1083.6 402.8,1066.1 343.3,1043.5 286.5,1016.4 232.7,985.3 181.8,951.1 133.7,914.3 88.0,875.5 44.1,835.0 1.8,793.1 -39.3,749.8 -79.3,704.9 -117.9,658.2 -154.6,609.4 -188.7,558.3 -219.0,504.7 -244.3,448.8 -263.3,390.8 -274.5,331.2 -277.0,270.9 -270.0,210.9 -252.8,152.2 -225.7,96.0 -189.1,43.4 -144.1,-4.7 -92.0,-47.6 -34.6,-85.1 26.3,-117.2 88.8,-144.5 151.2,-167.6 211.9,-187.7 270.1,-206.2 325.0,-224.3 376.6,-243.3 425.5,-264.3 472.4,-288.1 518.5,-314.8 565.1,-344.5 613.6,-376.4 665.1,-409.6 720.6,-442.4 780.5,-473.4 844.8,-500.6 913.0,-522.4 984.2,-537.1 1057.0,-543.4 1129.7,-540.7 1200.7,-528.6 1268.3,-507.2 1331.0,-477.2 1387.6,-439.8 1437.6,-396.4 1480.8,-348.5 1517.6,-297.9 1548.8,-246.1 1575.6,-194.4 1599.6,-143.7 1622.3,-94.8 1645.1,-47.7 1669.2,-2.2 1695.6,42.2 1724.5,86.3 1755.7,131.1 1788.5,177.3 1821.5,225.8 1853.1,277.0 1881.5,331.2" fill="none" stroke="#e0723a" stroke-width="1.5" opacity="0.10"/><polyline points="1896.2,331.2 1919.6,389.0 1935.7,449.0 1943.0,510.3 1940.1,571.9 1926.4,632.3 1901.7,690.2 1866.4,744.3 1821.5,793.6 1768.4,837.3 1708.8,874.9 1644.6,906.4 1577.6,932.1 1509.6,952.8 1442.1,969.5 1376.0,983.1 1312.1,994.8 1250.5,1005.8 1191.1,1016.8 1133.4,1028.4 1076.7,1041.0 1020.2,1054.5 963.1,1068.3 904.8,1082.0 844.8,1094.5 783.0,1104.8 719.4,1112.0 654.6,1115.2 589.1,1113.6 523.8,1106.7 459.3,1094.3 396.6,1076.5 336.2,1053.6 278.6,1026.1 224.0,994.6 172.4,959.9 123.6,922.6 77.2,883.2 32.7,842.2 -10.2,799.7 -51.9,755.7 -92.4,710.2 -131.5,662.8 -168.7,613.3 -203.3,561.5 -234.0,507.2 -259.6,450.4 -278.8,391.6 -290.2,331.2 -292.8,270.1 -285.6,209.2 -268.2,149.7 -240.7,92.7 -203.7,39.4 -158.0,-9.4 -105.3,-53.0 -47.1,-91.0 14.7,-123.6 78.0,-151.3 141.2,-174.8 202.8,-195.2 261.7,-214.0 317.4,-232.4 369.8,-251.7 419.4,-273.0 466.9,-297.1 513.7,-324.2 561.0,-354.3 610.2,-386.7 662.5,-420.2 718.8,-453.5 779.6,-484.9 844.8,-512.4 914.0,-534.4 986.2,-549.3 1060.0,-555.8 1133.7,-553.0 1205.7,-540.6 1274.2,-518.9 1337.8,-488.6 1395.3,-450.6 1446.0,-406.6 1489.8,-358.1 1527.2,-306.8 1558.8,-254.3 1586.1,-201.9 1610.4,-150.5 1633.4,-100.9 1656.6,-53.1 1681.1,-7.0 1707.9,38.1 1737.1,82.8 1768.8,128.2 1801.9,175.1 1835.4,224.3 1867.4,276.2 1896.2,331.2" fill="none" stroke="#e0723a" stroke-width="1.5" opacity="0.22"/><polyline points="1911.1,331.2 1934.8,389.8 1951.1,450.6 1958.5,512.9 1955.6,575.3 1941.7,636.5 1916.6,695.3 1880.8,750.2 1835.3,800.1 1781.5,844.4 1721.1,882.5 1655.9,914.5 1588.0,940.7 1519.1,961.7 1450.6,978.6 1383.6,992.4 1318.7,1004.3 1256.3,1015.4 1196.1,1026.6 1137.6,1038.4 1080.1,1051.2 1022.8,1064.8 964.8,1078.9 905.7,1092.7 844.8,1105.4 782.1,1115.9 717.6,1123.2 651.9,1126.4 585.5,1124.7 519.2,1117.8 453.8,1105.2 390.2,1087.1 328.9,1063.9 270.5,1036.0 215.2,1004.1 162.9,968.8 113.4,931.0 66.3,891.0 21.2,849.4 -22.3,806.3 -64.6,761.7 -105.7,715.5 -145.3,667.5 -183.1,617.3 -218.1,564.7 -249.2,509.6 -275.2,452.1 -294.7,392.4 -306.3,331.2 -308.8,269.2 -301.5,207.4 -283.9,147.1 -256.1,89.3 -218.5,35.2 -172.2,-14.2 -118.7,-58.4 -59.7,-97.0 2.9,-130.1 67.1,-158.1 131.2,-182.0 193.6,-202.8 253.4,-221.8 309.8,-240.5 363.0,-260.1 413.3,-281.7 461.5,-306.1 509.0,-333.7 557.0,-364.1 606.9,-396.9 659.9,-430.9 717.0,-464.7 778.6,-496.5 844.8,-524.4 915.0,-546.7 988.2,-561.8 1063.0,-568.3 1137.8,-565.5 1210.8,-552.9 1280.3,-530.9 1344.8,-500.1 1403.1,-461.7 1454.5,-417.1 1499.0,-367.9 1536.8,-315.9 1569.0,-262.6 1596.6,-209.5 1621.3,-157.4 1644.7,-107.1 1668.2,-58.6 1693.1,-11.8 1720.2,33.9 1749.9,79.3 1782.0,125.3 1815.6,172.9 1849.5,222.7 1882.0,275.5 1911.1,331.2" fill="none" stroke="#e0723a" stroke-width="1.5" opacity="0.22"/><polyline points="1928.8,331.2 1952.9,390.8 1969.5,452.6 1977.0,515.9 1974.1,579.3 1959.9,641.6 1934.5,701.3 1898.1,757.1 1851.8,807.9 1797.1,853.0 1735.6,891.7 1669.4,924.2 1600.4,950.8 1530.3,972.2 1460.6,989.3 1392.5,1003.4 1326.6,1015.5 1263.1,1026.8 1201.9,1038.1 1142.4,1050.1 1084.0,1063.1 1025.7,1077.0 966.8,1091.3 906.7,1105.3 844.8,1118.2 781.0,1128.9 715.5,1136.3 648.7,1139.6 581.2,1137.9 513.8,1130.8 447.3,1118.0 382.6,1099.7 320.4,1076.0 261.0,1047.7 204.7,1015.2 151.5,979.4 101.2,940.9 53.4,900.3 7.5,858.0 -36.7,814.2 -79.7,768.9 -121.5,721.9 -161.8,673.1 -200.2,622.1 -235.8,568.6 -267.4,512.6 -293.9,454.1 -313.6,393.5 -325.4,331.2 -328.0,268.2 -320.6,205.4 -302.7,144.0 -274.4,85.3 -236.2,30.3 -189.1,-20.0 -134.7,-64.9 -74.7,-104.1 -11.1,-137.8 54.2,-166.3 119.3,-190.5 182.8,-211.6 243.6,-231.0 301.0,-249.9 355.0,-269.9 406.1,-291.8 455.2,-316.7 503.4,-344.7 552.2,-375.7 602.9,-409.0 656.9,-443.6 714.9,-477.9 777.5,-510.2 844.8,-538.6 916.1,-561.3 990.6,-576.6 1066.6,-583.3 1142.7,-580.4 1216.9,-567.7 1287.5,-545.3 1353.1,-514.0 1412.3,-474.9 1464.7,-429.5 1509.9,-379.5 1548.3,-326.6 1581.0,-272.5 1609.1,-218.4 1634.2,-165.5 1657.9,-114.3 1681.8,-65.1 1707.1,-17.5 1734.7,28.9 1764.9,75.1 1797.5,121.9 1831.7,170.2 1866.2,220.9 1899.2,274.5 1928.8,331.2" fill="none" stroke="#e0723a" stroke-width="1.5" opacity="0.10"/><polyline points="1940.8,331.2 1965.3,391.4 1982.1,454.0 1989.7,517.9 1986.7,582.1 1972.5,645.1 1946.7,705.5 1909.9,761.9 1863.1,813.3 1807.7,858.8 1745.6,898.0 1678.6,930.8 1608.8,957.7 1537.9,979.2 1467.4,996.5 1398.5,1010.7 1331.9,1023.0 1267.7,1034.4 1205.8,1045.8 1145.7,1058.0 1086.6,1071.1 1027.7,1085.1 968.2,1099.5 907.4,1113.8 844.8,1126.8 780.3,1137.6 714.1,1145.2 646.5,1148.5 578.3,1146.8 510.1,1139.6 442.9,1126.7 377.5,1108.2 314.6,1084.3 254.5,1055.6 197.6,1022.8 143.9,986.6 93.0,947.7 44.6,906.6 -1.7,863.9 -46.5,819.5 -89.9,773.7 -132.2,726.3 -173.0,676.9 -211.8,625.3 -247.8,571.3 -279.9,514.6 -306.6,455.5 -326.6,394.2 -338.5,331.2 -341.2,267.5 -333.7,204.0 -315.6,141.9 -286.9,82.5 -248.3,26.9 -200.7,-23.9 -145.6,-69.3 -84.9,-109.0 -20.6,-142.9 45.5,-171.7 111.4,-196.2 175.6,-217.5 237.1,-237.1 295.1,-256.2 349.7,-276.3 401.4,-298.6 451.0,-323.7 499.7,-352.0 549.0,-383.3 600.3,-417.1 654.8,-452.1 713.5,-486.8 776.8,-519.5 844.8,-548.3 916.9,-571.2 992.2,-586.7 1069.1,-593.5 1146.0,-590.6 1221.1,-577.7 1292.5,-555.1 1358.8,-523.4 1418.7,-483.9 1471.6,-438.0 1517.3,-387.4 1556.1,-333.9 1589.1,-279.2 1617.5,-224.5 1642.9,-171.0 1666.9,-119.2 1691.0,-69.4 1716.5,-21.3 1744.4,25.6 1775.0,72.3 1808.0,119.6 1842.5,168.5 1877.4,219.7 1910.9,273.9 1940.8,331.2" fill="none" stroke="#e0723a" stroke-width="1.5" opacity="0.10"/>
<rect width="1280" height="720" fill="url(#vig6)"/>
</svg>