<svg xmlns="http://www.w3.org/2000/svg" width="1280" height="720" viewBox="0 0 1280 720">
<rect width="1280" height="720" fill="#fafafa"/>
<ellipse cx="810" cy="656" rx="328" ry="14" fill="#3f3d56" fill-opacity="0.06"/>
<!-- force lines (under figure; only the parts in open space show) -->
<g>
<line x1="521.1" y1="338.1" x2="754.9" y2="103.6" stroke="#3f3d56" stroke-opacity="0.572" stroke-width="2.0" stroke-linecap="round"/>
<line x1="554.8" y1="345.1" x2="745.3" y2="167.7" stroke="#3f3d56" stroke-opacity="0.339" stroke-width="2.3" stroke-linecap="round"/>
<line x1="571.9" y1="363.3" x2="757.8" y2="203.6" stroke="#3f3d56" stroke-opacity="0.466" stroke-width="2.0" stroke-linecap="round"/>
<line x1="582.3" y1="385.9" x2="779.1" y2="227.0" stroke="#3f3d56" stroke-opacity="0.388" stroke-width="1.5" stroke-linecap="round"/>
<line x1="884.5" y1="211.5" x2="1209.1" y2="-54.5" stroke="#3f3d56" stroke-opacity="0.506" stroke-width="1.4" stroke-linecap="round"/>
<line x1="894.8" y1="234.0" x2="1049.5" y2="107.4" stroke="#3f3d56" stroke-opacity="0.345" stroke-width="1.8" stroke-linecap="round"/>
<line x1="921.7" y1="245.3" x2="1115.6" y2="86.9" stroke="#3f3d56" stroke-opacity="0.368" stroke-width="1.7" stroke-linecap="round"/>
<line x1="965.5" y1="245.7" x2="1163.2" y2="107.5" stroke="#3f3d56" stroke-opacity="0.472" stroke-width="1.7" stroke-linecap="round"/>
<line x1="1071.9" y1="203.2" x2="1278.9" y2="49.9" stroke="#3f3d56" stroke-opacity="0.518" stroke-width="2.1" stroke-linecap="round"/>
<line x1="1095.7" y1="217.0" x2="1438.7" y2="-9.6" stroke="#3f3d56" stroke-opacity="0.504" stroke-width="1.6" stroke-linecap="round"/>
<line x1="1106.0" y1="239.4" x2="1375.1" y2="53.0" stroke="#3f3d56" stroke-opacity="0.471" stroke-width="2.1" stroke-linecap="round"/>
<line x1="1080.1" y1="286.8" x2="1413.6" y2="89.8" stroke="#3f3d56" stroke-opacity="0.573" stroke-width="2.0" stroke-linecap="round"/>
<line x1="1083.8" y1="313.8" x2="1417.7" y2="116.6" stroke="#3f3d56" stroke-opacity="0.439" stroke-width="2.1" stroke-linecap="round"/>
<line x1="1090.9" y1="338.7" x2="1365.8" y2="188.6" stroke="#3f3d56" stroke-opacity="0.396" stroke-width="1.7" stroke-linecap="round"/>
<line x1="1097.9" y1="363.4" x2="1384.6" y2="205.8" stroke="#3f3d56" stroke-opacity="0.439" stroke-width="1.7" stroke-linecap="round"/>
<line x1="1105.0" y1="388.3" x2="1423.5" y2="224.8" stroke="#3f3d56" stroke-opacity="0.562" stroke-width="2.3" stroke-linecap="round"/>
<line x1="1111.9" y1="412.8" x2="1359.3" y2="273.1" stroke="#3f3d56" stroke-opacity="0.508" stroke-width="1.8" stroke-linecap="round"/>
<line x1="1119.1" y1="437.8" x2="1341.6" y2="331.1" stroke="#3f3d56" stroke-opacity="0.408" stroke-width="2.2" stroke-linecap="round"/>
<line x1="1126.2" y1="462.7" x2="1498.3" y2="294.3" stroke="#3f3d56" stroke-opacity="0.557" stroke-width="2.2" stroke-linecap="round"/>
<line x1="1133.3" y1="487.6" x2="1519.8" y2="328.2" stroke="#3f3d56" stroke-opacity="0.551" stroke-width="2.2" stroke-linecap="round"/>
<line x1="1140.3" y1="512.2" x2="1402.7" y2="398.4" stroke="#3f3d56" stroke-opacity="0.425" stroke-width="2.1" stroke-linecap="round"/>
<line x1="1147.4" y1="537.3" x2="1481.1" y2="417.1" stroke="#3f3d56" stroke-opacity="0.420" stroke-width="1.4" stroke-linecap="round"/>
<line x1="583.0" y1="386.9" x2="920.8" y2="75.1" stroke="#3f3d56" stroke-opacity="0.600" stroke-width="2.6" stroke-linecap="round"/>
<line x1="926.5" y1="245.1" x2="1301.2" y2="-22.2" stroke="#3f3d56" stroke-opacity="0.611" stroke-width="2.8" stroke-linecap="round"/>
<line x1="1117.4" y1="435.2" x2="1575.8" y2="209.1" stroke="#3f3d56" stroke-opacity="0.641" stroke-width="2.6" stroke-linecap="round"/>
<line x1="907.5" y1="245.7" x2="1344.6" y2="-118.4" stroke="#3f3d56" stroke-opacity="0.704" stroke-width="2.7" stroke-linecap="round"/>
</g>
<!-- silhouette -->
<g transform="translate(420.00,205.90) scale(2.4841) translate(-73.50,-17.00)" fill="#3f3d56">
<g transform="translate(0.000000,384.000000) scale(0.100000,-0.100000)"
fill="#3f3d56" stroke="none">
<path d="M3285 3639 c-36 -32 -36 -32 -56 -10 -11 11 -29 21 -40 21 -12 0 -46
-25 -78 -57 -32 -32 -74 -68 -95 -80 -35 -21 -49 -23 -195 -23 -128 0 -161 3
-171 15 -7 8 -25 41 -41 73 -16 33 -36 65 -44 72 -12 10 -26 11 -53 4 -36 -9
-37 -10 -40 -59 -2 -38 -9 -56 -29 -74 -23 -22 -25 -28 -17 -70 4 -25 7 -64 7
-86 -1 -22 -9 -66 -19 -98 -15 -48 -27 -67 -68 -102 -28 -24 -107 -81 -176
-127 -69 -46 -139 -90 -156 -97 -18 -7 -43 -25 -57 -39 -14 -15 -64 -103 -112
-197 -48 -93 -89 -173 -92 -177 -2 -5 -16 -2 -31 6 -15 8 -47 35 -72 61 -25
26 -56 59 -70 72 -14 14 -43 33 -65 43 -22 10 -60 24 -85 31 -25 7 -51 18 -59
25 -12 11 -12 18 3 48 15 31 15 40 1 92 -8 32 -27 76 -42 98 -16 21 -41 53
-57 69 -16 16 -40 33 -53 38 -13 5 -43 9 -66 9 -23 0 -60 -9 -82 -19 -22 -10
-52 -31 -66 -47 -15 -16 -32 -46 -39 -67 -10 -31 -10 -48 1 -85 9 -36 26 -60
72 -103 52 -49 60 -61 64 -102 5 -40 3 -47 -12 -47 -10 0 -45 20 -79 44 -33
24 -80 53 -103 65 -23 11 -56 21 -73 21 -21 0 -41 -9 -61 -29 -18 -19 -29 -40
-29 -58 0 -15 9 -41 20 -58 11 -16 20 -40 20 -53 0 -13 4 -32 10 -42 5 -10 59
-55 120 -99 61 -45 113 -88 116 -95 3 -8 -27 -72 -67 -143 -39 -70 -81 -138
-92 -150 -14 -16 -32 -23 -58 -23 -21 0 -47 -8 -60 -19 -19 -16 -24 -29 -24
-69 0 -35 6 -56 19 -71 19 -21 19 -21 1545 -21 1324 0 1529 2 1547 15 12 8 24
27 27 43 3 17 1 46 -4 66 -7 25 -18 40 -35 46 -14 6 -43 10 -65 10 -37 0 -41
3 -58 43 -10 24 -58 180 -106 348 -48 167 -100 354 -115 414 -16 61 -52 193
-79 295 -28 102 -51 198 -51 214 0 19 16 48 49 90 27 34 55 74 62 89 11 24 10
31 -8 55 -11 15 -39 42 -62 60 -23 17 -51 32 -61 32 -11 0 -35 -14 -55 -31z
m-696 -84 c44 -95 44 -95 233 -95 188 0 188 0 204 26 12 18 23 24 38 21 17 -4
31 9 71 64 28 37 53 69 56 69 4 0 12 -7 19 -15 10 -12 5 -24 -30 -69 -23 -30
-48 -60 -56 -67 -13 -10 -12 -14 2 -30 10 -11 22 -19 28 -18 6 0 47 47 91 104
44 57 83 104 87 105 5 0 35 -21 68 -47 33 -25 60 -49 60 -52 0 -4 -31 -45 -70
-93 -38 -48 -70 -92 -70 -98 0 -6 31 -126 70 -266 38 -141 75 -263 82 -272 10
-12 10 -14 1 -8 -7 4 -13 6 -13 4 0 -2 45 -158 100 -348 54 -190 109 -373 121
-407 22 -63 22 -63 95 -63 74 0 74 0 74 -60 0 -60 0 -60 -1545 -60 -1545 0
-1545 0 -1545 60 0 60 0 60 64 60 64 0 64 0 160 170 53 94 97 175 99 179 1 5
-58 53 -131 106 -74 54 -136 104 -139 113 -4 8 1 21 11 28 17 12 15 15 -18 44
-20 18 -36 40 -36 50 0 10 14 30 31 44 17 14 35 26 40 26 6 0 24 -7 42 -16 18
-9 73 -46 124 -81 51 -35 102 -76 113 -90 11 -14 20 -30 20 -35 0 -4 21 -45
47 -91 31 -54 73 -107 123 -155 41 -41 95 -85 119 -100 24 -14 66 -32 94 -39
27 -7 97 -17 155 -24 61 -6 120 -18 137 -27 17 -10 52 -17 80 -17 49 0 50 1
82 50 18 28 55 78 84 113 39 48 57 62 78 62 15 0 37 -7 49 -16 12 -8 22 -22
22 -30 0 -8 3 -14 8 -13 4 0 33 36 65 79 31 43 57 83 57 89 0 6 -3 11 -7 11
-5 0 -23 13 -42 29 -34 28 -35 29 -18 55 10 14 26 26 35 26 12 0 60 53 129
143 61 78 146 187 190 242 65 82 78 103 69 117 -8 13 -5 22 12 41 23 25 23 25
-102 277 -69 138 -126 253 -126 256 0 2 12 10 28 18 15 8 29 15 32 15 3 0 25
-42 49 -94z m-68 -77 c16 -18 43 -66 60 -108 17 -41 44 -98 60 -126 16 -28 29
-58 29 -67 0 -8 -24 -26 -55 -41 -30 -14 -59 -25 -63 -25 -4 1 -13 1 -19 0 -7
0 -32 -18 -54 -38 -23 -21 -68 -72 -99 -113 -32 -42 -75 -91 -95 -109 -20 -18
-60 -42 -88 -55 -29 -12 -57 -29 -64 -37 -6 -8 -16 -50 -22 -94 -7 -44 -17
-102 -22 -128 -10 -41 -9 -50 5 -60 14 -11 12 -23 -23 -120 -22 -59 -48 -118
-58 -131 -19 -23 -19 -23 -47 0 -15 13 -37 24 -49 24 -12 0 -37 -4 -55 -9 -24
-7 -49 -5 -99 10 -37 10 -99 34 -138 53 -38 18 -84 39 -101 45 -23 9 -34 22
-43 51 -6 21 -28 62 -47 92 -20 29 -41 58 -46 63 -6 6 -6 3 -2 -10 4 -11 16
-33 27 -49 11 -16 31 -54 43 -85 13 -34 32 -61 46 -68 13 -7 68 -32 123 -57
55 -24 120 -50 144 -56 24 -6 70 -9 105 -5 51 5 65 2 85 -14 22 -17 23 -21 12
-49 -7 -17 -21 -38 -32 -48 -14 -13 -28 -15 -60 -10 -23 4 -54 13 -70 21 -15
8 -75 20 -131 25 -57 6 -125 17 -153 25 -27 8 -70 27 -95 43 -25 16 -73 55
-107 87 -39 35 -81 89 -110 139 -26 44 -53 94 -60 110 -7 15 -13 59 -13 96 0
37 -5 81 -11 98 -6 19 -31 46 -61 67 -30 22 -55 50 -65 73 -9 22 -13 52 -10
75 4 26 16 51 39 74 20 21 52 39 84 49 29 8 63 12 76 9 13 -3 41 -21 61 -40
20 -19 37 -41 37 -49 0 -9 11 -23 24 -31 17 -11 24 -25 24 -44 -1 -15 8 -43
18 -61 18 -31 18 -33 1 -44 -10 -6 -26 -16 -35 -22 -13 -10 -14 -16 -5 -37 10
-21 29 -31 96 -52 46 -14 105 -39 130 -56 25 -17 49 -39 52 -50 4 -11 39 -45
78 -76 40 -32 77 -64 83 -72 10 -13 15 -6 27 35 8 27 38 97 67 154 29 58 66
131 82 163 19 37 45 69 70 88 23 16 46 29 52 29 6 0 69 39 140 88 71 48 156
111 188 141 42 38 57 59 53 71 -3 10 -2 21 3 24 6 3 15 35 22 70 10 56 10 72
-5 115 -9 28 -14 55 -10 61 3 5 15 10 26 10 11 0 33 -14 50 -32z m154 -395
c-3 -27 -14 -59 -22 -73 -9 -14 -81 -108 -161 -210 -80 -102 -169 -208 -198
-236 -32 -30 -54 -59 -54 -71 0 -12 11 -35 25 -51 14 -17 25 -33 25 -38 0 -4
-12 -25 -27 -47 -24 -35 -30 -38 -57 -32 -17 3 -48 9 -68 12 -21 3 -38 6 -38
8 0 1 7 22 16 46 10 29 13 60 9 89 -3 25 1 89 9 143 8 54 20 105 27 114 7 8
38 27 68 43 31 16 70 41 86 57 17 15 51 55 75 88 24 33 65 80 90 105 29 29 61
50 90 59 25 7 56 19 70 27 14 7 29 13 34 14 4 0 5 -21 1 -47z"/>
<path d="M2680 3375 c0 -3 21 -48 47 -100 26 -52 50 -95 54 -95 3 0 43 45 88
100 81 100 81 100 -54 100 -74 0 -135 -2 -135 -5z m184 -34 c3 -5 -10 -29 -30
-55 -19 -25 -39 -46 -44 -46 -5 0 -19 18 -30 41 -12 23 -19 47 -16 55 4 10 22
14 60 14 30 0 57 -4 60 -9z"/>
<path d="M3217 3238 c-2 -7 -148 -194 -323 -414 -176 -221 -386 -486 -469
-590 -82 -104 -158 -199 -168 -211 -18 -23 -18 -23 653 -23 672 0 672 0 667
23 -3 12 -53 193 -111 402 -58 209 -131 465 -161 570 -30 104 -58 205 -61 222
-3 18 -10 33 -14 33 -4 0 -10 -6 -13 -12z m62 -263 c29 -99 88 -310 132 -470
44 -159 91 -327 105 -373 14 -45 22 -87 19 -92 -4 -6 -231 -10 -611 -10 -524
0 -605 2 -602 15 2 8 66 94 143 191 77 98 185 234 240 303 55 70 178 225 274
346 96 121 188 235 205 253 16 17 33 29 37 25 4 -5 30 -89 58 -188z"/>
<path d="M2726 2985 c-3 -9 -87 -118 -186 -244 -99 -126 -180 -233 -180 -237
0 -5 8 -14 18 -21 17 -10 39 15 211 233 106 134 189 249 186 254 -3 5 -14 14
-25 20 -13 7 -19 6 -24 -5z"/>
<path d="M1146 2293 c-4 -10 -32 -63 -63 -118 -31 -55 -67 -117 -80 -137 -23
-38 -23 -38 283 -38 306 0 306 0 89 155 -119 85 -218 155 -219 155 -2 0 -7 -8
-10 -17z m185 -144 c76 -55 139 -105 139 -110 0 -5 -88 -9 -210 -9 -182 0
-210 2 -210 15 0 9 6 26 14 38 7 12 32 55 55 95 24 41 49 72 57 72 9 0 79 -45
155 -101z"/>
</g>
</g>
</svg>