<svg xmlns="http://www.w3.org/2000/svg" width="1280" height="720" viewBox="0 0 1280 720">
<rect width="1280" height="720" fill="#fafafa"/>
<ellipse cx="994" cy="656" rx="173" ry="14" fill="#3f3d56" fill-opacity="0.06"/>
<!-- force lines (under figure; only the parts in open space show) -->
<g>
<line x1="1108.8" y1="367.2" x2="1174.4" y2="641.2" stroke="#3f3d56" stroke-opacity="0.408" stroke-width="1.4" stroke-linecap="round"/>
<line x1="1095.2" y1="371.3" x2="1145.2" y2="629.1" stroke="#3f3d56" stroke-opacity="0.441" stroke-width="1.9" stroke-linecap="round"/>
<line x1="1082.1" y1="371.2" x2="1123.6" y2="549.5" stroke="#3f3d56" stroke-opacity="0.424" stroke-width="2.2" stroke-linecap="round"/>
<line x1="1068.4" y1="375.3" x2="1110.9" y2="637.6" stroke="#3f3d56" stroke-opacity="0.535" stroke-width="2.1" stroke-linecap="round"/>
<line x1="1054.8" y1="387.4" x2="1083.4" y2="636.7" stroke="#3f3d56" stroke-opacity="0.417" stroke-width="2.1" stroke-linecap="round"/>
<line x1="1041.5" y1="403.4" x2="1072.7" y2="681.0" stroke="#3f3d56" stroke-opacity="0.455" stroke-width="1.5" stroke-linecap="round"/>
<line x1="1027.9" y1="419.4" x2="1041.0" y2="601.2" stroke="#3f3d56" stroke-opacity="0.341" stroke-width="2.2" stroke-linecap="round"/>
<line x1="1014.3" y1="611.4" x2="1016.1" y2="813.6" stroke="#3f3d56" stroke-opacity="0.342" stroke-width="1.6" stroke-linecap="round"/>
<line x1="1001.2" y1="659.4" x2="1014.1" y2="959.0" stroke="#3f3d56" stroke-opacity="0.382" stroke-width="2.0" stroke-linecap="round"/>
<line x1="987.4" y1="663.4" x2="979.1" y2="882.7" stroke="#3f3d56" stroke-opacity="0.557" stroke-width="1.9" stroke-linecap="round"/>
<line x1="973.9" y1="663.4" x2="956.7" y2="929.1" stroke="#3f3d56" stroke-opacity="0.513" stroke-width="1.9" stroke-linecap="round"/>
<line x1="960.5" y1="663.4" x2="944.8" y2="851.1" stroke="#3f3d56" stroke-opacity="0.482" stroke-width="2.1" stroke-linecap="round"/>
<line x1="946.8" y1="647.3" x2="921.2" y2="835.6" stroke="#3f3d56" stroke-opacity="0.304" stroke-width="1.9" stroke-linecap="round"/>
<line x1="933.3" y1="635.3" x2="900.8" y2="824.7" stroke="#3f3d56" stroke-opacity="0.350" stroke-width="1.9" stroke-linecap="round"/>
<line x1="920.2" y1="635.3" x2="886.3" y2="871.5" stroke="#3f3d56" stroke-opacity="0.543" stroke-width="2.1" stroke-linecap="round"/>
<line x1="906.6" y1="635.3" x2="868.7" y2="845.6" stroke="#3f3d56" stroke-opacity="0.365" stroke-width="2.0" stroke-linecap="round"/>
<line x1="893.2" y1="639.3" x2="839.5" y2="913.1" stroke="#3f3d56" stroke-opacity="0.561" stroke-width="1.4" stroke-linecap="round"/>
<line x1="879.6" y1="639.2" x2="836.7" y2="811.2" stroke="#3f3d56" stroke-opacity="0.402" stroke-width="1.8" stroke-linecap="round"/>
<line x1="1066.3" y1="375.3" x2="1130.2" y2="742.0" stroke="#3f3d56" stroke-opacity="0.657" stroke-width="2.7" stroke-linecap="round"/>
<line x1="960.0" y1="663.4" x2="945.4" y2="987.7" stroke="#3f3d56" stroke-opacity="0.709" stroke-width="2.5" stroke-linecap="round"/>
<line x1="913.4" y1="635.3" x2="856.7" y2="961.1" stroke="#3f3d56" stroke-opacity="0.608" stroke-width="2.7" stroke-linecap="round"/>
</g>
<!-- silhouette -->
<g transform="translate(788.47,188.00) scale(2.2488) translate(-55.00,-9.00)" fill="#3f3d56">
<g transform="translate(0.000000,384.000000) scale(0.100000,-0.100000)"
fill="#3f3d56" stroke="none">
<path d="M1953 3724 c-34 -20 -73 -29 -190 -45 -82 -11 -195 -26 -253 -34 -58
-7 -195 -26 -305 -41 -110 -15 -227 -27 -260 -27 -33 0 -79 1 -102 2 -25 2
-57 -6 -82 -18 -22 -12 -70 -25 -107 -30 -44 -7 -74 -17 -87 -30 -14 -14 -18
-26 -13 -45 4 -15 17 -31 29 -35 13 -5 53 -7 90 -4 64 6 67 5 78 -21 9 -19 10
-56 3 -143 -6 -83 -6 -133 3 -174 6 -32 19 -73 28 -93 12 -24 29 -40 58 -52
28 -12 76 -18 147 -21 105 -3 105 -3 103 -63 -1 -38 -14 -98 -34 -158 -23 -71
-47 -119 -89 -177 -31 -44 -82 -116 -112 -160 -30 -44 -69 -106 -87 -137 -18
-32 -30 -58 -28 -58 3 0 -8 -43 -24 -97 -16 -53 -29 -116 -29 -141 0 -24 7
-59 16 -78 10 -21 31 -40 58 -54 30 -14 62 -20 113 -20 38 0 129 5 201 11 98
8 135 8 152 -1 12 -6 30 -31 40 -55 10 -24 28 -48 39 -54 11 -6 51 -11 88 -11
40 0 76 5 86 12 9 7 27 49 38 93 12 44 24 101 26 127 4 40 1 51 -21 73 -15 15
-36 25 -54 25 -16 0 -31 3 -35 6 -3 4 3 19 15 34 14 19 23 53 29 107 4 43 20
112 35 153 25 71 26 82 20 207 -6 133 -6 133 35 200 24 38 75 102 114 143 39
41 77 84 83 95 9 16 25 21 99 26 48 4 118 17 154 29 37 12 78 33 93 47 15 14
31 36 37 50 5 13 9 68 9 121 0 64 -7 123 -20 172 -11 41 -20 94 -20 118 0 23
6 58 14 77 9 22 23 36 38 39 13 3 56 9 97 15 51 7 81 16 94 30 14 14 18 26 13
45 -4 15 -18 32 -32 38 -18 9 -47 8 -117 -1 -66 -9 -102 -9 -127 -1 -19 5 -51
10 -70 10 -20 0 -54 -11 -77 -26z m395 -6 c7 -7 12 -20 12 -29 0 -10 -8 -20
-17 -23 -10 -2 -49 -7 -88 -11 -38 -3 -84 -9 -102 -12 -27 -4 -33 -11 -47 -53
-9 -27 -16 -69 -16 -93 0 -24 9 -79 21 -123 13 -54 20 -110 20 -176 0 -54 -5
-107 -11 -118 -6 -11 -21 -26 -33 -34 -12 -8 -67 -27 -122 -41 -65 -17 -112
-24 -135 -20 -19 3 -43 8 -52 11 -13 4 -22 -5 -34 -36 -9 -23 -39 -61 -69 -88
-29 -26 -73 -76 -98 -112 -24 -36 -52 -80 -62 -99 -14 -29 -16 -48 -10 -110 4
-42 7 -103 6 -135 -1 -33 -13 -87 -27 -125 -15 -41 -27 -98 -31 -149 -5 -73
-9 -85 -31 -103 -14 -10 -27 -17 -30 -15 -2 3 1 19 7 37 6 18 9 34 8 36 -2 2
-14 -22 -25 -54 -21 -57 -21 -58 -2 -78 16 -17 20 -37 21 -91 1 -64 2 -66 10
-29 4 22 6 57 3 78 -5 32 -3 37 14 37 11 0 33 3 49 6 24 5 31 2 41 -21 7 -14
12 -36 12 -48 0 -12 -10 -42 -21 -67 -11 -25 -23 -66 -26 -92 -6 -48 -6 -48
-88 -48 -82 0 -82 0 -94 39 -7 26 -31 59 -69 95 -32 31 -69 77 -81 102 -19 37
-22 56 -17 95 3 27 9 71 12 97 3 27 1 74 -6 106 -6 32 -14 55 -17 52 -3 -2 0
-36 7 -74 11 -65 10 -73 -10 -113 -12 -24 -29 -52 -38 -61 -8 -10 -25 -18 -37
-18 -13 0 -28 -7 -35 -15 -10 -12 -6 -13 23 -8 19 3 44 0 55 -6 12 -6 30 -30
40 -54 10 -23 33 -57 50 -76 18 -18 32 -34 32 -35 0 0 -21 -1 -47 -2 -27 0
-113 -4 -194 -8 -107 -7 -155 -6 -182 3 -20 7 -44 22 -52 34 -9 12 -15 43 -15
74 0 28 11 88 25 133 15 44 24 84 21 88 -2 4 21 49 52 99 32 51 84 131 117
179 33 48 73 102 89 121 16 19 35 55 42 81 8 26 22 72 33 102 11 30 20 67 21
81 0 14 9 60 21 104 11 43 18 90 16 104 -4 24 -4 23 -6 -5 -1 -24 -8 -34 -36
-47 -22 -10 -60 -17 -97 -17 -34 0 -90 5 -124 11 -35 6 -68 17 -74 24 -5 6
-19 47 -30 91 -19 74 -19 84 -5 190 13 99 13 116 0 141 -8 15 -15 36 -15 47 0
16 -5 18 -38 13 -20 -3 -65 -9 -99 -13 -63 -7 -63 -6 -63 19 0 20 6 27 28 31
15 2 53 8 85 11 37 4 72 16 94 31 20 13 47 24 61 24 14 0 33 -6 41 -14 14 -11
52 -8 261 20 135 18 371 50 525 70 262 34 281 38 298 60 15 20 28 24 68 24 27
0 58 -5 68 -12 16 -9 42 -9 123 4 57 8 105 16 109 17 3 0 10 -4 17 -11z"/>
<path d="M1765 3593 c-55 -7 -255 -34 -445 -58 -190 -25 -359 -48 -376 -50
-27 -5 -33 -11 -44 -50 -8 -28 -10 -69 -6 -112 4 -37 18 -98 33 -135 26 -67
26 -67 64 -47 21 10 54 19 72 19 19 0 54 11 78 24 24 14 60 27 80 31 27 5 50
1 85 -15 28 -12 59 -19 71 -15 15 3 26 18 34 45 9 31 10 43 1 52 -7 7 -12 31
-12 54 0 23 8 62 19 86 10 24 33 56 51 71 23 20 42 27 74 27 31 0 54 -8 83
-29 22 -16 47 -45 56 -64 9 -19 17 -47 17 -61 0 -15 -9 -44 -20 -65 -11 -22
-34 -51 -52 -65 -18 -14 -27 -26 -20 -26 7 0 29 7 48 15 23 10 50 13 75 9 21
-4 46 -12 56 -19 12 -9 25 -10 46 -3 15 6 45 8 65 5 20 -3 46 -9 57 -12 17 -5
20 -1 21 27 0 18 5 67 12 108 6 45 8 98 3 131 -5 39 -16 67 -34 89 -15 17 -27
36 -27 41 0 5 -15 8 -32 8 -18 -1 -78 -8 -133 -16z m143 -29 c12 -8 29 -29 38
-45 10 -20 15 -56 15 -107 -1 -42 -5 -94 -10 -115 -5 -21 -11 -41 -14 -43 -3
-3 -32 -7 -66 -9 -34 -1 -82 3 -108 9 -42 11 -48 16 -45 37 1 13 3 47 3 74 1
28 -4 61 -10 74 -7 12 -28 40 -48 61 -34 39 -34 39 -11 44 13 3 55 10 93 16
39 5 81 12 95 14 14 2 30 4 35 5 6 0 21 -6 33 -15z m-505 -106 c-24 -46 -28
-65 -28 -142 0 -60 -4 -91 -12 -93 -6 -2 -35 3 -63 11 -29 9 -65 13 -83 9 -18
-3 -55 -16 -82 -29 -28 -12 -78 -26 -111 -29 -61 -7 -61 -7 -79 38 -10 28 -18
77 -19 127 -1 67 2 84 16 94 10 7 80 21 155 31 76 9 161 21 188 25 28 4 71 8
98 9 47 1 47 1 20 -51z"/>
</g>
</g>
</svg>