<svg xmlns="http://www.w3.org/2000/svg" width="1280" height="720" viewBox="0 0 1280 720">
<rect width="1280" height="720" fill="#fafafa"/>

<!-- force lines (under figure; only the parts in open space show) -->
<g>
<line x1="584.0" y1="360.1" x2="483.4" y2="1.6" stroke="#3f3d56" stroke-opacity="0.444" stroke-width="1.6" stroke-linecap="round"/>
<line x1="604.2" y1="360.1" x2="492.8" y2="-24.8" stroke="#3f3d56" stroke-opacity="0.497" stroke-width="1.8" stroke-linecap="round"/>
<line x1="624.7" y1="324.1" x2="554.6" y2="52.4" stroke="#3f3d56" stroke-opacity="0.356" stroke-width="1.5" stroke-linecap="round"/>
<line x1="645.4" y1="308.0" x2="608.6" y2="107.0" stroke="#3f3d56" stroke-opacity="0.423" stroke-width="2.3" stroke-linecap="round"/>
<line x1="665.7" y1="304.0" x2="585.4" y2="-124.9" stroke="#3f3d56" stroke-opacity="0.514" stroke-width="2.0" stroke-linecap="round"/>
<line x1="686.2" y1="304.0" x2="641.8" y2="24.7" stroke="#3f3d56" stroke-opacity="0.301" stroke-width="2.1" stroke-linecap="round"/>
<line x1="706.7" y1="331.9" x2="661.7" y2="-55.5" stroke="#3f3d56" stroke-opacity="0.362" stroke-width="1.4" stroke-linecap="round"/>
<line x1="726.8" y1="364.0" x2="674.7" y2="38.6" stroke="#3f3d56" stroke-opacity="0.489" stroke-width="2.1" stroke-linecap="round"/>
<line x1="747.3" y1="359.9" x2="722.4" y2="151.4" stroke="#3f3d56" stroke-opacity="0.329" stroke-width="1.8" stroke-linecap="round"/>
<line x1="767.9" y1="355.9" x2="740.4" y2="1.0" stroke="#3f3d56" stroke-opacity="0.412" stroke-width="2.2" stroke-linecap="round"/>
<line x1="788.0" y1="359.9" x2="758.1" y2="73.3" stroke="#3f3d56" stroke-opacity="0.303" stroke-width="1.6" stroke-linecap="round"/>
<line x1="808.4" y1="359.9" x2="785.2" y2="106.9" stroke="#3f3d56" stroke-opacity="0.420" stroke-width="2.3" stroke-linecap="round"/>
<line x1="828.9" y1="359.9" x2="809.3" y2="-32.8" stroke="#3f3d56" stroke-opacity="0.421" stroke-width="2.0" stroke-linecap="round"/>
<line x1="849.3" y1="359.9" x2="837.4" y2="116.5" stroke="#3f3d56" stroke-opacity="0.543" stroke-width="1.7" stroke-linecap="round"/>
<line x1="870.0" y1="359.9" x2="879.4" y2="-39.6" stroke="#3f3d56" stroke-opacity="0.543" stroke-width="2.3" stroke-linecap="round"/>
<line x1="890.2" y1="359.9" x2="892.2" y2="173.4" stroke="#3f3d56" stroke-opacity="0.500" stroke-width="1.4" stroke-linecap="round"/>
<line x1="910.5" y1="359.9" x2="912.5" y2="47.7" stroke="#3f3d56" stroke-opacity="0.400" stroke-width="1.6" stroke-linecap="round"/>
<line x1="931.1" y1="359.9" x2="945.8" y2="82.0" stroke="#3f3d56" stroke-opacity="0.332" stroke-width="1.4" stroke-linecap="round"/>
<line x1="951.4" y1="359.9" x2="961.9" y2="176.9" stroke="#3f3d56" stroke-opacity="0.572" stroke-width="2.0" stroke-linecap="round"/>
<line x1="971.9" y1="359.9" x2="988.9" y2="176.0" stroke="#3f3d56" stroke-opacity="0.478" stroke-width="1.7" stroke-linecap="round"/>
<line x1="992.5" y1="355.9" x2="1051.0" y2="-61.9" stroke="#3f3d56" stroke-opacity="0.470" stroke-width="1.5" stroke-linecap="round"/>
<line x1="1012.5" y1="355.9" x2="1031.2" y2="141.6" stroke="#3f3d56" stroke-opacity="0.424" stroke-width="1.4" stroke-linecap="round"/>
<line x1="1033.1" y1="359.9" x2="1072.0" y2="67.3" stroke="#3f3d56" stroke-opacity="0.503" stroke-width="1.8" stroke-linecap="round"/>
<line x1="1053.3" y1="327.9" x2="1080.3" y2="97.8" stroke="#3f3d56" stroke-opacity="0.452" stroke-width="2.0" stroke-linecap="round"/>
<line x1="1073.8" y1="304.0" x2="1139.4" y2="-118.6" stroke="#3f3d56" stroke-opacity="0.340" stroke-width="1.7" stroke-linecap="round"/>
<line x1="1094.2" y1="304.0" x2="1152.2" y2="-38.7" stroke="#3f3d56" stroke-opacity="0.450" stroke-width="2.3" stroke-linecap="round"/>
<line x1="1114.8" y1="304.0" x2="1194.5" y2="-44.9" stroke="#3f3d56" stroke-opacity="0.473" stroke-width="2.2" stroke-linecap="round"/>
<line x1="1135.1" y1="328.0" x2="1210.0" y2="-3.0" stroke="#3f3d56" stroke-opacity="0.431" stroke-width="1.5" stroke-linecap="round"/>
<line x1="1155.6" y1="356.1" x2="1251.0" y2="-11.4" stroke="#3f3d56" stroke-opacity="0.355" stroke-width="1.6" stroke-linecap="round"/>
<line x1="1175.8" y1="356.0" x2="1232.8" y2="116.8" stroke="#3f3d56" stroke-opacity="0.531" stroke-width="1.5" stroke-linecap="round"/>
<line x1="717.2" y1="359.9" x2="653.1" y2="-109.1" stroke="#3f3d56" stroke-opacity="0.647" stroke-width="2.4" stroke-linecap="round"/>
<line x1="821.1" y1="359.9" x2="799.1" y2="-133.9" stroke="#3f3d56" stroke-opacity="0.666" stroke-width="2.8" stroke-linecap="round"/>
<line x1="784.9" y1="359.9" x2="731.3" y2="-145.3" stroke="#3f3d56" stroke-opacity="0.692" stroke-width="2.6" stroke-linecap="round"/>
<line x1="1085.9" y1="304.0" x2="1198.1" y2="-194.3" stroke="#3f3d56" stroke-opacity="0.631" stroke-width="2.4" stroke-linecap="round"/>
<line x1="916.1" y1="359.9" x2="918.8" y2="-155.6" stroke="#3f3d56" stroke-opacity="0.704" stroke-width="2.6" stroke-linecap="round"/>
</g>
<!-- silhouette -->
<g transform="translate(560.00,307.66) scale(1.9542) translate(-58.50,-17.00)" fill="#3f3d56">
<g transform="translate(0.000000,384.000000) scale(0.100000,-0.100000)"
fill="#3f3d56" stroke="none">
<path d="M3173 3658 c-12 -6 -29 -26 -38 -45 -9 -19 -21 -62 -26 -96 -6 -34
-13 -80 -17 -102 -7 -40 -7 -40 -65 -43 -40 -2 -78 4 -118 17 -32 12 -69 21
-82 21 -12 0 -39 -9 -59 -20 -35 -18 -60 -19 -537 -20 -440 -1 -503 1 -523 14
-13 9 -43 16 -70 16 -26 0 -70 -9 -98 -20 -28 -11 -74 -20 -103 -20 -29 0 -60
6 -69 13 -9 7 -19 43 -26 95 -7 46 -21 103 -31 128 -13 28 -29 48 -46 54 -15
6 -67 10 -118 10 -84 0 -95 -2 -143 -31 -33 -20 -58 -45 -68 -67 -10 -19 -20
-65 -23 -101 -3 -36 -10 -72 -16 -78 -7 -9 -47 -13 -137 -13 -109 0 -131 -3
-150 -18 -16 -13 -23 -29 -22 -52 0 -18 8 -40 17 -49 12 -13 45 -17 152 -21
107 -4 137 -8 143 -20 4 -8 13 -43 19 -78 7 -35 17 -75 24 -89 6 -14 35 -40
64 -59 51 -33 58 -34 148 -34 52 0 105 5 119 11 14 7 32 27 41 46 9 19 22 76
28 126 7 51 16 98 20 105 5 7 30 12 61 12 34 0 58 -5 65 -14 7 -8 21 -66 31
-128 10 -62 27 -140 38 -173 11 -33 41 -97 67 -142 25 -44 59 -116 74 -160 15
-43 34 -89 41 -103 7 -14 38 -50 67 -81 50 -53 55 -63 78 -155 13 -55 38 -142
55 -194 25 -76 33 -118 37 -210 5 -97 2 -127 -15 -187 -11 -40 -19 -80 -17
-90 2 -10 4 -21 4 -25 1 -4 18 -12 39 -18 24 -8 126 -10 298 -8 203 2 265 6
277 17 10 7 17 25 17 40 0 15 -9 52 -20 84 -15 44 -20 82 -20 170 0 103 4 126
39 243 21 71 42 154 46 184 4 30 12 66 16 79 5 13 28 44 50 70 23 25 51 64 64
86 12 22 28 63 35 90 7 28 41 113 76 190 53 118 65 154 74 230 6 50 16 117 23
150 12 60 12 60 61 63 27 2 53 -1 57 -5 5 -5 14 -47 19 -94 6 -46 17 -103 26
-127 9 -23 25 -49 37 -57 16 -11 49 -15 125 -15 104 0 104 0 154 37 28 20 56
51 64 68 7 17 16 56 20 86 4 30 11 62 15 71 8 14 30 17 145 20 129 3 137 4
155 27 10 13 19 33 19 46 0 13 -9 33 -19 46 -18 23 -26 24 -160 27 -135 4
-141 5 -145 25 -2 12 -9 51 -15 86 -5 35 -17 74 -26 88 -9 13 -37 37 -63 54
-43 27 -52 29 -141 28 -53 0 -106 -5 -118 -11z m238 -39 c5 -11 19 -19 30 -19
13 0 25 -11 34 -33 8 -19 19 -71 24 -117 6 -46 13 -85 15 -88 3 -2 75 -3 160
-3 156 2 156 2 156 -44 0 -46 0 -46 -159 -43 -159 3 -159 3 -166 -52 -3 -30
-11 -80 -17 -110 -5 -30 -15 -61 -20 -67 -6 -7 -17 -13 -26 -13 -8 0 -24 -10
-36 -22 -20 -22 -28 -23 -128 -20 -106 3 -106 3 -122 42 -8 21 -21 88 -27 149
-12 111 -12 111 -98 111 -87 0 -87 0 -100 -92 -7 -51 -17 -126 -22 -166 -7
-54 -23 -101 -65 -190 -31 -64 -66 -155 -80 -201 -15 -52 -37 -102 -60 -132
-20 -27 -44 -55 -53 -62 -10 -6 -23 -21 -29 -33 -6 -11 -17 -58 -26 -105 -8
-46 -29 -129 -47 -184 -28 -87 -33 -117 -37 -235 -3 -126 -2 -139 22 -204 14
-37 26 -75 26 -82 0 -12 -51 -14 -300 -14 -205 0 -300 3 -300 11 0 6 10 34 23
62 20 46 22 68 21 197 0 144 -1 146 -46 290 -25 80 -49 165 -53 190 -4 25 -13
57 -21 71 -7 15 -31 41 -53 58 -22 18 -49 46 -59 64 -11 18 -32 68 -47 112
-15 44 -49 119 -76 166 -27 47 -56 106 -64 130 -9 24 -25 100 -37 169 -11 69
-21 135 -22 148 -1 21 -4 22 -102 22 -101 0 -101 0 -107 -97 -3 -54 -11 -114
-16 -133 -6 -20 -17 -44 -24 -54 -12 -16 -30 -19 -108 -21 -52 -1 -102 2 -112
7 -9 5 -17 15 -17 23 0 10 -10 15 -30 15 -24 0 -33 6 -41 28 -6 15 -18 69 -27
120 -15 92 -15 92 -174 92 -158 0 -158 0 -158 40 0 40 0 40 158 40 158 0 158
0 170 96 7 54 18 109 25 123 8 17 22 27 39 29 16 2 28 11 31 23 5 17 15 19
115 19 84 0 112 -3 122 -15 6 -8 18 -36 26 -62 8 -26 17 -87 21 -135 6 -88 6
-88 114 -88 64 0 109 4 109 10 0 5 9 14 19 20 11 5 42 12 70 15 42 4 52 1 68
-18 18 -22 18 -22 546 -19 452 2 527 5 527 17 0 8 11 17 25 21 13 3 43 3 67 0
24 -3 48 -13 54 -21 9 -11 33 -15 106 -15 94 0 94 0 106 111 7 61 20 127 30
147 17 37 17 37 117 42 55 3 106 3 113 1 7 -2 17 -12 23 -22z"/>
<path d="M1677 3251 c-37 -36 -37 -36 -17 -97 11 -33 43 -98 70 -144 28 -47
55 -104 61 -126 7 -26 21 -49 39 -62 15 -12 50 -55 76 -98 39 -60 58 -81 94
-99 26 -13 61 -37 79 -54 18 -17 42 -31 52 -31 12 0 21 10 25 26 4 14 1 45 -6
67 -6 23 -18 49 -26 58 -8 8 -17 29 -20 46 -3 18 -1 33 5 37 6 4 11 22 11 41
0 19 5 46 11 62 6 15 20 38 31 50 12 12 36 27 54 33 23 8 44 8 73 0 27 -7 49
-22 67 -46 18 -23 29 -51 32 -84 2 -28 8 -50 13 -50 5 0 9 -11 9 -24 0 -14
-11 -46 -25 -72 -16 -30 -25 -63 -25 -91 0 -29 5 -46 14 -49 9 -3 29 8 48 28
19 18 54 44 79 57 35 19 52 37 75 80 16 31 44 73 62 93 18 20 44 66 57 101 12
35 41 96 63 135 23 40 49 97 58 127 17 52 17 55 -1 75 -10 11 -24 20 -30 20
-7 0 -15 7 -19 15 -5 13 -72 15 -528 14 -523 -2 -523 -2 -561 -38z m1085 -12
c26 -19 29 -26 25 -57 -4 -19 -30 -82 -60 -141 -30 -58 -57 -117 -60 -131 -3
-14 -25 -50 -47 -80 -23 -30 -53 -77 -67 -103 -19 -35 -42 -57 -84 -82 -31
-19 -59 -35 -63 -35 -3 0 -6 8 -6 17 0 10 7 36 16 60 14 36 15 53 5 120 -7 50
-20 91 -35 114 -14 20 -40 43 -59 52 -19 10 -55 17 -80 17 -29 0 -56 -8 -78
-23 -19 -12 -44 -42 -56 -67 -12 -25 -25 -76 -29 -113 -6 -59 -4 -75 16 -117
12 -27 20 -56 17 -64 -5 -13 -18 -8 -73 27 -48 30 -77 58 -107 102 -22 33 -55
76 -73 95 -18 19 -40 55 -50 79 -10 24 -39 81 -65 127 -26 46 -53 102 -59 126
-12 41 -11 43 19 70 31 28 31 28 527 28 491 0 496 0 526 -21z"/>
</g>
</g>
</svg>