<svg xmlns="http://www.w3.org/2000/svg" width="1280" height="720" viewBox="0 0 1280 720">
<defs>
<linearGradient id="bg5" x1="0" y1="0" x2="1" y2="1"><stop offset="0" stop-color="#fafafa"/><stop offset="1" stop-color="#fafafa"/></linearGradient>
<radialGradient id="gl5" cx="0.66" cy="0.42" r="0.72"><stop offset="0" stop-color="#fafafa" stop-opacity="0.26"/><stop offset="1" stop-color="#fafafa" stop-opacity="0"/></radialGradient>
<radialGradient id="vig5" cx="0.5" cy="0.5" r="0.75"><stop offset="0.55" stop-color="#3f3d56" stop-opacity="0"/><stop offset="1" stop-color="#3f3d56" stop-opacity="0.5"/></radialGradient>

</defs>
<rect width="1280" height="720" fill="url(#bg5)"/>
<rect width="1280" height="720" fill="url(#gl5)"/>
<path d="M 0.0,720.0 L 0.0,228.2 L 10.0,225.7 L 20.0,223.8 L 30.0,222.5 L 40.0,221.8 L 50.0,221.8 L 60.0,222.4 L 70.0,223.7 L 80.0,225.5 L 90.0,227.8 L 100.0,230.5 L 110.0,233.5 L 120.0,236.7 L 130.0,240.0 L 140.0,243.3 L 150.0,246.3 L 160.0,249.1 L 170.0,251.4 L 180.0,253.1 L 190.0,254.0 L 200.0,254.2 L 210.0,253.4 L 220.0,251.7 L 230.0,248.8 L 240.0,244.9 L 250.0,239.8 L 260.0,233.6 L 270.0,226.2 L 280.0,217.8 L 290.0,208.3 L 300.0,197.9 L 310.0,186.6 L 320.0,174.7 L 330.0,162.1 L 340.0,149.1 L 350.0,135.8 L 360.0,122.4 L 370.0,109.1 L 380.0,95.9 L 390.0,83.2 L 400.0,70.9 L 410.0,59.4 L 420.0,48.7 L 430.0,38.9 L 440.0,30.2 L 450.0,22.6 L 460.0,16.3 L 470.0,11.2 L 480.0,7.4 L 490.0,5.0 L 500.0,3.8 L 510.0,3.8 L 520.0,5.0 L 530.0,7.4 L 540.0,10.7 L 550.0,14.9 L 560.0,19.9 L 570.0,25.5 L 580.0,31.6 L 590.0,38.1 L 600.0,44.7 L 610.0,51.4 L 620.0,58.0 L 630.0,64.4 L 640.0,70.5 L 650.0,76.1 L 660.0,81.2 L 670.0,85.7 L 680.0,89.6 L 690.0,92.8 L 700.0,95.2 L 710.0,97.0 L 720.0,98.2 L 730.0,98.7 L 740.0,98.6 L 750.0,98.1 L 760.0,97.3 L 770.0,96.2 L 780.0,94.9 L 790.0,93.7 L 800.0,92.5 L 810.0,91.6 L 820.0,91.1 L 830.0,91.1 L 840.0,91.7 L 850.0,93.1 L 860.0,95.2 L 870.0,98.2 L 880.0,102.1 L 890.0,107.1 L 900.0,113.0 L 910.0,119.9 L 920.0,127.7 L 930.0,136.5 L 940.0,146.1 L 950.0,156.4 L 960.0,167.4 L 970.0,179.0 L 980.0,190.9 L 990.0,203.0 L 1000.0,215.3 L 1010.0,227.4 L 1020.0,239.4 L 1030.0,250.9 L 1040.0,261.8 L 1050.0,272.1 L 1060.0,281.5 L 1070.0,289.9 L 1080.0,297.2 L 1090.0,303.3 L 1100.0,308.1 L 1110.0,311.6 L 1120.0,313.8 L 1130.0,314.6 L 1140.0,314.0 L 1150.0,312.1 L 1160.0,308.9 L 1170.0,304.6 L 1180.0,299.1 L 1190.0,292.7 L 1200.0,285.3 L 1210.0,277.3 L 1220.0,268.7 L 1230.0,259.6 L 1240.0,250.3 L 1250.0,240.9 L 1260.0,231.5 L 1270.0,222.2 L 1280.0,213.3 L 1280.0,720.0 Z" fill="#3f3d56" opacity="0.14"/><polyline points="0.0,228.2 10.0,225.7 20.0,223.8 30.0,222.5 40.0,221.8 50.0,221.8 60.0,222.4 70.0,223.7 80.0,225.5 90.0,227.8 100.0,230.5 110.0,233.5 120.0,236.7 130.0,240.0 140.0,243.3 150.0,246.3 160.0,249.1 170.0,251.4 180.0,253.1 190.0,254.0 200.0,254.2 210.0,253.4 220.0,251.7 230.0,248.8 240.0,244.9 250.0,239.8 260.0,233.6 270.0,226.2 280.0,217.8 290.0,208.3 300.0,197.9 310.0,186.6 320.0,174.7 330.0,162.1 340.0,149.1 350.0,135.8 360.0,122.4 370.0,109.1 380.0,95.9 390.0,83.2 400.0,70.9 410.0,59.4 420.0,48.7 430.0,38.9 440.0,30.2 450.0,22.6 460.0,16.3 470.0,11.2 480.0,7.4 490.0,5.0 500.0,3.8 510.0,3.8 520.0,5.0 530.0,7.4 540.0,10.7 550.0,14.9 560.0,19.9 570.0,25.5 580.0,31.6 590.0,38.1 600.0,44.7 610.0,51.4 620.0,58.0 630.0,64.4 640.0,70.5 650.0,76.1 660.0,81.2 670.0,85.7 680.0,89.6 690.0,92.8 700.0,95.2 710.0,97.0 720.0,98.2 730.0,98.7 740.0,98.6 750.0,98.1 760.0,97.3 770.0,96.2 780.0,94.9 790.0,93.7 800.0,92.5 810.0,91.6 820.0,91.1 830.0,91.1 840.0,91.7 850.0,93.1 860.0,95.2 870.0,98.2 880.0,102.1 890.0,107.1 900.0,113.0 910.0,119.9 920.0,127.7 930.0,136.5 940.0,146.1 950.0,156.4 960.0,167.4 970.0,179.0 980.0,190.9 990.0,203.0 1000.0,215.3 1010.0,227.4 1020.0,239.4 1030.0,250.9 1040.0,261.8 1050.0,272.1 1060.0,281.5 1070.0,289.9 1080.0,297.2 1090.0,303.3 1100.0,308.1 1110.0,311.6 1120.0,313.8 1130.0,314.6 1140.0,314.0 1150.0,312.1 1160.0,308.9 1170.0,304.6 1180.0,299.1 1190.0,292.7 1200.0,285.3 1210.0,277.3 1220.0,268.7 1230.0,259.6 1240.0,250.3 1250.0,240.9 1260.0,231.5 1270.0,222.2 1280.0,213.3" fill="none" stroke="#3f3d56" stroke-width="1.4" opacity="0.23"/><path d="M 0.0,720.0 L 0.0,272.5 L 10.0,270.4 L 20.0,268.7 L 30.0,267.4 L 40.0,266.6 L 50.0,266.0 L 60.0,265.9 L 70.0,266.1 L 80.0,266.5 L 90.0,267.0 L 100.0,267.6 L 110.0,268.1 L 120.0,268.4 L 130.0,268.4 L 140.0,268.0 L 150.0,267.0 L 160.0,265.3 L 170.0,262.9 L 180.0,259.6 L 190.0,255.3 L 200.0,250.1 L 210.0,243.9 L 220.0,236.6 L 230.0,228.4 L 240.0,219.2 L 250.0,209.1 L 260.0,198.2 L 270.0,186.7 L 280.0,174.7 L 290.0,162.3 L 300.0,149.7 L 310.0,137.2 L 320.0,124.8 L 330.0,112.8 L 340.0,101.4 L 350.0,90.8 L 360.0,81.2 L 370.0,72.8 L 380.0,65.6 L 390.0,59.9 L 400.0,55.7 L 410.0,53.2 L 420.0,52.3 L 430.0,53.2 L 440.0,55.8 L 450.0,60.1 L 460.0,66.1 L 470.0,73.6 L 480.0,82.5 L 490.0,92.7 L 500.0,104.0 L 510.0,116.3 L 520.0,129.4 L 530.0,143.0 L 540.0,157.0 L 550.0,171.1 L 560.0,185.1 L 570.0,198.8 L 580.0,212.2 L 590.0,224.8 L 600.0,236.7 L 610.0,247.7 L 620.0,257.6 L 630.0,266.4 L 640.0,274.0 L 650.0,280.4 L 660.0,285.6 L 670.0,289.5 L 680.0,292.3 L 690.0,294.1 L 700.0,294.8 L 710.0,294.6 L 720.0,293.6 L 730.0,291.9 L 740.0,289.8 L 750.0,287.2 L 760.0,284.4 L 770.0,281.5 L 780.0,278.5 L 790.0,275.7 L 800.0,273.1 L 810.0,270.8 L 820.0,268.9 L 830.0,267.3 L 840.0,266.1 L 850.0,265.3 L 860.0,264.9 L 870.0,264.9 L 880.0,265.1 L 890.0,265.4 L 900.0,265.8 L 910.0,266.2 L 920.0,266.5 L 930.0,266.5 L 940.0,266.0 L 950.0,265.1 L 960.0,263.5 L 970.0,261.1 L 980.0,258.0 L 990.0,253.9 L 1000.0,248.9 L 1010.0,242.9 L 1020.0,235.8 L 1030.0,227.8 L 1040.0,218.8 L 1050.0,209.0 L 1060.0,198.4 L 1070.0,187.1 L 1080.0,175.2 L 1090.0,163.0 L 1100.0,150.6 L 1110.0,138.1 L 1120.0,125.9 L 1130.0,113.9 L 1140.0,102.6 L 1150.0,92.0 L 1160.0,82.3 L 1170.0,73.8 L 1180.0,66.5 L 1190.0,60.6 L 1200.0,56.3 L 1210.0,53.6 L 1220.0,52.6 L 1230.0,53.3 L 1240.0,55.7 L 1250.0,59.8 L 1260.0,65.6 L 1270.0,73.0 L 1280.0,81.7 L 1280.0,720.0 Z" fill="#3f3d56" opacity="0.2"/><polyline points="0.0,272.5 10.0,270.4 20.0,268.7 30.0,267.4 40.0,266.6 50.0,266.0 60.0,265.9 70.0,266.1 80.0,266.5 90.0,267.0 100.0,267.6 110.0,268.1 120.0,268.4 130.0,268.4 140.0,268.0 150.0,267.0 160.0,265.3 170.0,262.9 180.0,259.6 190.0,255.3 200.0,250.1 210.0,243.9 220.0,236.6 230.0,228.4 240.0,219.2 250.0,209.1 260.0,198.2 270.0,186.7 280.0,174.7 290.0,162.3 300.0,149.7 310.0,137.2 320.0,124.8 330.0,112.8 340.0,101.4 350.0,90.8 360.0,81.2 370.0,72.8 380.0,65.6 390.0,59.9 400.0,55.7 410.0,53.2 420.0,52.3 430.0,53.2 440.0,55.8 450.0,60.1 460.0,66.1 470.0,73.6 480.0,82.5 490.0,92.7 500.0,104.0 510.0,116.3 520.0,129.4 530.0,143.0 540.0,157.0 550.0,171.1 560.0,185.1 570.0,198.8 580.0,212.2 590.0,224.8 600.0,236.7 610.0,247.7 620.0,257.6 630.0,266.4 640.0,274.0 650.0,280.4 660.0,285.6 670.0,289.5 680.0,292.3 690.0,294.1 700.0,294.8 710.0,294.6 720.0,293.6 730.0,291.9 740.0,289.8 750.0,287.2 760.0,284.4 770.0,281.5 780.0,278.5 790.0,275.7 800.0,273.1 810.0,270.8 820.0,268.9 830.0,267.3 840.0,266.1 850.0,265.3 860.0,264.9 870.0,264.9 880.0,265.1 890.0,265.4 900.0,265.8 910.0,266.2 920.0,266.5 930.0,266.5 940.0,266.0 950.0,265.1 960.0,263.5 970.0,261.1 980.0,258.0 990.0,253.9 1000.0,248.9 1010.0,242.9 1020.0,235.8 1030.0,227.8 1040.0,218.8 1050.0,209.0 1060.0,198.4 1070.0,187.1 1080.0,175.2 1090.0,163.0 1100.0,150.6 1110.0,138.1 1120.0,125.9 1130.0,113.9 1140.0,102.6 1150.0,92.0 1160.0,82.3 1170.0,73.8 1180.0,66.5 1190.0,60.6 1200.0,56.3 1210.0,53.6 1220.0,52.6 1230.0,53.3 1240.0,55.7 1250.0,59.8 1260.0,65.6 1270.0,73.0 1280.0,81.7" fill="none" stroke="#3f3d56" stroke-width="1.4" opacity="0.21"/><path d="M 0.0,720.0 L 0.0,254.6 L 10.0,242.8 L 20.0,231.3 L 30.0,220.4 L 40.0,210.2 L 50.0,200.9 L 60.0,192.7 L 70.0,185.8 L 80.0,180.2 L 90.0,176.0 L 100.0,173.2 L 110.0,171.8 L 120.0,171.6 L 130.0,172.6 L 140.0,174.6 L 150.0,177.4 L 160.0,180.9 L 170.0,184.7 L 180.0,188.7 L 190.0,192.7 L 200.0,196.4 L 210.0,199.7 L 220.0,202.2 L 230.0,203.9 L 240.0,204.7 L 250.0,204.5 L 260.0,203.2 L 270.0,200.8 L 280.0,197.3 L 290.0,192.9 L 300.0,187.7 L 310.0,181.8 L 320.0,175.4 L 330.0,168.7 L 340.0,162.0 L 350.0,155.4 L 360.0,149.2 L 370.0,143.7 L 380.0,139.0 L 390.0,135.4 L 400.0,133.0 L 410.0,131.9 L 420.0,132.3 L 430.0,134.1 L 440.0,137.5 L 450.0,142.3 L 460.0,148.5 L 470.0,155.9 L 480.0,164.5 L 490.0,173.9 L 500.0,184.1 L 510.0,194.8 L 520.0,205.7 L 530.0,216.6 L 540.0,227.2 L 550.0,237.4 L 560.0,246.9 L 570.0,255.5 L 580.0,263.1 L 590.0,269.5 L 600.0,274.7 L 610.0,278.7 L 620.0,281.5 L 630.0,283.0 L 640.0,283.5 L 650.0,283.0 L 660.0,281.7 L 670.0,279.8 L 680.0,277.5 L 690.0,275.0 L 700.0,272.5 L 710.0,270.4 L 720.0,268.7 L 730.0,267.7 L 740.0,267.5 L 750.0,268.3 L 760.0,270.2 L 770.0,273.3 L 780.0,277.5 L 790.0,282.8 L 800.0,289.3 L 810.0,296.7 L 820.0,305.0 L 830.0,313.9 L 840.0,323.3 L 850.0,332.9 L 860.0,342.6 L 870.0,351.9 L 880.0,360.8 L 890.0,369.0 L 900.0,376.3 L 910.0,382.4 L 920.0,387.3 L 930.0,390.8 L 940.0,392.8 L 950.0,393.2 L 960.0,392.2 L 970.0,389.7 L 980.0,385.8 L 990.0,380.6 L 1000.0,374.4 L 1010.0,367.2 L 1020.0,359.4 L 1030.0,351.1 L 1040.0,342.6 L 1050.0,334.1 L 1060.0,325.9 L 1070.0,318.1 L 1080.0,311.1 L 1090.0,304.8 L 1100.0,299.5 L 1110.0,295.3 L 1120.0,292.2 L 1130.0,290.2 L 1140.0,289.3 L 1150.0,289.4 L 1160.0,290.4 L 1170.0,292.2 L 1180.0,294.6 L 1190.0,297.3 L 1200.0,300.3 L 1210.0,303.1 L 1220.0,305.7 L 1230.0,307.7 L 1240.0,309.1 L 1250.0,309.5 L 1260.0,308.9 L 1270.0,307.2 L 1280.0,304.1 L 1280.0,720.0 Z" fill="#3f3d56" opacity="0.27"/><polyline points="0.0,254.6 10.0,242.8 20.0,231.3 30.0,220.4 40.0,210.2 50.0,200.9 60.0,192.7 70.0,185.8 80.0,180.2 90.0,176.0 100.0,173.2 110.0,171.8 120.0,171.6 130.0,172.6 140.0,174.6 150.0,177.4 160.0,180.9 170.0,184.7 180.0,188.7 190.0,192.7 200.0,196.4 210.0,199.7 220.0,202.2 230.0,203.9 240.0,204.7 250.0,204.5 260.0,203.2 270.0,200.8 280.0,197.3 290.0,192.9 300.0,187.7 310.0,181.8 320.0,175.4 330.0,168.7 340.0,162.0 350.0,155.4 360.0,149.2 370.0,143.7 380.0,139.0 390.0,135.4 400.0,133.0 410.0,131.9 420.0,132.3 430.0,134.1 440.0,137.5 450.0,142.3 460.0,148.5 470.0,155.9 480.0,164.5 490.0,173.9 500.0,184.1 510.0,194.8 520.0,205.7 530.0,216.6 540.0,227.2 550.0,237.4 560.0,246.9 570.0,255.5 580.0,263.1 590.0,269.5 600.0,274.7 610.0,278.7 620.0,281.5 630.0,283.0 640.0,283.5 650.0,283.0 660.0,281.7 670.0,279.8 680.0,277.5 690.0,275.0 700.0,272.5 710.0,270.4 720.0,268.7 730.0,267.7 740.0,267.5 750.0,268.3 760.0,270.2 770.0,273.3 780.0,277.5 790.0,282.8 800.0,289.3 810.0,296.7 820.0,305.0 830.0,313.9 840.0,323.3 850.0,332.9 860.0,342.6 870.0,351.9 880.0,360.8 890.0,369.0 900.0,376.3 910.0,382.4 920.0,387.3 930.0,390.8 940.0,392.8 950.0,393.2 960.0,392.2 970.0,389.7 980.0,385.8 990.0,380.6 1000.0,374.4 1010.0,367.2 1020.0,359.4 1030.0,351.1 1040.0,342.6 1050.0,334.1 1060.0,325.9 1070.0,318.1 1080.0,311.1 1090.0,304.8 1100.0,299.5 1110.0,295.3 1120.0,292.2 1130.0,290.2 1140.0,289.3 1150.0,289.4 1160.0,290.4 1170.0,292.2 1180.0,294.6 1190.0,297.3 1200.0,300.3 1210.0,303.1 1220.0,305.7 1230.0,307.7 1240.0,309.1 1250.0,309.5 1260.0,308.9 1270.0,307.2 1280.0,304.1" fill="none" stroke="#3f3d56" stroke-width="1.4" opacity="0.18"/><path d="M 0.0,720.0 L 0.0,297.5 L 10.0,288.4 L 20.0,279.5 L 30.0,270.9 L 40.0,262.8 L 50.0,255.3 L 60.0,248.4 L 70.0,242.3 L 80.0,237.0 L 90.0,232.5 L 100.0,228.8 L 110.0,226.0 L 120.0,224.1 L 130.0,223.0 L 140.0,222.7 L 150.0,223.1 L 160.0,224.2 L 170.0,226.0 L 180.0,228.2 L 190.0,230.9 L 200.0,233.8 L 210.0,237.0 L 220.0,240.3 L 230.0,243.6 L 240.0,246.8 L 250.0,249.8 L 260.0,252.5 L 270.0,254.9 L 280.0,256.8 L 290.0,258.3 L 300.0,259.2 L 310.0,259.6 L 320.0,259.5 L 330.0,258.9 L 340.0,257.7 L 350.0,256.1 L 360.0,254.0 L 370.0,251.6 L 380.0,249.0 L 390.0,246.2 L 400.0,243.2 L 410.0,240.3 L 420.0,237.6 L 430.0,235.0 L 440.0,232.8 L 450.0,231.0 L 460.0,229.7 L 470.0,229.1 L 480.0,229.1 L 490.0,229.8 L 500.0,231.4 L 510.0,233.8 L 520.0,237.0 L 530.0,241.0 L 540.0,245.9 L 550.0,251.6 L 560.0,258.1 L 570.0,265.2 L 580.0,273.0 L 590.0,281.3 L 600.0,290.0 L 610.0,299.0 L 620.0,308.3 L 630.0,317.6 L 640.0,326.9 L 650.0,336.1 L 660.0,344.9 L 670.0,353.4 L 680.0,361.4 L 690.0,368.8 L 700.0,375.6 L 710.0,381.6 L 720.0,386.8 L 730.0,391.2 L 740.0,394.7 L 750.0,397.4 L 760.0,399.2 L 770.0,400.2 L 780.0,400.4 L 790.0,399.8 L 800.0,398.6 L 810.0,396.7 L 820.0,394.4 L 830.0,391.7 L 840.0,388.6 L 850.0,385.4 L 860.0,382.1 L 870.0,378.7 L 880.0,375.5 L 890.0,372.5 L 900.0,369.8 L 910.0,367.5 L 920.0,365.6 L 930.0,364.1 L 940.0,363.2 L 950.0,362.8 L 960.0,363.0 L 970.0,363.6 L 980.0,364.8 L 990.0,366.5 L 1000.0,368.5 L 1010.0,370.9 L 1020.0,373.6 L 1030.0,376.4 L 1040.0,379.3 L 1050.0,382.1 L 1060.0,384.8 L 1070.0,387.3 L 1080.0,389.5 L 1090.0,391.2 L 1100.0,392.3 L 1110.0,392.9 L 1120.0,392.8 L 1130.0,391.9 L 1140.0,390.2 L 1150.0,387.7 L 1160.0,384.4 L 1170.0,380.2 L 1180.0,375.2 L 1190.0,369.3 L 1200.0,362.8 L 1210.0,355.5 L 1220.0,347.7 L 1230.0,339.4 L 1240.0,330.6 L 1250.0,321.5 L 1260.0,312.2 L 1270.0,302.9 L 1280.0,293.6 L 1280.0,720.0 Z" fill="#3f3d56" opacity="0.34"/><polyline points="0.0,297.5 10.0,288.4 20.0,279.5 30.0,270.9 40.0,262.8 50.0,255.3 60.0,248.4 70.0,242.3 80.0,237.0 90.0,232.5 100.0,228.8 110.0,226.0 120.0,224.1 130.0,223.0 140.0,222.7 150.0,223.1 160.0,224.2 170.0,226.0 180.0,228.2 190.0,230.9 200.0,233.8 210.0,237.0 220.0,240.3 230.0,243.6 240.0,246.8 250.0,249.8 260.0,252.5 270.0,254.9 280.0,256.8 290.0,258.3 300.0,259.2 310.0,259.6 320.0,259.5 330.0,258.9 340.0,257.7 350.0,256.1 360.0,254.0 370.0,251.6 380.0,249.0 390.0,246.2 400.0,243.2 410.0,240.3 420.0,237.6 430.0,235.0 440.0,232.8 450.0,231.0 460.0,229.7 470.0,229.1 480.0,229.1 490.0,229.8 500.0,231.4 510.0,233.8 520.0,237.0 530.0,241.0 540.0,245.9 550.0,251.6 560.0,258.1 570.0,265.2 580.0,273.0 590.0,281.3 600.0,290.0 610.0,299.0 620.0,308.3 630.0,317.6 640.0,326.9 650.0,336.1 660.0,344.9 670.0,353.4 680.0,361.4 690.0,368.8 700.0,375.6 710.0,381.6 720.0,386.8 730.0,391.2 740.0,394.7 750.0,397.4 760.0,399.2 770.0,400.2 780.0,400.4 790.0,399.8 800.0,398.6 810.0,396.7 820.0,394.4 830.0,391.7 840.0,388.6 850.0,385.4 860.0,382.1 870.0,378.7 880.0,375.5 890.0,372.5 900.0,369.8 910.0,367.5 920.0,365.6 930.0,364.1 940.0,363.2 950.0,362.8 960.0,363.0 970.0,363.6 980.0,364.8 990.0,366.5 1000.0,368.5 1010.0,370.9 1020.0,373.6 1030.0,376.4 1040.0,379.3 1050.0,382.1 1060.0,384.8 1070.0,387.3 1080.0,389.5 1090.0,391.2 1100.0,392.3 1110.0,392.9 1120.0,392.8 1130.0,391.9 1140.0,390.2 1150.0,387.7 1160.0,384.4 1170.0,380.2 1180.0,375.2 1190.0,369.3 1200.0,362.8 1210.0,355.5 1220.0,347.7 1230.0,339.4 1240.0,330.6 1250.0,321.5 1260.0,312.2 1270.0,302.9 1280.0,293.6" fill="none" stroke="#3f3d56" stroke-width="1.4" opacity="0.16"/><path d="M 0.0,720.0 L 0.0,328.1 L 10.0,321.2 L 20.0,314.8 L 30.0,308.8 L 40.0,303.4 L 50.0,298.5 L 60.0,294.2 L 70.0,290.6 L 80.0,287.7 L 90.0,285.5 L 100.0,283.9 L 110.0,283.0 L 120.0,282.7 L 130.0,283.1 L 140.0,284.0 L 150.0,285.4 L 160.0,287.2 L 170.0,289.5 L 180.0,292.0 L 190.0,294.8 L 200.0,297.8 L 210.0,300.8 L 220.0,303.8 L 230.0,306.8 L 240.0,309.6 L 250.0,312.3 L 260.0,314.7 L 270.0,316.7 L 280.0,318.4 L 290.0,319.8 L 300.0,320.7 L 310.0,321.2 L 320.0,321.3 L 330.0,321.0 L 340.0,320.3 L 350.0,319.3 L 360.0,318.0 L 370.0,316.4 L 380.0,314.6 L 390.0,312.6 L 400.0,310.6 L 410.0,308.6 L 420.0,306.6 L 430.0,304.8 L 440.0,303.2 L 450.0,301.9 L 460.0,301.0 L 470.0,300.5 L 480.0,300.5 L 490.0,301.0 L 500.0,302.1 L 510.0,303.8 L 520.0,306.1 L 530.0,309.1 L 540.0,312.7 L 550.0,316.9 L 560.0,321.7 L 570.0,327.1 L 580.0,333.0 L 590.0,339.3 L 600.0,346.1 L 610.0,353.2 L 620.0,360.5 L 630.0,368.1 L 640.0,375.7 L 650.0,383.3 L 660.0,390.8 L 670.0,398.1 L 680.0,405.2 L 690.0,412.0 L 700.0,418.3 L 710.0,424.2 L 720.0,429.6 L 730.0,434.3 L 740.0,438.4 L 750.0,441.9 L 760.0,444.7 L 770.0,446.7 L 780.0,448.2 L 790.0,448.9 L 800.0,449.0 L 810.0,448.5 L 820.0,447.4 L 830.0,445.9 L 840.0,443.9 L 850.0,441.5 L 860.0,438.8 L 870.0,435.8 L 880.0,432.8 L 890.0,429.6 L 900.0,426.4 L 910.0,423.3 L 920.0,420.4 L 930.0,417.7 L 940.0,415.2 L 950.0,413.0 L 960.0,411.2 L 970.0,409.8 L 980.0,408.8 L 990.0,408.2 L 1000.0,408.0 L 1010.0,408.2 L 1020.0,408.8 L 1030.0,409.7 L 1040.0,411.0 L 1050.0,412.5 L 1060.0,414.2 L 1070.0,416.1 L 1080.0,418.0 L 1090.0,419.9 L 1100.0,421.7 L 1110.0,423.4 L 1120.0,424.9 L 1130.0,426.1 L 1140.0,426.9 L 1150.0,427.2 L 1160.0,427.1 L 1170.0,426.5 L 1180.0,425.3 L 1190.0,423.5 L 1200.0,421.0 L 1210.0,418.0 L 1220.0,414.3 L 1230.0,410.0 L 1240.0,405.1 L 1250.0,399.6 L 1260.0,393.7 L 1270.0,387.2 L 1280.0,380.4 L 1280.0,720.0 Z" fill="#3f3d56" opacity="0.42"/><polyline points="0.0,328.1 10.0,321.2 20.0,314.8 30.0,308.8 40.0,303.4 50.0,298.5 60.0,294.2 70.0,290.6 80.0,287.7 90.0,285.5 100.0,283.9 110.0,283.0 120.0,282.7 130.0,283.1 140.0,284.0 150.0,285.4 160.0,287.2 170.0,289.5 180.0,292.0 190.0,294.8 200.0,297.8 210.0,300.8 220.0,303.8 230.0,306.8 240.0,309.6 250.0,312.3 260.0,314.7 270.0,316.7 280.0,318.4 290.0,319.8 300.0,320.7 310.0,321.2 320.0,321.3 330.0,321.0 340.0,320.3 350.0,319.3 360.0,318.0 370.0,316.4 380.0,314.6 390.0,312.6 400.0,310.6 410.0,308.6 420.0,306.6 430.0,304.8 440.0,303.2 450.0,301.9 460.0,301.0 470.0,300.5 480.0,300.5 490.0,301.0 500.0,302.1 510.0,303.8 520.0,306.1 530.0,309.1 540.0,312.7 550.0,316.9 560.0,321.7 570.0,327.1 580.0,333.0 590.0,339.3 600.0,346.1 610.0,353.2 620.0,360.5 630.0,368.1 640.0,375.7 650.0,383.3 660.0,390.8 670.0,398.1 680.0,405.2 690.0,412.0 700.0,418.3 710.0,424.2 720.0,429.6 730.0,434.3 740.0,438.4 750.0,441.9 760.0,444.7 770.0,446.7 780.0,448.2 790.0,448.9 800.0,449.0 810.0,448.5 820.0,447.4 830.0,445.9 840.0,443.9 850.0,441.5 860.0,438.8 870.0,435.8 880.0,432.8 890.0,429.6 900.0,426.4 910.0,423.3 920.0,420.4 930.0,417.7 940.0,415.2 950.0,413.0 960.0,411.2 970.0,409.8 980.0,408.8 990.0,408.2 1000.0,408.0 1010.0,408.2 1020.0,408.8 1030.0,409.7 1040.0,411.0 1050.0,412.5 1060.0,414.2 1070.0,416.1 1080.0,418.0 1090.0,419.9 1100.0,421.7 1110.0,423.4 1120.0,424.9 1130.0,426.1 1140.0,426.9 1150.0,427.2 1160.0,427.1 1170.0,426.5 1180.0,425.3 1190.0,423.5 1200.0,421.0 1210.0,418.0 1220.0,414.3 1230.0,410.0 1240.0,405.1 1250.0,399.6 1260.0,393.7 1270.0,387.2 1280.0,380.4" fill="none" stroke="#3f3d56" stroke-width="1.4" opacity="0.14"/><path d="M 0.0,720.0 L 0.0,460.8 L 10.0,459.5 L 20.0,458.5 L 30.0,457.7 L 40.0,457.2 L 50.0,456.9 L 60.0,456.9 L 70.0,457.2 L 80.0,457.8 L 90.0,458.6 L 100.0,459.6 L 110.0,460.8 L 120.0,462.2 L 130.0,463.6 L 140.0,465.1 L 150.0,466.6 L 160.0,468.1 L 170.0,469.4 L 180.0,470.6 L 190.0,471.6 L 200.0,472.3 L 210.0,472.7 L 220.0,472.8 L 230.0,472.4 L 240.0,471.6 L 250.0,470.4 L 260.0,468.6 L 270.0,466.4 L 280.0,463.6 L 290.0,460.4 L 300.0,456.6 L 310.0,452.4 L 320.0,447.7 L 330.0,442.6 L 340.0,437.1 L 350.0,431.3 L 360.0,425.2 L 370.0,418.8 L 380.0,412.4 L 390.0,405.8 L 400.0,399.2 L 410.0,392.7 L 420.0,386.2 L 430.0,380.0 L 440.0,374.0 L 450.0,368.3 L 460.0,363.0 L 470.0,358.1 L 480.0,353.7 L 490.0,349.8 L 500.0,346.4 L 510.0,343.6 L 520.0,341.4 L 530.0,339.8 L 540.0,338.7 L 550.0,338.3 L 560.0,338.4 L 570.0,339.1 L 580.0,340.4 L 590.0,342.0 L 600.0,344.2 L 610.0,346.7 L 620.0,349.5 L 630.0,352.7 L 640.0,356.0 L 650.0,359.5 L 660.0,363.1 L 670.0,366.7 L 680.0,370.4 L 690.0,373.9 L 700.0,377.3 L 710.0,380.6 L 720.0,383.6 L 730.0,386.4 L 740.0,388.9 L 750.0,391.1 L 760.0,393.1 L 770.0,394.7 L 780.0,396.0 L 790.0,397.0 L 800.0,397.7 L 810.0,398.1 L 820.0,398.4 L 830.0,398.4 L 840.0,398.3 L 850.0,398.1 L 860.0,397.8 L 870.0,397.5 L 880.0,397.3 L 890.0,397.2 L 900.0,397.2 L 910.0,397.4 L 920.0,397.9 L 930.0,398.6 L 940.0,399.7 L 950.0,401.1 L 960.0,402.9 L 970.0,405.1 L 980.0,407.7 L 990.0,410.7 L 1000.0,414.1 L 1010.0,417.9 L 1020.0,422.1 L 1030.0,426.6 L 1040.0,431.4 L 1050.0,436.5 L 1060.0,441.8 L 1070.0,447.3 L 1080.0,452.9 L 1090.0,458.5 L 1100.0,464.2 L 1110.0,469.7 L 1120.0,475.1 L 1130.0,480.2 L 1140.0,485.1 L 1150.0,489.6 L 1160.0,493.8 L 1170.0,497.5 L 1180.0,500.7 L 1190.0,503.3 L 1200.0,505.4 L 1210.0,506.8 L 1220.0,507.7 L 1230.0,507.9 L 1240.0,507.5 L 1250.0,506.5 L 1260.0,504.9 L 1270.0,502.7 L 1280.0,499.9 L 1280.0,720.0 Z" fill="#3f3d56" opacity="0.51"/><polyline points="0.0,460.8 10.0,459.5 20.0,458.5 30.0,457.7 40.0,457.2 50.0,456.9 60.0,456.9 70.0,457.2 80.0,457.8 90.0,458.6 100.0,459.6 110.0,460.8 120.0,462.2 130.0,463.6 140.0,465.1 150.0,466.6 160.0,468.1 170.0,469.4 180.0,470.6 190.0,471.6 200.0,472.3 210.0,472.7 220.0,472.8 230.0,472.4 240.0,471.6 250.0,470.4 260.0,468.6 270.0,466.4 280.0,463.6 290.0,460.4 300.0,456.6 310.0,452.4 320.0,447.7 330.0,442.6 340.0,437.1 350.0,431.3 360.0,425.2 370.0,418.8 380.0,412.4 390.0,405.8 400.0,399.2 410.0,392.7 420.0,386.2 430.0,380.0 440.0,374.0 450.0,368.3 460.0,363.0 470.0,358.1 480.0,353.7 490.0,349.8 500.0,346.4 510.0,343.6 520.0,341.4 530.0,339.8 540.0,338.7 550.0,338.3 560.0,338.4 570.0,339.1 580.0,340.4 590.0,342.0 600.0,344.2 610.0,346.7 620.0,349.5 630.0,352.7 640.0,356.0 650.0,359.5 660.0,363.1 670.0,366.7 680.0,370.4 690.0,373.9 700.0,377.3 710.0,380.6 720.0,383.6 730.0,386.4 740.0,388.9 750.0,391.1 760.0,393.1 770.0,394.7 780.0,396.0 790.0,397.0 800.0,397.7 810.0,398.1 820.0,398.4 830.0,398.4 840.0,398.3 850.0,398.1 860.0,397.8 870.0,397.5 880.0,397.3 890.0,397.2 900.0,397.2 910.0,397.4 920.0,397.9 930.0,398.6 940.0,399.7 950.0,401.1 960.0,402.9 970.0,405.1 980.0,407.7 990.0,410.7 1000.0,414.1 1010.0,417.9 1020.0,422.1 1030.0,426.6 1040.0,431.4 1050.0,436.5 1060.0,441.8 1070.0,447.3 1080.0,452.9 1090.0,458.5 1100.0,464.2 1110.0,469.7 1120.0,475.1 1130.0,480.2 1140.0,485.1 1150.0,489.6 1160.0,493.8 1170.0,497.5 1180.0,500.7 1190.0,503.3 1200.0,505.4 1210.0,506.8 1220.0,507.7 1230.0,507.9 1240.0,507.5 1250.0,506.5 1260.0,504.9 1270.0,502.7 1280.0,499.9" fill="none" stroke="#3f3d56" stroke-width="1.4" opacity="0.12"/><path d="M 0.0,720.0 L 0.0,430.4 L 10.0,426.9 L 20.0,423.7 L 30.0,420.9 L 40.0,418.5 L 50.0,416.5 L 60.0,414.9 L 70.0,413.7 L 80.0,413.0 L 90.0,412.7 L 100.0,412.8 L 110.0,413.2 L 120.0,414.0 L 130.0,415.1 L 140.0,416.5 L 150.0,418.1 L 160.0,419.9 L 170.0,421.8 L 180.0,423.9 L 190.0,426.0 L 200.0,428.2 L 210.0,430.3 L 220.0,432.3 L 230.0,434.2 L 240.0,436.0 L 250.0,437.5 L 260.0,438.9 L 270.0,440.0 L 280.0,440.9 L 290.0,441.5 L 300.0,441.8 L 310.0,441.8 L 320.0,441.6 L 330.0,441.1 L 340.0,440.4 L 350.0,439.5 L 360.0,438.4 L 370.0,437.1 L 380.0,435.7 L 390.0,434.2 L 400.0,432.7 L 410.0,431.2 L 420.0,429.7 L 430.0,428.3 L 440.0,427.1 L 450.0,426.1 L 460.0,425.3 L 470.0,424.7 L 480.0,424.5 L 490.0,424.6 L 500.0,425.0 L 510.0,425.8 L 520.0,427.0 L 530.0,428.7 L 540.0,430.7 L 550.0,433.1 L 560.0,435.8 L 570.0,439.0 L 580.0,442.5 L 590.0,446.3 L 600.0,450.4 L 610.0,454.8 L 620.0,459.3 L 630.0,464.0 L 640.0,468.9 L 650.0,473.8 L 660.0,478.7 L 670.0,483.5 L 680.0,488.3 L 690.0,492.9 L 700.0,497.3 L 710.0,501.5 L 720.0,505.5 L 730.0,509.1 L 740.0,512.4 L 750.0,515.3 L 760.0,517.8 L 770.0,520.0 L 780.0,521.7 L 790.0,523.0 L 800.0,524.0 L 810.0,524.5 L 820.0,524.7 L 830.0,524.5 L 840.0,523.9 L 850.0,523.1 L 860.0,522.1 L 870.0,520.8 L 880.0,519.3 L 890.0,517.7 L 900.0,516.1 L 910.0,514.4 L 920.0,512.7 L 930.0,511.0 L 940.0,509.5 L 950.0,508.0 L 960.0,506.8 L 970.0,505.7 L 980.0,504.9 L 990.0,504.3 L 1000.0,504.0 L 1010.0,503.9 L 1020.0,504.1 L 1030.0,504.6 L 1040.0,505.4 L 1050.0,506.4 L 1060.0,507.6 L 1070.0,509.0 L 1080.0,510.7 L 1090.0,512.4 L 1100.0,514.3 L 1110.0,516.2 L 1120.0,518.1 L 1130.0,520.0 L 1140.0,521.8 L 1150.0,523.5 L 1160.0,525.1 L 1170.0,526.4 L 1180.0,527.5 L 1190.0,528.3 L 1200.0,528.7 L 1210.0,528.9 L 1220.0,528.6 L 1230.0,527.9 L 1240.0,526.9 L 1250.0,525.4 L 1260.0,523.5 L 1270.0,521.2 L 1280.0,518.5 L 1280.0,720.0 Z" fill="#3f3d56" opacity="0.61"/><polyline points="0.0,430.4 10.0,426.9 20.0,423.7 30.0,420.9 40.0,418.5 50.0,416.5 60.0,414.9 70.0,413.7 80.0,413.0 90.0,412.7 100.0,412.8 110.0,413.2 120.0,414.0 130.0,415.1 140.0,416.5 150.0,418.1 160.0,419.9 170.0,421.8 180.0,423.9 190.0,426.0 200.0,428.2 210.0,430.3 220.0,432.3 230.0,434.2 240.0,436.0 250.0,437.5 260.0,438.9 270.0,440.0 280.0,440.9 290.0,441.5 300.0,441.8 310.0,441.8 320.0,441.6 330.0,441.1 340.0,440.4 350.0,439.5 360.0,438.4 370.0,437.1 380.0,435.7 390.0,434.2 400.0,432.7 410.0,431.2 420.0,429.7 430.0,428.3 440.0,427.1 450.0,426.1 460.0,425.3 470.0,424.7 480.0,424.5 490.0,424.6 500.0,425.0 510.0,425.8 520.0,427.0 530.0,428.7 540.0,430.7 550.0,433.1 560.0,435.8 570.0,439.0 580.0,442.5 590.0,446.3 600.0,450.4 610.0,454.8 620.0,459.3 630.0,464.0 640.0,468.9 650.0,473.8 660.0,478.7 670.0,483.5 680.0,488.3 690.0,492.9 700.0,497.3 710.0,501.5 720.0,505.5 730.0,509.1 740.0,512.4 750.0,515.3 760.0,517.8 770.0,520.0 780.0,521.7 790.0,523.0 800.0,524.0 810.0,524.5 820.0,524.7 830.0,524.5 840.0,523.9 850.0,523.1 860.0,522.1 870.0,520.8 880.0,519.3 890.0,517.7 900.0,516.1 910.0,514.4 920.0,512.7 930.0,511.0 940.0,509.5 950.0,508.0 960.0,506.8 970.0,505.7 980.0,504.9 990.0,504.3 1000.0,504.0 1010.0,503.9 1020.0,504.1 1030.0,504.6 1040.0,505.4 1050.0,506.4 1060.0,507.6 1070.0,509.0 1080.0,510.7 1090.0,512.4 1100.0,514.3 1110.0,516.2 1120.0,518.1 1130.0,520.0 1140.0,521.8 1150.0,523.5 1160.0,525.1 1170.0,526.4 1180.0,527.5 1190.0,528.3 1200.0,528.7 1210.0,528.9 1220.0,528.6 1230.0,527.9 1240.0,526.9 1250.0,525.4 1260.0,523.5 1270.0,521.2 1280.0,518.5" fill="none" stroke="#3f3d56" stroke-width="1.4" opacity="0.10"/><path d="M 0.0,720.0 L 0.0,530.4 L 10.0,532.7 L 20.0,534.7 L 30.0,536.5 L 40.0,537.9 L 50.0,539.1 L 60.0,540.0 L 70.0,540.6 L 80.0,541.1 L 90.0,541.3 L 100.0,541.3 L 110.0,541.2 L 120.0,541.1 L 130.0,540.8 L 140.0,540.6 L 150.0,540.3 L 160.0,540.1 L 170.0,540.0 L 180.0,540.0 L 190.0,540.1 L 200.0,540.5 L 210.0,541.0 L 220.0,541.7 L 230.0,542.6 L 240.0,543.8 L 250.0,545.2 L 260.0,546.8 L 270.0,548.6 L 280.0,550.6 L 290.0,552.7 L 300.0,555.0 L 310.0,557.3 L 320.0,559.8 L 330.0,562.2 L 340.0,564.6 L 350.0,567.0 L 360.0,569.3 L 370.0,571.4 L 380.0,573.3 L 390.0,575.0 L 400.0,576.4 L 410.0,577.5 L 420.0,578.3 L 430.0,578.7 L 440.0,578.7 L 450.0,578.3 L 460.0,577.6 L 470.0,576.4 L 480.0,574.7 L 490.0,572.7 L 500.0,570.3 L 510.0,567.6 L 520.0,564.5 L 530.0,561.1 L 540.0,557.4 L 550.0,553.6 L 560.0,549.5 L 570.0,545.3 L 580.0,541.0 L 590.0,536.7 L 600.0,532.3 L 610.0,528.1 L 620.0,523.9 L 630.0,519.9 L 640.0,516.1 L 650.0,512.6 L 660.0,509.2 L 670.0,506.2 L 680.0,503.5 L 690.0,501.1 L 700.0,499.1 L 710.0,497.4 L 720.0,496.0 L 730.0,495.0 L 740.0,494.3 L 750.0,493.9 L 760.0,493.8 L 770.0,494.0 L 780.0,494.3 L 790.0,494.9 L 800.0,495.5 L 810.0,496.3 L 820.0,497.2 L 830.0,498.1 L 840.0,499.0 L 850.0,499.8 L 860.0,500.5 L 870.0,501.2 L 880.0,501.7 L 890.0,502.0 L 900.0,502.2 L 910.0,502.2 L 920.0,501.9 L 930.0,501.5 L 940.0,500.9 L 950.0,500.0 L 960.0,499.0 L 970.0,497.9 L 980.0,496.6 L 990.0,495.3 L 1000.0,493.8 L 1010.0,492.4 L 1020.0,490.9 L 1030.0,489.5 L 1040.0,488.2 L 1050.0,487.1 L 1060.0,486.1 L 1070.0,485.3 L 1080.0,484.7 L 1090.0,484.5 L 1100.0,484.5 L 1110.0,484.9 L 1120.0,485.7 L 1130.0,486.8 L 1140.0,488.2 L 1150.0,490.1 L 1160.0,492.3 L 1170.0,494.9 L 1180.0,497.8 L 1190.0,501.1 L 1200.0,504.6 L 1210.0,508.4 L 1220.0,512.4 L 1230.0,516.6 L 1240.0,521.0 L 1250.0,525.4 L 1260.0,529.8 L 1270.0,534.3 L 1280.0,538.7 L 1280.0,720.0 Z" fill="#3f3d56" opacity="0.73"/><polyline points="0.0,530.4 10.0,532.7 20.0,534.7 30.0,536.5 40.0,537.9 50.0,539.1 60.0,540.0 70.0,540.6 80.0,541.1 90.0,541.3 100.0,541.3 110.0,541.2 120.0,541.1 130.0,540.8 140.0,540.6 150.0,540.3 160.0,540.1 170.0,540.0 180.0,540.0 190.0,540.1 200.0,540.5 210.0,541.0 220.0,541.7 230.0,542.6 240.0,543.8 250.0,545.2 260.0,546.8 270.0,548.6 280.0,550.6 290.0,552.7 300.0,555.0 310.0,557.3 320.0,559.8 330.0,562.2 340.0,564.6 350.0,567.0 360.0,569.3 370.0,571.4 380.0,573.3 390.0,575.0 400.0,576.4 410.0,577.5 420.0,578.3 430.0,578.7 440.0,578.7 450.0,578.3 460.0,577.6 470.0,576.4 480.0,574.7 490.0,572.7 500.0,570.3 510.0,567.6 520.0,564.5 530.0,561.1 540.0,557.4 550.0,553.6 560.0,549.5 570.0,545.3 580.0,541.0 590.0,536.7 600.0,532.3 610.0,528.1 620.0,523.9 630.0,519.9 640.0,516.1 650.0,512.6 660.0,509.2 670.0,506.2 680.0,503.5 690.0,501.1 700.0,499.1 710.0,497.4 720.0,496.0 730.0,495.0 740.0,494.3 750.0,493.9 760.0,493.8 770.0,494.0 780.0,494.3 790.0,494.9 800.0,495.5 810.0,496.3 820.0,497.2 830.0,498.1 840.0,499.0 850.0,499.8 860.0,500.5 870.0,501.2 880.0,501.7 890.0,502.0 900.0,502.2 910.0,502.2 920.0,501.9 930.0,501.5 940.0,500.9 950.0,500.0 960.0,499.0 970.0,497.9 980.0,496.6 990.0,495.3 1000.0,493.8 1010.0,492.4 1020.0,490.9 1030.0,489.5 1040.0,488.2 1050.0,487.1 1060.0,486.1 1070.0,485.3 1080.0,484.7 1090.0,484.5 1100.0,484.5 1110.0,484.9 1120.0,485.7 1130.0,486.8 1140.0,488.2 1150.0,490.1 1160.0,492.3 1170.0,494.9 1180.0,497.8 1190.0,501.1 1200.0,504.6 1210.0,508.4 1220.0,512.4 1230.0,516.6 1240.0,521.0 1250.0,525.4 1260.0,529.8 1270.0,534.3 1280.0,538.7" fill="none" stroke="#3f3d56" stroke-width="1.4" opacity="0.07"/><path d="M 0.0,720.0 L 0.0,596.5 L 10.0,596.4 L 20.0,596.5 L 30.0,596.8 L 40.0,597.1 L 50.0,597.5 L 60.0,598.0 L 70.0,598.6 L 80.0,599.1 L 90.0,599.7 L 100.0,600.2 L 110.0,600.7 L 120.0,601.1 L 130.0,601.4 L 140.0,601.5 L 150.0,601.5 L 160.0,601.4 L 170.0,601.0 L 180.0,600.5 L 190.0,599.7 L 200.0,598.7 L 210.0,597.5 L 220.0,596.0 L 230.0,594.3 L 240.0,592.4 L 250.0,590.3 L 260.0,588.0 L 270.0,585.6 L 280.0,583.0 L 290.0,580.2 L 300.0,577.4 L 310.0,574.5 L 320.0,571.5 L 330.0,568.6 L 340.0,565.6 L 350.0,562.7 L 360.0,560.0 L 370.0,557.3 L 380.0,554.7 L 390.0,552.4 L 400.0,550.2 L 410.0,548.3 L 420.0,546.6 L 430.0,545.1 L 440.0,543.9 L 450.0,543.0 L 460.0,542.4 L 470.0,542.0 L 480.0,541.9 L 490.0,542.0 L 500.0,542.4 L 510.0,543.1 L 520.0,543.9 L 530.0,545.0 L 540.0,546.2 L 550.0,547.6 L 560.0,549.1 L 570.0,550.6 L 580.0,552.2 L 590.0,553.9 L 600.0,555.6 L 610.0,557.2 L 620.0,558.8 L 630.0,560.3 L 640.0,561.7 L 650.0,563.1 L 660.0,564.2 L 670.0,565.3 L 680.0,566.2 L 690.0,566.9 L 700.0,567.5 L 710.0,567.9 L 720.0,568.2 L 730.0,568.4 L 740.0,568.4 L 750.0,568.3 L 760.0,568.1 L 770.0,567.9 L 780.0,567.6 L 790.0,567.3 L 800.0,567.0 L 810.0,566.7 L 820.0,566.5 L 830.0,566.4 L 840.0,566.3 L 850.0,566.4 L 860.0,566.7 L 870.0,567.1 L 880.0,567.7 L 890.0,568.4 L 900.0,569.4 L 910.0,570.6 L 920.0,572.0 L 930.0,573.6 L 940.0,575.4 L 950.0,577.4 L 960.0,579.5 L 970.0,581.8 L 980.0,584.3 L 990.0,586.9 L 1000.0,589.5 L 1010.0,592.3 L 1020.0,595.0 L 1030.0,597.8 L 1040.0,600.5 L 1050.0,603.2 L 1060.0,605.8 L 1070.0,608.2 L 1080.0,610.5 L 1090.0,612.6 L 1100.0,614.6 L 1110.0,616.3 L 1120.0,617.7 L 1130.0,618.9 L 1140.0,619.8 L 1150.0,620.5 L 1160.0,620.9 L 1170.0,620.9 L 1180.0,620.7 L 1190.0,620.3 L 1200.0,619.6 L 1210.0,618.6 L 1220.0,617.4 L 1230.0,616.0 L 1240.0,614.4 L 1250.0,612.7 L 1260.0,610.8 L 1270.0,608.9 L 1280.0,606.8 L 1280.0,720.0 Z" fill="#3f3d56" opacity="0.84"/><polyline points="0.0,596.5 10.0,596.4 20.0,596.5 30.0,596.8 40.0,597.1 50.0,597.5 60.0,598.0 70.0,598.6 80.0,599.1 90.0,599.7 100.0,600.2 110.0,600.7 120.0,601.1 130.0,601.4 140.0,601.5 150.0,601.5 160.0,601.4 170.0,601.0 180.0,600.5 190.0,599.7 200.0,598.7 210.0,597.5 220.0,596.0 230.0,594.3 240.0,592.4 250.0,590.3 260.0,588.0 270.0,585.6 280.0,583.0 290.0,580.2 300.0,577.4 310.0,574.5 320.0,571.5 330.0,568.6 340.0,565.6 350.0,562.7 360.0,560.0 370.0,557.3 380.0,554.7 390.0,552.4 400.0,550.2 410.0,548.3 420.0,546.6 430.0,545.1 440.0,543.9 450.0,543.0 460.0,542.4 470.0,542.0 480.0,541.9 490.0,542.0 500.0,542.4 510.0,543.1 520.0,543.9 530.0,545.0 540.0,546.2 550.0,547.6 560.0,549.1 570.0,550.6 580.0,552.2 590.0,553.9 600.0,555.6 610.0,557.2 620.0,558.8 630.0,560.3 640.0,561.7 650.0,563.1 660.0,564.2 670.0,565.3 680.0,566.2 690.0,566.9 700.0,567.5 710.0,567.9 720.0,568.2 730.0,568.4 740.0,568.4 750.0,568.3 760.0,568.1 770.0,567.9 780.0,567.6 790.0,567.3 800.0,567.0 810.0,566.7 820.0,566.5 830.0,566.4 840.0,566.3 850.0,566.4 860.0,566.7 870.0,567.1 880.0,567.7 890.0,568.4 900.0,569.4 910.0,570.6 920.0,572.0 930.0,573.6 940.0,575.4 950.0,577.4 960.0,579.5 970.0,581.8 980.0,584.3 990.0,586.9 1000.0,589.5 1010.0,592.3 1020.0,595.0 1030.0,597.8 1040.0,600.5 1050.0,603.2 1060.0,605.8 1070.0,608.2 1080.0,610.5 1090.0,612.6 1100.0,614.6 1110.0,616.3 1120.0,617.7 1130.0,618.9 1140.0,619.8 1150.0,620.5 1160.0,620.9 1170.0,620.9 1180.0,620.7 1190.0,620.3 1200.0,619.6 1210.0,618.6 1220.0,617.4 1230.0,616.0 1240.0,614.4 1250.0,612.7 1260.0,610.8 1270.0,608.9 1280.0,606.8" fill="none" stroke="#3f3d56" stroke-width="1.4" opacity="0.05"/>
<rect width="1280" height="720" fill="url(#vig5)"/>
</svg>