<svg xmlns="http://www.w3.org/2000/svg" width="1280" height="720" viewBox="0 0 1280 720">
<defs>
<linearGradient id="bg5" x1="0" y1="0" x2="1" y2="1"><stop offset="0" stop-color="#fafafa"/><stop offset="1" stop-color="#fafafa"/></linearGradient>
<radialGradient id="gl5" cx="0.34" cy="0.56" r="0.72"><stop offset="0" stop-color="#fafafa" stop-opacity="0.26"/><stop offset="1" stop-color="#fafafa" stop-opacity="0"/></radialGradient>
<radialGradient id="vig5" cx="0.5" cy="0.5" r="0.75"><stop offset="0.55" stop-color="#3f3d56" stop-opacity="0"/><stop offset="1" stop-color="#3f3d56" stop-opacity="0.5"/></radialGradient>

</defs>
<rect width="1280" height="720" fill="url(#bg5)"/>
<rect width="1280" height="720" fill="url(#gl5)"/>
<polyline points="448.3,449.5 592.5,960.8" fill="none" stroke="#3f3d56" stroke-width="2.4573646812439174" opacity="0.10200639754169157" stroke-linecap="round" /><polyline points="450.4,432.0 574.8,668.2" fill="none" stroke="#3f3d56" stroke-width="1.8070096223092862" opacity="0.20181154467372586" stroke-linecap="round" /><polyline points="413.4,384.9 -83.7,-32.6" fill="none" stroke="#3f3d56" stroke-width="3.0058554987025308" opacity="0.17906580247766768" stroke-linecap="round" /><polyline points="467.1,396.4 794.3,326.5" fill="none" stroke="#3f3d56" stroke-width="1.0119242618718978" opacity="0.24500756657809009" stroke-linecap="round" /><polyline points="457.0,452.0 577.4,721.2" fill="none" stroke="#3f3d56" stroke-width="2.284661233268192" opacity="0.10270818079239222" stroke-linecap="round" /><polyline points="375.8,405.8 61.3,419.4" fill="none" stroke="#3f3d56" stroke-width="1.7292839931458133" opacity="0.16241215082316557" stroke-linecap="round" /><polyline points="460.1,431.6 842.5,868.3" fill="none" stroke="#3f3d56" stroke-width="1.3274196235164482" opacity="0.19892558606095695" stroke-linecap="round" /><polyline points="417.9,444.0 343.4,619.5" fill="none" stroke="#3f3d56" stroke-width="2.7187527824113262" opacity="0.11891305419966611" stroke-linecap="round" /><polyline points="412.9,398.5 7.5,313.6" fill="none" stroke="#3f3d56" stroke-width="3.028081732030387" opacity="0.14513927060577983" stroke-linecap="round" /><polyline points="397.7,413.7 85.8,501.0" fill="none" stroke="#3f3d56" stroke-width="1.3301511181005856" opacity="0.12374044322615207" stroke-linecap="round" /><polyline points="454.0,385.8 841.7,27.7" fill="none" stroke="#3f3d56" stroke-width="3.070383611936907" opacity="0.2564118916632892" stroke-linecap="round" /><polyline points="468.9,375.8 837.9,76.0" fill="none" stroke="#3f3d56" stroke-width="1.2743265619377873" opacity="0.09643135361692735" stroke-linecap="round" /><polyline points="448.9,444.3 627.6,980.8" fill="none" stroke="#3f3d56" stroke-width="2.6619703878197045" opacity="0.21692637448828855" stroke-linecap="round" /><polyline points="467.2,438.9 855.8,872.3" fill="none" stroke="#3f3d56" stroke-width="2.7586965214210046" opacity="0.10644264178563356" stroke-linecap="round" /><polyline points="430.6,434.2 392.6,689.6" fill="none" stroke="#3f3d56" stroke-width="2.5464802124742056" opacity="0.18822046979160717" stroke-linecap="round" /><polyline points="448.1,452.6 590.8,1000.7" fill="none" stroke="#3f3d56" stroke-width="2.186919683409083" opacity="0.2057666306039196" stroke-linecap="round" /><polyline points="481.6,410.3 1053.4,497.6" fill="none" stroke="#3f3d56" stroke-width="1.2577544933532054" opacity="0.24061144549678487" stroke-linecap="round" /><polyline points="435.3,361.6 435.5,211.0" fill="none" stroke="#3f3d56" stroke-width="1.896903012565384" opacity="0.2564948772212122" stroke-linecap="round" /><polyline points="488.5,425.0 1006.6,636.8" fill="none" stroke="#3f3d56" stroke-width="1.0519438845387927" opacity="0.24812632517500133" stroke-linecap="round" /><polyline points="463.6,378.0 836.6,47.0" fill="none" stroke="#3f3d56" stroke-width="1.1089660064781857" opacity="0.2080378747121639" stroke-linecap="round" /><polyline points="420.7,384.1 134.7,7.3" fill="none" stroke="#3f3d56" stroke-width="1.1556277340361132" opacity="0.2580210124033548" stroke-linecap="round" /><polyline points="490.5,425.4 685.5,503.6" fill="none" stroke="#3f3d56" stroke-width="2.052791423074708" opacity="0.09713481858750819" stroke-linecap="round" /><polyline points="404.7,390.7 -180.7,150.3" fill="none" stroke="#3f3d56" stroke-width="2.1369532808839025" opacity="0.20742427849864603" stroke-linecap="round" /><polyline points="436.3,361.1 449.2,-127.3" fill="none" stroke="#3f3d56" stroke-width="2.4202644439442897" opacity="0.11848637586889307" stroke-linecap="round" /><polyline points="481.4,390.5 790.9,305.7" fill="none" stroke="#3f3d56" stroke-width="1.2020164635598918" opacity="0.14710042479650354" stroke-linecap="round" /><polyline points="397.1,421.0 170.8,526.7" fill="none" stroke="#3f3d56" stroke-width="1.2477899414244493" opacity="0.09521775608637137" stroke-linecap="round" /><polyline points="448.2,436.4 573.7,758.0" fill="none" stroke="#3f3d56" stroke-width="3.051511499616806" opacity="0.09886810352224225" stroke-linecap="round" /><polyline points="377.3,392.9 210.7,363.2" fill="none" stroke="#3f3d56" stroke-width="1.4759132740407153" opacity="0.11547932782214937" stroke-linecap="round" /><polyline points="399.0,395.9 -31.3,308.9" fill="none" stroke="#3f3d56" stroke-width="2.8484672197634" opacity="0.20160981289293217" stroke-linecap="round" /><polyline points="418.3,362.8 192.3,-176.5" fill="none" stroke="#3f3d56" stroke-width="1.343771148359765" opacity="0.1939129977942627" stroke-linecap="round" /><polyline points="469.1,375.2 878.0,38.3" fill="none" stroke="#3f3d56" stroke-width="1.2033694560586146" opacity="0.16528237001852045" stroke-linecap="round" /><polyline points="406.2,410.3 -112.3,536.6" fill="none" stroke="#3f3d56" stroke-width="1.339495689251055" opacity="0.09367868055550267" stroke-linecap="round" /><polyline points="462.1,389.7 737.3,251.9" fill="none" stroke="#3f3d56" stroke-width="3.0299653652682323" opacity="0.18009865392845176" stroke-linecap="round" /><polyline points="409.0,426.8 128.0,680.0" fill="none" stroke="#3f3d56" stroke-width="1.6921026238192276" opacity="0.12765338943407348" stroke-linecap="round" /><polyline points="409.0,420.7 9.8,686.7" fill="none" stroke="#3f3d56" stroke-width="2.4813469145965588" opacity="0.19304932001414132" stroke-linecap="round" /><polyline points="417.8,366.7 126.4,-246.1" fill="none" stroke="#3f3d56" stroke-width="1.8609129699686138" opacity="0.2202592410188255" stroke-linecap="round" /><polyline points="476.3,399.7 1109.9,346.3" fill="none" stroke="#3f3d56" stroke-width="2.316385616456179" opacity="0.08431903742380965" stroke-linecap="round" /><polyline points="384.8,419.7 -196.1,609.3" fill="none" stroke="#3f3d56" stroke-width="1.2818992761896553" opacity="0.22722494000766652" stroke-linecap="round" /><polyline points="451.1,356.6 659.4,-253.1" fill="none" stroke="#3f3d56" stroke-width="2.4895536720636047" opacity="0.2578878369955554" stroke-linecap="round" /><polyline points="408.5,438.9 77.4,882.4" fill="none" stroke="#3f3d56" stroke-width="3.172309221462449" opacity="0.2440198807486167" stroke-linecap="round" /><polyline points="411.9,375.4 79.3,-20.8" fill="none" stroke="#3f3d56" stroke-width="2.758186330400177" opacity="0.19186804754116527" stroke-linecap="round" /><polyline points="484.4,391.4 1043.6,257.7" fill="none" stroke="#3f3d56" stroke-width="2.3819487532120514" opacity="0.12018540574853251" stroke-linecap="round" /><polyline points="395.9,440.6 227.5,600.9" fill="none" stroke="#3f3d56" stroke-width="2.051621433165277" opacity="0.20142704079741958" stroke-linecap="round" /><polyline points="422.2,363.8 315.7,41.8" fill="none" stroke="#3f3d56" stroke-width="1.3315429154564982" opacity="0.15226044540690137" stroke-linecap="round" /><polyline points="385.7,428.7 71.8,590.5" fill="none" stroke="#3f3d56" stroke-width="1.3194981617975996" opacity="0.09505189492191597" stroke-linecap="round" /><polyline points="420.4,456.1 326.7,790.0" fill="none" stroke="#3f3d56" stroke-width="2.891980161066279" opacity="0.23127531136816548" stroke-linecap="round" /><polyline points="473.6,360.1 785.1,10.1" fill="none" stroke="#3f3d56" stroke-width="2.4907056903974896" opacity="0.12469888809942206" stroke-linecap="round" /><polyline points="404.1,405.9 -159.1,455.6" fill="none" stroke="#3f3d56" stroke-width="2.995127525146981" opacity="0.2599853475003598" stroke-linecap="round" /><polyline points="437.5,426.2 492.9,981.4" fill="none" stroke="#3f3d56" stroke-width="1.0212255178317367" opacity="0.2139785975371452" stroke-linecap="round" /><polyline points="469.3,416.6 985.1,618.8" fill="none" stroke="#3f3d56" stroke-width="1.348063685786322" opacity="0.1988330282883229" stroke-linecap="round" /><polyline points="376.6,406.7 -147.2,437.5" fill="none" stroke="#3f3d56" stroke-width="2.7064334808567416" opacity="0.11916696212376154" stroke-linecap="round" /><polyline points="454.3,366.3 604.1,77.2" fill="none" stroke="#3f3d56" stroke-width="1.2294868426142909" opacity="0.12334379616408991" stroke-linecap="round" /><polyline points="387.1,423.3 -20.4,593.9" fill="none" stroke="#3f3d56" stroke-width="2.027543647224416" opacity="0.1333473133178317" stroke-linecap="round" /><polyline points="454.1,417.0 945.1,773.3" fill="none" stroke="#3f3d56" stroke-width="2.1997266434753233" opacity="0.2288273356425728" stroke-linecap="round" /><polyline points="377.1,403.7 -20.7,407.0" fill="none" stroke="#3f3d56" stroke-width="2.3796078105233205" opacity="0.21790302097291464" stroke-linecap="round" /><polyline points="427.4,442.8 398.1,590.5" fill="none" stroke="#3f3d56" stroke-width="1.912407243840307" opacity="0.09269722943183423" stroke-linecap="round" /><polyline points="434.4,425.3 409.7,1109.1" fill="none" stroke="#3f3d56" stroke-width="1.335989201133891" opacity="0.21458292563774173" stroke-linecap="round" /><polyline points="480.4,378.7 764.3,225.1" fill="none" stroke="#3f3d56" stroke-width="2.5155243779959644" opacity="0.25941170260816404" stroke-linecap="round" /><polyline points="429.2,436.1 317.4,1048.1" fill="none" stroke="#3f3d56" stroke-width="2.49070609648027" opacity="0.09194328329000838" stroke-linecap="round" /><polyline points="460.9,451.0 765.0,1016.1" fill="none" stroke="#3f3d56" stroke-width="2.807583989775562" opacity="0.0825586567670141" stroke-linecap="round" /><polyline points="418.2,416.1 -53.2,772.9" fill="none" stroke="#3f3d56" stroke-width="1.1268832654505654" opacity="0.24132376897158714" stroke-linecap="round" /><polyline points="431.1,432.9 370.1,875.2" fill="none" stroke="#3f3d56" stroke-width="2.363038436547402" opacity="0.11172811452348308" stroke-linecap="round" /><polyline points="443.9,375.1 576.5,-54.1" fill="none" stroke="#3f3d56" stroke-width="2.3707517511112144" opacity="0.11048810469710091" stroke-linecap="round" /><polyline points="480.2,369.0 659.5,232.6" fill="none" stroke="#3f3d56" stroke-width="1.527405448046216" opacity="0.25679909897974784" stroke-linecap="round" /><polyline points="472.4,401.8 635.5,395.6" fill="none" stroke="#3f3d56" stroke-width="3.1497805325127617" opacity="0.16287235557825663" stroke-linecap="round" /><polyline points="420.7,351.8 236.5,-303.1" fill="none" stroke="#3f3d56" stroke-width="1.328240243105625" opacity="0.1500230107163946" stroke-linecap="round" /><polyline points="447.1,425.4 666.1,832.4" fill="none" stroke="#3f3d56" stroke-width="2.5294675099881134" opacity="0.08924374030170858" stroke-linecap="round" /><polyline points="478.0,409.1 656.8,433.6" fill="none" stroke="#3f3d56" stroke-width="1.7660839616389943" opacity="0.23821099667354345" stroke-linecap="round" /><polyline points="421.2,383.9 70.7,-99.1" fill="none" stroke="#3f3d56" stroke-width="1.865796479210784" opacity="0.2080395967257168" stroke-linecap="round" /><polyline points="421.5,455.5 320.4,839.6" fill="none" stroke="#3f3d56" stroke-width="1.8453182392033969" opacity="0.17078817666174684" stroke-linecap="round" /><polyline points="436.2,364.4 450.4,-173.6" fill="none" stroke="#3f3d56" stroke-width="3.0091615373608245" opacity="0.1621053195792359" stroke-linecap="round" /><polyline points="444.8,425.2 718.0,1051.6" fill="none" stroke="#3f3d56" stroke-width="1.3353087614131884" opacity="0.2458333607168504" stroke-linecap="round" /><polyline points="468.8,401.6 645.9,393.2" fill="none" stroke="#3f3d56" stroke-width="1.8984766457088942" opacity="0.2531542627558868" stroke-linecap="round" /><polyline points="396.5,412.2 9.6,501.6" fill="none" stroke="#3f3d56" stroke-width="2.326600110603998" opacity="0.09129664522788104" stroke-linecap="round" /><polyline points="429.5,433.6 396.3,610.8" fill="none" stroke="#3f3d56" stroke-width="1.0480660671371753" opacity="0.18422452209560222" stroke-linecap="round" /><polyline points="450.6,382.2 585.3,198.2" fill="none" stroke="#3f3d56" stroke-width="3.0735744208704565" opacity="0.23079199156118635" stroke-linecap="round" /><polyline points="467.2,390.2 924.1,204.8" fill="none" stroke="#3f3d56" stroke-width="1.3260096393969738" opacity="0.24252841233761724" stroke-linecap="round" /><polyline points="448.4,427.1 532.4,578.4" fill="none" stroke="#3f3d56" stroke-width="2.860886950226127" opacity="0.2185341167271727" stroke-linecap="round" /><polyline points="405.1,376.5 242.6,232.2" fill="none" stroke="#3f3d56" stroke-width="1.39665124256388" opacity="0.17717495563200936" stroke-linecap="round" /><polyline points="442.1,354.5 512.6,-145.5" fill="none" stroke="#3f3d56" stroke-width="2.5598390597885925" opacity="0.16918210644152465" stroke-linecap="round" /><polyline points="465.7,396.9 929.0,300.8" fill="none" stroke="#3f3d56" stroke-width="1.2939313842952354" opacity="0.08939128930747557" stroke-linecap="round" /><polyline points="477.6,445.6 710.7,678.6" fill="none" stroke="#3f3d56" stroke-width="1.1862751069290516" opacity="0.2513421101097685" stroke-linecap="round" /><polyline points="412.6,349.0 191.1,-183.1" fill="none" stroke="#3f3d56" stroke-width="1.825821712784968" opacity="0.17565708370751212" stroke-linecap="round" /><polyline points="485.2,399.3 924.0,365.4" fill="none" stroke="#3f3d56" stroke-width="2.2787083866313136" opacity="0.17065135058668765" stroke-linecap="round" /><polyline points="380.7,398.2 -138.3,351.1" fill="none" stroke="#3f3d56" stroke-width="1.5056544485961791" opacity="0.0878283118847947" stroke-linecap="round" /><polyline points="421.8,445.8 374.7,595.3" fill="none" stroke="#3f3d56" stroke-width="1.1309739719307852" opacity="0.1924680819288754" stroke-linecap="round" /><polyline points="443.5,381.4 516.6,188.8" fill="none" stroke="#3f3d56" stroke-width="1.3807938650485894" opacity="0.18374473999660412" stroke-linecap="round" /><polyline points="454.1,346.3 611.1,-126.7" fill="none" stroke="#3f3d56" stroke-width="2.8593732509698446" opacity="0.10518177565512822" stroke-linecap="round" /><polyline points="477.2,388.9 1064.5,188.7" fill="none" stroke="#3f3d56" stroke-width="1.1658540987004096" opacity="0.08198411438911339" stroke-linecap="round" /><polyline points="436.1,364.1 442.4,95.6" fill="none" stroke="#3f3d56" stroke-width="2.4028259654531485" opacity="0.15856742841078225" stroke-linecap="round" /><polyline points="408.9,389.7 -19.1,170.3" fill="none" stroke="#3f3d56" stroke-width="2.4919251247644447" opacity="0.17760578430166998" stroke-linecap="round" /><polyline points="420.7,374.3 161.4,-140.5" fill="none" stroke="#3f3d56" stroke-width="1.6751173030083808" opacity="0.25302978273518484" stroke-linecap="round" /><polyline points="461.5,381.8 1003.7,-60.2" fill="none" stroke="#3f3d56" stroke-width="2.076025007854007" opacity="0.1962379362566395" stroke-linecap="round" /><polyline points="414.8,403.0 -296.3,396.5" fill="none" stroke="#3f3d56" stroke-width="1.6148454091415148" opacity="0.2090073567845549" stroke-linecap="round" /><polyline points="474.1,430.8 859.0,704.0" fill="none" stroke="#3f3d56" stroke-width="3.093673037128675" opacity="0.2172104383003154" stroke-linecap="round" /><polyline points="436.7,446.4 458.7,1069.3" fill="none" stroke="#3f3d56" stroke-width="1.23716931579188" opacity="0.22174130465454434" stroke-linecap="round" /><polyline points="407.9,364.5 120.9,-42.6" fill="none" stroke="#3f3d56" stroke-width="1.9356367913292578" opacity="0.15550020912478496" stroke-linecap="round" /><polyline points="381.4,412.3 202.8,442.6" fill="none" stroke="#3f3d56" stroke-width="2.1643266381339736" opacity="0.20252155278986306" stroke-linecap="round" /><polyline points="415.2,455.3 273.3,825.9" fill="none" stroke="#3f3d56" stroke-width="1.1216871641303556" opacity="0.21478827369473819" stroke-linecap="round" /><polyline points="473.5,412.6 998.4,542.0" fill="none" stroke="#3f3d56" stroke-width="2.675074227474201" opacity="0.168578657769819" stroke-linecap="round" /><polyline points="416.1,422.2 300.4,536.9" fill="none" stroke="#3f3d56" stroke-width="2.016744075289912" opacity="0.1003572766994042" stroke-linecap="round" /><polyline points="451.6,369.8 760.3,-258.3" fill="none" stroke="#3f3d56" stroke-width="2.9775220736758627" opacity="0.18038953073491992" stroke-linecap="round" /><polyline points="424.1,346.6 343.0,-66.0" fill="none" stroke="#3f3d56" stroke-width="1.9899450398450251" opacity="0.2344359220604033" stroke-linecap="round" /><polyline points="385.3,397.9 250.8,383.6" fill="none" stroke="#3f3d56" stroke-width="2.1549084367062488" opacity="0.2350732889146786" stroke-linecap="round" /><polyline points="423.8,349.3 359.3,45.8" fill="none" stroke="#3f3d56" stroke-width="3.1922729836125905" opacity="0.11734538259655297" stroke-linecap="round" /><polyline points="468.4,404.8 1100.0,435.2" fill="none" stroke="#3f3d56" stroke-width="2.9036546619440307" opacity="0.2591772495123484" stroke-linecap="round" /><polyline points="437.2,430.4 477.2,977.3" fill="none" stroke="#3f3d56" stroke-width="2.7828364833669736" opacity="0.16782618104985517" stroke-linecap="round" /><polyline points="453.8,427.6 722.3,780.0" fill="none" stroke="#3f3d56" stroke-width="1.6304581315925764" opacity="0.14624171805548897" stroke-linecap="round" /><polyline points="457.2,418.5 904.6,729.2" fill="none" stroke="#3f3d56" stroke-width="2.000218981915559" opacity="0.23573580845193443" stroke-linecap="round" /><polyline points="405.2,432.0 85.2,738.9" fill="none" stroke="#3f3d56" stroke-width="1.5776266411602315" opacity="0.20502498132720925" stroke-linecap="round" /><polyline points="450.1,418.4 704.1,678.6" fill="none" stroke="#3f3d56" stroke-width="1.9808138877025119" opacity="0.1667504958474173" stroke-linecap="round" /><polyline points="476.5,402.2 923.2,390.9" fill="none" stroke="#3f3d56" stroke-width="2.213606796089164" opacity="0.21010024043594439" stroke-linecap="round" /><polyline points="456.1,419.6 590.2,525.0" fill="none" stroke="#3f3d56" stroke-width="2.044212446447202" opacity="0.2194123501880158" stroke-linecap="round" /><polyline points="410.9,395.5 -174.5,209.2" fill="none" stroke="#3f3d56" stroke-width="2.191681287807566" opacity="0.12348048522445043" stroke-linecap="round" /><polyline points="466.9,382.1 603.3,291.3" fill="none" stroke="#3f3d56" stroke-width="2.2217491085448255" opacity="0.1932913575672953" stroke-linecap="round" /><polyline points="387.2,369.8 86.7,160.8" fill="none" stroke="#3f3d56" stroke-width="2.263302883797296" opacity="0.1971821806631394" stroke-linecap="round" /><polyline points="395.9,422.7 -140.3,688.7" fill="none" stroke="#3f3d56" stroke-width="1.9122935780116956" opacity="0.17295101597691515" stroke-linecap="round" /><polyline points="420.7,386.1 297.3,240.5" fill="none" stroke="#3f3d56" stroke-width="1.8792390341685135" opacity="0.19527842492392636" stroke-linecap="round" /><polyline points="392.2,408.6 139.9,440.1" fill="none" stroke="#3f3d56" stroke-width="1.7668810065013671" opacity="0.2314361043762322" stroke-linecap="round" /><polyline points="431.4,368.4 379.3,-106.3" fill="none" stroke="#3f3d56" stroke-width="2.6598926748926894" opacity="0.21204040184858758" stroke-linecap="round" /><polyline points="469.1,394.1 730.3,323.8" fill="none" stroke="#3f3d56" stroke-width="2.5478564915525643" opacity="0.1781203598663612" stroke-linecap="round" /><polyline points="448.3,382.8 666.8,42.8" fill="none" stroke="#3f3d56" stroke-width="2.2975193389584616" opacity="0.1065072275933476" stroke-linecap="round" /><polyline points="457.2,441.0 667.0,801.6" fill="none" stroke="#3f3d56" stroke-width="2.1130880320748844" opacity="0.2151429345316423" stroke-linecap="round" /><polyline points="388.7,383.5 42.2,236.6" fill="none" stroke="#3f3d56" stroke-width="1.9521162249569504" opacity="0.09301970548495064" stroke-linecap="round" /><polyline points="387.7,399.6 -61.8,365.4" fill="none" stroke="#3f3d56" stroke-width="1.813694592346755" opacity="0.0824963192099422" stroke-linecap="round" /><polyline points="400.0,388.7 -141.6,165.3" fill="none" stroke="#3f3d56" stroke-width="1.4037217596684082" opacity="0.09120770715841313" stroke-linecap="round" /><polyline points="437.2,451.6 459.5,994.7" fill="none" stroke="#3f3d56" stroke-width="1.7836642909586566" opacity="0.24239948636060543" stroke-linecap="round" /><polyline points="440.0,365.0 484.2,15.2" fill="none" stroke="#3f3d56" stroke-width="1.223954811034311" opacity="0.14720329292761047" stroke-linecap="round" /><polyline points="456.6,348.8 667.0,-186.4" fill="none" stroke="#3f3d56" stroke-width="1.8898449859136295" opacity="0.2062266852205284" stroke-linecap="round" /><polyline points="387.7,405.6 -303.9,440.2" fill="none" stroke="#3f3d56" stroke-width="2.9241500253319255" opacity="0.1773345673851341" stroke-linecap="round" /><polyline points="447.3,373.3 710.8,-275.3" fill="none" stroke="#3f3d56" stroke-width="3.0136319472199697" opacity="0.11501588506454843" stroke-linecap="round" /><polyline points="474.1,421.2 911.4,623.5" fill="none" stroke="#3f3d56" stroke-width="2.9364585869009767" opacity="0.18395314660770656" stroke-linecap="round" /><polyline points="457.7,446.9 606.6,736.1" fill="none" stroke="#3f3d56" stroke-width="2.485830611299229" opacity="0.2008583764793419" stroke-linecap="round" /><polyline points="388.6,437.2 51.8,683.5" fill="none" stroke="#3f3d56" stroke-width="2.1095527275492554" opacity="0.12645105162172976" stroke-linecap="round" /><polyline points="428.2,455.7 341.4,1107.9" fill="none" stroke="#3f3d56" stroke-width="1.9637982656209483" opacity="0.12857255941980508" stroke-linecap="round" /><polyline points="424.2,443.4 365.3,659.6" fill="none" stroke="#3f3d56" stroke-width="1.259395126355002" opacity="0.22041020530168942" stroke-linecap="round" /><polyline points="451.4,418.5 873.3,817.0" fill="none" stroke="#3f3d56" stroke-width="1.5537815926643335" opacity="0.09836196545361608" stroke-linecap="round" /><polyline points="383.3,374.2 174.4,257.4" fill="none" stroke="#3f3d56" stroke-width="2.9345252944151934" opacity="0.08351127867110941" stroke-linecap="round" /><polyline points="456.1,448.3 528.9,605.4" fill="none" stroke="#3f3d56" stroke-width="1.3955000760174443" opacity="0.15580312990201567" stroke-linecap="round" /><polyline points="459.9,394.9 709.1,310.4" fill="none" stroke="#3f3d56" stroke-width="2.8971784969598655" opacity="0.15961121630197442" stroke-linecap="round" /><polyline points="453.8,446.0 605.8,794.9" fill="none" stroke="#3f3d56" stroke-width="2.8998273544661597" opacity="0.2385135837131675" stroke-linecap="round" /><polyline points="411.4,384.0 165.8,186.2" fill="none" stroke="#3f3d56" stroke-width="2.0278654525943463" opacity="0.09387950776181224" stroke-linecap="round" /><polyline points="432.8,358.8 416.8,58.0" fill="none" stroke="#3f3d56" stroke-width="2.5732991174864397" opacity="0.23955161339320474" stroke-linecap="round" /><polyline points="424.5,425.4 276.0,733.3" fill="none" stroke="#3f3d56" stroke-width="2.0870602932392304" opacity="0.12638387857925837" stroke-linecap="round" /><polyline points="419.7,417.4 23.9,780.4" fill="none" stroke="#3f3d56" stroke-width="1.8393332610376505" opacity="0.12752124479717242" stroke-linecap="round" /><polyline points="387.7,421.1 -120.2,612.2" fill="none" stroke="#3f3d56" stroke-width="1.7186954459212667" opacity="0.25831773799093105" stroke-linecap="round" /><polyline points="422.5,348.0 371.1,124.2" fill="none" stroke="#3f3d56" stroke-width="2.8659556013159295" opacity="0.1796249573333557" stroke-linecap="round" /><polyline points="396.1,360.3 -22.5,-98.1" fill="none" stroke="#3f3d56" stroke-width="2.9945312278389817" opacity="0.09294719560068782" stroke-linecap="round" /><polyline points="411.6,428.1 219.5,630.0" fill="none" stroke="#3f3d56" stroke-width="1.9018605280341454" opacity="0.21195683585516217" stroke-linecap="round" /><polyline points="454.6,385.7 845.4,33.2" fill="none" stroke="#3f3d56" stroke-width="1.8434321577701804" opacity="0.2301625031325813" stroke-linecap="round" /><polyline points="435.2,403.2 491.1,1045.8" fill="none" stroke="#3f3d56" stroke-width="5.677967598410844" opacity="0.3" stroke-linecap="round" /><polyline points="435.2,403.2 -281.1,593.8" fill="none" stroke="#3f3d56" stroke-width="5.795697344835266" opacity="0.3" stroke-linecap="round" /><polyline points="435.2,403.2 904.8,451.9" fill="none" stroke="#3f3d56" stroke-width="4.349710879762263" opacity="0.3" stroke-linecap="round" /><polyline points="435.2,403.2 852.8,687.6" fill="none" stroke="#3f3d56" stroke-width="4.625263648395723" opacity="0.3" stroke-linecap="round" /><polyline points="435.2,403.2 834.6,708.6" fill="none" stroke="#3f3d56" stroke-width="3.973854467775314" opacity="0.3" stroke-linecap="round" /><polyline points="435.2,403.2 -267.5,428.0" fill="none" stroke="#3f3d56" stroke-width="5.387556224939968" opacity="0.3" stroke-linecap="round" /><polyline points="435.2,403.2 763.5,1068.4" fill="none" stroke="#3f3d56" stroke-width="5.18629510546009" opacity="0.3" stroke-linecap="round" /><polyline points="435.2,403.2 591.4,869.3" fill="none" stroke="#3f3d56" stroke-width="5.716966634178901" opacity="0.3" stroke-linecap="round" /><polyline points="435.2,403.2 6.4,394.2" fill="none" stroke="#3f3d56" stroke-width="5.8435001801101105" opacity="0.3" stroke-linecap="round" /><polyline points="435.2,403.2 -118.9,-153.7" fill="none" stroke="#3f3d56" stroke-width="4.696848202817893" opacity="0.3" stroke-linecap="round" /><circle cx="233.8" cy="-47.3" r="1.4" fill="#3f3d56" opacity="0.49"/><circle cx="985.9" cy="264.9" r="1.3" fill="#3f3d56" opacity="0.59"/><circle cx="103.3" cy="934.7" r="1.3" fill="#3f3d56" opacity="0.40"/><circle cx="577.7" cy="40.7" r="2.4" fill="#3f3d56" opacity="0.24"/><circle cx="689.6" cy="582.0" r="1.3" fill="#3f3d56" opacity="0.46"/><circle cx="690.7" cy="459.8" r="2.1" fill="#3f3d56" opacity="0.47"/><circle cx="673.7" cy="339.4" r="1.9" fill="#3f3d56" opacity="0.36"/><circle cx="838.1" cy="418.3" r="2.0" fill="#3f3d56" opacity="0.31"/><circle cx="403.7" cy="287.4" r="2.1" fill="#3f3d56" opacity="0.51"/><circle cx="678.6" cy="573.8" r="1.1" fill="#3f3d56" opacity="0.44"/><circle cx="226.5" cy="72.2" r="1.3" fill="#3f3d56" opacity="0.23"/><circle cx="346.1" cy="822.0" r="1.3" fill="#3f3d56" opacity="0.35"/><circle cx="-119.6" cy="413.8" r="1.1" fill="#3f3d56" opacity="0.49"/><circle cx="495.5" cy="-223.1" r="1.5" fill="#3f3d56" opacity="0.47"/><circle cx="217.4" cy="353.8" r="1.8" fill="#3f3d56" opacity="0.40"/><circle cx="207.8" cy="182.8" r="1.9" fill="#3f3d56" opacity="0.54"/><circle cx="147.9" cy="463.1" r="1.4" fill="#3f3d56" opacity="0.55"/><circle cx="570.3" cy="389.5" r="1.6" fill="#3f3d56" opacity="0.27"/><circle cx="673.3" cy="-62.8" r="1.1" fill="#3f3d56" opacity="0.52"/><circle cx="248.7" cy="522.7" r="2.1" fill="#3f3d56" opacity="0.57"/><circle cx="835.4" cy="761.4" r="2.0" fill="#3f3d56" opacity="0.49"/><circle cx="873.2" cy="919.3" r="2.0" fill="#3f3d56" opacity="0.54"/><circle cx="391.1" cy="876.8" r="1.4" fill="#3f3d56" opacity="0.23"/><circle cx="91.6" cy="472.1" r="1.4" fill="#3f3d56" opacity="0.26"/><circle cx="360.0" cy="262.5" r="2.6" fill="#3f3d56" opacity="0.56"/><circle cx="376.6" cy="-3.5" r="1.3" fill="#3f3d56" opacity="0.41"/><circle cx="866.1" cy="39.1" r="1.8" fill="#3f3d56" opacity="0.46"/><circle cx="-202.1" cy="312.2" r="1.9" fill="#3f3d56" opacity="0.42"/><circle cx="289.2" cy="629.4" r="1.8" fill="#3f3d56" opacity="0.27"/><circle cx="727.9" cy="140.0" r="2.6" fill="#3f3d56" opacity="0.42"/><circle cx="345.9" cy="-110.7" r="1.1" fill="#3f3d56" opacity="0.33"/><circle cx="-81.2" cy="294.9" r="2.1" fill="#3f3d56" opacity="0.33"/><circle cx="363.0" cy="529.3" r="2.3" fill="#3f3d56" opacity="0.37"/><circle cx="41.6" cy="878.9" r="1.9" fill="#3f3d56" opacity="0.36"/><circle cx="405.9" cy="88.4" r="1.8" fill="#3f3d56" opacity="0.49"/><circle cx="1047.4" cy="237.9" r="2.6" fill="#3f3d56" opacity="0.48"/><circle cx="351.9" cy="272.9" r="1.9" fill="#3f3d56" opacity="0.27"/><circle cx="627.8" cy="410.8" r="1.1" fill="#3f3d56" opacity="0.42"/><circle cx="889.7" cy="24.1" r="1.8" fill="#3f3d56" opacity="0.38"/><circle cx="580.1" cy="390.6" r="1.1" fill="#3f3d56" opacity="0.20"/><circle cx="564.6" cy="368.3" r="2.0" fill="#3f3d56" opacity="0.58"/><circle cx="751.5" cy="362.7" r="1.7" fill="#3f3d56" opacity="0.54"/><circle cx="188.2" cy="942.9" r="1.1" fill="#3f3d56" opacity="0.38"/><circle cx="682.4" cy="291.4" r="1.7" fill="#3f3d56" opacity="0.59"/><circle cx="-30.9" cy="759.7" r="1.0" fill="#3f3d56" opacity="0.24"/><circle cx="324.9" cy="165.3" r="2.4" fill="#3f3d56" opacity="0.55"/><circle cx="300.7" cy="176.9" r="2.0" fill="#3f3d56" opacity="0.26"/><circle cx="829.6" cy="403.2" r="2.5" fill="#3f3d56" opacity="0.33"/><circle cx="-154.7" cy="352.8" r="2.0" fill="#3f3d56" opacity="0.36"/><circle cx="298.7" cy="615.9" r="2.6" fill="#3f3d56" opacity="0.59"/><circle cx="173.4" cy="131.8" r="2.2" fill="#3f3d56" opacity="0.33"/><circle cx="1088.5" cy="433.4" r="1.9" fill="#3f3d56" opacity="0.52"/><circle cx="779.3" cy="-51.3" r="1.6" fill="#3f3d56" opacity="0.39"/><circle cx="-54.4" cy="462.0" r="2.3" fill="#3f3d56" opacity="0.54"/><circle cx="406.9" cy="172.1" r="1.9" fill="#3f3d56" opacity="0.32"/><circle cx="248.7" cy="47.1" r="1.2" fill="#3f3d56" opacity="0.53"/><circle cx="-10.6" cy="793.2" r="1.7" fill="#3f3d56" opacity="0.27"/><circle cx="863.1" cy="677.6" r="2.2" fill="#3f3d56" opacity="0.21"/><circle cx="704.7" cy="181.0" r="1.8" fill="#3f3d56" opacity="0.56"/><circle cx="846.3" cy="168.0" r="2.6" fill="#3f3d56" opacity="0.31"/><circle cx="447.7" cy="623.7" r="1.0" fill="#3f3d56" opacity="0.45"/><circle cx="623.1" cy="79.3" r="1.6" fill="#3f3d56" opacity="0.30"/><circle cx="420.6" cy="75.8" r="2.5" fill="#3f3d56" opacity="0.33"/><circle cx="387.4" cy="521.2" r="1.9" fill="#3f3d56" opacity="0.49"/><circle cx="904.4" cy="445.5" r="2.3" fill="#3f3d56" opacity="0.26"/><circle cx="576.1" cy="250.1" r="1.5" fill="#3f3d56" opacity="0.30"/><circle cx="224.3" cy="-4.9" r="2.0" fill="#3f3d56" opacity="0.45"/><circle cx="-243.2" cy="362.7" r="2.5" fill="#3f3d56" opacity="0.58"/><circle cx="460.9" cy="274.7" r="1.3" fill="#3f3d56" opacity="0.32"/><circle cx="-173.0" cy="662.8" r="2.4" fill="#3f3d56" opacity="0.35"/><circle cx="-7.2" cy="741.5" r="2.2" fill="#3f3d56" opacity="0.30"/><circle cx="233.6" cy="295.1" r="1.1" fill="#3f3d56" opacity="0.52"/><circle cx="51.7" cy="70.6" r="2.4" fill="#3f3d56" opacity="0.36"/><circle cx="262.2" cy="183.1" r="2.2" fill="#3f3d56" opacity="0.41"/><circle cx="360.1" cy="530.0" r="2.5" fill="#3f3d56" opacity="0.46"/><circle cx="877.0" cy="40.1" r="2.2" fill="#3f3d56" opacity="0.36"/><circle cx="870.3" cy="-8.9" r="2.2" fill="#3f3d56" opacity="0.26"/><circle cx="652.5" cy="555.5" r="2.4" fill="#3f3d56" opacity="0.48"/><circle cx="697.1" cy="50.9" r="2.5" fill="#3f3d56" opacity="0.34"/><circle cx="513.0" cy="1033.4" r="1.0" fill="#3f3d56" opacity="0.41"/>
<rect width="1280" height="720" fill="url(#vig5)"/>
</svg>