<?xml version="1.0" encoding="UTF-8"?>
<svg xmlns="http://www.w3.org/2000/svg"
     width="683" height="384"
     viewBox="0 0 683 384">

  <g transform="translate(0.000000,384.000000) scale(0.100000,-0.100000)"
fill="black" stroke="none">
<path d="M2466 3690 c-21 -11 -45 -25 -53 -31 -8 -7 -21 -26 -30 -43 -11 -22
-16 -56 -15 -113 1 -69 -2 -84 -16 -91 -9 -5 -35 -12 -57 -15 -22 -4 -73 -19
-114 -34 -40 -16 -92 -44 -115 -65 -23 -20 -55 -56 -70 -80 -16 -23 -62 -70
-104 -103 -41 -33 -96 -81 -122 -106 -37 -36 -50 -58 -58 -95 -6 -27 -8 -69
-5 -94 3 -25 12 -58 20 -75 9 -16 33 -52 55 -78 41 -49 41 -49 34 -164 -4 -63
-14 -136 -22 -163 -8 -26 -21 -54 -30 -61 -11 -9 -45 -14 -101 -14 -85 0 -85
0 -107 70 -12 39 -34 88 -48 110 -14 23 -42 55 -62 72 -19 18 -51 35 -71 39
-19 3 -82 5 -140 2 -96 -3 -107 -6 -147 -34 -30 -21 -53 -49 -76 -94 -18 -36
-37 -93 -43 -127 -6 -34 -16 -66 -22 -71 -7 -5 -68 -15 -136 -21 -112 -10
-126 -14 -148 -37 -12 -14 -23 -36 -23 -50 0 -14 11 -36 25 -49 16 -17 35 -25
57 -25 18 0 78 5 132 10 67 7 103 6 111 0 7 -6 18 -31 24 -56 7 -26 25 -72 41
-104 16 -32 46 -72 67 -89 21 -17 55 -36 76 -42 26 -7 63 -6 120 1 45 6 98 16
117 21 19 6 44 18 55 27 11 10 32 33 46 52 15 19 36 63 48 98 11 34 21 81 21
105 0 24 6 50 13 59 8 11 36 17 91 21 47 3 89 1 105 -5 14 -6 46 -14 71 -17
45 -6 45 -6 48 -62 2 -39 -3 -72 -18 -108 -11 -28 -20 -73 -20 -99 0 -27 6
-55 13 -64 6 -9 34 -30 61 -47 44 -27 59 -31 122 -31 57 0 77 4 98 21 15 12
26 30 26 44 0 13 -16 43 -36 67 -21 23 -45 61 -55 83 -10 22 -19 61 -19 86 0
25 7 68 16 95 9 27 22 54 28 61 6 6 65 17 130 23 97 8 122 8 133 -2 10 -10 11
-28 4 -78 -5 -36 -19 -90 -30 -120 -11 -30 -20 -68 -21 -83 0 -16 10 -38 24
-52 15 -15 40 -25 72 -29 27 -4 71 -11 97 -16 27 -6 70 -10 96 -10 34 0 56 6
75 21 15 12 26 30 26 45 0 13 -9 33 -20 44 -10 10 -36 28 -57 39 -21 10 -49
31 -62 45 -16 17 -25 38 -25 59 0 17 9 58 19 90 10 33 25 61 32 64 8 3 36 -1
63 -10 26 -9 59 -13 72 -10 12 4 37 15 54 25 17 10 38 16 45 13 8 -3 22 -27
31 -53 10 -26 32 -69 49 -95 18 -27 50 -61 72 -75 33 -22 54 -28 117 -30 43
-2 103 1 135 8 41 9 68 22 97 48 21 19 47 49 55 66 9 17 24 58 32 91 14 52 21
62 54 79 21 11 40 30 43 43 4 13 0 33 -9 46 -8 13 -30 28 -49 33 -26 8 -38 20
-58 60 -14 28 -35 65 -48 82 -13 18 -44 44 -70 59 -41 24 -57 28 -132 28 -47
0 -102 -4 -124 -8 -24 -5 -55 -24 -86 -53 -26 -24 -54 -61 -63 -81 -8 -21 -22
-58 -29 -83 -8 -27 -19 -45 -28 -45 -8 0 -21 12 -28 27 -7 15 -18 92 -24 170
-6 86 -20 183 -35 243 -21 83 -26 123 -25 234 0 103 -3 142 -15 165 -8 17 -22
39 -31 48 -13 16 -13 24 6 80 11 35 23 97 27 138 4 47 3 91 -4 117 -6 22 -20
52 -32 67 -11 14 -35 34 -52 42 -17 9 -51 18 -76 19 -30 2 -59 -3 -85 -15z
m155 -33 c19 -12 42 -39 53 -60 16 -34 17 -48 7 -149 -6 -66 -17 -121 -26
-135 -9 -14 -25 -23 -40 -23 -23 0 -21 -4 24 -47 34 -34 53 -61 61 -92 8 -32
9 -55 0 -90 -7 -32 -8 -74 -1 -136 5 -49 17 -110 26 -135 9 -26 22 -119 30
-218 10 -122 20 -185 33 -215 18 -41 20 -43 59 -39 39 4 41 5 47 45 3 23 11
59 17 81 6 21 31 60 56 87 35 38 55 50 94 58 28 6 76 11 107 11 31 -1 74 -7
95 -14 21 -8 47 -22 57 -31 10 -9 30 -34 45 -55 15 -21 32 -60 39 -87 12 -48
12 -48 55 -48 29 0 47 -5 54 -16 6 -9 7 -24 4 -33 -5 -11 -19 -16 -52 -16 -44
0 -45 -1 -45 -32 0 -17 -7 -58 -16 -90 -11 -38 -30 -74 -56 -102 -31 -37 -48
-47 -91 -55 -28 -6 -81 -12 -117 -13 -45 -1 -77 4 -103 16 -20 10 -51 35 -67
56 -17 21 -39 58 -50 81 -11 24 -20 58 -20 76 0 30 -2 32 -42 35 -34 2 -47 -2
-71 -24 -20 -19 -40 -28 -62 -28 -23 0 -39 7 -49 22 -15 21 -16 21 -158 10
-79 -7 -195 -16 -258 -21 -63 -5 -159 -12 -212 -15 -54 -4 -98 -3 -98 1 0 5 4
14 9 21 5 9 59 18 157 27 82 8 205 17 274 20 69 3 158 8 198 11 49 4 72 10 69
17 -2 7 2 29 10 50 10 23 13 51 9 75 -3 20 -8 57 -11 82 -4 25 -8 55 -11 67
-2 13 -18 39 -35 58 -26 29 -33 48 -39 103 -4 37 -13 80 -19 95 -6 16 -11 46
-11 69 0 22 8 51 18 66 10 15 22 34 26 42 4 8 -7 -3 -26 -25 -18 -22 -44 -50
-57 -62 -13 -13 -37 -23 -52 -23 -18 0 -47 -14 -75 -36 -26 -19 -64 -44 -86
-55 -21 -11 -38 -22 -38 -24 0 -3 17 2 37 10 21 9 45 22 53 30 9 8 24 15 32
15 9 0 52 -35 95 -77 43 -43 97 -101 121 -130 33 -41 42 -60 42 -90 0 -21 -7
-81 -15 -133 -9 -52 -19 -98 -23 -102 -4 -4 -47 -11 -95 -14 -87 -7 -87 -7
-86 17 0 13 8 56 18 94 11 39 17 72 16 75 -2 3 -20 14 -40 24 -36 20 -36 20
-83 -3 -46 -23 -46 -23 -73 7 -15 17 -34 54 -43 84 -9 33 -30 69 -52 93 -29
32 -33 34 -19 11 10 -16 26 -43 35 -60 10 -17 21 -51 24 -76 5 -38 1 -56 -29
-118 -19 -41 -38 -91 -41 -111 -3 -21 -9 -43 -13 -48 -3 -6 -41 -15 -84 -20
-43 -5 -80 -7 -82 -4 -3 2 -5 25 -5 51 0 34 9 64 31 106 24 45 29 62 21 75 -8
12 -5 31 13 75 13 33 27 84 31 114 5 45 14 63 44 96 21 23 46 56 55 74 10 19
25 57 36 87 10 29 31 65 46 79 22 20 23 23 6 15 -12 -6 -31 -23 -42 -38 -12
-14 -24 -38 -28 -52 -3 -14 -16 -47 -29 -73 -13 -26 -41 -64 -63 -85 -34 -33
-39 -45 -44 -98 -4 -33 -19 -92 -35 -130 -16 -39 -37 -104 -46 -146 -11 -51
-14 -94 -10 -131 4 -31 4 -68 0 -83 -5 -18 -18 -31 -42 -41 -33 -14 -39 -14
-75 4 -34 17 -54 19 -149 14 -106 -5 -110 -4 -110 15 0 13 8 23 23 26 12 3 68
9 125 13 102 7 102 7 102 48 0 23 5 47 12 54 7 7 17 71 24 149 9 114 19 161
54 273 24 74 49 166 56 204 8 38 22 86 32 105 10 20 29 53 41 74 13 20 20 37
17 37 -3 0 -23 -27 -46 -60 -30 -44 -47 -84 -65 -157 -13 -54 -39 -149 -57
-212 -32 -114 -32 -114 -75 -65 -24 27 -50 68 -59 91 -12 30 -15 59 -11 93 3
28 16 69 29 91 14 25 41 51 67 67 25 14 73 51 108 82 35 31 76 76 92 101 15
24 39 54 52 66 13 12 56 36 96 52 39 17 101 35 137 40 36 5 70 12 76 16 6 4 9
44 8 104 -3 79 0 102 15 124 10 16 32 37 50 47 19 12 50 20 78 20 31 0 57 -7
80 -23z m-102 -785 c5 -9 12 -34 16 -55 4 -21 3 -37 -2 -37 -5 0 -28 16 -51
36 -23 19 -42 40 -42 45 0 5 10 14 23 19 12 5 27 9 34 9 7 1 17 -7 22 -17z
m-1085 -382 c25 -23 54 -65 69 -98 15 -32 32 -93 39 -135 9 -48 11 -111 7
-171 -5 -80 -11 -106 -38 -161 -25 -50 -41 -70 -74 -89 -30 -17 -71 -27 -142
-36 -69 -8 -108 -8 -126 -1 -15 5 -43 24 -62 41 -23 20 -46 57 -66 104 -17 40
-33 92 -37 114 -6 39 -9 42 -38 41 -17 0 -85 -6 -151 -13 -78 -8 -124 -9 -132
-3 -7 5 -13 24 -13 43 0 18 5 36 11 39 6 4 25 8 42 10 18 2 84 6 148 10 116 8
116 8 122 74 3 36 13 86 22 111 9 25 28 63 43 84 15 21 43 47 62 57 28 15 57
19 153 19 117 0 117 0 161 -40z m856 -13 c14 0 43 4 64 8 31 7 41 5 51 -9 10
-13 10 -29 0 -77 -7 -34 -18 -66 -24 -72 -6 -6 -55 -15 -109 -19 -56 -4 -101
-3 -106 2 -6 6 -5 25 2 49 7 21 24 60 38 85 20 36 30 45 43 40 9 -4 27 -7 41
-7z m274 -296 c-13 -33 -27 -79 -30 -103 -5 -35 -1 -50 18 -77 13 -20 50 -49
86 -69 35 -19 66 -41 69 -48 3 -8 0 -20 -6 -28 -7 -8 -26 -17 -44 -20 -18 -3
-50 -1 -72 4 -22 6 -76 15 -119 20 -44 5 -85 15 -92 22 -10 10 -10 25 -2 63 6
28 19 61 29 74 11 13 19 38 19 56 0 18 3 59 6 93 7 59 8 61 38 65 17 2 52 5
77 5 47 2 47 2 23 -57z m-474 22 c0 -5 -9 -35 -19 -68 -11 -34 -20 -79 -21
-100 -2 -22 1 -53 5 -70 4 -16 16 -46 25 -65 10 -19 34 -49 54 -67 20 -17 36
-38 36 -46 0 -8 -7 -20 -15 -27 -9 -7 -45 -13 -83 -14 -62 -1 -72 2 -125 37
-58 38 -58 38 -51 90 4 29 14 60 23 70 11 14 17 49 21 135 5 117 5 117 70 123
36 3 68 6 73 7 4 1 7 -1 7 -5z"/>
</g>

</svg>