<?xml version="1.0" encoding="UTF-8"?>
<svg xmlns="http://www.w3.org/2000/svg"
     width="683" height="384"
     viewBox="0 0 683 384">

  <g transform="translate(0.000000,384.000000) scale(0.100000,-0.100000)"
fill="black" stroke="none">
<path d="M1916 3605 c-22 -8 -48 -23 -59 -33 -10 -9 -28 -34 -38 -54 -10 -21
-19 -51 -19 -68 0 -18 8 -61 17 -96 13 -48 15 -69 7 -82 -9 -14 -31 -17 -132
-20 -106 -2 -127 0 -161 18 -22 11 -59 20 -81 20 -22 0 -57 -7 -77 -15 -19 -8
-50 -15 -69 -15 -31 0 -34 3 -44 43 -6 23 -16 58 -22 77 -5 19 -24 56 -40 81
-17 25 -46 56 -65 69 -25 17 -52 24 -107 28 -42 2 -88 0 -109 -7 -19 -7 -50
-27 -69 -45 -19 -19 -45 -55 -56 -80 -12 -25 -22 -56 -23 -68 0 -13 -8 -36
-18 -53 -17 -30 -19 -30 -114 -33 -91 -3 -97 -4 -117 -29 -15 -19 -19 -35 -15
-53 3 -14 15 -33 27 -42 16 -14 39 -18 113 -18 92 0 93 0 103 -27 6 -16 18
-54 26 -85 9 -31 31 -76 49 -99 18 -24 48 -52 67 -63 26 -15 53 -21 100 -21
36 0 82 4 102 8 21 4 51 19 68 34 17 14 42 48 56 75 14 27 32 80 40 118 10 42
22 71 31 75 9 3 24 3 34 0 11 -4 22 -18 25 -32 4 -14 2 -39 -4 -57 -5 -17 -20
-57 -31 -88 -14 -38 -21 -81 -21 -128 0 -44 6 -82 15 -100 9 -17 27 -33 41
-36 14 -4 52 -4 85 0 32 3 59 4 59 1 0 -2 -21 -28 -46 -57 -26 -28 -56 -72
-67 -96 -14 -32 -18 -60 -15 -96 2 -29 13 -69 24 -91 11 -24 43 -58 78 -84 59
-45 59 -45 52 -148 -3 -57 -11 -125 -17 -151 -7 -26 -15 -51 -19 -57 -4 -5
-13 -34 -20 -63 -7 -29 -9 -67 -6 -86 3 -18 20 -46 37 -62 29 -28 35 -29 114
-28 68 0 89 4 105 19 17 15 20 27 15 52 -3 19 -14 48 -24 66 -11 18 -22 59
-25 92 -4 41 -2 76 8 109 8 27 31 72 50 101 19 29 42 69 50 89 8 20 23 39 32
43 9 3 59 -2 111 -12 88 -17 96 -18 129 -2 19 9 38 17 43 17 4 0 5 -21 0 -47
-4 -27 -17 -73 -28 -103 -11 -30 -39 -81 -61 -114 -34 -50 -40 -67 -40 -110 0
-29 6 -61 14 -71 10 -14 33 -20 107 -26 52 -5 128 -12 170 -15 42 -4 88 -4
102 0 14 3 33 13 41 22 9 8 16 26 16 38 0 12 -10 31 -22 42 -13 10 -44 30 -70
42 -25 13 -56 33 -67 43 -12 11 -21 32 -21 49 0 20 23 64 74 137 40 59 82 126
94 149 11 22 30 70 42 107 14 44 19 77 15 98 -4 17 -20 46 -36 64 -18 20 -49
40 -77 49 -26 8 -74 20 -106 25 -33 6 -88 11 -123 11 -48 0 -63 3 -63 14 0 8
10 27 23 41 13 15 36 28 57 31 19 3 53 17 75 32 22 15 57 50 77 77 21 28 62
98 92 157 54 108 54 108 75 40 11 -38 34 -87 50 -109 17 -23 50 -53 73 -67 24
-14 68 -28 99 -32 31 -4 80 -1 113 6 49 10 67 20 105 59 35 34 52 63 68 111
12 36 27 68 35 71 7 4 32 12 55 18 32 9 44 18 49 36 3 14 3 36 0 49 -3 13 -18
28 -33 34 -16 6 -39 12 -52 14 -21 2 -28 13 -42 60 -9 32 -29 78 -43 102 -17
29 -44 56 -73 73 -39 22 -61 28 -132 31 -75 3 -92 0 -131 -20 -26 -13 -61 -44
-83 -73 -20 -27 -44 -74 -53 -102 -8 -29 -20 -56 -26 -59 -5 -4 -34 2 -64 12
-48 16 -58 17 -87 4 -17 -7 -54 -14 -82 -14 -49 -1 -49 -1 -50 119 0 109 -2
124 -25 164 -14 24 -37 53 -52 64 -15 11 -47 21 -75 23 -27 2 -65 -3 -87 -11z
m153 -40 c16 -14 37 -46 46 -70 14 -34 16 -66 13 -141 -4 -92 -6 -98 -32 -119
-21 -17 -26 -28 -22 -43 4 -11 24 -27 45 -36 21 -8 49 -28 61 -43 19 -24 22
-37 18 -88 -3 -33 -2 -76 2 -95 7 -34 7 -33 9 13 1 42 6 51 42 84 22 20 44 44
49 53 6 12 3 26 -13 49 -21 31 -26 33 -96 37 -41 3 -81 10 -88 16 -7 6 -13 14
-13 19 0 5 41 9 90 9 76 0 93 3 109 19 16 16 26 18 52 11 17 -5 39 -16 49 -25
9 -8 31 -15 48 -15 26 0 33 5 37 28 3 15 10 43 16 64 5 20 24 58 42 84 17 27
48 59 67 72 32 22 43 23 126 20 80 -3 97 -7 131 -31 21 -14 46 -40 56 -56 10
-17 24 -52 32 -78 8 -26 15 -60 15 -75 0 -26 2 -27 63 -30 62 -3 62 -3 62 -38
0 -35 0 -35 -62 -34 -58 1 -63 -1 -63 -20 0 -12 -7 -42 -14 -67 -8 -26 -21
-60 -30 -77 -8 -16 -29 -41 -45 -55 -17 -14 -47 -31 -67 -37 -20 -7 -67 -10
-104 -8 -57 3 -77 9 -112 33 -30 21 -53 49 -75 93 -17 34 -35 87 -38 117 -7
55 -7 55 -51 55 -43 0 -43 0 -33 -27 8 -21 5 -37 -11 -75 -12 -27 -42 -84 -66
-126 -25 -42 -55 -88 -67 -101 -12 -13 -39 -34 -59 -47 -21 -13 -47 -24 -58
-24 -11 0 -20 3 -20 8 0 4 11 29 25 56 14 27 25 61 24 75 0 20 -5 13 -19 -25
-10 -28 -31 -70 -46 -94 -16 -23 -37 -57 -48 -74 -10 -17 -39 -61 -64 -98 -24
-37 -51 -69 -58 -72 -8 -3 -14 -11 -14 -18 1 -7 23 11 50 41 49 53 49 53 137
58 60 4 113 0 166 -11 42 -8 92 -23 109 -32 17 -9 40 -26 50 -38 9 -11 17 -36
18 -55 0 -19 -17 -73 -37 -120 -20 -47 -52 -108 -72 -136 -19 -27 -51 -72 -70
-100 -20 -27 -42 -62 -48 -76 -7 -17 -8 -40 -3 -64 4 -20 10 -38 12 -39 1 -1
23 -14 47 -30 24 -15 59 -33 79 -40 20 -7 42 -22 50 -34 12 -18 11 -22 -9 -32
-12 -7 -54 -12 -93 -11 -39 0 -87 5 -106 11 -19 5 -66 10 -105 10 -38 0 -76 4
-84 9 -10 7 -12 21 -6 56 3 27 11 59 16 72 5 13 13 22 19 18 5 -3 25 27 43 67
19 40 39 89 45 108 5 19 13 55 17 80 3 25 17 64 31 87 14 25 41 51 62 63 20
10 30 19 22 19 -8 1 -38 -10 -67 -23 -28 -13 -74 -48 -102 -76 -41 -43 -54
-51 -73 -46 -13 4 -52 13 -88 21 -36 8 -77 15 -92 15 -15 0 -29 4 -33 9 -3 6
10 40 30 76 19 37 35 81 35 99 0 19 -9 45 -20 58 -10 14 -42 35 -69 47 -28 12
-72 23 -98 26 -48 4 -48 4 2 -9 28 -8 64 -19 80 -25 17 -7 40 -22 52 -33 13
-12 25 -35 29 -53 4 -22 -3 -51 -24 -101 -16 -38 -37 -94 -46 -125 -9 -31 -34
-83 -56 -115 -22 -33 -47 -81 -55 -109 -11 -36 -14 -70 -9 -123 5 -53 14 -83
30 -108 13 -19 26 -45 30 -58 5 -20 1 -24 -27 -30 -17 -3 -57 -6 -89 -6 -42 0
-64 5 -81 19 -21 17 -24 28 -24 83 0 42 6 73 17 89 8 14 21 50 27 81 7 31 16
112 20 181 8 114 11 131 40 184 32 58 32 58 1 24 -16 -19 -35 -50 -41 -68 -6
-18 -14 -33 -17 -33 -4 0 -32 20 -63 44 -40 33 -59 55 -67 84 -7 22 -12 56
-12 76 0 20 6 52 14 70 8 19 33 54 55 77 23 24 59 67 80 94 21 28 42 61 46 75
4 14 25 45 46 70 21 24 37 46 35 47 -2 2 -34 -27 -72 -64 -38 -38 -95 -81
-127 -97 -44 -22 -65 -27 -91 -22 -19 4 -40 14 -47 22 -9 11 -13 41 -11 90 1
41 9 93 18 117 8 23 24 69 35 101 18 53 18 61 4 82 -8 13 -15 26 -15 29 0 3
26 5 58 5 31 0 63 4 69 8 7 4 -44 6 -113 4 -126 -4 -126 -4 -122 19 3 21 8 24
48 24 27 0 56 7 72 18 17 12 48 20 78 20 41 2 52 -2 65 -20 15 -22 23 -23 143
-23 127 -1 127 -1 92 -19 -23 -13 -64 -21 -122 -24 -83 -4 -88 -6 -113 -36
-15 -17 -33 -57 -41 -89 -7 -31 -13 -86 -13 -122 0 -45 3 -59 9 -45 5 11 9 39
9 62 1 32 6 45 21 53 11 6 27 25 36 43 9 18 28 45 43 60 14 16 38 35 53 43 15
8 34 14 42 14 7 0 53 18 100 40 68 32 87 45 92 66 4 17 -1 45 -15 78 -11 28
-21 72 -21 97 0 31 7 57 23 80 12 19 38 42 57 51 19 10 56 18 82 18 35 0 54
-6 77 -25z m-959 -53 c22 -11 47 -37 67 -71 18 -29 39 -84 47 -122 9 -37 16
-96 16 -131 0 -35 -7 -92 -15 -127 -9 -35 -28 -86 -43 -112 -17 -32 -39 -55
-62 -66 -19 -9 -58 -19 -87 -21 -29 -2 -68 -1 -87 2 -20 4 -50 19 -67 33 -18
15 -45 54 -60 87 -16 33 -31 86 -35 118 -7 58 -7 58 -131 58 -124 0 -124 0
-121 38 3 37 3 37 126 40 122 3 122 3 122 35 0 19 7 56 15 83 8 27 27 69 43
95 16 25 44 53 63 62 22 11 59 17 104 17 47 0 82 -6 105 -18z m1144 -405 c8
-12 7 -20 -2 -29 -10 -10 -15 -10 -22 2 -5 8 -10 23 -10 33 0 10 5 17 12 15 6
-2 16 -12 22 -21z"/>
</g>

</svg>