<?xml version="1.0" encoding="UTF-8"?>
<svg xmlns="http://www.w3.org/2000/svg"
     width="683" height="384"
     viewBox="0 0 683 384">

  <g transform="translate(0.000000,384.000000) scale(0.100000,-0.100000)"
fill="black" stroke="none">
<path d="M3540 3601 c-19 -4 -55 -18 -79 -31 -26 -16 -61 -50 -92 -92 -31 -43
-58 -70 -75 -74 -17 -4 -46 3 -93 25 -64 29 -74 31 -189 31 -99 0 -132 -4
-179 -21 -32 -12 -76 -34 -98 -49 -22 -15 -74 -42 -115 -61 -41 -18 -121 -57
-177 -86 -61 -32 -115 -53 -134 -53 -18 0 -61 5 -96 11 -49 9 -79 8 -126 -1
-34 -6 -80 -21 -102 -32 -22 -11 -69 -42 -105 -68 -36 -27 -78 -63 -95 -80
-16 -18 -66 -49 -110 -70 -44 -20 -111 -59 -150 -85 -38 -26 -85 -55 -105 -63
-24 -11 -76 -16 -170 -17 -134 -2 -136 -3 -235 -44 -55 -23 -109 -46 -120 -51
-11 -5 -43 -14 -72 -20 -29 -7 -70 -9 -91 -5 -21 3 -69 1 -107 -5 -57 -8 -75
-16 -98 -40 -18 -20 -27 -41 -27 -63 0 -18 5 -48 11 -67 6 -19 14 -81 18 -136
6 -90 10 -106 34 -138 16 -20 41 -43 57 -51 16 -9 50 -18 74 -21 33 -5 55 -1
88 14 24 11 64 22 90 25 27 2 55 10 63 17 8 7 15 26 15 42 0 16 -7 43 -16 60
-10 20 -14 42 -9 64 3 18 20 49 38 67 32 34 32 34 157 42 69 5 139 8 155 8 17
0 71 -2 120 -3 50 -2 104 0 121 4 26 6 37 2 73 -29 26 -21 54 -35 69 -35 15 0
45 7 67 15 28 10 63 12 115 9 68 -5 82 -3 150 26 41 17 110 43 154 58 63 21
90 37 141 83 35 31 78 61 96 67 19 6 53 14 76 17 40 6 44 5 53 -20 5 -14 16
-57 24 -94 8 -37 27 -94 43 -127 16 -32 58 -111 92 -174 35 -63 77 -134 94
-157 20 -28 44 -48 71 -58 31 -12 85 -17 216 -18 96 -1 187 1 202 6 15 4 32
16 38 28 9 15 8 26 -3 42 -8 12 -36 32 -63 44 -27 11 -62 26 -78 32 -16 7 -26
14 -23 17 3 3 21 8 39 10 18 3 74 6 125 7 70 2 96 6 109 18 11 11 14 24 9 39
-4 13 -24 30 -48 40 -23 10 -84 26 -136 36 -70 13 -96 23 -107 38 -7 12 -20
61 -29 110 -8 49 -15 130 -15 181 0 82 3 98 30 151 17 32 63 94 103 137 74 77
74 77 130 77 47 0 60 -4 79 -24 13 -14 35 -29 49 -34 18 -8 38 -5 75 8 27 10
70 27 96 38 32 14 52 31 64 54 9 18 39 57 65 86 27 30 49 62 49 72 0 10 5 22
11 26 8 4 10 28 6 68 -3 33 -15 80 -26 103 -12 24 -38 59 -58 79 -20 20 -50
42 -67 49 -17 7 -47 15 -66 18 -19 2 -51 2 -70 -2z m140 -51 c21 -11 52 -39
68 -62 16 -24 34 -58 40 -77 7 -19 12 -51 12 -72 0 -21 -5 -50 -10 -64 -6 -15
-17 -33 -25 -41 -8 -8 -18 -20 -22 -27 -5 -7 -20 -20 -35 -29 -16 -11 -29 -31
-33 -50 -4 -18 -12 -39 -18 -46 -5 -7 -18 -10 -27 -7 -9 3 -43 -8 -75 -25 -31
-16 -66 -30 -76 -30 -10 0 -29 15 -41 35 -13 19 -28 36 -33 39 -6 2 -43 0 -84
-3 -65 -6 -76 -10 -95 -35 -12 -15 -47 -56 -78 -90 -32 -35 -55 -65 -52 -69 3
-3 -8 -26 -26 -51 -33 -45 -33 -45 -28 -183 3 -76 13 -169 22 -208 9 -38 20
-76 25 -84 5 -7 46 -20 92 -28 46 -8 114 -23 152 -35 45 -13 67 -25 67 -35 0
-14 -10 -15 -67 -9 -38 3 -81 9 -96 12 -21 5 -27 3 -25 -7 2 -9 -6 -14 -24
-13 -16 0 -53 1 -83 2 -45 2 -60 7 -78 26 -12 13 -46 77 -76 142 -29 66 -62
144 -73 174 -10 30 -22 83 -25 116 -5 57 -4 63 18 76 13 9 50 21 81 27 32 7
75 25 98 42 23 17 40 32 38 34 -2 2 -34 -12 -72 -31 -38 -19 -80 -34 -93 -34
-24 0 -25 1 -9 23 8 12 31 49 50 82 25 44 44 64 67 72 18 7 30 15 27 18 -3 3
-26 -3 -51 -14 -25 -11 -48 -28 -52 -40 -3 -11 -27 -53 -54 -93 -26 -40 -64
-86 -85 -101 -25 -20 -35 -34 -31 -46 3 -10 10 -73 15 -142 5 -68 20 -165 34
-216 13 -51 32 -107 43 -125 18 -32 23 -33 109 -44 49 -6 118 -21 154 -34 36
-12 81 -31 102 -41 20 -10 39 -23 42 -28 4 -5 1 -13 -5 -17 -6 -4 -37 -8 -68
-9 -31 -1 -63 -5 -73 -9 -9 -4 -42 -3 -74 3 -32 6 -91 11 -131 11 -46 0 -85 6
-102 15 -19 9 -50 50 -90 120 -34 58 -86 152 -115 208 -30 60 -58 129 -65 167
-7 36 -19 89 -26 118 -13 53 -13 53 66 220 78 162 83 169 165 249 46 44 84 87
83 95 0 7 -7 3 -16 -10 -9 -13 -40 -39 -70 -59 -29 -19 -67 -51 -83 -71 -16
-20 -36 -50 -44 -67 -7 -16 -41 -89 -76 -162 -39 -84 -59 -139 -56 -151 6 -17
-2 -21 -71 -32 -42 -6 -86 -17 -98 -22 -13 -6 -39 -30 -59 -54 -21 -24 -54
-53 -74 -63 -20 -10 -53 -22 -72 -26 -19 -4 -62 -20 -95 -35 -33 -15 -84 -35
-112 -44 -29 -10 -63 -16 -75 -14 -13 2 -23 8 -23 13 0 6 32 27 70 48 39 21
59 35 45 31 -14 -3 -59 -22 -100 -41 -41 -20 -99 -44 -128 -54 -42 -14 -58
-16 -77 -7 -14 6 -33 26 -44 44 -19 32 -19 32 -86 18 -52 -11 -86 -12 -156 -4
-50 6 -94 8 -99 5 -5 -3 -91 -9 -192 -13 -125 -6 -193 -13 -213 -23 -16 -8
-31 -23 -34 -34 -2 -11 -12 -26 -22 -32 -9 -7 -25 -38 -34 -69 -16 -57 -16
-57 14 -94 27 -34 29 -39 15 -59 -12 -16 -25 -21 -62 -21 -26 0 -63 8 -82 18
-19 9 -45 32 -57 51 -19 28 -23 48 -23 115 0 45 -7 99 -15 121 -8 22 -14 56
-15 76 0 19 6 43 13 53 9 12 34 20 79 26 37 4 71 11 77 14 5 4 12 2 16 -4 3
-5 25 -10 48 -10 23 0 85 15 137 34 52 18 124 46 160 62 60 26 74 28 200 29
98 1 145 5 170 17 19 8 71 39 115 69 44 30 112 68 150 84 50 20 85 44 120 80
28 28 79 71 114 95 36 24 91 52 124 62 32 10 74 18 92 18 19 0 66 -7 105 -15
68 -14 74 -14 116 5 25 10 57 28 72 38 15 10 77 41 137 67 61 27 129 62 153
78 24 16 70 40 103 53 51 21 75 24 182 24 121 0 124 -1 192 -35 38 -20 76 -33
86 -30 9 3 29 15 43 26 14 11 42 45 62 74 19 30 51 64 70 76 19 11 47 25 62
30 15 4 46 6 70 4 23 -3 60 -14 82 -25z m-754 -1135 c35 -71 71 -140 80 -152
16 -23 16 -23 -35 -23 -43 0 -53 4 -68 26 -9 14 -27 65 -40 113 -13 50 -23
113 -22 151 0 56 2 62 12 40 6 -14 39 -83 73 -155z m-1976 51 c0 -8 -9 -20
-20 -27 -12 -8 -27 -36 -34 -66 -14 -51 -13 -54 10 -89 14 -20 24 -44 22 -53
-2 -12 -16 -17 -52 -19 -35 -2 -53 2 -68 15 -12 10 -26 31 -33 47 -9 20 -9 39
-2 67 5 22 20 49 33 62 13 12 24 29 24 38 0 9 12 21 28 27 15 6 38 13 52 15
14 1 28 1 33 -1 4 -2 7 -9 7 -16z"/>
</g>

</svg>